<?xml version="1.0" standalone="no"?>
<!DOCTYPE svg PUBLIC "-//W3C//DTD SVG 1.1//EN" "http://www.w3.org/Graphics/SVG/1.1/DTD/svg11.dtd" >
<svg xmlns="http://www.w3.org/2000/svg" xmlns:xlink="http://www.w3.org/1999/xlink" version="1.1">
<metadata>
Created by FontForge 20201107 at Sat Nov 27 02:42:55 2021
 By 
Copyright 2004-2021 The Oooh Baby Project Authors (https://github.com/googlefonts/oooh-baby)
</metadata>
<defs>
<font id="OoohBaby-Regular" horiz-adv-x="0" >
  <font-face 
    font-family="Oooh Baby"
    font-weight="400"
    font-stretch="normal"
    units-per-em="1000"
    panose-1="0 0 0 0 0 0 0 0 0 0"
    ascent="800"
    descent="-200"
    x-height="350"
    cap-height="648"
    bbox="-331 -351 1545 1007"
    underline-thickness="50"
    underline-position="-125"
    unicode-range="U+000D-FB02"
  />
<missing-glyph horiz-adv-x="500" 
d="M63 15v721h375v-721h-375zM252 443l109 231h-218zM125 175l100 211l-100 211v-422zM375 184v404l-96 -202zM133 78h238l-119 251z" />
    <glyph glyph-name="fi" unicode="fi" horiz-adv-x="576" 
d="M-3 -330q-32 0 -45.5 21.5t-13.5 57.5q0 82 77 253q-4 4 -4 10q0 10 18 20q53 107 98.5 189.5t82.5 140.5q124 190 223 263q13 10 25 16t24 6q16 0 16 -13q0 -7 -5.5 -14.5t-18.5 -23.5q-15 -17 -35 -39.5t-41.5 -46.5t-39.5 -43.5t-29 -30.5l-92 -95l-32 -51
q-13 -20 -31.5 -54.5t-43.5 -81.5q-10 -19 -25.5 -49t-35.5 -71q8 -1 14.5 -3.5t12.5 -5.5q137 42 259 148q7 5 12 5q17 0 17 -15q0 -4 -2.5 -8t-5.5 -8q-15 -16 -43 -37t-70 -45q-36 -20 -69.5 -36.5t-64.5 -27.5q28 -34 28 -87q0 -73 -43 -152q-50 -92 -117 -92zM-9 -300
q29 0 55.5 24t45.5 62q14 27 23.5 64.5t9.5 65.5q0 56 -34 75q-13 -2 -24 -3.5t-21 -0.5v-1q-84 -187 -84 -256q0 -15 8 -22.5t21 -7.5zM607 394q-17 0 -17 17q0 5 7 18.5t16 27.5t14 19q17 19 26.5 24t17.5 5q21 0 21 -19q0 -7 -8.5 -16.5t-19.5 -17.5q-16 -10 -20 -16
l-22 -31q-1 -4 -4.5 -7.5t-10.5 -3.5zM437 -11q-28 0 -40.5 11t-12.5 33q0 21 13 57.5t33.5 78.5t43.5 80t44.5 62.5t34.5 24.5q18 0 18 -16q0 -10 -17 -38t-37 -58q-8 -11 -22 -30t-27 -35.5t-17 -22.5q-10 -15 -21 -49q-12 -34 -12 -52q0 -8 3.5 -12t16.5 -4q25 0 56 16
t63 40.5t60.5 50.5t48.5 45q4 4 12 4q15 0 15 -12q0 -11 -14 -25q-27 -27 -50 -48t-44 -37q-33 -24 -73 -44t-75 -20z" />
    <glyph glyph-name="fl" unicode="fl" horiz-adv-x="585" 
d="M-3 -330q-32 0 -45.5 21.5t-13.5 57.5q0 82 77 253q-4 4 -4 10q0 10 18 20q53 107 98.5 189.5t82.5 140.5q124 190 223 263q13 10 25 16t24 6q16 0 16 -13q0 -7 -5.5 -14.5t-18.5 -23.5q-15 -17 -35 -39.5t-41.5 -46.5t-39.5 -43.5t-29 -30.5l-92 -95l-32 -51
q-13 -20 -31.5 -54.5t-43.5 -81.5q-10 -19 -25.5 -49t-35.5 -71q8 -1 14.5 -3.5t12.5 -5.5q137 42 259 148q7 5 12 5q17 0 17 -15q0 -4 -2.5 -8t-5.5 -8q-15 -16 -43 -37t-70 -45q-36 -20 -69.5 -36.5t-64.5 -27.5q28 -34 28 -87q0 -73 -43 -152q-50 -92 -117 -92zM-9 -300
q29 0 55.5 24t45.5 62q14 27 23.5 64.5t9.5 65.5q0 56 -34 75q-13 -2 -24 -3.5t-21 -0.5v-1q-84 -187 -84 -256q0 -15 8 -22.5t21 -7.5zM501 -27q-46 0 -70.5 28.5t-24.5 75.5q0 34 12 82q21 81 71 188q39 81 84 159.5t99 154.5q86 122 120 122q22 0 22 -12q0 -17 -56 -85
l-70 -85q-91 -110 -148.5 -225t-89.5 -230q-9 -33 -9 -62q0 -76 62 -76q22 0 45 13q23 12 25 12q12 0 12 -17q0 -15 -11 -23q-34 -20 -73 -20z" />
    <glyph glyph-name="f_f" unicode="ff" horiz-adv-x="664" 
d="M-3 -330q-32 0 -45.5 21.5t-13.5 57.5q0 82 77 253q-4 4 -4 10q0 10 18 20q53 107 98.5 189.5t82.5 140.5q124 190 223 263q13 10 25 16t24 6q16 0 16 -13q0 -7 -5.5 -14.5t-18.5 -23.5q-15 -17 -35 -39.5t-41.5 -46.5t-39.5 -43.5t-29 -30.5l-92 -95l-32 -51
q-13 -20 -31.5 -54.5t-43.5 -81.5q-10 -19 -25.5 -49t-35.5 -71q8 -1 14.5 -3.5t12.5 -5.5q137 42 259 148q7 5 12 5q17 0 17 -15q0 -4 -2.5 -8t-5.5 -8q-15 -16 -43 -37t-70 -45q-36 -20 -69.5 -36.5t-64.5 -27.5q28 -34 28 -87q0 -73 -43 -152q-50 -92 -117 -92zM-9 -300
q29 0 55.5 24t45.5 62q14 27 23.5 64.5t9.5 65.5q0 56 -34 75q-13 -2 -24 -3.5t-21 -0.5v-1q-84 -187 -84 -256q0 -15 8 -22.5t21 -7.5zM329 -330q-32 0 -45.5 21.5t-13.5 57.5q0 82 77 253q-4 4 -4 10q0 10 18 20q53 107 98.5 189.5t82.5 140.5q124 190 223 263
q13 10 25 16t24 6q16 0 16 -13q0 -7 -5.5 -14.5t-18.5 -23.5q-15 -17 -35 -39.5t-41.5 -46.5t-39.5 -43.5t-29 -30.5l-92 -95l-32 -51q-13 -20 -31.5 -54.5t-43.5 -81.5q-10 -19 -25.5 -49t-35.5 -71q8 -1 14.5 -3.5t12.5 -5.5q137 42 259 148q7 5 12 5q17 0 17 -15
q0 -4 -2.5 -8t-5.5 -8q-15 -16 -43 -37t-70 -45q-36 -20 -69.5 -36.5t-64.5 -27.5q28 -34 28 -87q0 -73 -43 -152q-50 -92 -117 -92zM323 -300q29 0 55.5 24t45.5 62q14 27 23.5 64.5t9.5 65.5q0 56 -34 75q-13 -2 -24 -3.5t-21 -0.5v-1q-84 -187 -84 -256q0 -15 8 -22.5
t21 -7.5z" />
    <glyph glyph-name="f_f_i" unicode="ffi" horiz-adv-x="908" 
d="M-3 -330q-32 0 -45.5 21.5t-13.5 57.5q0 82 77 253q-4 4 -4 10q0 10 18 20q53 107 98.5 189.5t82.5 140.5q124 190 223 263q13 10 25 16t24 6q16 0 16 -13q0 -7 -5.5 -14.5t-18.5 -23.5q-15 -17 -35 -39.5t-41.5 -46.5t-39.5 -43.5t-29 -30.5l-92 -95l-32 -51
q-13 -20 -31.5 -54.5t-43.5 -81.5q-10 -19 -25.5 -49t-35.5 -71q8 -1 14.5 -3.5t12.5 -5.5q137 42 259 148q7 5 12 5q17 0 17 -15q0 -4 -2.5 -8t-5.5 -8q-15 -16 -43 -37t-70 -45q-36 -20 -69.5 -36.5t-64.5 -27.5q28 -34 28 -87q0 -73 -43 -152q-50 -92 -117 -92zM-9 -300
q29 0 55.5 24t45.5 62q14 27 23.5 64.5t9.5 65.5q0 56 -34 75q-13 -2 -24 -3.5t-21 -0.5v-1q-84 -187 -84 -256q0 -15 8 -22.5t21 -7.5zM329 -330q-32 0 -45.5 21.5t-13.5 57.5q0 82 77 253q-4 4 -4 10q0 10 18 20q53 107 98.5 189.5t82.5 140.5q124 190 223 263
q13 10 25 16t24 6q16 0 16 -13q0 -7 -5.5 -14.5t-18.5 -23.5q-15 -17 -35 -39.5t-41.5 -46.5t-39.5 -43.5t-29 -30.5l-92 -95l-32 -51q-13 -20 -31.5 -54.5t-43.5 -81.5q-10 -19 -25.5 -49t-35.5 -71q8 -1 14.5 -3.5t12.5 -5.5q137 42 259 148q7 5 12 5q17 0 17 -15
q0 -4 -2.5 -8t-5.5 -8q-15 -16 -43 -37t-70 -45q-36 -20 -69.5 -36.5t-64.5 -27.5q28 -34 28 -87q0 -73 -43 -152q-50 -92 -117 -92zM323 -300q29 0 55.5 24t45.5 62q14 27 23.5 64.5t9.5 65.5q0 56 -34 75q-13 -2 -24 -3.5t-21 -0.5v-1q-84 -187 -84 -256q0 -15 8 -22.5
t21 -7.5zM939 394q-17 0 -17 17q0 5 7 18.5t16 27.5t14 19q17 19 26.5 24t17.5 5q21 0 21 -19q0 -7 -8.5 -16.5t-19.5 -17.5q-16 -10 -20 -16l-22 -31q-1 -4 -4.5 -7.5t-10.5 -3.5zM769 -11q-28 0 -40.5 11t-12.5 33q0 21 13 57.5t33.5 78.5t43.5 80t44.5 62.5t34.5 24.5
q18 0 18 -16q0 -10 -17 -38t-37 -58q-8 -11 -22 -30t-27 -35.5t-17 -22.5q-10 -15 -21 -49q-12 -34 -12 -52q0 -8 3.5 -12t16.5 -4q25 0 56 16t63 40.5t60.5 50.5t48.5 45q4 4 12 4q15 0 15 -12q0 -11 -14 -25q-27 -27 -50 -48t-44 -37q-33 -24 -73 -44t-75 -20z" />
    <glyph glyph-name="f_f_l" unicode="ffl" horiz-adv-x="917" 
d="M-3 -330q-32 0 -45.5 21.5t-13.5 57.5q0 82 77 253q-4 4 -4 10q0 10 18 20q53 107 98.5 189.5t82.5 140.5q124 190 223 263q13 10 25 16t24 6q16 0 16 -13q0 -7 -5.5 -14.5t-18.5 -23.5q-15 -17 -35 -39.5t-41.5 -46.5t-39.5 -43.5t-29 -30.5l-92 -95l-32 -51
q-13 -20 -31.5 -54.5t-43.5 -81.5q-10 -19 -25.5 -49t-35.5 -71q8 -1 14.5 -3.5t12.5 -5.5q137 42 259 148q7 5 12 5q17 0 17 -15q0 -4 -2.5 -8t-5.5 -8q-15 -16 -43 -37t-70 -45q-36 -20 -69.5 -36.5t-64.5 -27.5q28 -34 28 -87q0 -73 -43 -152q-50 -92 -117 -92zM-9 -300
q29 0 55.5 24t45.5 62q14 27 23.5 64.5t9.5 65.5q0 56 -34 75q-13 -2 -24 -3.5t-21 -0.5v-1q-84 -187 -84 -256q0 -15 8 -22.5t21 -7.5zM329 -330q-32 0 -45.5 21.5t-13.5 57.5q0 82 77 253q-4 4 -4 10q0 10 18 20q53 107 98.5 189.5t82.5 140.5q124 190 223 263
q13 10 25 16t24 6q16 0 16 -13q0 -7 -5.5 -14.5t-18.5 -23.5q-15 -17 -35 -39.5t-41.5 -46.5t-39.5 -43.5t-29 -30.5l-92 -95l-32 -51q-13 -20 -31.5 -54.5t-43.5 -81.5q-10 -19 -25.5 -49t-35.5 -71q8 -1 14.5 -3.5t12.5 -5.5q137 42 259 148q7 5 12 5q17 0 17 -15
q0 -4 -2.5 -8t-5.5 -8q-15 -16 -43 -37t-70 -45q-36 -20 -69.5 -36.5t-64.5 -27.5q28 -34 28 -87q0 -73 -43 -152q-50 -92 -117 -92zM323 -300q29 0 55.5 24t45.5 62q14 27 23.5 64.5t9.5 65.5q0 56 -34 75q-13 -2 -24 -3.5t-21 -0.5v-1q-84 -187 -84 -256q0 -15 8 -22.5
t21 -7.5zM833 -27q-46 0 -70.5 28.5t-24.5 75.5q0 34 12 82q21 81 71 188q39 81 84 159.5t99 154.5q86 122 120 122q22 0 22 -12q0 -17 -56 -85l-70 -85q-91 -110 -148.5 -225t-89.5 -230q-9 -33 -9 -62q0 -76 62 -76q22 0 45 13q23 12 25 12q12 0 12 -17q0 -15 -11 -23
q-34 -20 -73 -20z" />
    <glyph glyph-name=".notdef" horiz-adv-x="500" 
d="M63 15v721h375v-721h-375zM252 443l109 231h-218zM125 175l100 211l-100 211v-422zM375 184v404l-96 -202zM133 78h238l-119 251z" />
    <glyph glyph-name=".null" 
 />
    <glyph glyph-name=".null" 
 />
    <glyph glyph-name="nonmarkingreturn" horiz-adv-x="333" 
 />
    <glyph glyph-name="CR" unicode="&#xd;" horiz-adv-x="284" 
 />
    <glyph glyph-name="space" unicode=" " horiz-adv-x="284" 
 />
    <glyph glyph-name="exclam" unicode="!" horiz-adv-x="247" 
d="M121 134q-16 0 -16 16q0 26 51 105l69 102l57 82q19 29 30 50.5t13 35.5l4 26q5 17 16 17q17 0 17 -18q0 -33 -44 -109q-5 -9 -18.5 -30t-42.5 -63.5t-80 -117.5q-5 -7 -11.5 -18t-14.5 -25q-4 -9 -7 -18t-6 -17q-4 -18 -17 -18zM86 -8q-26 0 -26 25q0 27 25 27
q26 0 26 -25q0 -27 -25 -27z" />
    <glyph glyph-name="quotedbl" unicode="&#x22;" horiz-adv-x="419" 
d="M347 486q-17 0 -17 14q0 6 5 11q13 14 31.5 35.5t41.5 51.5q35 59 35 81q0 6 -7 19q-12 8 -12 23q0 32 29 32q33 0 33 -47q0 -39 -51 -128q-53 -92 -88 -92zM169 486q-17 0 -17 14q0 3 5 11q13 14 31.5 35.5t41.5 51.5q36 59 36 83q0 4 -8 17q-11 8 -11 23q0 32 29 32
q26 0 32 -32h-1q1 -3 1 -15q0 -51 -43 -118q-40 -64 -84 -98q-4 -4 -12 -4z" />
    <glyph glyph-name="numbersign" unicode="#" horiz-adv-x="914" 
d="M339 39q-12 0 -12 6t1 8q1 8 4 17.5t7 22.5l14 39q14 49 24 98t16 98l-131 -7q-40 -2 -72.5 -3t-57.5 -1q-12 0 -12 17t13 20q18 5 264 9q2 25 3.5 54.5t1.5 64.5v46q-76 -2 -144.5 -3.5t-129.5 -1.5q-10 0 -10 13q0 23 17 23h155t110 1q-1 10 -3.5 30t-7.5 51
q-4 27 -6 45t-2 28q0 18 23 18q12 0 13 -9q2 -15 4 -35t3 -46q2 -36 2.5 -56t1.5 -25l179 2q1 54 1.5 94.5t0.5 67.5q0 13 17 13q16 0 16 -12q0 -28 -1 -68.5t-3 -94.5q86 1 150.5 1.5t107.5 0.5q12 0 12 -12q0 -13 -12 -13q-43 0 -107.5 -1t-151.5 -3l-3 -166v-7
q55 -1 97.5 -1.5t72.5 -2.5q109 -6 167 -21q10 -3 10 -12q0 -12 -14 -12q-24 0 -68 6q-26 4 -43.5 5.5t-26.5 2.5q-85 6 -195 6q1 -44 3.5 -84.5t6.5 -77.5q1 -4 2.5 -14.5t5.5 -26.5q2 -13 3.5 -23.5t1.5 -17.5q0 -15 -12 -15q-11 0 -12 10q-22 71 -26 249q-60 -1 -105 -2
t-76 -2q-3 -28 -11.5 -68.5t-22.5 -93.5q-33 -129 -53 -129zM430 364h176v44v57.5t1 69.5l-177 -6q1 -28 1.5 -52t0.5 -44q0 -21 -0.5 -38t-1.5 -31z" />
    <glyph glyph-name="dollar" unicode="$" horiz-adv-x="496" 
d="M215 -74q-12 0 -12 14t2.5 34.5t7.5 47.5l15 83q-19 -6 -32 -6q-52 0 -52 60q0 39 17 39q11 -3 11 -13q0 -7 -4 -16q-4 -11 -4 -18q0 -20 25 -20q18 0 45 11q14 95 30 189q-55 -18 -97 -18q-81 0 -81 77t87 164q81 81 161 99l12 56q11 39 26 39q20 0 20 -10
q0 -25 -19 -81q92 -2 92 -88q0 -37 -13 -37q-8 0 -11 6v20q0 32 -22 50t-55 17q-16 -61 -31 -122.5t-29 -125.5q70 26 93 26q44 0 44 -46q0 -64 -65 -141q-58 -68 -123 -100q-3 -32 -9 -76.5t-16 -102.5q-3 -11 -13 -11zM178 345q17 0 40 5t52 15q12 68 25.5 131.5
t29.5 121.5q-70 -22 -131 -88q-66 -70 -66 -139q0 -46 50 -46zM440 541v-0.5t1 -2.5v-1q-1 0 -1 4zM260 155q47 27 93 84q53 65 53 110q0 19 -22 19q-19 0 -45 -10q-10 -4 -21 -8.5t-22 -8.5q-19 -93 -36 -186z" />
    <glyph glyph-name="percent" unicode="%" horiz-adv-x="562" 
d="M79 -2q-12 0 -12 13q0 125 185 331q61 68 134 136.5t158 136.5q-30 5 -104 28q-66 20 -105 20q-40 0 -77.5 -23t-62 -59.5t-24.5 -76.5q0 -50 72 -50q29 0 53.5 17t39.5 44t15 56q0 28 -42 41q-42 12 -42 15q0 16 15 16q34 0 65 -19q37 -21 37 -52q0 -36 -21.5 -68.5
t-55 -53.5t-69.5 -21q-95 0 -95 83q0 33 17.5 66.5t46 61.5t62.5 45t67 17q45 0 120 -31q77 -31 117 -33q26 19 45 19q18 0 18 -14q0 -8 -132 -116q-80 -66 -143.5 -124.5t-109.5 -109.5q-142 -157 -160 -282q-1 -13 -12 -13zM330 14q-42 0 -70 19q-33 23 -33 62q0 21 13 45
t33.5 45.5t43.5 35t43 13.5q9 0 9 -12q0 -3 -27 -21q-33 -22 -52 -42q-27 -31 -27 -65q0 -55 67 -55q29 0 55 13.5t43 37t17 51.5t-16 38q-9 6 -31 10q-16 4 -16 13q0 13 13 13q83 0 83 -71q0 -36 -22 -65.5t-55.5 -47t-70.5 -17.5z" />
    <glyph glyph-name="ampersand" unicode="&#x26;" horiz-adv-x="570" 
d="M174 -84q-69 0 -116 59q-44 56 -44 126q0 156 196 334v11q0 87 47 189q56 120 136 120q33 0 53 -20.5t20 -53.5q0 -58 -86 -142l-135 -120q2 -19 7.5 -47.5t12.5 -66.5q14 22 32 42t41 37q51 39 96 39q49 0 77 -40q26 -35 26 -85q0 -55 -42 -139q-36 -74 -79 -124l44 -40
q34 -31 34 -40q0 -8 -7 -8q-5 0 -85 72q-97 -103 -228 -103zM246 467l116 96q77 71 77 114q0 18 -13.5 31t-30.5 13q-51 0 -101 -104q-42 -85 -48 -150zM174 -54q116 0 206 93q-92 86 -130 196q-16 -35 -16 -83q0 -20 -11 -22q-9 5 -9 28q0 50 27 104q-20 71 -27 125
q-160 -166 -160 -291q0 -58 31 -101q34 -49 89 -49zM395 56q40 46 69 106q34 69 34 120q0 42 -19 71q-22 34 -61 34q-35 0 -82 -39q-19 -16 -35 -33t-29 -37q36 -133 123 -222z" />
    <glyph glyph-name="quotesingle" unicode="'" horiz-adv-x="301" 
d="M169 486q-17 0 -17 14q0 3 5 11q13 14 31.5 35.5t41.5 51.5q36 59 36 83q0 4 -8 17q-11 8 -11 23q0 32 29 32q26 0 32 -32h-1q1 -3 1 -15q0 -51 -43 -118q-40 -64 -84 -98q-4 -4 -12 -4z" />
    <glyph glyph-name="parenleft" unicode="(" horiz-adv-x="420" 
d="M361 -22q-87 0 -133 82q-38 67 -38 160q0 117 53 237q56 126 149 188v-1q64 43 132 43q16 0 16 -16t-16 -16q-55 0 -112 -36v-2q-87 -55 -139 -177q-50 -114 -50 -223q0 -86 32 -142q38 -66 104 -66q17 0 17 -16q0 -15 -15 -15z" />
    <glyph glyph-name="parenright" unicode=")" horiz-adv-x="384" 
d="M0 -29q-16 0 -16 16q0 15 18 15q73 0 146 64q69 61 112 173q41 106 41 203q0 73 -22 121q-39 86 -114 86q-17 0 -17 17q0 15 16 15q101 0 146 -106l-1 -2q25 -57 25 -136q0 -156 -87 -300q-100 -166 -247 -166z" />
    <glyph glyph-name="asterisk" unicode="*" horiz-adv-x="559" 
d="M355 252q-19 0 -18 19l5 164q-135 -93 -145 -93q-19 0 -19 13q0 11 68 64l83 63q-9 1 -22 1h-30q-18 0 -134 -15h-6q-17 0 -17 18q0 23 92 31q35 3 66 3q13 0 25 -0.5t23 -1.5q-7 11 -23.5 40t-42.5 76q0 18 19 18q11 0 43 -47l40 -60q1 7 1 48v116q0 18 18 18
q19 0 19 -18v-121.5t-1 -47.5l63 69q53 57 60 57q18 0 18 -19q0 -15 -113 -137q29 -4 72 -12t100 -19q16 -4 16 -18q0 -18 -15 -18q-10 0 -53.5 5.5t-122.5 16.5l61 -76q51 -64 51 -68q0 -19 -19 -19q-10 0 -63 63q-21 25 -37 45t-27 35l-5 -20t-6 -29q-1 -21 -2 -52.5
t-3 -72.5q-1 -19 -19 -19z" />
    <glyph glyph-name="plus" unicode="+" horiz-adv-x="513" 
d="M276 81q-16 0 -16 28q0 43 36 146l-54 -9q-54 -9 -84 -28q-7 -4 -12 -4q-23 0 -23 20q0 32 185 52q8 20 14 34.5t10 24.5q16 33 33.5 61t36.5 50q4 5 7 5t3 -4q0 -5 -28 -62q-12 -25 -23 -51t-21 -55l45 2q77 0 131 -14q8 0 8 -5t-16 -6q-11 -2 -31 0l-23 1q-29 0 -60 -2
t-65 -6l-19 -63q-15 -55 -12 -88q2 -9 -5.5 -18t-16.5 -9z" />
    <glyph glyph-name="comma" unicode="," horiz-adv-x="175" 
d="M-48 -185q-18 0 -18 16q0 5 4 8.5t14 10.5q46 33 78.5 69t41.5 79q-6 1 -12 7.5t-6 14.5q0 32 28 32q17 0 24.5 -10t8.5 -26q0 -23 -14 -50.5t-36 -55t-47 -50.5t-46 -37q-4 -3 -9.5 -5.5t-10.5 -2.5z" />
    <glyph glyph-name="hyphen" unicode="-" horiz-adv-x="394" 
d="M337 238l-251 1q-16 0 -16 17q0 16 16 16l253 -1q15 0 15 -15q0 -18 -17 -18z" />
    <glyph glyph-name="period" unicode="." horiz-adv-x="152" 
d="M77 0q-27 0 -27 25q0 27 25 27q27 0 27 -25q0 -27 -25 -27z" />
    <glyph glyph-name="slash" unicode="/" horiz-adv-x="579" 
d="M60 -42q-16 0 -16 16q0 6 4 11q5 5 28 28.5t63 63.5l456 456l126 128q5 5 12 5q17 0 17 -16q0 -5 -5 -10q-13 -14 -57.5 -59t-120.5 -121l-496 -497h1q-5 -5 -12 -5z" />
    <glyph glyph-name="zero" unicode="0" horiz-adv-x="725" 
d="M255 -22q-59 0 -106 30t-73.5 80.5t-26.5 110.5q0 13 1.5 24.5t3.5 21.5q61 261 274 370q89 45 151 45q51 0 98 -22t84.5 -60t59 -85.5t21.5 -98.5q0 -16 -2 -32t-6 -33q-14 -53 -60 -116q-34 -46 -78 -85.5t-97 -71.5q-113 -68 -221 -78v1q-4 -1 -9.5 -1h-13.5zM255 10
q59 0 127 27t132.5 73t110.5 104q77 95 77 185q0 44 -17.5 85t-48 73t-69.5 51t-83 19q-59 0 -139 -41q-201 -104 -256 -354q-2 -11 -3.5 -21.5t-1.5 -21.5q0 -51 21.5 -91.5t60 -64t89.5 -23.5z" />
    <glyph glyph-name="one" unicode="1" horiz-adv-x="274" 
d="M52 -19q-24 0 -24 13l1 4q1 5 7.5 20t17.5 40q20 47 51 111q52 110 97 199t83 156q-13 -10 -31 -26.5t-43 -38.5q-2 -2 -6 -2q-6 0 -15 5t-9 10q0 10 60 61l72 59l27 30q20 21 36 40t28 35l6 2q7 0 16 -8t9 -15l-1 -2q-7 -13 -18 -27.5t-28 -31.5q-6 -5 -17 -17
q-2 -2 -22 -34q-19 -31 -36.5 -61.5t-34.5 -62.5q-54 -100 -96 -187.5t-73 -162.5q-9 -21 -24 -63q-1 -7 -3 -13l-4 -12q-4 -15 -14 -20q-3 -1 -12 -1z" />
    <glyph glyph-name="two" unicode="2" horiz-adv-x="684" 
d="M411 -21q-119 0 -269 41v-1q-61 -32 -107 -32q-27 0 -50 13q-29 15 -29 39q0 21 21 34q16 10 40 10q19 0 119 -30l6 3l5 3q344 212 446 384q46 77 46 126q0 73 -97 73q-64 0 -133 -34q-64 -31 -113 -80q-9 -9 -22 -24.5t-30 -37.5q-4 -7 -13 -7q-17 0 -17 17q0 5 4 9
q54 79 143 132q95 57 184 57q54 0 87 -24q37 -27 37 -79q0 -64 -49 -146q-106 -178 -438 -384q129 -30 225 -30q173 0 170 65l-1 6q0 19 17 19q15 0 15 -23q0 -99 -197 -99zM33 20q26 0 58 13q-51 18 -66 18q-27 0 -27 -15q0 -16 35 -16z" />
    <glyph glyph-name="three" unicode="3" horiz-adv-x="591" 
d="M149 -31q-43 0 -75 6q-37 7 -61.5 31.5t-24.5 61.5q0 12 6 27t16 25.5t20 10.5t10 -10q0 -5 -10 -21t-10 -33q0 -67 124 -67q35 0 70 5t69 15q89 26 155 75q82 63 90 140v7q0 67 -56 81q-82 -45 -131 -45q-42 0 -42 16q0 3 1 4q8 30 49 42q69 20 116 17q169 112 169 212
q0 72 -98 72q-107 0 -193 -86q-3 -3 -7.5 -11t-11.5 -21q-9 -18 -38 -33q-4 -3 -12 -3q-22 0 -22 17q0 6 3 10q112 154 279 154q138 0 138 -95q0 -107 -167 -230q62 -30 62 -102v-9q-10 -121 -158 -198q-125 -65 -260 -65z" />
    <glyph glyph-name="four" unicode="4" horiz-adv-x="552" 
d="M270 -19q-24 0 -24 13q0 22 85 199q-52 2 -105.5 10t-108.5 21q-28 -15 -44 -15q-11 0 -26 5q-17 8 -17 17q0 14 16 23.5t31 9.5q2 0 5.5 -0.5t8.5 -1.5q72 54 178.5 136.5t248.5 194.5q14 14 35.5 34.5t49.5 45.5q1 1 6 1q7 0 16 -7t9 -14q0 -10 -19 -29
q-6 -7 -12 -13.5t-13 -13.5q-13 -16 -64 -106q-38 -67 -72.5 -133.5t-66.5 -132.5q26 -1 49 2t44 8q61 16 61 54v7q0 19 17 19q16 0 16 -26q0 -98 -201 -98q-16 -33 -31 -68t-29 -72q-3 -11 -7.5 -25.5t-11.5 -32.5q-4 -12 -24 -12zM344 225q101 215 186 336
q-32 -28 -81.5 -66.5t-116.5 -87.5q-68 -49 -118 -87.5t-80 -64.5q103 -26 210 -30z" />
    <glyph glyph-name="five" unicode="5" horiz-adv-x="608" 
d="M549 572q-28 0 -72 8t-103 24q-31 -16 -35 -16q-9 0 -20.5 6t-11.5 14q0 14 19 24q18 8 32 8q10 0 32 -7q102 -29 148 -29q169 0 166 65l-1 6q0 19 17 19q14 0 14 -14v1q1 -3 1 -11q0 -55 -69 -81q-49 -17 -117 -17zM151 -31q-161 0 -161 99q0 12 5.5 27t15.5 25.5
t21 10.5q10 0 10 -10q0 -5 -10 -21t-10 -33q0 -67 123 -67q35 0 70 5t69 15q90 26 156 75q83 63 89 140v8q0 55 -31 88.5t-85 33.5q-56 0 -127 -41t-82 -41q-28 0 -28 18q0 10 16 19l-1 1q75 162 152 246q6 6 12 6q17 0 17 -18q0 -6 -5 -11q-8 -10 -20.5 -25t-28.5 -35
q-18 -24 -39 -62t-46 -90l9 1q89 60 178 60q69 0 109 -39t40 -108q0 -125 -152 -208q-127 -69 -266 -69z" />
    <glyph glyph-name="six" unicode="6" horiz-adv-x="532" 
d="M199 -53q-160 0 -160 143q0 117 114 253q49 59 112 113t139 104q143 92 258 121l2 1h2q20 0 20 -24q0 -11 -10 -17q-16 -10 -51 -15q-37 -6 -52 -12q-158 -66 -315 -209q-185 -170 -185 -310q0 -57 33 -89t91 -32q15 0 28 3q-19 25 -19 68q0 40 17 71q30 52 77 90
q56 42 109 42q35 0 58 -18.5t23 -52.5q0 -58 -72 -130q-100 -100 -219 -100zM266 -13q33 12 65.5 36t59 53t42.5 56.5t16 47.5q0 35 -40 35q-28 0 -59 -17t-57 -44.5t-42.5 -59t-16.5 -61.5q0 -26 11 -34z" />
    <glyph glyph-name="seven" unicode="7" horiz-adv-x="548" 
d="M225 -22q-25 0 -25 19q0 62 75 186q11 18 40.5 64.5t74.5 109t101 131t119 129.5q-34 -24 -84 -24q-19 0 -46.5 4.5t-64.5 12.5t-65 12.5t-48 4.5q-5 0 -13.5 -0.5t-20.5 -1.5q-31 -6 -50 -34q-8 -11 -23 -49q-10 -25 -21 -25q-20 0 -20 22q0 52 74 111q16 13 47 13
q32 0 96 -12q54 -10 95.5 -15t70.5 -5q83 0 138 39q2 2 7 2q6 0 13 -6.5t7 -12.5q-1 -4 -2 -4q-23 -30 -85 -77v1l-104 -114q-28 -32 -52 -62.5t-44 -58.5q-135 -195 -162 -293q-2 -10 -4 -18.5t-4 -16.5q0 -32 -20 -32z" />
    <glyph glyph-name="eight" unicode="8" horiz-adv-x="546" 
d="M226 -32q-116 0 -158 48q-43 46 -43 84q0 88 264 271q-60 62 -60 135q0 59 28.5 103.5t75 69.5t101.5 25q76 0 131 -51q26 -24 26 -42q0 -11 -9 -11q-5 0 -25 18q-13 11 -24 20t-22 15q-34 18 -74 18q-59 0 -107 -36q-34 -26 -47.5 -58t-13.5 -72q0 -37 12 -64.5
t36 -48.5l147 96q169 109 207 227q8 26 24 26q14 0 14 -21v-9q-11 -60 -95 -140q-31 -31 -64.5 -57.5t-70.5 -49.5q-23 -14 -57.5 -36.5t-81.5 -53.5q41 -33 66.5 -54t35.5 -31q52 -55 52 -118q0 -60 -50 -115q-42 -45 -107 -70q-46 -18 -111 -18zM221 -2q56 0 102 18
q55 21 93 59q45 45 45 97q0 51 -51 96l-89 72l-12 12q-244 -168 -244 -259q0 -25 15 -43l-1 1q41 -53 142 -53z" />
    <glyph glyph-name="nine" unicode="9" horiz-adv-x="548" 
d="M54 -59q-9 0 -16 9t-7 18q0 10 7 13q17 11 51 15q34 6 47 12q71 32 138 81t129 116q145 152 145 286q0 71 -39.5 114.5t-110.5 43.5q-41 0 -80.5 -20t-71.5 -53t-51 -73.5t-19 -81.5q0 -46 27 -79t72 -33q58 0 123 74q14 15 24 15q15 0 15 -13q0 -7 -8 -18
q-70 -93 -157 -93q-39 0 -69.5 20t-47.5 53t-17 73q0 48 22 93.5t59.5 83t83 59.5t93.5 22q86 0 136 -50.5t50 -135.5q0 -110 -90 -235q-79 -110 -206 -201q-121 -87 -228 -114q-1 -1 -4 -1z" />
    <glyph glyph-name="colon" unicode=":" horiz-adv-x="184" 
d="M139 195q-14 0 -19.5 7.5t-5.5 17.5q0 27 27 27q26 0 26 -25q0 -27 -28 -27zM75 0q-14 0 -19.5 7.5t-5.5 17.5q0 27 27 27q26 0 26 -25q0 -27 -28 -27z" />
    <glyph glyph-name="semicolon" unicode=";" horiz-adv-x="240" 
d="M139 195q-14 0 -19.5 7.5t-5.5 17.5q0 27 27 27q26 0 26 -25q0 -27 -28 -27zM-48 -185q-18 0 -18 16q0 5 4 8.5t14 10.5q46 33 78.5 69t41.5 79q-6 1 -12 7.5t-6 14.5q0 32 28 32q17 0 24.5 -10t8.5 -26q0 -23 -14 -50.5t-36 -55t-47 -50.5t-46 -37q-4 -3 -9.5 -5.5
t-10.5 -2.5z" />
    <glyph glyph-name="less" unicode="&#x3c;" horiz-adv-x="305" 
d="M171 60q-7 0 -13 8l-139 179q-6 8 -6 15q0 8 10 21l135 175q4 7 13 7q22 0 22 -21q0 -6 -4 -10l-133 -171l133 -171q4 -5 4 -11q0 -8 -9 -14q-7 -7 -13 -7z" />
    <glyph glyph-name="equal" unicode="=" horiz-adv-x="284" 
d="M55 231q-12 0 -25 8t-13 21q0 17 16 17q5 0 12 -6q6 -6 12 -6q26 0 77 6q50 6 75 6q24 0 40 -3q14 -3 14 -18q0 -16 -15 -16q-4 0 -9 0.5t-12 1.5t-12.5 1.5t-9.5 0.5q-24 0 -74 -6q-25 -4 -44 -5.5t-32 -1.5zM55 124q-12 0 -25 8t-13 21q0 17 16 17q5 0 12 -6
q6 -6 12 -6q13 0 32.5 1.5t44.5 5.5q50 6 75 6q24 0 40 -4q14 -3 14 -18q0 -16 -15 -16q-4 0 -9 0.5t-12 1.5t-12.5 1.5t-9.5 0.5q-24 0 -74 -6q-25 -4 -44 -5.5t-32 -1.5z" />
    <glyph glyph-name="greater" unicode="&#x3e;" horiz-adv-x="270" 
d="M72 61q-21 0 -21 21q0 6 4 10l132 171l-132 171q-4 4 -4 10q0 21 21 21q9 0 13 -7l139 -179q6 -7 6 -16q0 -8 -9 -20l-136 -175q-4 -7 -13 -7z" />
    <glyph glyph-name="question" unicode="?" horiz-adv-x="373" 
d="M140 160q-17 0 -17 16q0 32 21 63.5t65 58.5l158 98q45 28 65.5 61t20.5 61q0 31 -19 50t-46.5 28t-53.5 9q-59 0 -101.5 -34t-56.5 -96q-3 -14 -13 -14q-19 0 -19 17q0 11 9.5 35t19.5 40q26 40 68.5 62t94.5 22q41 0 74.5 -14t54 -40.5t20.5 -64.5q0 -62 -54 -115
q-34 -33 -118 -80q-88 -50 -113 -72q-44 -38 -44 -75q0 -16 -16 -16zM105 0q-14 0 -19.5 7.5t-5.5 17.5q0 27 27 27q26 0 26 -25q0 -27 -28 -27z" />
    <glyph glyph-name="at" unicode="@" horiz-adv-x="900" 
d="M485 -144q-181 0 -278 79t-97 226q0 82 30.5 154.5t85 128t125.5 87t152 31.5q110 0 187 -35.5t111 -101.5q15 -28 22 -57t7 -58q0 -54 -20.5 -104t-57 -90t-84.5 -63.5t-102 -23.5q-49 0 -49 52q0 20 5 33q-91 -87 -169 -87q-58 0 -58 55q0 36 17.5 77.5t47.5 81t67 72
t76 52t75 19.5q64 0 64 -63q0 -41 -20 -41q-18 0 -18 17q0 6 4 15q3 11 3 16q0 28 -38 28q-61 0 -153 -93q-34 -36 -60 -81q-31 -53 -31 -95q0 -27 30 -27q15 0 26 4q81 26 171 135q7 8 18 21t25 29q5 5 12 5q16 0 16 -16q0 -1 -38 -57t-38 -92q0 -26 25 -26q47 0 87 21.5
t70.5 58t47.5 81t17 90.5q0 26 -5.5 50.5t-17.5 46.5q-30 59 -100 90t-172 31q-75 0 -141 -29t-115.5 -80.5t-78 -118.5t-28.5 -143q0 -134 88 -204.5t257 -70.5q81 0 138 19.5t94 48.5t59 58t33 48q8 15 19 15q12 0 12 -14q0 -5 -5 -15q-53 -94 -142 -142t-208 -48z" />
    <glyph glyph-name="A" unicode="A" horiz-adv-x="626" 
d="M-38 -59q-17 0 -17 16q0 6 1 8q37 81 201 242q-5 -1 -9 -1.5t-6 -0.5q-17 0 -17 19q0 11 17 14q10 2 21.5 3.5t29.5 5.5q121 126 233.5 216.5t215.5 148.5q9 5 16 8.5t12 3.5q12 0 12 -16q0 -30 -60 -206l-44 -129q26 0 26 -16q0 -18 -34 -18q-19 -52 -35.5 -114.5
t-27.5 -128.5q-4 -21 -18 -21q-17 0 -17 18q0 3 2 13t6 26q12 58 21.5 96t17 64.5t13.5 48.5q-184 -4 -324 -27q-40 -41 -67 -69.5t-40 -42.5q-60 -66 -96 -120q-3 -5 -7.5 -13t-11.5 -19q-4 -9 -14 -9zM239 255q58 8 131 12.5t164 6.5q15 46 30 89.5t29 83.5q17 44 45 132
q-116 -67 -215.5 -148t-183.5 -176z" />
    <glyph glyph-name="B" unicode="B" horiz-adv-x="697" 
d="M34 -74q-16 0 -16 16q0 11 7 32q-17 0 -17 15q0 18 29 16q37 90 183 338q38 65 79 132t84 134q-135 -36 -126 -36q-16 0 -16 17q0 9 11 14q17 8 56 19.5t100 26.5q9 14 16.5 26t14.5 21q21 28 30 28q16 0 16 -14q0 -6 -11 -22t-21 -33q24 4 60 10.5t89 6.5q199 0 199 -91
q0 -37 -24 -68.5t-64.5 -57.5t-89.5 -46.5t-99 -35.5q148 -34 148 -139q0 -55 -32.5 -99t-85.5 -76t-117 -52q-130 -40 -303 -40q-36 0 -74 3q-10 -21 -10 -29q0 -16 -16 -16zM141 0q156 0 279 36q57 17 107.5 46t82 68.5t31.5 85.5q0 63 -85 96q-64 24 -140 24
q-26 0 -50 -3q-27 -7 -30 -7q-15 0 -15 17q0 14 16 14q102 0 233 46q48 17 93.5 40.5t75 53t29.5 62.5q0 60 -166 60q-39 0 -81.5 -5t-89.5 -15q-119 -184 -209 -338t-149 -279q8 -1 20 -1.5t48 -0.5z" />
    <glyph glyph-name="C" unicode="C" horiz-adv-x="792" 
d="M384 -45q-91 0 -158.5 31.5t-104.5 92t-37 145.5q0 80 30.5 147t88.5 124q88 85 205.5 131t242.5 46q62 0 109 -21.5t74 -57.5t27 -79q0 -28 -13 -51.5t-29 -37.5t-26 -14q-8 0 -16 7.5t-8 12.5q0 6 14 17t27.5 29.5t13.5 45.5q0 36 -24.5 63.5t-68 43t-99.5 15.5
q-111 0 -216 -46.5t-184 -124.5q-55 -55 -83 -116t-28 -141q0 -77 36.5 -128.5t98.5 -77t139 -25.5q88 0 187 28q58 16 98 36.5t60 38.5q19 17 28 25t15 8q7 0 7 -9q0 -10 -11.5 -25t-25.5 -26q-35 -27 -88.5 -48.5t-106.5 -35.5q-47 -12 -90 -17.5t-84 -5.5z" />
    <glyph glyph-name="D" unicode="D" horiz-adv-x="840" 
d="M50 -31q-17 0 -17 25q0 38 38 130.5t115 237.5q44 82 72 136t44 86.5t23 49t8 24.5q0 4 2 6l-39 2q-13 1 -19.5 7t-6.5 13q0 14 16 14q218 0 378 -90q83 -47 137 -117.5t54 -159.5q0 -72 -40 -124t-108.5 -90t-154.5 -68q-58 -20 -129 -38.5t-139 -29.5t-120 -11
q-36 0 -56 10q-21 11 -21 24q0 11 12 11q8 0 15 -3t20 -6t38 -3q36 0 81.5 6.5t95 17.5t96.5 24.5t86 26.5q84 29 149.5 64t102.5 83t37 116q0 143 -167 238q-111 62 -289 81q4 -5 4 -11q0 -9 -14.5 -41t-38 -77t-49.5 -95t-50 -94q-151 -289 -151 -348q0 -4 0.5 -6t0.5 -6
q0 -5 -4 -10t-12 -5z" />
    <glyph glyph-name="E" unicode="E" horiz-adv-x="609" 
d="M16 -37q-18 0 -18 17q0 8 6.5 21.5t11.5 24.5q30 63 79.5 149t118.5 194q-27 0 -27 16q0 17 19 17l30 -1q31 47 53 79t35 50q22 29 47.5 58.5t56.5 57.5q47 10 96.5 14.5t100.5 4.5q90 0 126 -9q13 -3 17.5 -7t4.5 -11q0 -17 -15 -17q-12 0 -46 5.5t-104 5.5
q-34 0 -75 -4t-90 -12q-42 -32 -169 -215h245q16 0 16 -16t-16 -16h-266q-145 -222 -213 -366q270 60 408 60q96 0 96 -46q0 -16 -16 -16q-13 0 -14 10q-1 11 -17.5 14.5t-51.5 3.5q-44 0 -98.5 -6.5t-116.5 -16.5q-88 -13 -143 -28t-71 -15z" />
    <glyph glyph-name="F" unicode="F" horiz-adv-x="516" 
d="M33 -35q-17 0 -17 17q0 6 7 27q20 62 68.5 152t125.5 208q-25 0 -25 16q0 15 18 16h28q29 42 50 72t37 51q20 27 41 53.5t41 49.5q-4 0 -8 -0.5t-7 -0.5q-39 0 -39 19q0 18 31 18h335q16 0 17 -16q0 -18 -16 -18h-269q-25 -31 -50.5 -63.5t-55 -72t-67.5 -92.5h246
q16 0 16 -16t-16 -17h-268q-92 -140 -142.5 -235t-64.5 -156q-3 -12 -16 -12z" />
    <glyph glyph-name="G" unicode="G" horiz-adv-x="916" 
d="M364 -43q-82 0 -145 33t-99 93.5t-36 140.5q0 85 34 155t98 128q182 165 433 165q53 0 101.5 -18.5t79.5 -54t31 -85.5q0 -41 -25 -70q-6 -8 -19.5 -20.5t-23.5 -12.5q-8 0 -16 6.5t-8 13.5q0 5 7 11.5l21 19.5q27 27 27 61q0 41 -28.5 68t-72.5 40.5t-93 13.5
q-110 0 -214.5 -46.5t-184.5 -126.5q-53 -53 -81.5 -115.5t-28.5 -139.5q0 -64 23.5 -107t60.5 -70q38 -27 83 -39.5t86 -12.5q48 0 102.5 13t107 35.5t94.5 49.5q18 12 29.5 21t16.5 14l30 51q12 20 29 50t39 70q-31 0 -78 -9t-98 -23q-31 -8 -61.5 -18.5t-38.5 -10.5
q-17 0 -17 18q0 5 3 8.5t13 8.5q23 13 59 24.5t80 19.5q40 8 79 11t76 2l3 6q4 10 14 10q15 0 19 -16q25 -1 57 -7q16 -3 16 -18t-15 -15q-7 0 -27.5 4t-44.5 4q-22 -43 -87 -153q-13 -22 -22 -38t-14 -27q-18 -35 -27 -68q-3 -11 -12 -11q-20 0 -20 18q0 12 14 49
q-45 -29 -102.5 -52.5t-116.5 -37.5t-110 -14z" />
    <glyph glyph-name="H" unicode="H" horiz-adv-x="844" 
d="M56 -98q-19 0 -19 17q0 118 138 368q10 18 31 53q-34 -4 -56.5 -14.5t-29.5 -10.5q-18 0 -18 17q0 26 124 45q17 29 43.5 72t63.5 101q27 43 46 75.5t31 59.5q4 10 13 10q19 0 19 -20q0 -7 -23.5 -46.5t-73.5 -120.5l-79 -127q38 4 80 6t86 2q88 0 323 -15
q20 43 42.5 84.5t47.5 82.5q36 61 63 95.5t40 44.5t21 10q15 0 15 -16q0 -8 -9 -14q-18 -13 -44 -47t-58 -89q-48 -81 -82 -154q35 0 35 -17q0 -7 -5 -12t-15 -4l-30 2q-101 -225 -101 -308v-22q0 -12 -17 -12q-16 0 -16 35q0 88 98 310q-122 7 -200.5 10t-113.5 3
q-98 0 -179 -9l-43 -75q-49 -87 -77 -155.5t-38 -102.5q-10 -39 -13 -60t-5 -39q-1 -13 -15 -13z" />
    <glyph glyph-name="I" unicode="I" horiz-adv-x="422" 
d="M-31 -25q-17 0 -17 17q0 16 19 16q17 0 42 2.5t44 3.5q3 19 20 56t45 84t63 97l167 238q11 17 30.5 47.5t46.5 74.5q-30 -2 -54.5 -5t-43.5 -6q-28 -4 -37 -6t-14 -2q-17 0 -17 19q0 11 14 14q59 11 115.5 17t111.5 6q54 0 88 -9q16 -5 21.5 -10t5.5 -13q0 -16 -15 -16
q-5 0 -14 4t-27.5 7.5t-55.5 3.5h-24.5t-17.5 -1q-1 -21 -38 -74l-50 -71l-128 -187q-36 -52 -66 -100t-56 -90q-15 -25 -33 -73q38 4 63 5.5t36 1.5q22 0 39.5 -1.5t30.5 -3.5q15 -3 15 -15q0 -16 -18 -16q-12 0 -30.5 1.5t-32.5 1.5q-45 0 -110 -9q-5 -8 -14 -8
q-8 0 -12 7q-30 -4 -53 -6t-39 -2z" />
    <glyph glyph-name="J" unicode="J" horiz-adv-x="556" 
d="M108 -31q-43 0 -69.5 26t-26.5 69q0 31 13 63t33.5 60.5t42.5 47.5q17 16 30 16t13 -13q0 -12 -17 -27q-34 -29 -56 -71t-22 -78q0 -57 61 -57q36 0 72.5 24t72.5 63.5t69.5 88.5t63.5 98q133 215 177 356q-13 -1 -39.5 -8t-66.5 -20q-38 -12 -57 -18.5t-26 -6.5
q-19 0 -19 17q0 9 13 17q21 13 55.5 24.5t78.5 19.5q77 15 148 15q29 0 59 -3t48 -7q17 -3 17 -17q0 -15 -14 -15q-4 0 -31 4.5t-72 4.5q-31 0 -63 -3q4 -4 4 -10q0 -3 -3.5 -12.5t-6.5 -17.5q-26 -73 -65.5 -151.5t-91.5 -164.5q-36 -59 -75 -115t-80.5 -101t-84 -71.5
t-85.5 -26.5z" />
    <glyph glyph-name="K" unicode="K" horiz-adv-x="700" 
d="M47 -43q-7 0 -15 6.5t-8 13.5q0 14 11.5 45t30.5 71t41 79l111 196q128 228 136 278q1 16 14 16q11 0 15 -8.5t4 -17.5q0 -20 -13.5 -57t-43.5 -90l-82 -143q-51 -89 -80.5 -140.5t-46.5 -82.5q-25 -48 -44 -91t-21 -64q0 -11 -9 -11zM512 -17q-17 0 -17 11q0 5 10.5 18
t20.5 29q23 37 43.5 84t20.5 87q0 38 -21.5 61.5t-57 35t-78.5 11.5q-41 0 -113 -23t-83 -23q-16 0 -16 17q0 2 5 11.5t12 19.5t11 11l24 4l88 35q56 23 112.5 47.5t111.5 50.5q79 37 147.5 75.5t123.5 74.5q10 7 14.5 8.5t8.5 1.5q16 0 16 -15q0 -9 -15 -22
q-65 -54 -279 -154q-37 -14 -98.5 -39t-135.5 -55q24 6 48 6q56 0 105 -13.5t79.5 -43t30.5 -78.5q0 -39 -17.5 -84t-46.5 -91l-27 -42q-10 -16 -27 -16z" />
    <glyph glyph-name="L" unicode="L" horiz-adv-x="620" 
d="M23 -43q-7 0 -16 7t-9 15q0 9 20 46t64 111t115 192l131 219q11 20 27 47t39 64q6 9 13 9t14 -6.5t7 -13.5q0 -4 -50 -88.5t-151 -251.5q-38 -63 -82.5 -139t-94.5 -165q290 78 446 78q47 0 78.5 -15.5t31.5 -30.5q0 -17 -17 -17q-14 0 -14 15v3q-10 5 -34 8t-55 3
q-38 0 -86 -6.5t-97.5 -16t-92.5 -19.5q-42 -9 -79.5 -19.5t-69.5 -18.5q-19 -4 -27.5 -7t-10.5 -3z" />
    <glyph glyph-name="M" unicode="M" horiz-adv-x="1133" 
d="M32 -53q-20 0 -20 19q0 5 4.5 14.5t13.5 26.5l57 106q46 83 80.5 152.5t59.5 124.5q75 171 75 259q0 6 8.5 14t16.5 8q12 0 12 -23q0 -65 -47 -197q-19 -50 -39 -97t-42 -91q43 52 89 101t96 95q148 139 216 139q43 0 43 -56q0 -60 -59 -216q-76 -196 -84 -225
q227 275 462 401q32 17 67.5 33.5t54.5 16.5q28 0 28 -34q0 -17 -6 -41t-20 -53l-92 -195q-13 -28 -28.5 -62t-29 -67.5t-22.5 -60t-9 -40.5q0 -16 13 -16q20 0 50.5 24t65.5 61q5 6 13.5 14t15.5 8q16 0 16 -18q0 -3 -2 -6.5t-9 -10.5l-26 -26t-24 -23q-26 -22 -54.5 -39.5
t-54.5 -17.5q-41 0 -41 46q0 28 20 87t61 149l105 228q11 23 14 32.5t3 13.5q0 6 -5 6q-2 0 -10.5 -2.5t-29.5 -12.5q-61 -28 -134 -75t-136 -102q-51 -44 -91 -84t-78 -83t-84 -98q-13 -15 -18 -20.5t-16 -5.5q-17 0 -17 18q0 19 8 50t20 63l74 198q27 73 40 121t13 72
q0 20 -17 20q-33 0 -149 -106q-40 -37 -75 -71t-64 -66q-39 -42 -71 -80t-61.5 -78.5t-60.5 -89.5t-67 -114q-10 -18 -22 -18z" />
    <glyph glyph-name="N" unicode="N" horiz-adv-x="769" 
d="M30 -52q-8 0 -15.5 7t-7.5 14t3 15.5t7 19.5q60 183 159 345q124 202 194 263q19 16 25.5 20.5t11.5 4.5q24 0 24 -21q0 -12 -1 -41t-1 -70q0 -86 17 -207.5t52 -258.5q68 93 119 169.5t89 145.5q28 50 57.5 104.5t55 104.5t41 89.5t15.5 59.5q0 14 13 14q20 0 20 -19
q0 -29 -16.5 -70.5t-51.5 -106.5t-91 -166q-45 -82 -79.5 -138.5t-72.5 -110.5q-16 -21 -38 -53.5t-51 -76.5q-7 -12 -18 -12q-8 0 -12 5t-8 18q-17 55 -31.5 121.5t-25.5 136.5t-17 136.5t-6 122.5v70q-81 -78 -185 -252q-57 -94 -95 -181.5t-64 -176.5q-8 -25 -16 -25z
" />
    <glyph glyph-name="O" unicode="O" horiz-adv-x="821" 
d="M335 -43q-62 0 -117.5 24t-90.5 72.5t-35 121.5q0 38 17 88.5t43 100t54 84.5q31 39 73.5 74t90.5 62t97 42.5t93 15.5q54 0 104.5 -21t90.5 -58t63.5 -85.5t23.5 -102.5q0 -52 -23 -103t-60.5 -96.5t-83.5 -83.5q-73 -60 -161.5 -97.5t-177.5 -37.5h-1zM329 -10
q85 0 167.5 35.5t149.5 90.5q44 36 80 79.5t58 91t22 93.5q0 45 -20.5 86t-55 73t-78.5 50.5t-91 18.5q-42 0 -88.5 -15t-91.5 -40.5t-84.5 -59t-67.5 -69.5q-26 -34 -50 -81t-38.5 -94t-14.5 -82q0 -56 26.5 -95.5t72.5 -60.5t104 -21z" />
    <glyph glyph-name="P" unicode="P" horiz-adv-x="638" 
d="M57 -14q-19 0 -19 19q0 5 3.5 11.5t7.5 15.5q15 30 29 59t30.5 64.5t38 82.5t51.5 113q34 73 63 131t55 104q-22 -7 -42.5 -14.5t-31.5 -12.5q-12 -6 -15.5 -7.5t-7.5 -1.5q-14 0 -14 15q0 8 11 16q33 20 124 45q11 18 21 32q5 6 12.5 8t12.5 2q9 0 9 -8t-7 -21
q125 30 204 30q186 0 186 -110q0 -57 -31 -100t-83.5 -75t-116.5 -56q-156 -56 -271 -56q-15 0 -15 19q0 12 16 12q113 0 261 54q59 22 105 52.5t73 68t27 77.5q0 82 -150 82q-45 0 -102 -9.5t-127 -28.5q-30 -52 -62.5 -113.5t-65.5 -134.5l-116 -254l-20 -42.5t-27 -54.5
q-7 -14 -16 -14z" />
    <glyph glyph-name="Q" unicode="Q" horiz-adv-x="758" 
d="M541 -164q-82 0 -152 127q-52 -12 -94 -12q-203 0 -203 217q0 81 31 153.5t88 141.5q68 83 158 129.5t194 46.5q108 0 162 -53t54 -164q0 -80 -29.5 -144.5t-86.5 -134.5q-106 -130 -241 -174l23 -37q20 -31 45.5 -47.5t48.5 -16.5q15 0 30 6.5t22 6.5q15 0 15 -18
q0 -12 -21.5 -19.5t-43.5 -7.5zM295 -14q26 0 44.5 1.5t34.5 4.5q-30 60 -66 60q-17 0 -24.5 -7t-18.5 -7q-16 0 -16 15q0 13 19.5 21.5t39.5 8.5q34 0 62 -26q8 -8 17.5 -22t20.5 -34q130 39 232 167q54 67 80.5 124t26.5 128q0 102 -44 144t-132 42q-100 0 -185 -44
t-150 -124q-54 -66 -81 -130.5t-27 -138.5q0 -93 38 -138t129 -45z" />
    <glyph glyph-name="R" unicode="R" horiz-adv-x="615" 
d="M18 -29q-20 0 -20 17q0 14 53 122q44 89 66 129q-10 4 -10 16q0 9 10 14t19 9q38 65 70 116.5t57 89.5q49 75 83 120t54 60q15 4 78 4q110 0 173 -33.5t63 -87.5q0 -89 -134 -161q-88 -48 -215 -78q44 -6 79.5 -22.5t57 -44t21.5 -67.5q0 -27 -11.5 -59.5t-29.5 -63
t-38 -53.5q-8 -10 -21 -10q-17 0 -17 11q0 4 6 10.5t13 16.5q9 13 22 38t23.5 54t10.5 54q0 40 -23.5 65t-60.5 36.5t-78 11.5q-71 0 -154 -30q-25 -46 -48.5 -91t-43.5 -90q-7 -16 -17 -39.5t-24 -54.5q-4 -9 -14 -9zM186 293q34 10 56.5 13.5t50.5 6.5q5 1 28.5 8.5
t66.5 20.5q50 16 91 33t73 34q120 65 120 138q0 24 -19.5 41t-50 27.5t-65.5 15.5t-65 5q-16 0 -29 -1.5t-24 -3.5q-52 -61 -102.5 -132.5t-88.5 -136.5q-18 -31 -26 -44.5t-16 -24.5z" />
    <glyph glyph-name="S" unicode="S" horiz-adv-x="611" 
d="M254 -43q-64 0 -120.5 21t-91.5 60t-35 92q0 17 6 36q8 26 18 26q15 0 15 -17q0 -7 -4 -19t-4 -23q0 -44 30 -76.5t77.5 -49.5t99.5 -17q113 0 192 54q41 28 68 67.5t27 84.5q0 41 -20.5 68t-56.5 46.5t-83 35.5q-134 47 -134 114q0 36 27 69t66 58.5t75 38.5
q53 20 98.5 27.5t84.5 7.5q53 0 75 -24.5t22 -60.5q0 -28 -13.5 -54t-36.5 -45q-26 -22 -42 -22q-17 0 -17 16q0 9 9 13q67 34 67 93q0 26 -14.5 38.5t-49.5 12.5q-32 0 -71.5 -7t-80.5 -21q-36 -13 -73 -35t-61.5 -48t-24.5 -52q0 -55 106 -88q183 -58 183 -178
q0 -36 -16.5 -71t-43 -64t-56.5 -50q-43 -30 -93.5 -43.5t-103.5 -13.5z" />
    <glyph glyph-name="T" unicode="T" horiz-adv-x="530" 
d="M190 -60q-17 0 -17 20q0 32 35 112.5t105 207.5l190 342h-19q-233 0 -304 -57q-29 -23 -40 -66q-1 -15 -13 -15q-20 0 -20 18q0 50 55 90q83 62 311 62q66 0 133 -3l104 -7q32 -2 58 -3.5t46 -1.5q16 0 16 -16t-16 -16q-35 0 -104 6q-50 5 -78 6t-51 1q-21 0 -31 0.5
t-14 0.5q-12 -31 -61 -119l-101 -180q-85 -152 -126.5 -242t-41.5 -116v-5q0 -19 -16 -19z" />
    <glyph glyph-name="U" unicode="U" horiz-adv-x="760" 
d="M604 -99q-46 0 -46 102t45 250q-133 -147 -228 -216t-160 -69q-112 0 -112 135q0 144 109 344q46 84 87 125q11 11 23 21.5t21 10.5q21 0 21 -19q0 -7 -8 -12q-26 -18 -56 -54t-62 -91q-27 -45 -50.5 -100.5t-37.5 -111.5t-14 -104q0 -112 81 -112q38 0 80.5 24t85 59.5
t77.5 69.5q36 35 62.5 62t52 55.5t57.5 66.5l18 47q13 33 24 57.5t19 40.5q71 137 102 137q8 0 11.5 -9.5t3.5 -22.5q0 -19 -12.5 -48t-31 -61.5t-37 -61t-31.5 -46.5l-36 -49q-4 -8 -14 -35.5t-24 -74.5q-31 -100 -31 -197q0 -82 17 -82q3 0 4 1.5t4 1.5q8 0 8 -13
q0 -21 -22 -21z" />
    <glyph glyph-name="V" unicode="V" horiz-adv-x="580" 
d="M172 -35q-10 0 -23.5 9.5t-13.5 18.5q0 172 24 311q13 75 29 141.5t38 123.5l18 48q4 11 14 11q19 0 19 -16q0 -7 -11 -33.5t-29 -82.5q-69 -211 -69 -483q20 16 53 52t76 93q38 49 82.5 104.5t92.5 112t95.5 109t90.5 95.5q156 155 227 155q8 0 15.5 -2.5t7.5 -14.5
q0 -16 -15 -16q-4 0 -7 1t-7 1q-53 0 -205 -152q-52 -52 -94 -98.5t-82.5 -95.5t-86.5 -108.5t-107 -137.5q-49 -62 -84 -104t-48 -42z" />
    <glyph glyph-name="W" unicode="W" horiz-adv-x="1004" 
d="M143 -69q-28 0 -28 20q0 10 24 113q11 44 26 109.5t35 153.5q8 40 12.5 82t4.5 88q0 41 -2.5 66t-12.5 38q-9 12 -9 18q0 16 16 16q17 0 31 -22q6 -9 10 -36t4 -72q0 -48 -4.5 -93.5t-14.5 -89.5q-11 -55 -30 -137.5t-47 -192.5q23 22 51 54.5t57.5 67.5t55 68t44 57
t25.5 34q75 106 129 172.5t89 105t51 59.5q6 8 13 16t18 8q19 0 19 -20q0 -8 -3 -14t-7 -17q-12 -31 -30 -84q-70 -214 -70 -486q20 16 52.5 52.5t76.5 92.5q28 37 71 90.5t101 124.5q63 74 111 126.5t81 84.5q152 150 224 150q23 0 23 -18q0 -8 -4.5 -11.5t-9.5 -3.5
q-4 0 -7.5 1t-7.5 1q-53 0 -205 -152q-49 -49 -96.5 -100.5t-85.5 -99.5q-47 -60 -94.5 -121.5t-103.5 -132.5q-39 -50 -62 -76t-33 -36q-9 -9 -15.5 -14.5t-11.5 -5.5q-10 0 -23 9.5t-13 18.5q0 315 82 552q-37 -37 -86.5 -97.5t-113.5 -144.5q-51 -67 -88.5 -116
t-60.5 -80q-49 -63 -83.5 -103.5t-52.5 -58.5q-6 -7 -10.5 -10.5t-11.5 -3.5z" />
    <glyph glyph-name="X" unicode="X" horiz-adv-x="535" 
d="M-54 -81q-16 0 -16 17q0 6 7 15q84 116 222 249q39 38 89 81.5t96 82.5q-43 128 -43 215q0 54 15 54q19 0 19 -22q0 -9 -1 -18t-1 -17q0 -24 6.5 -58.5t16 -68.5t18.5 -60l210 180q17 14 38.5 34t50.5 45q19 16 27 16t12 -5t4 -11t-13 -18l-89 -80q-53 -48 -110 -96
t-118 -98q74 -228 74 -387q0 -19 -20 -19q-14 0 -14 15q0 39 -5 84.5t-13 95.5q-4 24 -17.5 73.5t-34.5 109.5q-20 -15 -52 -43t-65 -57.5t-56 -51.5q-59 -56 -107 -109t-86 -102q-5 -7 -12 -17t-14 -18q-4 -6 -7.5 -8.5t-10.5 -2.5z" />
    <glyph glyph-name="Y" unicode="Y" horiz-adv-x="556" 
d="M189 -29q-20 0 -20 17q0 4 3 11l6 14l99 249q-1 28 -9 75t-19 100t-21 97t-18 77t-8 37q0 7 11 7q13 0 15.5 -2.5t4.5 -9.5q17 -61 30 -112.5t19 -82.5q8 -38 14 -78t12 -78q128 115 261.5 225t270.5 210q5 4 10 7t12 3q17 0 17 -18q0 -7 -13 -16q-76 -53 -151.5 -112
t-146.5 -118q-67 -56 -131.5 -112t-127.5 -110q-6 -16 -17.5 -45t-24.5 -62.5t-25.5 -66t-22 -56.5t-13.5 -33q-4 -10 -8 -13.5t-9 -3.5z" />
    <glyph glyph-name="Z" unicode="Z" horiz-adv-x="542" 
d="M270 -7q-33 0 -79.5 4t-92 10t-75.5 12q-21 5 -21 20q0 8 17.5 29t42 46.5t46.5 44.5q33 29 83.5 68.5t108.5 82.5q53 40 91.5 70.5t63.5 50.5q47 41 81 76t53 66h-170q-17 0 -46.5 -3t-72.5 -10q-19 -3 -28.5 -5t-15.5 -2q-21 0 -21 20q0 9 10 12q8 2 28 5t45.5 6
t50 5.5t40.5 3.5q66 3 83 3q14 0 31 1t34 1q41 0 59 -6.5t19 -20.5q0 -8 -10 -23t-26 -35q-31 -38 -100.5 -100t-173.5 -140q-58 -43 -95 -71t-51 -39q-90 -73 -131 -126q61 -11 114.5 -17t99.5 -6q19 0 46.5 4t64.5 12q74 15 103 15q8 0 15.5 -6.5t7.5 -14.5
q0 -3 -2.5 -5.5t-10.5 -7.5q-52 -30 -216 -30z" />
    <glyph glyph-name="bracketleft" unicode="[" horiz-adv-x="318" 
d="M208 -34l-130 1q-13 0 -20.5 4t-7.5 17q0 3 0.5 6.5t1.5 7.5q6 35 22.5 90.5t38.5 122t46 134.5t47 129.5t41 106.5t26 63q8 17 15.5 21t15.5 4l158 -1q6 0 6 -6q0 -1 -0.5 -3.5t-1.5 -5.5q-6 -18 -18 -18l-143 1l-8 -18q-9 -21 -27.5 -67.5t-41 -108t-46.5 -128
t-45 -130t-36 -113t-20 -75.5l141 -1q6 0 6 -7t-6 -16.5t-14 -9.5z" />
    <glyph glyph-name="backslash" unicode="\" horiz-adv-x="639" 
d="M544 -113q-7 1 -9 8l-362 602q-55 92 -87 146.5t-42 71.5q-4 6 -2 11q5 16 20 11q8 -2 11 -8l91 -154l332 -553l66 -111q2 -6 2 -8q0 -19 -20 -16z" />
    <glyph glyph-name="bracketright" unicode="]" horiz-adv-x="442" 
d="M138 -34l-158 1q-6 0 -6 6q0 2 0.5 4t1.5 5q6 18 18 18l143 -1l8 18q10 21 28 67.5t40.5 108t46.5 128t45 130t36 113t20 75.5l-141 1q-6 0 -6 7q0 8 6.5 17t13.5 9l130 -1q13 0 20.5 -3.5t7.5 -17.5q0 -3 -0.5 -6t-1.5 -8q-6 -34 -22.5 -90t-38.5 -122.5t-46 -134.5
t-47 -129.5t-40.5 -106t-26.5 -63.5q-8 -17 -15.5 -21t-15.5 -4z" />
    <glyph glyph-name="asciicircum" unicode="^" horiz-adv-x="296" 
d="M51 636q-10 0 -10 12q0 5 3 8q10 11 30 31t42.5 42t40.5 37t25 15q6 0 20 -16.5t30.5 -39t29.5 -42.5t16 -27q3 -3 3 -7q0 -6 -4 -10t-11 2q-27 26 -53.5 52.5t-38.5 36.5q-9 -6 -32 -24t-46 -37t-36 -29q-4 -4 -9 -4z" />
    <glyph glyph-name="underscore" unicode="_" horiz-adv-x="605" 
d="M0 -67v28h604v-28h-604z" />
    <glyph glyph-name="grave" unicode="`" horiz-adv-x="126" 
d="M114 421q-3 0 -8 3q-31 28 -59.5 54t-37.5 35t-9 15q0 5 4 10t9 6h2q5 0 10 -3t9 -7q13 -13 31 -31.5t34.5 -35t23.5 -24.5q4 -4 4 -9q0 -4 -4 -8.5t-9 -4.5z" />
    <glyph glyph-name="a" unicode="a" horiz-adv-x="454" 
d="M103 -10q-58 0 -58 55q0 36 17.5 77.5t47.5 81t67 72t76 52t75 19.5q64 0 64 -63q0 -41 -20 -41q-18 0 -18 17q0 7 3.5 14.5t3.5 16.5q0 28 -38 28q-61 0 -153 -93q-22 -23 -43 -54t-34.5 -62.5t-13.5 -59.5q0 -27 30 -27q26 0 55.5 16t51.5 33q44 33 90 90q7 8 18 21
t25 29q5 5 12 5q16 0 16 -16l-38 -57q-38 -56 -38 -92q0 -26 25 -26q21 0 46 11t41 22q32 21 67 52.5t67 63.5q4 4 12 4q15 0 15 -12q0 -11 -14 -25q-40 -40 -72 -68.5t-61 -46.5q-19 -11 -47 -23t-64 -12q-49 0 -49 52q0 20 5 33q-91 -87 -169 -87z" />
    <glyph glyph-name="b" unicode="b" horiz-adv-x="391" 
d="M126 -59q-28 0 -46.5 17t-18.5 44q0 10 1 13q-14 -32 -26 -32q-16 0 -16 19l78 204q18 48 41 99.5t46.5 99t44 86t33.5 61.5q32 55 61.5 85.5t46.5 30.5q19 0 19 -21q0 -12 -12 -12q-26 0 -89 -109q-20 -34 -37.5 -67.5t-33.5 -66.5q-22 -47 -46 -101t-50 -114
q33 48 73 88q35 35 72.5 56.5t74.5 21.5q41 0 65 -17t24 -64q0 -39 -22.5 -83t-58 -86t-77 -76.5t-80.5 -55t-67 -20.5zM123 -26q30 0 66 20.5t72 53.5t66 71.5t48 76t18 66.5q0 45 -45 45q-40 0 -78 -24t-73.5 -64t-66.5 -88t-57 -97q9 9 17 9q14 0 14 -13q0 -6 -5 -13
q-2 -3 -4 -7t-2 -12q0 -24 30 -24z" />
    <glyph glyph-name="c" unicode="c" horiz-adv-x="371" 
d="M183 -14q-53 0 -83 31t-30 83q0 90 85 196q44 54 89.5 82.5t85.5 28.5q35 0 54 -24t19 -60q0 -22 -6 -45q-4 -16 -16 -16q-19 0 -19 21q0 9 3.5 23.5t3.5 28.5q0 40 -39 40q-21 0 -50.5 -15t-58.5 -39.5t-51 -55.5q-67 -91 -67 -163q0 -83 75 -83q47 0 90 14.5t101 60.5
q36 28 54 45t39 36q6 4 11 4t10 -3t5 -9q0 -11 -20 -31q-17 -16 -36 -33.5t-60 -48.5q-44 -34 -93.5 -51t-95.5 -17z" />
    <glyph glyph-name="d" unicode="d" horiz-adv-x="418" 
d="M383 -89q-8 0 -19.5 7.5t-17.5 14.5q-12 15 -16 36t-4 46q0 21 1.5 45.5t5.5 52.5q-26 -30 -58.5 -58.5t-66 -46.5t-63.5 -18q-75 0 -75 80q0 83 58 160q29 38 66 73t78 57t81 22q30 0 53 -23q2 4 5.5 13t10.5 23q24 52 53 108.5t52 93.5q26 41 49 41q16 0 16 -25
q0 -43 -81 -201q-5 -9 -17.5 -32.5t-29 -54t-33.5 -60.5t-30.5 -53.5t-19.5 -32.5q-11 -45 -17 -85.5t-6 -83.5q0 -16 1.5 -29.5t7.5 -21.5q5 -6 11 -9.5t14 -6.5q12 -3 12 -14q0 -18 -21 -18zM430 329q38 65 67 121.5t47 106.5q-40 -52 -67 -110t-47 -118zM138 20
q29 0 61.5 19.5t61.5 46.5q26 24 48 49.5t41 52.5q8 35 18.5 69t23.5 68q-16 25 -45 25q-30 0 -66.5 -22.5t-70 -55.5t-57.5 -63q-50 -67 -50 -142q0 -47 35 -47z" />
    <glyph glyph-name="e" unicode="e" horiz-adv-x="352" 
d="M160 -18q-42 0 -66 29t-24 71q0 72 48 148q13 21 30 41.5t37 39.5q30 29 63 48t64 19q51 0 51 -48q0 -60 -70 -109q-65 -44 -128 -44q-11 0 -19.5 1.5t-15.5 3.5q-10 -19 -18 -49t-8 -52q0 -66 58 -66q47 0 89 16.5t100 62.5q36 28 54 45t39 36q6 4 11 4t10 -3t5 -9
q0 -11 -20 -31q-17 -16 -36 -33.5t-60 -48.5q-44 -34 -96 -53t-98 -19zM159 209q32 0 61 10t55 29q58 43 58 81q0 17 -21 17q-40 0 -93 -49q-26 -24 -42.5 -43.5t-30.5 -42.5q6 -2 13 -2z" />
    <glyph glyph-name="f" unicode="f" horiz-adv-x="332" 
d="M-3 -330q-32 0 -45.5 21.5t-13.5 57.5q0 82 77 253q-4 4 -4 10q0 10 18 20q53 107 98.5 189.5t82.5 140.5q124 190 223 263q13 10 25 16t24 6q16 0 16 -13q0 -7 -5.5 -14.5t-18.5 -23.5q-15 -17 -35 -39.5t-41.5 -46.5t-39.5 -43.5t-29 -30.5l-92 -95l-32 -51
q-13 -20 -31.5 -54.5t-43.5 -81.5q-10 -19 -25.5 -49t-35.5 -71q8 -1 14.5 -3.5t12.5 -5.5q137 42 259 148q7 5 12 5q17 0 17 -15q0 -4 -2.5 -8t-5.5 -8q-15 -16 -43 -37t-70 -45q-36 -20 -69.5 -36.5t-64.5 -27.5q28 -34 28 -87q0 -73 -43 -152q-50 -92 -117 -92zM-9 -300
q29 0 55.5 24t45.5 62q14 27 23.5 64.5t9.5 65.5q0 56 -34 75q-13 -2 -24 -3.5t-21 -0.5v-1q-84 -187 -84 -256q0 -15 8 -22.5t21 -7.5z" />
    <glyph glyph-name="g" unicode="g" horiz-adv-x="393" 
d="M79 -329q-42 0 -63 31.5t-21 71.5q0 30 2.5 58.5t7.5 56.5q3 16 14 16q20 0 20 -21q0 -6 -3 -18q-3 -10 -3 -15q-2 -16 -3 -33.5t-1 -35.5q0 -79 58 -79q17 0 39.5 23t40.5 50q42 63 89 199l33 95q-81 -97 -146 -97q-40 0 -62 30t-22 73q0 86 76 190q83 111 163 111
q63 0 83 -74q38 92 70 92q12 0 12 -20q0 -40 -37 -107q-8 -13 -19.5 -32t-25.5 -45l-34 -83q-10 -24 -25 -60.5t-34 -85.5q-22 -60 -40.5 -103.5t-33.5 -71.5q-65 -116 -131 -116h-4zM143 8q63 0 186 169l29 74q-7 5 -10 21q-9 43 -21 57t-32 14q-23 0 -53 -21t-57 -51.5
t-43 -59.5q-48 -82 -48 -141q0 -62 49 -62z" />
    <glyph glyph-name="h" unicode="h" horiz-adv-x="443" 
d="M48 -18q-16 0 -16 16q0 21 15 66.5t39.5 105t52.5 122.5q16 35 33 68.5t32 58.5q148 250 184 250q14 0 14 -14q0 -9 -13.5 -33.5t-35 -57t-46 -65.5t-46 -60.5t-34.5 -41.5q-11 -13 -24.5 -38t-26.5 -51.5t-21 -46.5l-38 -94q15 20 39 45q57 63 118.5 95.5t103.5 32.5
q23 0 37 -14t14 -34q0 -39 -51 -131q-51 -91 -51 -112q0 -11 12 -11q28 0 61 20.5t68 52.5t68 64q4 4 12 4q15 0 15 -12q0 -11 -14 -25q-67 -67 -115 -100t-101 -33q-40 0 -40 37q0 14 5 27t16 35l46 91q17 34 25 57t8 35q0 17 -21 17q-37 0 -86.5 -29.5t-105.5 -88.5
q-32 -34 -57.5 -72t-40.5 -82l-12 -35q-7 -19 -22 -19z" />
    <glyph glyph-name="i" unicode="i" horiz-adv-x="244" 
d="M275 394q-17 0 -17 17q0 5 7 18.5t16 27.5t14 19q17 19 26.5 24t17.5 5q21 0 21 -19q0 -7 -8.5 -16.5t-19.5 -17.5q-16 -10 -20 -16l-22 -31q-1 -4 -4.5 -7.5t-10.5 -3.5zM105 -11q-28 0 -40.5 11t-12.5 33q0 21 13 57.5t33.5 78.5t43.5 80t44.5 62.5t34.5 24.5
q18 0 18 -16q0 -10 -17 -38t-37 -58q-8 -11 -22 -30t-27 -35.5t-17 -22.5q-10 -15 -21 -49q-12 -34 -12 -52q0 -8 3.5 -12t16.5 -4q25 0 56 16t63 40.5t60.5 50.5t48.5 45q4 4 12 4q15 0 15 -12q0 -11 -14 -25q-27 -27 -50 -48t-44 -37q-33 -24 -73 -44t-75 -20z" />
    <glyph glyph-name="j" unicode="j" horiz-adv-x="179" 
d="M228 394q-17 0 -17 17q0 5 7 18.5t16 27.5t14 19q17 19 26.5 24t17.5 5q21 0 21 -19q0 -7 -8.5 -16.5t-19.5 -17.5q-16 -10 -20 -16l-22 -31q-1 -4 -4.5 -7.5t-10.5 -3.5zM-125 -333q-27 0 -44.5 18.5t-26 45t-8.5 50.5q0 29 6 53q8 35 26 35q16 0 16 -15q0 -4 -4 -11
t-6 -12q-6 -16 -6 -41q0 -31 12 -59.5t38 -28.5q20 0 40 16t38.5 40.5t34 51.5t25.5 50q14 31 28 67t25.5 69t15.5 53q8 40 16.5 79.5t17.5 79.5q17 71 34 99t31 28q7 0 16.5 -6t9.5 -14q0 -4 -20 -38q-11 -19 -17 -30t-8 -15q-3 -7 -9 -30t-13.5 -54.5t-15.5 -64.5
t-14.5 -60.5t-11.5 -42.5q-16 -52 -38 -102t-47 -91q-73 -120 -141 -120z" />
    <glyph glyph-name="k" unicode="k" horiz-adv-x="369" 
d="M333 -47q-10 0 -15 12l-14 34q-22 53 -63 105.5t-81 96.5q-22 -45 -39 -81t-31 -67.5t-30 -65.5q-4 -10 -14 -10q-17 0 -17 14q0 6 4.5 15.5t8.5 19.5q26 63 67.5 150t94.5 190q101 197 162 282q14 20 27.5 36t23.5 16q18 0 18 -19q0 -26 -76 -138q-6 -9 -21 -30
t-32 -45.5t-31.5 -45t-19.5 -28.5l-72 -143q242 141 260 141q16 0 16 -18q0 -11 -12 -16q-44 -21 -69.5 -34t-51.5 -27q-22 -14 -56.5 -34t-81.5 -46q24 -26 52 -60.5t52.5 -71t40.5 -67.5t16 -50q0 -15 -16 -15z" />
    <glyph glyph-name="l" unicode="l" horiz-adv-x="253" 
d="M169 -27q-46 0 -70.5 28.5t-24.5 75.5q0 34 12 82q21 81 71 188q39 81 84 159.5t99 154.5q86 122 120 122q22 0 22 -12q0 -17 -56 -85l-70 -85q-91 -110 -148.5 -225t-89.5 -230q-9 -33 -9 -62q0 -76 62 -76q22 0 45 13q23 12 25 12q12 0 12 -17q0 -15 -11 -23
q-34 -20 -73 -20z" />
    <glyph glyph-name="m" unicode="m" horiz-adv-x="741" 
d="M26 -34q-17 0 -17 16q0 1 12 25t34 71l51 107q31 65 44.5 103t13.5 49q0 16 16 16t16 -16q0 -13 -8.5 -40.5t-27.5 -70.5l-51 -116q209 264 315 264q20 0 31 -16.5t11 -36.5q0 -48 -69 -167q53 54 107.5 108.5t109.5 107.5q14 13 23 13q12 0 20 -11.5t8 -24.5
q0 -10 -9 -25q-13 -22 -24 -52.5t-25 -68.5q-16 -43 -23 -75t-7 -52q0 -25 12 -36.5t24 -11.5q21 0 46 11t41 22q32 21 67 52.5t67 63.5q4 4 12 4q15 0 15 -12q0 -11 -14 -25q-40 -40 -72 -68.5t-61 -46.5q-19 -11 -46 -23t-58 -12q-29 0 -48.5 18t-19.5 77q0 23 8 54.5
t24 70.5l53 126l-143 -144q-25 -25 -41 -42t-26 -28q-19 -20 -33.5 -39t-24.5 -33q-7 -11 -16 -11q-17 0 -17 14q0 31 56 143t56 134q0 10 -22 10q-89 0 -317 -291q-19 -27 -63 -81q-3 -4 -10 -4z" />
    <glyph glyph-name="n" unicode="n" horiz-adv-x="397" 
d="M25 -25q-16 0 -16 13q0 5 4 12.5t7 12.5l90 181q58 118 58 131q0 14 14 14q19 0 19 -20q0 -7 -9 -30t-23 -52q-24 -52 -40 -80q30 35 61 66t63 59q95 83 146 83q35 0 35 -33q0 -30 -51 -135q-51 -106 -51 -134q0 -13 9 -13q3 0 9.5 2.5t13.5 2.5q17 0 17 -16
q0 -20 -43 -20q-20 0 -29 9.5t-9 25.5q0 48 49 146q49 97 49 117q0 12 -9 12q-22 0 -71 -37q-53 -40 -106 -92t-101 -119l-70 -97q-6 -9 -16 -9z" />
    <glyph glyph-name="o" unicode="o" horiz-adv-x="333" 
d="M141 5q-81 0 -81 91q0 42 20 88t53 85.5t73.5 64.5t82.5 25q37 0 54 -28t17 -62q0 -45 -18 -91.5t-49 -85.5t-70 -63t-82 -24zM140 37q6 0 7 1q39 5 72 28t57.5 57.5t37.5 74.5t13 79q0 23 -13 36t-33 13q-29 0 -61.5 -24t-61 -61t-46.5 -77.5t-18 -72.5q0 -54 46 -54z
" />
    <glyph glyph-name="p" unicode="p" horiz-adv-x="407" 
d="M7 -276q-47 0 -47 67q0 88 77 280q13 32 31 67t42 74q25 42 47.5 73t39.5 50q6 6 10.5 8t7.5 2q26 0 59 -15t59 -38q24 -20 39 -48t15 -58q0 -22 -8.5 -44.5t-22.5 -44.5q26 5 63.5 23t76.5 55q4 4 11 4q15 0 15 -12q0 -5 -4.5 -12.5t-15.5 -18.5q-74 -68 -178 -78
q-15 -16 -32.5 -30.5t-36.5 -26.5q-58 -35 -99 -35q-17 0 -28 11t-11 25q0 46 80 70q29 8 58 14t57 13q20 31 29.5 54t9.5 39q0 53 -79 101q-31 19 -49 18q-82 -90 -155 -252q-76 -167 -76 -263q0 -23 4 -31t14 -8q3 0 5 0.5t4 0.5q13 0 13 -16q0 -18 -25 -18zM163 -2
q37 0 107 58q-16 -2 -30.5 -5t-41.5 -11q-45 -13 -45 -33q0 -9 10 -9z" />
    <glyph glyph-name="q" unicode="q" horiz-adv-x="468" 
d="M190 -324q-56 0 -56 57q0 23 10.5 52.5t24 58.5t23.5 51q28 63 44 97.5t29 58.5q-62 -61 -125 -61q-35 0 -55 22.5t-20 67.5q0 44 16 91t59 101q23 29 58 55.5t74 44t72 17.5q82 0 82 -90q0 -16 -16 -16q-15 0 -16 19q-1 9 -1.5 18.5t-4.5 18.5q-7 19 -35 19
q-48 0 -94.5 -28.5t-86.5 -70.5q-35 -37 -54 -83t-19 -90q0 -64 46 -64q33 0 69 28.5t72 72t67 88.5l30 43q9 13 17 13t12.5 -4.5t4.5 -9.5q0 -4 -3 -9t-8 -16l-105 -186q23 -9 43 -9q29 0 58.5 16t66.5 45q36 28 54 45t39 36q6 4 11 4t10 -3t5 -9q0 -11 -20 -31
q-17 -16 -36 -33.5t-60 -48.5q-29 -22 -62.5 -37t-68.5 -15q-13 0 -27 3q21 -40 21 -100q0 -40 -11 -80.5t-30.5 -74t-46 -54t-57.5 -20.5zM188 -293q20 0 39.5 17.5t36.5 44t27 55t10 49.5q0 36 -5 67t-16 63q-60 -112 -87.5 -177.5t-27.5 -92.5q0 -26 23 -26z" />
    <glyph glyph-name="r" unicode="r" horiz-adv-x="321" 
d="M25 -25q-16 0 -16 13q0 6 3.5 12t5.5 10l91 184q58 118 58 131q0 14 14 14q19 0 19 -19q0 -10 -9 -32t-23 -51q-24 -52 -40 -80q30 35 61 66t63 59q95 83 146 83q35 0 35 -33q0 -32 -21 -32q-10 0 -15 17q-3 12 -14 12q-17 0 -66 -37q-54 -40 -108.5 -95t-115.5 -140
l-50 -70q-4 -5 -7.5 -8.5t-10.5 -3.5z" />
    <glyph glyph-name="s" unicode="s" horiz-adv-x="310" 
d="M80 -33q-56 0 -56 37q0 23 16.5 46t39.5 42t43 29q6 3 16.5 6t17.5 3q8 0 8 -6q0 -5 -11 -11q-46 -22 -71.5 -52.5t-25.5 -49.5q0 -18 31 -18q26 0 56.5 13t58 34t45.5 45t18 46q0 15 -9.5 27t-30.5 18l-66 20q-25 8 -36 21t-11 29q0 30 22.5 54t56.5 38t66 14t56 -15.5
t24 -41.5q0 -15 -8.5 -28t-19.5 -13q-17 0 -17 14q0 5 5.5 12.5t5.5 14.5q0 30 -46 30q-25 0 -49.5 -10.5t-40.5 -27.5t-16 -37t40 -32l64 -20q29 -9 40 -24.5t11 -34.5q0 -45 -55 -93q-89 -79 -172 -79z" />
    <glyph glyph-name="t" unicode="t" horiz-adv-x="229" 
d="M61 -69q-19 0 -19 30q0 44 49.5 154t147.5 288q-38 0 -71.5 -9.5t-35.5 -23.5q-1 -4 -4.5 -7.5t-10.5 -3.5q-16 0 -16 16q0 26 41 43t115 17l69 114q7 11 15 24.5t18 29.5q10 14 23 14q8 0 12 -4.5t4 -9.5q0 -15 -44 -80q-55 -81 -59 -88q15 0 45 -2.5t71 -7.5
q15 -1 15 -15q0 -16 -18 -16q-7 0 -28 2.5t-45 4.5t-41 1l-15 -1q-203 -357 -202 -444l1 -8v-2q0 -16 -17 -16z" />
    <glyph glyph-name="u" unicode="u" horiz-adv-x="469" 
d="M339 -34q-49 0 -49 71q0 38 18 92q-121 -141 -190 -141q-57 0 -57 69q0 26 8.5 62.5t23 75.5t31.5 73t34 55q6 7 15 7q5 0 10 -3.5t5 -10.5q0 -6 -7 -17q-45 -74 -64 -129q-24 -63 -24 -109q0 -43 22 -43q14 0 37 14t47.5 34.5t42.5 38.5q50 53 90 113q18 28 32.5 54.5
t26.5 55.5q5 11 8.5 16.5t10.5 5.5q21 0 21 -16q0 -10 -7 -14q-102 -207 -102 -285q0 -21 4 -29.5t14 -8.5q14 0 43.5 18t69.5 55l105 96q8 8 15 8q16 0 16 -15q0 -13 -63 -70q-27 -25 -48 -42t-39 -30q-34 -24 -60 -37.5t-40 -13.5z" />
    <glyph glyph-name="v" unicode="v" horiz-adv-x="323" 
d="M118 -10q-12 0 -12 9q-16 28 -16 115q0 21 3 56t8 73t11 69.5t13 45.5q6 12 15 12q16 0 16 -13q0 -7 -2 -13.5t-4 -15.5q-13 -50 -20.5 -106t-7.5 -115q0 -27 2.5 -48t5.5 -36q28 11 62 43.5t66 72.5q26 33 47.5 67t34 64t12.5 49q0 13 -2.5 18t-5.5 8t-3 11q0 15 15 15
q10 0 18 -15t8 -38q0 -71 -99 -199q-102 -129 -165 -129z" />
    <glyph glyph-name="w" unicode="w" horiz-adv-x="653" 
d="M414 -20q-25 0 -39 20t-14 50q0 8 1 24.5t2.5 35t2.5 33t2 17.5l-1 4q-9 -13 -24.5 -34t-32 -42.5t-29.5 -37.5q-21 -25 -46 -39t-46 -14q-25 0 -42 25.5t-17 73.5q0 46 15 103l-31 -36q-7 -7 -12 -11.5t-10 -4.5t-9.5 4.5t-4.5 11.5t5 12q10 11 23.5 28.5t31.5 40.5
q15 21 50 78q6 10 16 10q17 0 17 -16q0 -5 -5 -13.5t-14 -31.5q-18 -47 -28 -92.5t-10 -89.5q0 -38 5 -49.5t15 -11.5q32 0 77 48q13 14 39 47.5t54 79t44 93.5l15 44q3 9 13 9q18 0 18 -17q0 -6 -11 -31.5t-22 -79.5q-7 -34 -12.5 -72t-5.5 -73q0 -67 22 -67q18 0 46 19
t59 48t56 60q23 27 47 62t40.5 70.5t16.5 61.5t-14 34q-2 1 -27 4q-14 2 -14 16q0 16 16 16q32 0 51.5 -18t19.5 -49q0 -84 -112 -217q-114 -136 -187 -136z" />
    <glyph glyph-name="x" unicode="x" horiz-adv-x="469" 
d="M-2 -25q-17 0 -17 16q0 8 24.5 34.5t75.5 69.5l120 102q-7 27 -12.5 48t-10.5 35q-19 58 -34 73q-6 6 -6 13q0 15 15 15q23 0 48 -70q8 -23 15 -46l14 -46q109 90 142 124q8 8 11 12t4 7q5 11 17 11q16 0 16 -15q0 -30 -180 -171q12 -42 25 -79t30.5 -60.5t39.5 -23.5
q21 0 44.5 11t47.5 27.5t43 31.5q36 28 54 45t39 36q6 4 11 4t10 -3t5 -9q0 -11 -20 -31q-17 -16 -36 -33.5t-60 -48.5q-18 -14 -42.5 -28t-49 -23t-44.5 -9q-34 0 -57.5 24.5t-39.5 63.5t-29 82l-103 -88q-31 -26 -55 -50t-42 -45q-4 -6 -13 -6z" />
    <glyph glyph-name="y" unicode="y" horiz-adv-x="420" 
d="M46 -331q-61 0 -61 72q0 61 26 118q4 10 13 10q18 0 18 -16q0 -4 -2.5 -10.5t-5.5 -14.5q-7 -19 -11 -40t-4 -44q0 -26 7 -35t18 -9q26 0 61.5 24t73.5 76q27 37 56 88t62 117q44 87 81 177q-25 -32 -52 -62t-58 -56q-83 -71 -138 -71q-66 0 -66 76q0 27 10.5 65t29.5 87
q3 8 3 13.5t3 11.5q16 35 53 78q8 9 14 9q15 0 15 -22q-97 -143 -97 -242q0 -42 33 -42q37 0 103 51q47 36 87 81.5t72 94.5q22 33 35.5 58.5t16.5 34.5q5 15 14 15q19 0 19 -16q0 -8 -7.5 -28.5t-18.5 -48.5q-16 -41 -46 -110t-75 -164q-56 -118 -110 -193
q-40 -57 -87.5 -95t-84.5 -38z" />
    <glyph glyph-name="z" unicode="z" horiz-adv-x="569" 
d="M164 -321q-25 0 -39 13t-14 35q0 31 22.5 54.5t62.5 48.5q31 19 83 51.5t107 69.5q30 20 49 34.5t38 30.5q1 7 1.5 12t0.5 7q0 36 -19 66.5t-52 34.5q-76 -88 -112 -88q-25 0 -25 28q0 24 19.5 45t48.5 35t55 15q96 122 96 202q0 43 -42 43q-63 0 -184 -115
q-9 -9 -33.5 -34t-54.5 -56.5t-58 -60.5q-7 -7 -14.5 -14t-15.5 -7q-13 0 -13 14q0 9 7 17q3 4 22.5 23.5l45.5 45.5l51 51l41 41q62 62 115 94.5t100 32.5q67 0 67 -72q0 -96 -94 -211q36 -14 57.5 -47.5t23.5 -69.5q34 27 50 40t23.5 19t14 12t20 18t42.5 38q6 4 11 4
t10 -3t5 -9q0 -11 -20 -31q-22 -20 -51.5 -46t-58.5 -49.5t-50 -38.5q-15 -80 -90 -166q-22 -25 -48.5 -48.5t-55.5 -45.5q-34 -24 -73.5 -43.5t-71.5 -19.5zM296 76q20 11 41.5 30t30.5 33q-33 -12 -53 -29.5t-19 -33.5zM175 -289q45 0 118 57q53 42 96 90q52 60 71 109
q-7 -5 -17 -12.5t-29 -21.5q-31 -22 -54 -38t-44.5 -29.5t-46 -28.5t-57.5 -35q-38 -22 -52 -39.5t-14 -29.5q0 -22 29 -22z" />
    <glyph glyph-name="braceleft" unicode="{" horiz-adv-x="435" 
d="M314 -58q-111 0 -111 96q0 36 21 103q21 68 21 98q0 26 -19 54t-44 38q0 2 49 39q48 36 68 67q7 10 25 40.5t48 80.5q43 73 71 96q39 32 112 33q-4 -11 -18 -18t-37 -14q-15 -4 -40.5 -29.5t-44.5 -58.5q-8 -13 -19 -38.5t-41 -72.5q-17 -27 -43.5 -57.5t-75.5 -58.5
q52 -31 52 -71q0 -37 -27 -108q-28 -69 -28 -109q0 -41 30 -62q20 -16 68 -26q20 -5 20 -11q0 -11 -37 -11z" />
    <glyph glyph-name="bar" unicode="|" horiz-adv-x="177" 
d="M98 -29q-11 1 -18.5 27t-11.5 67t-6 87t-2 87v35t1 29q2 22 4 65.5t5 94.5t6 98.5t7 77.5q3 34 19 34q15 0 15 -21l-4 -30q-4 -33 -7 -80.5t-5.5 -98t-4 -90.5t-2.5 -58q-1 -16 -1.5 -32.5t-0.5 -33.5q0 -66 6.5 -130.5t18.5 -110.5v-2q0 -17 -19 -15z" />
    <glyph glyph-name="braceright" unicode="}" horiz-adv-x="384" 
d="M34 -94q2 13 15.5 24.5t32.5 24.5q28 19 42.5 39t26.5 57q5 15 12.5 43t23.5 77q11 30 31 65t63 72q-67 25 -67 88q0 28 9 83q9 56 9 83q0 56 -31 77q-27 18 -85 19q-3 1 -6 1h-6q-9 2 -9 7q0 20 68 20q97 0 97 -126q0 -22 -3 -66q-2 -22 -3 -39t-1 -28q0 -35 22.5 -64
t56.5 -36q0 -2 -39 -46q-41 -47 -55 -81q-10 -23 -22 -56t-27 -76q-28 -81 -51 -108q-31 -39 -104 -54z" />
    <glyph glyph-name="asciitilde" unicode="~" horiz-adv-x="323" 
d="M315 369q-29 0 -60 23t-47 23q-37 0 -55 -19t-20 -19q-17 0 -17 15q0 1 2 7q23 45 88 45q21 0 53 -22q32 -23 56 -23q14 0 27 10q12 9 16 9q14 0 14 -14q0 -8 -10 -16.5t-23.5 -13.5t-23.5 -5z" />
    <glyph glyph-name="uni00A0" unicode="&#xa0;" horiz-adv-x="284" 
 />
    <glyph glyph-name="exclamdown" unicode="&#xa1;" horiz-adv-x="234" 
d="M248 332q26 0 26 -25q0 -27 -25 -27q-26 0 -26 25q0 27 25 27zM213 190q16 0 16 -16q0 -25 -51 -105l-69 -102l-57 -82q-19 -29 -30 -50.5t-13 -35.5l-4 -26q-5 -17 -16 -17q-17 0 -17 18q0 33 44 109q5 10 18.5 30.5t42.5 63.5t80 117q5 8 11.5 18.5t14.5 24.5q4 9 7 18
t6 17q5 18 17 18z" />
    <glyph glyph-name="cent" unicode="&#xa2;" horiz-adv-x="443" 
d="M140 50q-10 2 -6 26t17 61.5t31 79.5q-62 26 -62 104q0 90 85 196q44 54 89.5 82.5t85.5 28.5q6 0 11 -1q10 19 19.5 35.5t17.5 28.5q18 33 34 31q15 -2 5 -22l-17 -28q-13 -21 -32 -54q35 -22 35 -74q0 -22 -6 -45q-4 -16 -16 -16q-19 0 -19 21q0 9 3.5 23.5t3.5 28.5
q0 26 -16 35q-23 -44 -47.5 -91t-44 -85t-28.5 -54q-8 -15 -16 -31l-16 -32l-26 -58h3q92 0 220 101q18 14 30.5 20.5t18.5 6.5t6 -6q0 -7 -12 -23t-38 -35q-128 -97 -220 -97q-11 0 -21 1q-16 -40 -27.5 -77.5t-17.5 -66.5l-1 -2q-8 -16 -26 -12zM153 323q0 -61 41 -77
q14 32 30 65q8 18 15.5 33.5t14.5 27.5q10 19 29.5 56t43 81.5t46.5 86.5q-21 -3 -49 -18t-55.5 -39t-48.5 -53q-67 -91 -67 -163z" />
    <glyph glyph-name="sterling" unicode="&#xa3;" horiz-adv-x="493" 
d="M-49 -101q-24 0 -24 20v5t1 5q8 28 77 68q7 10 13 22t12 26q18 42 133 202q-7 1 -26 0.5t-49 -2.5q-5 0 -5 5q0 6 7 16t13 11q29 0 84 3q53 71 111 138.5t118 122t118.5 87t110.5 32.5q58 0 58 -55q0 -31 -16 -66t-41.5 -70t-54.5 -65.5t-55 -51.5q-4 -2 -6 -2
q-7 0 -13.5 7.5t-0.5 13.5q48 44 91.5 96t58.5 109q3 14 3 25q0 33 -25 33q-45 0 -99 -31.5t-111 -83.5t-111.5 -114.5t-102.5 -125.5q13 0 36.5 1t49.5 1.5t45 0.5q43 0 43 -14q0 -12 -37 -12l-158 -10l-40 -56t-40 -57q-51 -73 -70 -116q170 89 370 89q41 0 72 -16
q39 -19 39 -52q0 -4 -0.5 -8t-1.5 -8q-6 -22 -13 -26q-4 7 -6 19q-7 55 -95 55q-199 0 -342 -72q-7 -4 -15 -7t-18 -7q-37 -85 -88 -85z" />
    <glyph glyph-name="currency" unicode="&#xa4;" horiz-adv-x="328" 
d="M121 471q-10 0 -11.5 5.5t-1.5 9.5q0 11 16.5 37.5t38.5 51.5q-8 14 -8 32q0 32 21 57q-13 8 -28 14.5t-35 13.5q-13 3 -13 11q0 6 6 11.5t16 5.5q19 0 40 -10.5t39 -24.5q21 13 49 13q19 0 32 -6q19 16 40.5 30t35.5 14q7 0 12 -3t5 -7l-23 -17t-47 -36q6 -7 8.5 -16.5
t2.5 -19.5q0 -32 -23 -58q15 -24 27.5 -47.5t12.5 -33.5q0 -9 -17 -9q-6 0 -9.5 3.5l-6.5 6.5q-9 15 -18.5 30t-18.5 29q-10 -4 -23 -7t-27 -3q-13 0 -22 3q-22 -19 -40 -36t-18 -34q0 -3 -2 -6.5t-10 -3.5zM226 573q31 0 46.5 19t15.5 39q0 17 -9.5 29t-28.5 12
q-31 0 -48 -19.5t-17 -40.5q0 -16 10 -27.5t31 -11.5z" />
    <glyph glyph-name="yen" unicode="&#xa5;" horiz-adv-x="370" 
d="M49 -29q-20 0 -20 18q0 2 53 136q-15 -1 -27 -1t-25 8t-13 21q0 17 16 17q5 0 12 -6q6 -6 12 -6q16 0 39 2q14 35 31 77q-23 -3 -41.5 -4.5t-30.5 -1.5t-25 8t-13 21q0 17 16 17q5 0 12 -6q6 -6 12 -6q26 0 77 6h2q-3 49 -26 164h-1q-6 33 -21 99q-13 57 -19.5 85
t-6.5 26v3q0 7 11 7t18 -4q17 -61 30.5 -113.5t22.5 -96.5q4 -25 10 -62t14 -87q131 119 266.5 229.5t275.5 212.5v1q3 1 5.5 1.5t3.5 0.5q20 0 20 -19q0 -6 -6 -11l1 2q-67 -48 -145 -108.5t-169 -134.5l-221 -189h10q24 0 40 -3q14 -3 14 -18q0 -16 -15 -16q-4 0 -9 0.5
t-12 1.5t-12.5 1.5t-9.5 0.5q-15 0 -39 -2q-7 -19 -14.5 -38t-15.5 -39q48 6 73 6q24 0 40 -4q14 -3 14 -18q0 -16 -15 -16q-4 0 -9 0.5t-12 1.5t-12.5 1.5t-9.5 0.5q-24 0 -74 -6q-5 -1 -9 -1l-12 -30l-12 -30q-10 -30 -36 -90q-3 -9 -13 -9z" />
    <glyph glyph-name="brokenbar" unicode="&#xa6;" horiz-adv-x="146" 
d="M81 403l-26 12v111.5v91t-1 55.5q0 6 5 9.5t10 3.5q13 0 13 -13v-55t-0.5 -96t-0.5 -119zM64 5q-7 0 -10 10l0.5 37.5t0.5 99v132.5l26 2v-134t-0.5 -99.5l-0.5 -37.5q-10 -10 -16 -10z" />
    <glyph glyph-name="section" unicode="&#xa7;" horiz-adv-x="584" 
d="M12 -205q-43 0 -75 17q-44 23 -44 69q0 11 3 23q5 20 16 44q15 32 29 34q6 0 4 -6q-4 -8 -9 -21.5t-12 -31.5q-1 -5 -1.5 -10.5t-0.5 -10.5q0 -39 37 -60q28 -16 70 -16q52 0 107.5 17.5t113.5 49.5q50 27 93 61t76.5 70t52 68.5t18.5 56.5q0 47 -70 47q-22 0 -59 -4.5
t-89 -12.5q-105 -18 -146 -18q-61 0 -61 40q0 66 111 159q0 11 4 24q23 80 145 171q103 77 201 113q74 26 150 32l14 1q4 0 8 0.5t8 0.5q21 0 39 -5t34 -14q41 -24 41 -69q0 -15 -4 -30q-4 -18 -18 -44q-17 -32 -31 -32q-5 0 -4 6q5 8 11.5 21.5t13.5 31.5q3 14 3 24
q0 37 -35 60q-32 20 -76 20q-110 0 -262 -87q-163 -94 -192 -200q-1 -4 -1.5 -7.5t-0.5 -7.5q0 -25 21 -39.5t49 -14.5q23 0 56.5 3t79.5 8q45 5 78.5 8t55.5 3q68 0 68 -42q0 -4 -0.5 -7.5t-1.5 -7.5q-16 -61 -99 -129q0 -4 -0.5 -8t-1.5 -9q-17 -80 -137 -176
q-99 -80 -198 -121q-85 -35 -149 -40l-15 -1q-4 0 -8.5 -0.5t-9.5 -0.5zM524 187q33 30 52 56q15 20 15 35q0 25 -46 25q-20 0 -52.5 -1.5t-77.5 -5.5q-46 -4 -79.5 -6t-56.5 -2q-72 0 -94 37q-19 -17 -35 -35t-30 -38q-5 -8 -8.5 -14.5t-4.5 -11.5l-1 -7q0 -14 15 -20
q9 -3 26 -3q20 0 55 3.5t85 10.5q53 7 90.5 10.5t59.5 3.5q68 0 87 -37z" />
    <glyph glyph-name="dieresis" unicode="&#xa8;" horiz-adv-x="169" 
d="M140 425q-7 -3 -15.5 8t-8.5 22q0 10 8 17t10 8q5 1 9.5 1.5t8.5 0.5q17 0 17 -14q0 -3 -2 -11q-2 -9 -7.5 -17.5t-19.5 -14.5zM24 425q-7 -3 -15.5 8t-8.5 22q0 10 8 17t10 8q5 1 9.5 1.5t8.5 0.5q17 0 17 -14q0 -3 -2 -11q-2 -9 -7.5 -17.5t-19.5 -14.5z" />
    <glyph glyph-name="copyright" unicode="&#xa9;" horiz-adv-x="503" 
d="M217 18q-76 0 -121.5 43.5t-45.5 113.5q0 38 13 74q17 50 50.5 94.5t78.5 78.5t96 53t102 19q75 0 120.5 -43.5t45.5 -112.5v-3q3 -3 3 -9q0 -3 -2 -7l-2 -3q-3 -25 -12 -52q-17 -50 -50.5 -94.5t-78.5 -78.5t-95.5 -53.5t-101.5 -19.5zM221 42q46 0 92.5 17.5t87.5 48.5
t72.5 71.5t46.5 86.5q2 4 3 7.5t2 7.5q-27 -29 -55 -54.5t-59 -46.5q-96 -68 -167 -68q-40 0 -62.5 21.5t-22.5 58.5q0 64 64 138q68 78 133 78q27 0 41 -16.5t14 -42.5q0 -7 -1 -16t-4 -19l-1 1q0 -9 -9 -9q-16 0 -16 15q0 5 3 18q2 6 2 10.5v8.5q0 28 -29 28
q-28 0 -68 -28q-16 -12 -29.5 -24t-23.5 -26q-51 -63 -51 -115q0 -58 57 -58q69 0 166 71q39 29 70 59t55 61v7q0 61 -39.5 99t-107.5 38q-46 0 -92 -17.5t-87.5 -48.5t-72.5 -71t-46 -86q-11 -36 -11 -67q0 -61 39.5 -99.5t105.5 -38.5z" />
    <glyph glyph-name="ordfeminine" unicode="&#xaa;" horiz-adv-x="327" 
d="M36 336q-42 0 -42 40q0 32 19 69t49 70t65 53.5t67 20.5q47 0 47 -46q0 -30 -16 -30q-15 0 -15 13q0 5 3 12q0 1 0.5 2t0.5 2q1 2 1 6q0 18 -25 18q-40 0 -106 -64q-24 -27 -41 -57q-21 -37 -21 -66q0 -16 19 -16q5 0 9 0.5t8 1.5q28 8 56 32.5t62 61.5l32 35q4 4 9 4
q13 0 13 -13q0 -2 -11 -18l-15 -23q-27 -42 -27 -63q0 -16 15 -16q12 0 26 7q27 12 57 35t63 54h0.5t1.5 1q2 1 3.5 2t3.5 1q14 0 14 -13q0 -5 -2 -8v0q-16 -18 -35.5 -35t-43.5 -34q-59 -38 -95 -38t-36 38q0 9 2 17q-61 -56 -115 -56z" />
    <glyph glyph-name="guillemotleft" unicode="&#xab;" horiz-adv-x="393" 
d="M304 -14q-4 0 -9 2t-8 9l-25 61l-40 99q-3 7 -5 11.5t-2 11.5q0 10 24 31l85 75l32 28l70 59q14 11 21 11q12 0 12 -13q0 -8 -13 -20l-79 -66q-19 -17 -48.5 -44t-68.5 -62q5 -15 14 -37.5t21 -51.5l26 -58q3 -7 6.5 -14t3.5 -12q0 -9 -5.5 -14.5t-11.5 -5.5zM199 -14
q-4 0 -9 2t-8 9l-25 61l-40 109q-3 7 -5 11.5t-2 11.5q0 10 24 31l72 65l32 28l70 59q14 11 21 11q12 0 12 -13q0 -8 -13 -20l-79 -66q-19 -16 -44 -40t-60 -56q5 -15 14 -41t21 -58l26 -58q3 -7 6.5 -14t3.5 -12q0 -9 -5.5 -14.5t-11.5 -5.5z" />
    <glyph glyph-name="logicalnot" unicode="&#xac;" horiz-adv-x="432" 
d="M356 112v156h-322v42h364v-198h-42z" />
    <glyph glyph-name="uni00AD" unicode="&#xad;" 
 />
    <glyph glyph-name="registered" unicode="&#xae;" horiz-adv-x="503" 
d="M217 18q-76 0 -121.5 43.5t-45.5 113.5q0 38 13 74q17 50 50.5 94.5t78.5 78.5t96 53t102 19q75 0 120.5 -43.5t45.5 -112.5q0 -38 -13 -74q-17 -50 -50.5 -94.5t-78.5 -78.5t-95.5 -53.5t-101.5 -19.5zM221 42q35 0 70.5 10t71.5 31q-30 8 -56 53l-35 72q-5 1 -15 8
q-11 11 -11 21q0 17 22 17q18 0 26 -17q40 10 91 42q59 36 66 63q1 3 1.5 6t0.5 6q0 49 -107 49q-34 0 -79 -12q-54 -15 -72 -36q-4 -4 -8 -4q-8 0 -7 10l3 6q19 25 80 44q51 16 86 16q46 0 81 -16q46 -19 46 -57q0 -4 -0.5 -8t-1.5 -8q-10 -40 -73 -76q-25 -14 -50 -24
t-51 -16q41 -116 79 -116q19 0 34 12q78 62 107 148q12 35 12 67q0 61 -39.5 99t-107.5 38q-46 0 -92 -17.5t-87.5 -48.5t-72.5 -71t-46 -86q-11 -36 -11 -67q0 -61 39.5 -99.5t105.5 -38.5zM208 87q-35 0 -35 35q0 14 6 36q21 77 113 189q1 0 1 1q-2 6 4.5 13t15 12t12.5 5
q17 0 13 -16q-2 -5 -19 -24q-96 -107 -117 -184l-3.5 -17.5t-1.5 -12.5q0 -17 10 -18q16 -3 14 -14q-5 -5 -11 -5h-2z" />
    <glyph glyph-name="macron" unicode="&#xaf;" horiz-adv-x="198" 
d="M18 425q-6 0 -11 3t-5 9q0 5 4.5 10t11.5 6q11 2 32 2h46h49t39 -2q14 -2 14 -15t-14 -13q-19 1 -39.5 1.5t-41.5 0.5q-22 0 -43 -0.5t-42 -1.5z" />
    <glyph glyph-name="degree" unicode="&#xb0;" horiz-adv-x="312" 
d="M180 397q-25 0 -36.5 15t-11.5 34q0 26 20.5 51t58.5 25q28 0 41.5 -15.5t13.5 -35.5q0 -26 -21.5 -50t-64.5 -24zM192 418q22 0 32.5 16t10.5 32q0 14 -6.5 24t-19.5 10q-22 0 -33.5 -16.5t-11.5 -33.5q0 -13 7 -22.5t21 -9.5z" />
    <glyph glyph-name="plusminus" unicode="&#xb1;" horiz-adv-x="438" 
d="M266 153q-2 0 -2 11q0 25 18 89q2 8 5.5 20.5t8.5 28.5l1 3q-19 0 -70 -3q-22 -1 -39.5 -1.5t-30.5 -0.5q-6 0 -10.5 7t-3.5 14l7 5q17 2 55.5 3t97.5 1q5 23 13 57.5t19 80.5q2 6 11 12t15 6l4 -5q-6 -44 -36 -151q35 -1 73.5 -2.5t78.5 -4.5q5 -2 4 -6l-1 -4l-11 -6
h-75l-76 -1q-36 -129 -47 -147q-4 -6 -9 -6zM150 80q-4 0 -9.5 9.5t-4.5 14.5l2 1q21 7 99 7q83 0 102 -12q3 0 3 -2q0 -6 -8 -6q-29 0 -91 -6q-61 -6 -93 -6z" />
    <glyph glyph-name="uni00B2" unicode="&#xb2;" horiz-adv-x="583" 
d="M361 342q-84 0 -188 29v-1q-43 -23 -76 -23q-19 0 -35 10q-22 11 -22 29q0 15 16 25q13 8 29 8q7 0 26.5 -5t56.5 -16l4 1q2 2 3 2q120 74 198 141t113 128q32 52 32 87q0 49 -66 49q-42 0 -92 -24q-45 -22 -78 -55q-13 -13 -37 -43q-3 -6 -10 -6q-14 0 -14 14q0 6 3 7
q37 57 101 93q65 40 129 40q39 0 63 -17q26 -19 26 -57q0 -23 -8.5 -48.5t-25.5 -54.5q-75 -124 -303 -267q44 -10 81.5 -15t70.5 -5q119 0 117 43l-1 5q0 15 14 15q13 0 13 -18q0 -71 -140 -71zM96 374q17 0 35 7q-31 11 -41 11q-16 0 -16 -8q0 -10 22 -10z" />
    <glyph glyph-name="uni00B3" unicode="&#xb3;" horiz-adv-x="562" 
d="M154 343q-15 0 -28.5 1t-24.5 3q-28 5 -44.5 23.5t-16.5 43.5q0 15 10 30.5t21 15.5q9 0 9 -9q0 -5 -7 -16q-7 -10 -7 -22q0 -44 85 -44q48 0 97 13q64 20 107 53q57 42 63 96v5q0 45 -37 54q-29 -15 -52 -23t-40 -8q-32 0 -32 13q0 3 1 4q6 22 36 30q23 7 43.5 10.5
t37.5 1.5q117 79 117 147q0 48 -67 48q-74 0 -133 -59q-4 -4 -13 -22q-7 -13 -28 -24q-4 -3 -9 -3q-18 0 -18 14q0 4 3 8q79 109 197 109q98 0 98 -68q0 -75 -115 -161q42 -22 42 -72v-6q-7 -87 -112 -140q-86 -46 -183 -46z" />
    <glyph glyph-name="acute" unicode="&#xb4;" horiz-adv-x="126" 
d="M13 421q-4 0 -8.5 4.5t-4.5 8.5q0 5 4 9q8 8 24 24.5t34 35t31 31.5q4 4 9.5 7t9.5 3q5 0 9.5 -4.5t5.5 -9.5v-2q0 -6 -9 -15t-37 -35t-60 -54q-4 -3 -8 -3z" />
    <glyph glyph-name="uni00B5" unicode="&#xb5;" horiz-adv-x="503" 
d="M-64 -261q-6 0 -11 4.5t-5 10.5v2q0 4 20 38q14 23 21.5 52.5t15.5 69.5l34 143q2 8 5 21t7 29q6 18 12.5 36t13.5 34q14 43 33 82.5t38 61.5q6 7 15 7q5 0 10 -3.5t5 -10.5q0 -6 -7 -17q-45 -74 -64 -129q-24 -63 -24 -109q0 -43 22 -43q14 0 37 14t47.5 34.5t42.5 38.5
q50 53 90 113q18 28 32.5 54.5t26.5 55.5q5 11 8.5 16.5t10.5 5.5q21 0 21 -16q0 -10 -7 -14q-102 -207 -102 -285q0 -21 4 -29.5t14 -8.5q14 0 43.5 18t69.5 55l105 96q8 8 15 8q16 0 16 -15q0 -13 -63 -70q-27 -25 -48 -42t-39 -30q-34 -24 -60 -37.5t-40 -13.5
q-49 0 -49 71q0 38 18 92q-121 -141 -190 -141q-34 0 -48 24l-31 -146q-33 -127 -65 -127z" />
    <glyph glyph-name="paragraph" unicode="&#xb6;" horiz-adv-x="629" 
d="M211 -125q-7 0 -12 4q-4 1 -4 11q0 18 13.5 58.5t34.5 92t44.5 103.5t44.5 95t34 65q11 19 33 56t47.5 81.5t50.5 85t42 65.5q2 5 5 8l6 6q-12 4 -23.5 6.5t-23.5 4.5q1 -2 1 -6q0 -7 -4 -12l-16 -25q-19 -27 -44 -68t-50 -84.5t-45 -79t-29 -50.5q-16 -27 -36 -67.5
t-40.5 -87.5t-39 -93.5t-32 -85.5t-18.5 -62q-6 -10 -14 -10q-7 0 -12 4q-4 2 -4 11q0 18 13.5 59t35.5 95t48.5 112.5t53.5 111.5t49 92q-18 6 -44.5 23t-46.5 43.5t-20 59.5q0 10 3 22q12 45 43 71.5t66.5 40t60.5 15.5q7 1 15 1h17q29 0 64 -3.5t68 -12t56 -23t27 -37.5
l-1 -8q0 -5 -9 -7q-4 0 -5 3t-2 4q-6 18 -34 31l-3 -6l-17 -25q-18 -27 -42.5 -68t-49.5 -84.5t-45 -79t-29 -50.5q-16 -27 -36 -67.5t-40.5 -87.5t-39.5 -93.5t-32.5 -85.5t-19.5 -62q-3 -10 -13 -10z" />
    <glyph glyph-name="periodcentered" unicode="&#xb7;" horiz-adv-x="44" 
d="M57 244q-27 0 -27 25q0 27 25 27q27 0 27 -25q0 -27 -25 -27z" />
    <glyph glyph-name="cedilla" unicode="&#xb8;" horiz-adv-x="146" 
d="M51 -160q-8 0 -20.5 2.5t-22.5 7.5q-11 6 -14 11.5t-3 10.5q0 7 6 9t11 -1q7 -4 20 -8t23 -4q18 0 32.5 6t14.5 27q0 15 -9 25t-18 21.5t-9 28.5q0 20 16.5 35t37.5 15q5 0 8 -3.5t3 -7.5q0 -6 -4 -7q-12 -6 -20 -10.5t-8 -18.5t9 -24.5t18 -23t9 -35.5t-22.5 -39.5
t-57.5 -16.5z" />
    <glyph glyph-name="uni00B9" unicode="&#xb9;" horiz-adv-x="369" 
d="M59 341q-19 0 -19 12l1 3q1 3 5.5 13.5t11.5 28.5q8 17 16.5 36.5t19.5 41.5q35 74 65 133t56 106l-21 -19q-5 -4 -10.5 -9t-11.5 -11q-4 -2 -6 -2q-6 0 -12.5 4.5t-6.5 8.5q0 8 43 44l50 41q3 4 8 9t11 12q14 15 25.5 28.5t19.5 24.5q1 0 1.5 0.5t1.5 0.5l0.5 0.5
t1.5 0.5q6 0 13 -6.5t7 -12.5l-1 -2q-10 -19 -33 -42l-11 -11q-1 -1 -15 -24q-13 -21 -25.5 -42.5t-24.5 -43.5q-76 -140 -118 -245q-4 -7 -8 -18.5t-9 -25.5q-1 -4 -2 -8.5t-3 -9.5q-1 -4 -3.5 -8.5t-7.5 -6.5q-2 -1 -9 -1z" />
    <glyph glyph-name="ordmasculine" unicode="&#xba;" horiz-adv-x="232" 
d="M69 335q-59 0 -59 66q0 59 50 121q54 65 112 65q27 0 40 -21q12 -16 12 -44q0 -60 -44 -119q-22 -30 -48 -48t-55 -20h-8zM68 362h5q53 8 89 60q35 53 35 106q0 26 -21 30l-9 2q-25 0 -61 -33q-29 -27 -44 -55q-13 -22 -18.5 -40.5t-5.5 -34.5q0 -35 30 -35z" />
    <glyph glyph-name="guillemotright" unicode="&#xbb;" horiz-adv-x="393" 
d="M185 384q5 0 9.5 -2t7.5 -9l25 -61l40 -99q3 -7 5 -11t2 -12q0 -10 -24 -31l-85 -75l-32 -28l-70 -59q-14 -11 -21 -11q-12 0 -12 13q0 8 13 20l79 66q19 17 48.5 44t68.5 62q-5 15 -14 38t-21 51l-26 58q-3 8 -6.5 14.5t-3.5 11.5q0 9 5.5 14.5t11.5 5.5zM290 384
q5 0 9.5 -2t7.5 -9l25 -61l40 -109q3 -7 5 -11t2 -12q0 -10 -24 -31l-72 -65l-32 -28l-70 -59q-14 -11 -21 -11q-12 0 -12 13q0 8 13 20l79 66q19 16 44.5 40l59.5 56q-5 15 -14 41.5t-21 57.5l-26 58q-3 8 -6.5 14.5t-3.5 11.5q0 9 5.5 14.5t11.5 5.5z" />
    <glyph glyph-name="onequarter" unicode="&#xbc;" horiz-adv-x="733" 
d="M59 341q-19 0 -19 12l1 3q1 3 5.5 13.5t11.5 28.5q8 17 16.5 36.5t19.5 41.5q35 74 65 133t56 106l-21 -19q-5 -4 -10.5 -9t-11.5 -11q-4 -2 -6 -2q-6 0 -12.5 4.5t-6.5 8.5q0 8 43 44l50 41q3 4 8 9t11 12q14 15 25.5 28.5t19.5 24.5q1 0 1.5 0.5t1.5 0.5l0.5 0.5
t1.5 0.5q6 0 13 -6.5t7 -12.5l-1 -2q-10 -19 -33 -42l-11 -11q-1 -1 -15 -24q-13 -21 -25.5 -42.5t-24.5 -43.5q-76 -140 -118 -245q-4 -7 -8 -18.5t-9 -25.5q-1 -4 -2 -8.5t-3 -9.5q-1 -4 -3.5 -8.5t-7.5 -6.5q-2 -1 -9 -1zM436 7q-19 0 -19 11q0 8 15.5 43.5t43.5 94.5
q-72 3 -147 21q-19 -10 -31 -10q-8 0 -19 3q-13 7 -13 14q0 10 11 17.5t24 7.5h5q1 -1 4 -1q50 38 125 95.5t173 135.5q11 10 25.5 24t34.5 32q1 1 5 1q6 0 13 -5.5t7 -10.5q0 -8 -14 -22q-4 -4 -8 -9t-9 -10t-16 -23.5t-29 -50.5q-26 -45 -50 -91t-45 -92q16 0 31 2t30 5
q41 11 41 36v5q0 15 14 15q13 0 13 -20q0 -71 -142 -71q-10 -22 -20.5 -46.5t-20.5 -49.5q-2 -8 -5 -18t-8 -23q-5 -10 -19 -10zM487 182q32 70 63 126t58 97q-22 -19 -54 -44t-73 -55q-46 -33 -80 -59t-56 -45q69 -17 142 -20zM132 206q-4 0 -11 2t-6 6q1 7 24 34.5
t60.5 68t83 87.5t92.5 95t89.5 90t74 72t44.5 41q12 9 25 9q12 0 12 -7q0 -6 -8 -14q-8 -7 -36.5 -35t-70 -69.5t-89.5 -90.5t-96 -97.5t-88.5 -89.5t-67 -68.5t-32.5 -33.5z" />
    <glyph glyph-name="onehalf" unicode="&#xbd;" horiz-adv-x="831" 
d="M59 341q-19 0 -19 12l1 3q1 3 5.5 13.5t11.5 28.5q8 17 16.5 36.5t19.5 41.5q35 74 65 133t56 106l-21 -19q-5 -4 -10.5 -9t-11.5 -11q-4 -2 -6 -2q-6 0 -12.5 4.5t-6.5 8.5q0 8 43 44l50 41q3 4 8 9t11 12q14 15 25.5 28.5t19.5 24.5q1 0 1.5 0.5t1.5 0.5l0.5 0.5
t1.5 0.5q6 0 13 -6.5t7 -12.5l-1 -2q-10 -19 -33 -42l-11 -11q-1 -1 -15 -24q-13 -21 -25.5 -42.5t-24.5 -43.5q-76 -140 -118 -245q-4 -7 -8 -18.5t-9 -25.5q-1 -4 -2 -8.5t-3 -9.5q-1 -4 -3.5 -8.5t-7.5 -6.5q-2 -1 -9 -1zM609 15q-84 0 -188 29v-1q-43 -23 -76 -23
q-19 0 -35 10q-22 11 -22 29q0 15 16 25q13 8 29 8q7 0 26.5 -5t56.5 -16l4 1q2 2 3 2q120 74 198 141t113 128q32 52 32 87q0 49 -66 49q-42 0 -92 -24q-45 -22 -78 -55q-13 -13 -37 -43q-3 -6 -10 -6q-14 0 -14 14q0 6 3 7q37 57 101 93q65 40 129 40q39 0 63 -17
q26 -19 26 -57q0 -23 -8.5 -48.5t-25.5 -54.5q-75 -124 -303 -267q44 -10 81.5 -15t70.5 -5q119 0 117 43l-1 5q0 15 14 15q13 0 13 -18q0 -71 -140 -71zM344 47q17 0 35 7q-31 11 -41 11q-16 0 -16 -8q0 -10 22 -10zM132 206q-4 0 -11 2t-6 6q1 7 24 34.5t60.5 68t83 87.5
t92.5 95t89.5 90t74 72t44.5 41q12 9 25 9q12 0 12 -7q0 -6 -8 -14q-8 -7 -36.5 -35t-70 -69.5t-89.5 -90.5t-96 -97.5t-88.5 -89.5t-67 -68.5t-32.5 -33.5z" />
    <glyph glyph-name="threequarters" unicode="&#xbe;" horiz-adv-x="919" 
d="M154 343q-15 0 -28.5 1t-24.5 3q-28 5 -44.5 23.5t-16.5 43.5q0 15 10 30.5t21 15.5q9 0 9 -9q0 -5 -7 -16q-7 -10 -7 -22q0 -44 85 -44q48 0 97 13q64 20 107 53q57 42 63 96v5q0 45 -37 54q-29 -15 -52 -23t-40 -8q-32 0 -32 13q0 3 1 4q6 22 36 30q23 7 43.5 10.5
t37.5 1.5q117 79 117 147q0 48 -67 48q-74 0 -133 -59q-4 -4 -13 -22q-7 -13 -28 -24q-4 -3 -9 -3q-18 0 -18 14q0 4 3 8q79 109 197 109q98 0 98 -68q0 -75 -115 -161q42 -22 42 -72v-6q-7 -87 -112 -140q-86 -46 -183 -46zM648 2q-19 0 -19 11q0 8 15.5 43.5t43.5 94.5
q-72 3 -147 21q-19 -10 -31 -10q-8 0 -19 3q-13 7 -13 14q0 10 11 17.5t24 7.5h5q1 -1 4 -1q50 38 125 95.5t173 135.5q11 10 25.5 24t34.5 32q1 1 5 1q6 0 13 -5.5t7 -10.5q0 -8 -14 -22q-4 -4 -8 -9t-9 -10t-16 -23.5t-29 -50.5q-26 -45 -50 -91t-45 -92q16 0 31 2t30 5
q41 11 41 36v5q0 15 14 15q13 0 13 -20q0 -71 -142 -71q-10 -22 -20.5 -46.5t-20.5 -49.5q-2 -8 -5 -18t-8 -23q-5 -10 -19 -10zM699 177q32 70 63 126t58 97q-22 -19 -54 -44t-73 -55q-46 -33 -80 -59t-56 -45q69 -17 142 -20zM354 206q-4 0 -11 2t-6 6q1 7 24 34.5
t60.5 68t83 87.5t92.5 95t89.5 90t74 72t44.5 41q12 9 25 9q12 0 12 -7q0 -6 -8 -14q-8 -7 -36.5 -35t-70 -69.5t-89.5 -90.5t-96 -97.5t-88.5 -89.5t-67 -68.5t-32.5 -33.5z" />
    <glyph glyph-name="questiondown" unicode="&#xbf;" horiz-adv-x="253" 
d="M195 230q-14 0 -19.5 7.5t-5.5 17.5q0 27 27 27q26 0 26 -25q0 -27 -28 -27zM49 -351q-47 0 -85.5 17t-61 48t-22.5 74q0 52 50.5 103t148.5 92q80 33 80 73q0 6 -7 12q-7 4 -7 12q0 15 14 15q12 0 20.5 -12.5t8.5 -24.5q0 -55 -98 -99q-91 -40 -136 -84t-45 -87
q0 -36 20 -60.5t52 -37.5t68 -13q29 0 60.5 9.5t53.5 28t22 43.5q0 21 -15 31q-15 12 -15 17q0 16 15 16q17 0 30 -20.5t13 -42.5q0 -36 -25.5 -60.5t-63.5 -37t-75 -12.5z" />
    <glyph glyph-name="Agrave" unicode="&#xc0;" horiz-adv-x="626" 
d="M-38 -59q-17 0 -17 16q0 6 1 8q37 81 201 242q-5 -1 -9 -1.5t-6 -0.5q-17 0 -17 19q0 11 17 14q10 2 21.5 3.5t29.5 5.5q121 126 233.5 216.5t215.5 148.5q9 5 16 8.5t12 3.5q12 0 12 -16q0 -30 -60 -206l-44 -129q26 0 26 -16q0 -18 -34 -18q-19 -52 -35.5 -114.5
t-27.5 -128.5q-4 -21 -18 -21q-17 0 -17 18q0 3 2 13t6 26q12 58 21.5 96t17 64.5t13.5 48.5q-184 -4 -324 -27q-40 -41 -67 -69.5t-40 -42.5q-60 -66 -96 -120q-3 -5 -7.5 -13t-11.5 -19q-4 -9 -14 -9zM239 255q58 8 131 12.5t164 6.5q15 46 30 89.5t29 83.5q17 44 45 132
q-116 -67 -215.5 -148t-183.5 -176zM704 684q-5 0 -9 2q-24 14 -51.5 29.5t-49 28t-28.5 16.5q-4 3 -8 7t-4 8v2q0 10 9 15q1 0 2.5 0.5t2.5 0.5q8 0 18 -7q16 -10 41 -26.5t48.5 -31t32.5 -20.5q4 -3 6 -8v-2q0 -10 -10 -14z" />
    <glyph glyph-name="Aacute" unicode="&#xc1;" horiz-adv-x="626" 
d="M-38 -59q-17 0 -17 16q0 6 1 8q37 81 201 242q-5 -1 -9 -1.5t-6 -0.5q-17 0 -17 19q0 11 17 14q10 2 21.5 3.5t29.5 5.5q121 126 233.5 216.5t215.5 148.5q9 5 16 8.5t12 3.5q12 0 12 -16q0 -30 -60 -206l-44 -129q26 0 26 -16q0 -18 -34 -18q-19 -52 -35.5 -114.5
t-27.5 -128.5q-4 -21 -18 -21q-17 0 -17 18q0 3 2 13t6 26q12 58 21.5 96t17 64.5t13.5 48.5q-184 -4 -324 -27q-40 -41 -67 -69.5t-40 -42.5q-60 -66 -96 -120q-3 -5 -7.5 -13t-11.5 -19q-4 -9 -14 -9zM239 255q58 8 131 12.5t164 6.5q15 46 30 89.5t29 83.5q17 44 45 132
q-116 -67 -215.5 -148t-183.5 -176zM628 684q-10 4 -10 14q0 7 6 10q9 6 32.5 20.5t49 31t40.5 26.5q13 9 23 6q9 -5 9 -15t-12 -17q-7 -4 -28.5 -16.5t-48.5 -28t-52 -29.5q-4 -2 -9 -2z" />
    <glyph glyph-name="Acircumflex" unicode="&#xc2;" horiz-adv-x="626" 
d="M-38 -59q-17 0 -17 16q0 6 1 8q37 81 201 242q-5 -1 -9 -1.5t-6 -0.5q-17 0 -17 19q0 11 17 14q10 2 21.5 3.5t29.5 5.5q121 126 233.5 216.5t215.5 148.5q9 5 16 8.5t12 3.5q12 0 12 -16q0 -30 -60 -206l-44 -129q26 0 26 -16q0 -18 -34 -18q-19 -52 -35.5 -114.5
t-27.5 -128.5q-4 -21 -18 -21q-17 0 -17 18q0 3 2 13t6 26q12 58 21.5 96t17 64.5t13.5 48.5q-184 -4 -324 -27q-40 -41 -67 -69.5t-40 -42.5q-60 -66 -96 -120q-3 -5 -7.5 -13t-11.5 -19q-4 -9 -14 -9zM239 255q58 8 131 12.5t164 6.5q15 46 30 89.5t29 83.5q17 44 45 132
q-116 -67 -215.5 -148t-183.5 -176zM554 678q-4 0 -8.5 4t-4.5 8q0 5 4 8q2 2 16.5 11t36 21.5t43.5 25t39 20.5t23 8t19.5 -11t28.5 -26.5t27.5 -29.5t17.5 -21q1 -2 1 -6q0 -5 -5 -8.5t-10 -3.5q-7 0 -12 6q-17 18 -37.5 36t-35.5 28q-15 -7 -36.5 -17.5t-43.5 -22
t-38.5 -19.5t-19.5 -10q-2 -1 -5 -1z" />
    <glyph glyph-name="Atilde" unicode="&#xc3;" horiz-adv-x="626" 
d="M-38 -59q-17 0 -17 16q0 6 1 8q37 81 201 242q-5 -1 -9 -1.5t-6 -0.5q-17 0 -17 19q0 11 17 14q10 2 21.5 3.5t29.5 5.5q121 126 233.5 216.5t215.5 148.5q9 5 16 8.5t12 3.5q12 0 12 -16q0 -30 -60 -206l-44 -129q26 0 26 -16q0 -18 -34 -18q-19 -52 -35.5 -114.5
t-27.5 -128.5q-4 -21 -18 -21q-17 0 -17 18q0 3 2 13t6 26q12 58 21.5 96t17 64.5t13.5 48.5q-184 -4 -324 -27q-40 -41 -67 -69.5t-40 -42.5q-60 -66 -96 -120q-3 -5 -7.5 -13t-11.5 -19q-4 -9 -14 -9zM239 255q58 8 131 12.5t164 6.5q15 46 30 89.5t29 83.5q17 44 45 132
q-116 -67 -215.5 -148t-183.5 -176zM572 680q-4 0 -8 2.5t-2 9.5q3 9 10 22t22 23t39 10q18 0 38.5 -7t39 -14.5t31.5 -7.5q17 0 25 11t13 18q5 5 10 5q14 0 10 -16q-5 -16 -20 -32.5t-43 -16.5q-14 0 -35 7.5t-42.5 15t-37.5 7.5q-14 0 -21.5 -9.5t-14.5 -20.5
q-4 -7 -14 -7z" />
    <glyph glyph-name="Adieresis" unicode="&#xc4;" horiz-adv-x="626" 
d="M-38 -59q-17 0 -17 16q0 6 1 8q37 81 201 242q-5 -1 -9 -1.5t-6 -0.5q-17 0 -17 19q0 11 17 14q10 2 21.5 3.5t29.5 5.5q121 126 233.5 216.5t215.5 148.5q9 5 16 8.5t12 3.5q12 0 12 -16q0 -30 -60 -206l-44 -129q26 0 26 -16q0 -18 -34 -18q-19 -52 -35.5 -114.5
t-27.5 -128.5q-4 -21 -18 -21q-17 0 -17 18q0 3 2 13t6 26q12 58 21.5 96t17 64.5t13.5 48.5q-184 -4 -324 -27q-40 -41 -67 -69.5t-40 -42.5q-60 -66 -96 -120q-3 -5 -7.5 -13t-11.5 -19q-4 -9 -14 -9zM239 255q58 8 131 12.5t164 6.5q15 46 30 89.5t29 83.5q17 44 45 132
q-116 -67 -215.5 -148t-183.5 -176zM732 684q-7 -3 -15.5 8t-8.5 22q0 10 8 17t10 8q5 1 9.5 1.5t8.5 0.5q17 0 17 -14q0 -3 -2 -11q-2 -9 -7.5 -17.5t-19.5 -14.5zM616 684q-7 -3 -15.5 8t-8.5 22q0 10 8 17t10 8q5 1 9.5 1.5t8.5 0.5q17 0 17 -14q0 -3 -2 -11
q-2 -9 -7.5 -17.5t-19.5 -14.5z" />
    <glyph glyph-name="Aring" unicode="&#xc5;" horiz-adv-x="626" 
d="M-38 -59q-17 0 -17 16q0 6 1 8q37 81 201 242q-5 -1 -9 -1.5t-6 -0.5q-17 0 -17 19q0 11 17 14q10 2 21.5 3.5t29.5 5.5q121 126 233.5 216.5t215.5 148.5q9 5 16 8.5t12 3.5q12 0 12 -16q0 -30 -60 -206l-44 -129q26 0 26 -16q0 -18 -34 -18q-19 -52 -35.5 -114.5
t-27.5 -128.5q-4 -21 -18 -21q-17 0 -17 18q0 3 2 13t6 26q12 58 21.5 96t17 64.5t13.5 48.5q-184 -4 -324 -27q-40 -41 -67 -69.5t-40 -42.5q-60 -66 -96 -120q-3 -5 -7.5 -13t-11.5 -19q-4 -9 -14 -9zM239 255q58 8 131 12.5t164 6.5q15 46 30 89.5t29 83.5q17 44 45 132
q-116 -67 -215.5 -148t-183.5 -176zM666 684q-25 0 -37 15t-12 35q0 27 21 52.5t61 25.5q28 0 42 -15.5t14 -36.5q0 -27 -22.5 -51.5t-66.5 -24.5zM679 709q23 0 34 14t11 31q0 31 -29 31q-22 0 -35 -14.5t-13 -32.5q0 -13 10 -21t22 -8z" />
    <glyph glyph-name="AE" unicode="&#xc6;" horiz-adv-x="983" 
d="M-30 -59q-17 0 -17 16q0 6 1 8q39 84 256 301l-15 -3q-17 0 -17 19q0 14 14 14v-1q18 3 31.5 5.5t22.5 4.5q160 167 444 307q117 57 307 57q106 0 137 -12q11 -5 11 -16q0 -17 -15 -17h-4q-29 5 -65.5 8t-80.5 3q-33 0 -74 -4t-90 -12q-46 -34 -184 -267q155 15 242 15
q10 0 19 -0.5t17 -0.5q30 -1 30 -12q0 -7 -12.5 -14t-25.5 -7q-76 -1 -148.5 -4t-140.5 -10q-49 -85 -90.5 -164t-75.5 -152q270 60 408 60q96 0 96 -46q0 -16 -17 -16q-11 0 -14 10t-6 10q-5 8 -62 8q-45 0 -99 -5t-116 -18l-213 -43h-1q-18 0 -18 22q29 69 69 151.5
t92 178.5q-82 -8 -305 -42q-43 -44 -76.5 -79.5t-57.5 -61.5q-44 -49 -75 -86.5t-49 -63.5q-3 -5 -7.5 -13t-11.5 -19q-4 -9 -14 -9zM302 314q110 17 282 33q53 94 98 161t82 107q-350 -174 -462 -301z" />
    <glyph glyph-name="Ccedilla" unicode="&#xc7;" horiz-adv-x="792" 
d="M384 -45q-91 0 -158.5 31.5t-104.5 92t-37 145.5q0 80 30.5 147t88.5 124q88 85 205.5 131t242.5 46q62 0 109 -21.5t74 -57.5t27 -79q0 -28 -13 -51.5t-29 -37.5t-26 -14q-8 0 -16 7.5t-8 12.5q0 6 14 17t27.5 29.5t13.5 45.5q0 36 -24.5 63.5t-68 43t-99.5 15.5
q-111 0 -216 -46.5t-184 -124.5q-55 -55 -83 -116t-28 -141q0 -77 36.5 -128.5t98.5 -77t139 -25.5q88 0 187 28q58 16 98 36.5t60 38.5q19 17 28 25t15 8q7 0 7 -9q0 -10 -11.5 -25t-25.5 -26q-35 -27 -88.5 -48.5t-106.5 -35.5q-47 -12 -90 -17.5t-84 -5.5zM331 -210
q-8 0 -20.5 2.5t-22.5 7.5q-11 6 -14 11.5t-3 10.5q0 7 6 9t11 -1q7 -4 20 -8t23 -4q18 0 32.5 6t14.5 27q0 15 -9 25t-18 21.5t-9 28.5q0 20 16.5 35t37.5 15q5 0 8 -3.5t3 -7.5q0 -6 -4 -7q-12 -6 -20 -10.5t-8 -18.5t9 -24.5t18 -23t9 -35.5t-22.5 -39.5t-57.5 -16.5z
" />
    <glyph glyph-name="Egrave" unicode="&#xc8;" horiz-adv-x="609" 
d="M16 -37q-18 0 -18 17q0 8 6.5 21.5t11.5 24.5q30 63 79.5 149t118.5 194q-27 0 -27 16q0 17 19 17l30 -1q31 47 53 79t35 50q22 29 47.5 58.5t56.5 57.5q47 10 96.5 14.5t100.5 4.5q90 0 126 -9q13 -3 17.5 -7t4.5 -11q0 -17 -15 -17q-12 0 -46 5.5t-104 5.5
q-34 0 -75 -4t-90 -12q-42 -32 -169 -215h245q16 0 16 -16t-16 -16h-266q-145 -222 -213 -366q270 60 408 60q96 0 96 -46q0 -16 -16 -16q-13 0 -14 10q-1 11 -17.5 14.5t-51.5 3.5q-44 0 -98.5 -6.5t-116.5 -16.5q-88 -13 -143 -28t-71 -15zM643 725q-5 0 -9 2
q-24 14 -51.5 29.5t-49 28t-28.5 16.5q-4 3 -8 7t-4 8v2q0 10 9 15q1 0 2.5 0.5t2.5 0.5q8 0 18 -7q16 -10 41 -26.5t48.5 -31t32.5 -20.5q4 -3 6 -8v-2q0 -10 -10 -14z" />
    <glyph glyph-name="Eacute" unicode="&#xc9;" horiz-adv-x="609" 
d="M16 -37q-18 0 -18 17q0 8 6.5 21.5t11.5 24.5q30 63 79.5 149t118.5 194q-27 0 -27 16q0 17 19 17l30 -1q31 47 53 79t35 50q22 29 47.5 58.5t56.5 57.5q47 10 96.5 14.5t100.5 4.5q90 0 126 -9q13 -3 17.5 -7t4.5 -11q0 -17 -15 -17q-12 0 -46 5.5t-104 5.5
q-34 0 -75 -4t-90 -12q-42 -32 -169 -215h245q16 0 16 -16t-16 -16h-266q-145 -222 -213 -366q270 60 408 60q96 0 96 -46q0 -16 -16 -16q-13 0 -14 10q-1 11 -17.5 14.5t-51.5 3.5q-44 0 -98.5 -6.5t-116.5 -16.5q-88 -13 -143 -28t-71 -15zM567 725q-10 4 -10 14q0 7 6 10
q9 6 32.5 20.5t49 31t40.5 26.5q13 9 23 6q9 -5 9 -15t-12 -17q-7 -4 -28.5 -16.5t-48.5 -28t-52 -29.5q-4 -2 -9 -2z" />
    <glyph glyph-name="Ecircumflex" unicode="&#xca;" horiz-adv-x="609" 
d="M16 -37q-18 0 -18 17q0 8 6.5 21.5t11.5 24.5q30 63 79.5 149t118.5 194q-27 0 -27 16q0 17 19 17l30 -1q31 47 53 79t35 50q22 29 47.5 58.5t56.5 57.5q47 10 96.5 14.5t100.5 4.5q90 0 126 -9q13 -3 17.5 -7t4.5 -11q0 -17 -15 -17q-12 0 -46 5.5t-104 5.5
q-34 0 -75 -4t-90 -12q-42 -32 -169 -215h245q16 0 16 -16t-16 -16h-266q-145 -222 -213 -366q270 60 408 60q96 0 96 -46q0 -16 -16 -16q-13 0 -14 10q-1 11 -17.5 14.5t-51.5 3.5q-44 0 -98.5 -6.5t-116.5 -16.5q-88 -13 -143 -28t-71 -15zM493 719q-4 0 -8.5 4t-4.5 8
q0 5 4 8q2 2 16.5 11t36 21.5t43.5 25t39 20.5t23 8t19.5 -11t28.5 -26.5t27.5 -29.5t17.5 -21q1 -2 1 -6q0 -5 -5 -8.5t-10 -3.5q-7 0 -12 6q-17 18 -37.5 36t-35.5 28q-15 -7 -36.5 -17.5t-43.5 -22t-38.5 -19.5t-19.5 -10q-2 -1 -5 -1z" />
    <glyph glyph-name="Edieresis" unicode="&#xcb;" horiz-adv-x="609" 
d="M16 -37q-18 0 -18 17q0 8 6.5 21.5t11.5 24.5q30 63 79.5 149t118.5 194q-27 0 -27 16q0 17 19 17l30 -1q31 47 53 79t35 50q22 29 47.5 58.5t56.5 57.5q47 10 96.5 14.5t100.5 4.5q90 0 126 -9q13 -3 17.5 -7t4.5 -11q0 -17 -15 -17q-12 0 -46 5.5t-104 5.5
q-34 0 -75 -4t-90 -12q-42 -32 -169 -215h245q16 0 16 -16t-16 -16h-266q-145 -222 -213 -366q270 60 408 60q96 0 96 -46q0 -16 -16 -16q-13 0 -14 10q-1 11 -17.5 14.5t-51.5 3.5q-44 0 -98.5 -6.5t-116.5 -16.5q-88 -13 -143 -28t-71 -15zM671 725q-7 -3 -15.5 8t-8.5 22
q0 10 8 17t10 8q5 1 9.5 1.5t8.5 0.5q17 0 17 -14q0 -3 -2 -11q-2 -9 -7.5 -17.5t-19.5 -14.5zM555 725q-7 -3 -15.5 8t-8.5 22q0 10 8 17t10 8q5 1 9.5 1.5t8.5 0.5q17 0 17 -14q0 -3 -2 -11q-2 -9 -7.5 -17.5t-19.5 -14.5z" />
    <glyph glyph-name="Igrave" unicode="&#xcc;" horiz-adv-x="422" 
d="M-31 -25q-17 0 -17 17q0 16 19 16q17 0 42 2.5t44 3.5q3 19 20 56t45 84t63 97l167 238q11 17 30.5 47.5t46.5 74.5q-30 -2 -54.5 -5t-43.5 -6q-28 -4 -37 -6t-14 -2q-17 0 -17 19q0 11 14 14q59 11 115.5 17t111.5 6q54 0 88 -9q16 -5 21.5 -10t5.5 -13q0 -16 -15 -16
q-5 0 -14 4t-27.5 7.5t-55.5 3.5h-24.5t-17.5 -1q-1 -21 -38 -74l-50 -71l-128 -187q-36 -52 -66 -100t-56 -90q-15 -25 -33 -73q38 4 63 5.5t36 1.5q22 0 39.5 -1.5t30.5 -3.5q15 -3 15 -15q0 -16 -18 -16q-12 0 -30.5 1.5t-32.5 1.5q-45 0 -110 -9q-5 -8 -14 -8
q-8 0 -12 7q-30 -4 -53 -6t-39 -2zM505 707q-5 0 -9 2q-24 14 -51.5 29.5t-49 28t-28.5 16.5q-4 3 -8 7t-4 8v2q0 10 9 15q1 0 2.5 0.5t2.5 0.5q8 0 18 -7q16 -10 41 -26.5t48.5 -31t32.5 -20.5q4 -3 6 -8v-2q0 -10 -10 -14z" />
    <glyph glyph-name="Iacute" unicode="&#xcd;" horiz-adv-x="422" 
d="M-31 -25q-17 0 -17 17q0 16 19 16q17 0 42 2.5t44 3.5q3 19 20 56t45 84t63 97l167 238q11 17 30.5 47.5t46.5 74.5q-30 -2 -54.5 -5t-43.5 -6q-28 -4 -37 -6t-14 -2q-17 0 -17 19q0 11 14 14q59 11 115.5 17t111.5 6q54 0 88 -9q16 -5 21.5 -10t5.5 -13q0 -16 -15 -16
q-5 0 -14 4t-27.5 7.5t-55.5 3.5h-24.5t-17.5 -1q-1 -21 -38 -74l-50 -71l-128 -187q-36 -52 -66 -100t-56 -90q-15 -25 -33 -73q38 4 63 5.5t36 1.5q22 0 39.5 -1.5t30.5 -3.5q15 -3 15 -15q0 -16 -18 -16q-12 0 -30.5 1.5t-32.5 1.5q-45 0 -110 -9q-5 -8 -14 -8
q-8 0 -12 7q-30 -4 -53 -6t-39 -2zM429 707q-10 4 -10 14q0 7 6 10q9 6 32.5 20.5t49 31t40.5 26.5q13 9 23 6q9 -5 9 -15t-12 -17q-7 -4 -28.5 -16.5t-48.5 -28t-52 -29.5q-4 -2 -9 -2z" />
    <glyph glyph-name="Icircumflex" unicode="&#xce;" horiz-adv-x="422" 
d="M-31 -25q-17 0 -17 17q0 16 19 16q17 0 42 2.5t44 3.5q3 19 20 56t45 84t63 97l167 238q11 17 30.5 47.5t46.5 74.5q-30 -2 -54.5 -5t-43.5 -6q-28 -4 -37 -6t-14 -2q-17 0 -17 19q0 11 14 14q59 11 115.5 17t111.5 6q54 0 88 -9q16 -5 21.5 -10t5.5 -13q0 -16 -15 -16
q-5 0 -14 4t-27.5 7.5t-55.5 3.5h-24.5t-17.5 -1q-1 -21 -38 -74l-50 -71l-128 -187q-36 -52 -66 -100t-56 -90q-15 -25 -33 -73q38 4 63 5.5t36 1.5q22 0 39.5 -1.5t30.5 -3.5q15 -3 15 -15q0 -16 -18 -16q-12 0 -30.5 1.5t-32.5 1.5q-45 0 -110 -9q-5 -8 -14 -8
q-8 0 -12 7q-30 -4 -53 -6t-39 -2zM355 701q-4 0 -8.5 4t-4.5 8q0 5 4 8q2 2 16.5 11t36 21.5t43.5 25t39 20.5t23 8t19.5 -11t28.5 -26.5t27.5 -29.5t17.5 -21q1 -2 1 -6q0 -5 -5 -8.5t-10 -3.5q-7 0 -12 6q-17 18 -37.5 36t-35.5 28q-15 -7 -36.5 -17.5t-43.5 -22
t-38.5 -19.5t-19.5 -10q-2 -1 -5 -1z" />
    <glyph glyph-name="Idieresis" unicode="&#xcf;" horiz-adv-x="422" 
d="M-31 -25q-17 0 -17 17q0 16 19 16q17 0 42 2.5t44 3.5q3 19 20 56t45 84t63 97l167 238q11 17 30.5 47.5t46.5 74.5q-30 -2 -54.5 -5t-43.5 -6q-28 -4 -37 -6t-14 -2q-17 0 -17 19q0 11 14 14q59 11 115.5 17t111.5 6q54 0 88 -9q16 -5 21.5 -10t5.5 -13q0 -16 -15 -16
q-5 0 -14 4t-27.5 7.5t-55.5 3.5h-24.5t-17.5 -1q-1 -21 -38 -74l-50 -71l-128 -187q-36 -52 -66 -100t-56 -90q-15 -25 -33 -73q38 4 63 5.5t36 1.5q22 0 39.5 -1.5t30.5 -3.5q15 -3 15 -15q0 -16 -18 -16q-12 0 -30.5 1.5t-32.5 1.5q-45 0 -110 -9q-5 -8 -14 -8
q-8 0 -12 7q-30 -4 -53 -6t-39 -2zM533 707q-7 -3 -15.5 8t-8.5 22q0 10 8 17t10 8q5 1 9.5 1.5t8.5 0.5q17 0 17 -14q0 -3 -2 -11q-2 -9 -7.5 -17.5t-19.5 -14.5zM417 707q-7 -3 -15.5 8t-8.5 22q0 10 8 17t10 8q5 1 9.5 1.5t8.5 0.5q17 0 17 -14q0 -3 -2 -11
q-2 -9 -7.5 -17.5t-19.5 -14.5z" />
    <glyph glyph-name="Eth" unicode="&#xd0;" horiz-adv-x="840" 
d="M50 -31q-17 0 -17 25q0 38 38 130.5t115 237.5q44 82 72 136t44 86.5t23 49t8 24.5q0 4 2 6l-39 2q-13 1 -19.5 7t-6.5 13q0 14 16 14q218 0 378 -90q83 -47 137 -117.5t54 -159.5q0 -72 -40 -124t-108.5 -90t-154.5 -68q-58 -20 -129 -38.5t-139 -29.5t-120 -11
q-36 0 -56 10q-21 11 -21 24q0 11 12 11q8 0 15 -3t20 -6t38 -3q36 0 81.5 6.5t95 17.5t96.5 24.5t86 26.5q84 29 149.5 64t102.5 83t37 116q0 143 -167 238q-111 62 -289 81q4 -5 4 -11q0 -9 -14.5 -41t-38 -77t-49.5 -95t-50 -94q-151 -289 -151 -348q0 -4 0.5 -6t0.5 -6
q0 -5 -4 -10t-12 -5zM122 312q-6 0 -11 3t-5 9q0 5 4.5 10t11.5 6q11 2 32 2h46h57.5t40.5 -2q14 -2 14 -15t-14 -13q-19 1 -40.5 1.5t-50.5 0.5q-22 0 -43 -0.5t-42 -1.5z" />
    <glyph glyph-name="Ntilde" unicode="&#xd1;" horiz-adv-x="769" 
d="M30 -52q-8 0 -15.5 7t-7.5 14t3 15.5t7 19.5q60 183 159 345q124 202 194 263q19 16 25.5 20.5t11.5 4.5q24 0 24 -21q0 -12 -1 -41t-1 -70q0 -86 17 -207.5t52 -258.5q68 93 119 169.5t89 145.5q28 50 57.5 104.5t55 104.5t41 89.5t15.5 59.5q0 14 13 14q20 0 20 -19
q0 -29 -16.5 -70.5t-51.5 -106.5t-91 -166q-45 -82 -79.5 -138.5t-72.5 -110.5q-16 -21 -38 -53.5t-51 -76.5q-7 -12 -18 -12q-8 0 -12 5t-8 18q-17 55 -31.5 121.5t-25.5 136.5t-17 136.5t-6 122.5v70q-81 -78 -185 -252q-57 -94 -95 -181.5t-64 -176.5q-8 -25 -16 -25z
M559 751q-4 0 -8 2.5t-2 9.5q3 9 10 22t22 23t39 10q18 0 38.5 -7t39 -14.5t31.5 -7.5q17 0 25 11t13 18q5 5 10 5q14 0 10 -16q-5 -16 -20 -32.5t-43 -16.5q-14 0 -35 7.5t-42.5 15t-37.5 7.5q-14 0 -21.5 -9.5t-14.5 -20.5q-4 -7 -14 -7z" />
    <glyph glyph-name="Ograve" unicode="&#xd2;" horiz-adv-x="821" 
d="M335 -43q-62 0 -117.5 24t-90.5 72.5t-35 121.5q0 38 17 88.5t43 100t54 84.5q31 39 73.5 74t90.5 62t97 42.5t93 15.5q54 0 104.5 -21t90.5 -58t63.5 -85.5t23.5 -102.5q0 -52 -23 -103t-60.5 -96.5t-83.5 -83.5q-73 -60 -161.5 -97.5t-177.5 -37.5h-1zM329 -10
q85 0 167.5 35.5t149.5 90.5q44 36 80 79.5t58 91t22 93.5q0 45 -20.5 86t-55 73t-78.5 50.5t-91 18.5q-42 0 -88.5 -15t-91.5 -40.5t-84.5 -59t-67.5 -69.5q-26 -34 -50 -81t-38.5 -94t-14.5 -82q0 -56 26.5 -95.5t72.5 -60.5t104 -21zM604 702q-5 0 -9 2
q-24 14 -51.5 29.5t-49 28t-28.5 16.5q-4 3 -8 7t-4 8v2q0 10 9 15q1 0 2.5 0.5t2.5 0.5q8 0 18 -7q16 -10 41 -26.5t48.5 -31t32.5 -20.5q4 -3 6 -8v-2q0 -10 -10 -14z" />
    <glyph glyph-name="Oacute" unicode="&#xd3;" horiz-adv-x="821" 
d="M335 -43q-62 0 -117.5 24t-90.5 72.5t-35 121.5q0 38 17 88.5t43 100t54 84.5q31 39 73.5 74t90.5 62t97 42.5t93 15.5q54 0 104.5 -21t90.5 -58t63.5 -85.5t23.5 -102.5q0 -52 -23 -103t-60.5 -96.5t-83.5 -83.5q-73 -60 -161.5 -97.5t-177.5 -37.5h-1zM329 -10
q85 0 167.5 35.5t149.5 90.5q44 36 80 79.5t58 91t22 93.5q0 45 -20.5 86t-55 73t-78.5 50.5t-91 18.5q-42 0 -88.5 -15t-91.5 -40.5t-84.5 -59t-67.5 -69.5q-26 -34 -50 -81t-38.5 -94t-14.5 -82q0 -56 26.5 -95.5t72.5 -60.5t104 -21zM528 702q-10 4 -10 14q0 7 6 10
q9 6 32.5 20.5t49 31t40.5 26.5q13 9 23 6q9 -5 9 -15t-12 -17q-7 -4 -28.5 -16.5t-48.5 -28t-52 -29.5q-4 -2 -9 -2z" />
    <glyph glyph-name="Ocircumflex" unicode="&#xd4;" horiz-adv-x="821" 
d="M335 -43q-62 0 -117.5 24t-90.5 72.5t-35 121.5q0 38 17 88.5t43 100t54 84.5q31 39 73.5 74t90.5 62t97 42.5t93 15.5q54 0 104.5 -21t90.5 -58t63.5 -85.5t23.5 -102.5q0 -52 -23 -103t-60.5 -96.5t-83.5 -83.5q-73 -60 -161.5 -97.5t-177.5 -37.5h-1zM329 -10
q85 0 167.5 35.5t149.5 90.5q44 36 80 79.5t58 91t22 93.5q0 45 -20.5 86t-55 73t-78.5 50.5t-91 18.5q-42 0 -88.5 -15t-91.5 -40.5t-84.5 -59t-67.5 -69.5q-26 -34 -50 -81t-38.5 -94t-14.5 -82q0 -56 26.5 -95.5t72.5 -60.5t104 -21zM454 696q-4 0 -8.5 4t-4.5 8q0 5 4 8
q2 2 16.5 11t36 21.5t43.5 25t39 20.5t23 8t19.5 -11t28.5 -26.5t27.5 -29.5t17.5 -21q1 -2 1 -6q0 -5 -5 -8.5t-10 -3.5q-7 0 -12 6q-17 18 -37.5 36t-35.5 28q-15 -7 -36.5 -17.5t-43.5 -22t-38.5 -19.5t-19.5 -10q-2 -1 -5 -1z" />
    <glyph glyph-name="Otilde" unicode="&#xd5;" horiz-adv-x="821" 
d="M335 -43q-62 0 -117.5 24t-90.5 72.5t-35 121.5q0 38 17 88.5t43 100t54 84.5q31 39 73.5 74t90.5 62t97 42.5t93 15.5q54 0 104.5 -21t90.5 -58t63.5 -85.5t23.5 -102.5q0 -52 -23 -103t-60.5 -96.5t-83.5 -83.5q-73 -60 -161.5 -97.5t-177.5 -37.5h-1zM329 -10
q85 0 167.5 35.5t149.5 90.5q44 36 80 79.5t58 91t22 93.5q0 45 -20.5 86t-55 73t-78.5 50.5t-91 18.5q-42 0 -88.5 -15t-91.5 -40.5t-84.5 -59t-67.5 -69.5q-26 -34 -50 -81t-38.5 -94t-14.5 -82q0 -56 26.5 -95.5t72.5 -60.5t104 -21zM472 698q-4 0 -8 2.5t-2 9.5
q3 9 10 22t22 23t39 10q18 0 38.5 -7t39 -14.5t31.5 -7.5q17 0 25 11t13 18q5 5 10 5q14 0 10 -16q-5 -16 -20 -32.5t-43 -16.5q-14 0 -35 7.5t-42.5 15t-37.5 7.5q-14 0 -21.5 -9.5t-14.5 -20.5q-4 -7 -14 -7z" />
    <glyph glyph-name="Odieresis" unicode="&#xd6;" horiz-adv-x="821" 
d="M335 -43q-62 0 -117.5 24t-90.5 72.5t-35 121.5q0 38 17 88.5t43 100t54 84.5q31 39 73.5 74t90.5 62t97 42.5t93 15.5q54 0 104.5 -21t90.5 -58t63.5 -85.5t23.5 -102.5q0 -52 -23 -103t-60.5 -96.5t-83.5 -83.5q-73 -60 -161.5 -97.5t-177.5 -37.5h-1zM329 -10
q85 0 167.5 35.5t149.5 90.5q44 36 80 79.5t58 91t22 93.5q0 45 -20.5 86t-55 73t-78.5 50.5t-91 18.5q-42 0 -88.5 -15t-91.5 -40.5t-84.5 -59t-67.5 -69.5q-26 -34 -50 -81t-38.5 -94t-14.5 -82q0 -56 26.5 -95.5t72.5 -60.5t104 -21zM632 702q-7 -3 -15.5 8t-8.5 22
q0 10 8 17t10 8q5 1 9.5 1.5t8.5 0.5q17 0 17 -14q0 -3 -2 -11q-2 -9 -7.5 -17.5t-19.5 -14.5zM516 702q-7 -3 -15.5 8t-8.5 22q0 10 8 17t10 8q5 1 9.5 1.5t8.5 0.5q17 0 17 -14q0 -3 -2 -11q-2 -9 -7.5 -17.5t-19.5 -14.5z" />
    <glyph glyph-name="multiply" unicode="&#xd7;" horiz-adv-x="280" 
d="M45 81q-10 0 -12 7.5t-2 12.5q0 12 8.5 32.5t22 44t28.5 43t28 28.5q-16 19 -34.5 30t-48.5 21q-11 3 -11 9q0 5 5 9.5t13 4.5q17 0 36 -10t35 -23t23 -21q6 6 22 21.5t35.5 33t38.5 29.5t32 12q8 0 13 -3.5t5 -8.5l-11.5 -9.5t-29 -24t-36 -30t-32 -27t-16.5 -15.5
q8 -10 22.5 -32t26.5 -44.5t12 -32.5q0 -7 -14 -7q-5 0 -8 3l-5 5q-13 22 -27 42.5t-28 42.5q-27 -30 -52.5 -62.5t-25.5 -67.5q0 -4 -2 -8.5t-11 -4.5z" />
    <glyph glyph-name="Oslash" unicode="&#xd8;" horiz-adv-x="799" 
d="M335 -43q-62 0 -117.5 24t-90.5 72.5t-35 121.5q0 38 17 88.5t43 100t54 84.5q31 39 73.5 74t90.5 62t97 42.5t93 15.5q54 0 104.5 -21t90.5 -58t63.5 -85.5t23.5 -102.5q0 -52 -23 -103t-60.5 -96.5t-83.5 -83.5q-73 -60 -161.5 -97.5t-177.5 -37.5h-1zM329 -10
q85 0 167.5 35.5t149.5 90.5q44 36 80 79.5t58 91t22 93.5q0 45 -20.5 86t-55 73t-78.5 50.5t-91 18.5q-42 0 -88.5 -15t-91.5 -40.5t-84.5 -59t-67.5 -69.5q-26 -34 -50 -81t-38.5 -94t-14.5 -82q0 -56 26.5 -95.5t72.5 -60.5t104 -21zM88 -56q-16 0 -16 16q0 6 4 11
q5 5 28 28.5t63 63.5l456 456l126 128q5 5 12 5q17 0 17 -16q0 -5 -5 -10q-13 -14 -57.5 -59t-120.5 -121l-496 -497h1q-5 -5 -12 -5z" />
    <glyph glyph-name="Ugrave" unicode="&#xd9;" horiz-adv-x="760" 
d="M604 -99q-46 0 -46 102t45 250q-133 -147 -228 -216t-160 -69q-112 0 -112 135q0 144 109 344q46 84 87 125q11 11 23 21.5t21 10.5q21 0 21 -19q0 -7 -8 -12q-26 -18 -56 -54t-62 -91q-27 -45 -50.5 -100.5t-37.5 -111.5t-14 -104q0 -112 81 -112q38 0 80.5 24t85 59.5
t77.5 69.5q36 35 62.5 62t52 55.5t57.5 66.5l18 47q13 33 24 57.5t19 40.5q71 137 102 137q8 0 11.5 -9.5t3.5 -22.5q0 -19 -12.5 -48t-31 -61.5t-37 -61t-31.5 -46.5l-36 -49q-4 -8 -14 -35.5t-24 -74.5q-31 -100 -31 -197q0 -82 17 -82q3 0 4 1.5t4 1.5q8 0 8 -13
q0 -21 -22 -21zM592 658q-5 0 -9 2q-24 14 -51.5 29.5t-49 28t-28.5 16.5q-4 3 -8 7t-4 8v2q0 10 9 15q1 0 2.5 0.5t2.5 0.5q8 0 18 -7q16 -10 41 -26.5t48.5 -31t32.5 -20.5q4 -3 6 -8v-2q0 -10 -10 -14z" />
    <glyph glyph-name="Uacute" unicode="&#xda;" horiz-adv-x="760" 
d="M604 -99q-46 0 -46 102t45 250q-133 -147 -228 -216t-160 -69q-112 0 -112 135q0 144 109 344q46 84 87 125q11 11 23 21.5t21 10.5q21 0 21 -19q0 -7 -8 -12q-26 -18 -56 -54t-62 -91q-27 -45 -50.5 -100.5t-37.5 -111.5t-14 -104q0 -112 81 -112q38 0 80.5 24t85 59.5
t77.5 69.5q36 35 62.5 62t52 55.5t57.5 66.5l18 47q13 33 24 57.5t19 40.5q71 137 102 137q8 0 11.5 -9.5t3.5 -22.5q0 -19 -12.5 -48t-31 -61.5t-37 -61t-31.5 -46.5l-36 -49q-4 -8 -14 -35.5t-24 -74.5q-31 -100 -31 -197q0 -82 17 -82q3 0 4 1.5t4 1.5q8 0 8 -13
q0 -21 -22 -21zM516 658q-10 4 -10 14q0 7 6 10q9 6 32.5 20.5t49 31t40.5 26.5q13 9 23 6q9 -5 9 -15t-12 -17q-7 -4 -28.5 -16.5t-48.5 -28t-52 -29.5q-4 -2 -9 -2z" />
    <glyph glyph-name="Ucircumflex" unicode="&#xdb;" horiz-adv-x="760" 
d="M604 -99q-46 0 -46 102t45 250q-133 -147 -228 -216t-160 -69q-112 0 -112 135q0 144 109 344q46 84 87 125q11 11 23 21.5t21 10.5q21 0 21 -19q0 -7 -8 -12q-26 -18 -56 -54t-62 -91q-27 -45 -50.5 -100.5t-37.5 -111.5t-14 -104q0 -112 81 -112q38 0 80.5 24t85 59.5
t77.5 69.5q36 35 62.5 62t52 55.5t57.5 66.5l18 47q13 33 24 57.5t19 40.5q71 137 102 137q8 0 11.5 -9.5t3.5 -22.5q0 -19 -12.5 -48t-31 -61.5t-37 -61t-31.5 -46.5l-36 -49q-4 -8 -14 -35.5t-24 -74.5q-31 -100 -31 -197q0 -82 17 -82q3 0 4 1.5t4 1.5q8 0 8 -13
q0 -21 -22 -21zM442 652q-4 0 -8.5 4t-4.5 8q0 5 4 8q2 2 16.5 11t36 21.5t43.5 25t39 20.5t23 8t19.5 -11t28.5 -26.5t27.5 -29.5t17.5 -21q1 -2 1 -6q0 -5 -5 -8.5t-10 -3.5q-7 0 -12 6q-17 18 -37.5 36t-35.5 28q-15 -7 -36.5 -17.5t-43.5 -22t-38.5 -19.5t-19.5 -10
q-2 -1 -5 -1z" />
    <glyph glyph-name="Udieresis" unicode="&#xdc;" horiz-adv-x="760" 
d="M604 -99q-46 0 -46 102t45 250q-133 -147 -228 -216t-160 -69q-112 0 -112 135q0 144 109 344q46 84 87 125q11 11 23 21.5t21 10.5q21 0 21 -19q0 -7 -8 -12q-26 -18 -56 -54t-62 -91q-27 -45 -50.5 -100.5t-37.5 -111.5t-14 -104q0 -112 81 -112q38 0 80.5 24t85 59.5
t77.5 69.5q36 35 62.5 62t52 55.5t57.5 66.5l18 47q13 33 24 57.5t19 40.5q71 137 102 137q8 0 11.5 -9.5t3.5 -22.5q0 -19 -12.5 -48t-31 -61.5t-37 -61t-31.5 -46.5l-36 -49q-4 -8 -14 -35.5t-24 -74.5q-31 -100 -31 -197q0 -82 17 -82q3 0 4 1.5t4 1.5q8 0 8 -13
q0 -21 -22 -21zM620 658q-7 -3 -15.5 8t-8.5 22q0 10 8 17t10 8q5 1 9.5 1.5t8.5 0.5q17 0 17 -14q0 -3 -2 -11q-2 -9 -7.5 -17.5t-19.5 -14.5zM504 658q-7 -3 -15.5 8t-8.5 22q0 10 8 17t10 8q5 1 9.5 1.5t8.5 0.5q17 0 17 -14q0 -3 -2 -11q-2 -9 -7.5 -17.5t-19.5 -14.5z
" />
    <glyph glyph-name="Yacute" unicode="&#xdd;" horiz-adv-x="556" 
d="M189 -29q-20 0 -20 17q0 4 3 11l6 14l99 249q-1 28 -9 75t-19 100t-21 97t-18 77t-8 37q0 7 11 7q13 0 15.5 -2.5t4.5 -9.5q17 -61 30 -112.5t19 -82.5q8 -38 14 -78t12 -78q128 115 261.5 225t270.5 210q5 4 10 7t12 3q17 0 17 -18q0 -7 -13 -16q-76 -53 -151.5 -112
t-146.5 -118q-67 -56 -131.5 -112t-127.5 -110q-6 -16 -17.5 -45t-24.5 -62.5t-25.5 -66t-22 -56.5t-13.5 -33q-4 -10 -8 -13.5t-9 -3.5zM484 755q-10 4 -10 14q0 7 6 10q9 6 32.5 20.5t49 31t40.5 26.5q13 9 23 6q9 -5 9 -15t-12 -17q-7 -4 -28.5 -16.5t-48.5 -28
t-52 -29.5q-4 -2 -9 -2z" />
    <glyph glyph-name="Thorn" unicode="&#xde;" horiz-adv-x="410" 
d="M49 -139q-47 0 -47 67q0 28 10.5 73t26.5 96.5t33.5 101t33 89t23.5 59.5q45 108 77 177t55.5 112.5t41.5 73.5q61 102 106 116h2q19 0 19 -21q0 -12 -12 -12q-24 0 -89 -109q-6 -10 -21 -37.5t-33 -62t-35.5 -67.5t-29.5 -55.5t-13 -24.5q37 52 71 87t66 52q45 27 83 27
t58.5 -26.5t20.5 -65.5q0 -36 -18 -72q-68 -135 -199 -212q-44 -26 -78 -26q-28 0 -46.5 17t-18.5 44q0 10 1 13l-2 -6t-3 -5q-38 -99 -59 -162t-29 -102t-8 -67q0 -21 2.5 -30t15.5 -9l5 1q15 0 15 -16q0 -18 -25 -18zM198 234q25 0 63 23q40 25 73.5 53t60.5 59
q68 80 68 157q0 41 -36 41q-29 0 -76 -22q-95 -44 -203 -251q9 9 15 9q16 0 16 -16q0 -3 -5 -10t-5 -15q0 -28 29 -28z" />
    <glyph glyph-name="germandbls" unicode="&#xdf;" horiz-adv-x="396" 
d="M-253 -327q-39 0 -58.5 19.5t-19.5 51.5q0 23 10 52.5t32 60.5q11 15 21 15q14 0 14 -15q0 -6 -5 -14q-37 -53 -37 -92q0 -20 12.5 -32t37.5 -12q40 0 71.5 25t57 65.5t45.5 86.5q12 27 32 77.5t43 112.5q25 65 48.5 130t43 118t30.5 83q33 86 61.5 135.5t54.5 74
t52 31.5t54 7q43 0 67.5 -29.5t24.5 -80.5q0 -45 -16.5 -93t-42.5 -80q-22 -26 -47 -40.5t-45 -26.5q-37 -22 -37 -49q0 -24 40 -36l75 -23q40 -19 40 -56q0 -45 -55 -93q-89 -79 -172 -79q-56 0 -56 37q0 25 21 52.5t51 48.5t56 25h5q8 0 8 -5q0 -6 -11 -12
q-24 -12 -46.5 -32.5t-36.5 -40t-14 -29.5q0 -18 31 -18q26 0 56.5 13t58 34t45.5 45t18 46q0 15 -9.5 27t-30.5 18l-73 22q-40 16 -40 53q0 18 12 36.5t37 34.5q29 18 54.5 33t49.5 52q17 26 28 62.5t11 69.5q0 40 -16.5 60t-44.5 21q-20 0 -40 -7t-42 -29t-47.5 -66.5
t-57.5 -120.5q-22 -53 -40 -103.5t-36.5 -105t-43.5 -119.5q-24 -63 -42.5 -113.5t-31.5 -79.5q-48 -107 -100.5 -155t-114.5 -48z" />
    <glyph glyph-name="agrave" unicode="&#xe0;" horiz-adv-x="454" 
d="M103 -10q-58 0 -58 55q0 36 17.5 77.5t47.5 81t67 72t76 52t75 19.5q64 0 64 -63q0 -41 -20 -41q-18 0 -18 17q0 7 3.5 14.5t3.5 16.5q0 28 -38 28q-61 0 -153 -93q-22 -23 -43 -54t-34.5 -62.5t-13.5 -59.5q0 -27 30 -27q26 0 55.5 16t51.5 33q44 33 90 90q7 8 18 21
t25 29q5 5 12 5q16 0 16 -16l-38 -57q-38 -56 -38 -92q0 -26 25 -26q21 0 46 11t41 22q32 21 67 52.5t67 63.5q4 4 12 4q15 0 15 -12q0 -11 -14 -25q-40 -40 -72 -68.5t-61 -46.5q-19 -11 -47 -23t-64 -12q-49 0 -49 52q0 20 5 33q-91 -87 -169 -87zM359 403q-3 0 -8 3
q-31 28 -59.5 54t-37.5 35t-9 15q0 5 4 10t9 6h2q5 0 10 -3t9 -7q13 -13 31 -31.5t34.5 -35t23.5 -24.5q4 -4 4 -9q0 -4 -4 -8.5t-9 -4.5z" />
    <glyph glyph-name="aacute" unicode="&#xe1;" horiz-adv-x="454" 
d="M103 -10q-58 0 -58 55q0 36 17.5 77.5t47.5 81t67 72t76 52t75 19.5q64 0 64 -63q0 -41 -20 -41q-18 0 -18 17q0 7 3.5 14.5t3.5 16.5q0 28 -38 28q-61 0 -153 -93q-22 -23 -43 -54t-34.5 -62.5t-13.5 -59.5q0 -27 30 -27q26 0 55.5 16t51.5 33q44 33 90 90q7 8 18 21
t25 29q5 5 12 5q16 0 16 -16l-38 -57q-38 -56 -38 -92q0 -26 25 -26q21 0 46 11t41 22q32 21 67 52.5t67 63.5q4 4 12 4q15 0 15 -12q0 -11 -14 -25q-40 -40 -72 -68.5t-61 -46.5q-19 -11 -47 -23t-64 -12q-49 0 -49 52q0 20 5 33q-91 -87 -169 -87zM322 403q-4 0 -8.5 4.5
t-4.5 8.5q0 5 4 9q8 8 24 24.5t34 35t31 31.5q4 4 9.5 7t9.5 3q5 0 9.5 -4.5t5.5 -9.5v-2q0 -6 -9 -15t-37 -35t-60 -54q-4 -3 -8 -3z" />
    <glyph glyph-name="acircumflex" unicode="&#xe2;" horiz-adv-x="454" 
d="M103 -10q-58 0 -58 55q0 36 17.5 77.5t47.5 81t67 72t76 52t75 19.5q64 0 64 -63q0 -41 -20 -41q-18 0 -18 17q0 7 3.5 14.5t3.5 16.5q0 28 -38 28q-61 0 -153 -93q-22 -23 -43 -54t-34.5 -62.5t-13.5 -59.5q0 -27 30 -27q26 0 55.5 16t51.5 33q44 33 90 90q7 8 18 21
t25 29q5 5 12 5q16 0 16 -16l-38 -57q-38 -56 -38 -92q0 -26 25 -26q21 0 46 11t41 22q32 21 67 52.5t67 63.5q4 4 12 4q15 0 15 -12q0 -11 -14 -25q-40 -40 -72 -68.5t-61 -46.5q-19 -11 -47 -23t-64 -12q-49 0 -49 52q0 20 5 33q-91 -87 -169 -87zM242 401q-4 0 -8.5 4
t-4.5 8q0 5 4 8q2 2 21 15t43.5 29.5t45.5 29t28 12.5q6 0 17.5 -12t23.5 -28.5t21 -30t11 -17.5q1 -2 1 -6q0 -5 -5 -8.5t-10 -3.5q-7 0 -12 6q-28 38 -53 64q-19 -9 -45 -24.5t-47 -29t-26 -15.5q-2 -1 -5 -1z" />
    <glyph glyph-name="atilde" unicode="&#xe3;" horiz-adv-x="454" 
d="M103 -10q-58 0 -58 55q0 36 17.5 77.5t47.5 81t67 72t76 52t75 19.5q64 0 64 -63q0 -41 -20 -41q-18 0 -18 17q0 7 3.5 14.5t3.5 16.5q0 28 -38 28q-61 0 -153 -93q-22 -23 -43 -54t-34.5 -62.5t-13.5 -59.5q0 -27 30 -27q26 0 55.5 16t51.5 33q44 33 90 90q7 8 18 21
t25 29q5 5 12 5q16 0 16 -16l-38 -57q-38 -56 -38 -92q0 -26 25 -26q21 0 46 11t41 22q32 21 67 52.5t67 63.5q4 4 12 4q15 0 15 -12q0 -11 -14 -25q-40 -40 -72 -68.5t-61 -46.5q-19 -11 -47 -23t-64 -12q-49 0 -49 52q0 20 5 33q-91 -87 -169 -87zM260 403q-4 0 -8 2.5
t-2 9.5q3 9 10 22t22 23t39 10q18 0 28.5 -7t19 -14.5t21.5 -7.5q17 0 25 11t13 18q5 5 10 5q14 0 10 -16q-5 -16 -20 -32.5t-43 -16.5q-14 0 -25 7.5t-22.5 15t-27.5 7.5q-14 0 -21.5 -9.5t-14.5 -20.5q-4 -7 -14 -7z" />
    <glyph glyph-name="adieresis" unicode="&#xe4;" horiz-adv-x="454" 
d="M103 -10q-58 0 -58 55q0 36 17.5 77.5t47.5 81t67 72t76 52t75 19.5q64 0 64 -63q0 -41 -20 -41q-18 0 -18 17q0 7 3.5 14.5t3.5 16.5q0 28 -38 28q-61 0 -153 -93q-22 -23 -43 -54t-34.5 -62.5t-13.5 -59.5q0 -27 30 -27q26 0 55.5 16t51.5 33q44 33 90 90q7 8 18 21
t25 29q5 5 12 5q16 0 16 -16l-38 -57q-38 -56 -38 -92q0 -26 25 -26q21 0 46 11t41 22q32 21 67 52.5t67 63.5q4 4 12 4q15 0 15 -12q0 -11 -14 -25q-40 -40 -72 -68.5t-61 -46.5q-19 -11 -47 -23t-64 -12q-49 0 -49 52q0 20 5 33q-91 -87 -169 -87zM400 407q-7 -3 -15.5 8
t-8.5 22q0 10 8 17t10 8q5 1 9.5 1.5t8.5 0.5q17 0 17 -14q0 -3 -2 -11q-2 -9 -7.5 -17.5t-19.5 -14.5zM284 407q-7 -3 -15.5 8t-8.5 22q0 10 8 17t10 8q5 1 9.5 1.5t8.5 0.5q17 0 17 -14q0 -3 -2 -11q-2 -9 -7.5 -17.5t-19.5 -14.5z" />
    <glyph glyph-name="aring" unicode="&#xe5;" horiz-adv-x="454" 
d="M103 -10q-58 0 -58 55q0 36 17.5 77.5t47.5 81t67 72t76 52t75 19.5q64 0 64 -63q0 -41 -20 -41q-18 0 -18 17q0 7 3.5 14.5t3.5 16.5q0 28 -38 28q-61 0 -153 -93q-22 -23 -43 -54t-34.5 -62.5t-13.5 -59.5q0 -27 30 -27q26 0 55.5 16t51.5 33q44 33 90 90q7 8 18 21
t25 29q5 5 12 5q16 0 16 -16l-38 -57q-38 -56 -38 -92q0 -26 25 -26q21 0 46 11t41 22q32 21 67 52.5t67 63.5q4 4 12 4q15 0 15 -12q0 -11 -14 -25q-40 -40 -72 -68.5t-61 -46.5q-19 -11 -47 -23t-64 -12q-49 0 -49 52q0 20 5 33q-91 -87 -169 -87zM335 407
q-24 0 -35.5 14.5t-11.5 33.5q0 26 20.5 50t57.5 24q27 0 40.5 -15t13.5 -35q0 -25 -21.5 -48.5t-63.5 -23.5zM347 431q22 0 32.5 13.5t10.5 29.5q0 29 -27 29q-22 0 -34 -14t-12 -31q0 -13 9.5 -20t20.5 -7z" />
    <glyph glyph-name="ae" unicode="&#xe6;" horiz-adv-x="625" 
d="M52 -10q-58 0 -58 55q0 36 17.5 77.5t47.5 81t67 72t76 52t75 19.5q32 0 48 -14.5t16 -38.5q0 -41 -20 -41q-18 0 -18 17q0 6 4 15q3 11 3 16q0 7 -9.5 12.5t-28.5 5.5q-61 0 -153 -93q-34 -36 -60 -81q-31 -53 -31 -95q0 -27 30 -27q15 0 26 4q27 9 51.5 20.5t52.5 34
t65 62.5l59 64q6 11 13 22q13 21 30 41.5t37 39.5q47 46 87 59q24 8 40 8q51 0 51 -48q0 -60 -70 -109q-65 -44 -128 -44q-21 0 -35 5q-26 -60 -26 -101q0 -66 58 -66q62 0 153 56q53 32 128 102q7 5 11 5q15 0 15 -16q0 -4 -5 -11q-53 -59 -139 -111q-97 -58 -165 -58
q-42 0 -66 29t-24 71q0 25 6 50q-8 -8 -15 -16t-13 -14q-58 -62 -111 -87t-92 -25zM366 210q63 0 116 38q58 43 58 83q0 6 -3 7q0 8 -16 8q-42 0 -95 -49q-43 -39 -72 -84v-2q3 -1 12 -1z" />
    <glyph glyph-name="ccedilla" unicode="&#xe7;" horiz-adv-x="371" 
d="M183 -14q-53 0 -83 31t-30 83q0 90 85 196q44 54 89.5 82.5t85.5 28.5q35 0 54 -24t19 -60q0 -22 -6 -45q-4 -16 -16 -16q-19 0 -19 21q0 9 3.5 23.5t3.5 28.5q0 40 -39 40q-21 0 -50.5 -15t-58.5 -39.5t-51 -55.5q-67 -91 -67 -163q0 -83 75 -83q47 0 90 14.5t101 60.5
q36 28 54 45t39 36q6 4 11 4t10 -3t5 -9q0 -11 -20 -31q-17 -16 -36 -33.5t-60 -48.5q-44 -34 -93.5 -51t-95.5 -17zM135 -176q-8 0 -20.5 2.5t-22.5 7.5q-11 6 -14 11.5t-3 10.5q0 7 6 9t11 -1q7 -4 20 -8t23 -4q18 0 32.5 6t14.5 27q0 15 -9 25t-18 21.5t-9 28.5
q0 20 16.5 35t37.5 15q5 0 8 -3.5t3 -7.5q0 -6 -4 -7q-12 -6 -20 -10.5t-8 -18.5t9 -24.5t18 -23t9 -35.5t-22.5 -39.5t-57.5 -16.5z" />
    <glyph glyph-name="egrave" unicode="&#xe8;" horiz-adv-x="352" 
d="M160 -18q-42 0 -66 29t-24 71q0 72 48 148q13 21 30 41.5t37 39.5q30 29 63 48t64 19q51 0 51 -48q0 -60 -70 -109q-65 -44 -128 -44q-11 0 -19.5 1.5t-15.5 3.5q-10 -19 -18 -49t-8 -52q0 -66 58 -66q47 0 89 16.5t100 62.5q36 28 54 45t39 36q6 4 11 4t10 -3t5 -9
q0 -11 -20 -31q-17 -16 -36 -33.5t-60 -48.5q-44 -34 -96 -53t-98 -19zM159 209q32 0 61 10t55 29q58 43 58 81q0 17 -21 17q-40 0 -93 -49q-26 -24 -42.5 -43.5t-30.5 -42.5q6 -2 13 -2zM333 421q-3 0 -8 3q-31 28 -59.5 54t-37.5 35t-9 15q0 5 4 10t9 6h2q5 0 10 -3t9 -7
q13 -13 31 -31.5t34.5 -35t23.5 -24.5q4 -4 4 -9q0 -4 -4 -8.5t-9 -4.5z" />
    <glyph glyph-name="eacute" unicode="&#xe9;" horiz-adv-x="352" 
d="M160 -18q-42 0 -66 29t-24 71q0 72 48 148q13 21 30 41.5t37 39.5q30 29 63 48t64 19q51 0 51 -48q0 -60 -70 -109q-65 -44 -128 -44q-11 0 -19.5 1.5t-15.5 3.5q-10 -19 -18 -49t-8 -52q0 -66 58 -66q47 0 89 16.5t100 62.5q36 28 54 45t39 36q6 4 11 4t10 -3t5 -9
q0 -11 -20 -31q-17 -16 -36 -33.5t-60 -48.5q-44 -34 -96 -53t-98 -19zM159 209q32 0 61 10t55 29q58 43 58 81q0 17 -21 17q-40 0 -93 -49q-26 -24 -42.5 -43.5t-30.5 -42.5q6 -2 13 -2zM296 421q-4 0 -8.5 4.5t-4.5 8.5q0 5 4 9q8 8 24 24.5t34 35t31 31.5q4 4 9.5 7
t9.5 3q5 0 9.5 -4.5t5.5 -9.5v-2q0 -6 -9 -15t-37 -35t-60 -54q-4 -3 -8 -3z" />
    <glyph glyph-name="ecircumflex" unicode="&#xea;" horiz-adv-x="352" 
d="M160 -18q-42 0 -66 29t-24 71q0 72 48 148q13 21 30 41.5t37 39.5q30 29 63 48t64 19q51 0 51 -48q0 -60 -70 -109q-65 -44 -128 -44q-11 0 -19.5 1.5t-15.5 3.5q-10 -19 -18 -49t-8 -52q0 -66 58 -66q47 0 89 16.5t100 62.5q36 28 54 45t39 36q6 4 11 4t10 -3t5 -9
q0 -11 -20 -31q-17 -16 -36 -33.5t-60 -48.5q-44 -34 -96 -53t-98 -19zM159 209q32 0 61 10t55 29q58 43 58 81q0 17 -21 17q-40 0 -93 -49q-26 -24 -42.5 -43.5t-30.5 -42.5q6 -2 13 -2zM216 419q-4 0 -8.5 4t-4.5 8q0 5 4 8q2 2 21 15t43.5 29.5t45.5 29t28 12.5
q6 0 17.5 -12t23.5 -28.5t21 -30t11 -17.5q1 -2 1 -6q0 -5 -5 -8.5t-10 -3.5q-7 0 -12 6q-28 38 -53 64q-19 -9 -45 -24.5t-47 -29t-26 -15.5q-2 -1 -5 -1z" />
    <glyph glyph-name="edieresis" unicode="&#xeb;" horiz-adv-x="352" 
d="M160 -18q-42 0 -66 29t-24 71q0 72 48 148q13 21 30 41.5t37 39.5q30 29 63 48t64 19q51 0 51 -48q0 -60 -70 -109q-65 -44 -128 -44q-11 0 -19.5 1.5t-15.5 3.5q-10 -19 -18 -49t-8 -52q0 -66 58 -66q47 0 89 16.5t100 62.5q36 28 54 45t39 36q6 4 11 4t10 -3t5 -9
q0 -11 -20 -31q-17 -16 -36 -33.5t-60 -48.5q-44 -34 -96 -53t-98 -19zM159 209q32 0 61 10t55 29q58 43 58 81q0 17 -21 17q-40 0 -93 -49q-26 -24 -42.5 -43.5t-30.5 -42.5q6 -2 13 -2zM374 425q-7 -3 -15.5 8t-8.5 22q0 10 8 17t10 8q5 1 9.5 1.5t8.5 0.5q17 0 17 -14
q0 -3 -2 -11q-2 -9 -7.5 -17.5t-19.5 -14.5zM258 425q-7 -3 -15.5 8t-8.5 22q0 10 8 17t10 8q5 1 9.5 1.5t8.5 0.5q17 0 17 -14q0 -3 -2 -11q-2 -9 -7.5 -17.5t-19.5 -14.5z" />
    <glyph glyph-name="igrave" unicode="&#xec;" horiz-adv-x="241" 
d="M105 -7q-28 0 -40.5 11t-12.5 33q0 21 13 57.5t33.5 78.5t43.5 80t44.5 62.5t34.5 24.5q18 0 18 -16q0 -10 -17 -38t-37 -58q-8 -11 -22 -30t-27 -35.5t-17 -22.5q-10 -15 -21 -49q-12 -34 -12 -52q0 -8 3.5 -12t16.5 -4q25 0 56 16t63 40.5t60.5 50.5t48.5 45q4 4 12 4
q15 0 15 -12q0 -11 -14 -25q-27 -27 -50 -48t-44 -37q-33 -24 -73 -44t-75 -20zM270 391q-3 0 -8 3q-31 28 -59.5 54t-37.5 35t-9 15q0 5 4 10t9 6h2q5 0 10 -3t9 -7q13 -13 31 -31.5t34.5 -35t23.5 -24.5q4 -4 4 -9q0 -4 -4 -8.5t-9 -4.5z" />
    <glyph glyph-name="iacute" unicode="&#xed;" horiz-adv-x="241" 
d="M105 -7q-28 0 -40.5 11t-12.5 33q0 21 13 57.5t33.5 78.5t43.5 80t44.5 62.5t34.5 24.5q18 0 18 -16q0 -10 -17 -38t-37 -58q-8 -11 -22 -30t-27 -35.5t-17 -22.5q-10 -15 -21 -49q-12 -34 -12 -52q0 -8 3.5 -12t16.5 -4q25 0 56 16t63 40.5t60.5 50.5t48.5 45q4 4 12 4
q15 0 15 -12q0 -11 -14 -25q-27 -27 -50 -48t-44 -37q-33 -24 -73 -44t-75 -20zM233 391q-4 0 -8.5 4.5t-4.5 8.5q0 5 4 9q8 8 24 24.5t34 35t31 31.5q4 4 9.5 7t9.5 3q5 0 9.5 -4.5t5.5 -9.5v-2q0 -6 -9 -15t-37 -35t-60 -54q-4 -3 -8 -3z" />
    <glyph glyph-name="icircumflex" unicode="&#xee;" horiz-adv-x="241" 
d="M105 -7q-28 0 -40.5 11t-12.5 33q0 21 13 57.5t33.5 78.5t43.5 80t44.5 62.5t34.5 24.5q18 0 18 -16q0 -10 -17 -38t-37 -58q-8 -11 -22 -30t-27 -35.5t-17 -22.5q-10 -15 -21 -49q-12 -34 -12 -52q0 -8 3.5 -12t16.5 -4q25 0 56 16t63 40.5t60.5 50.5t48.5 45q4 4 12 4
q15 0 15 -12q0 -11 -14 -25q-27 -27 -50 -48t-44 -37q-33 -24 -73 -44t-75 -20zM153 389q-4 0 -8.5 4t-4.5 8q0 5 4 8q2 2 21 15t43.5 29.5t45.5 29t28 12.5q6 0 17.5 -12t23.5 -28.5t21 -30t11 -17.5q1 -2 1 -6q0 -5 -5 -8.5t-10 -3.5q-7 0 -12 6q-28 38 -53 64
q-19 -9 -45 -24.5t-47 -29t-26 -15.5q-2 -1 -5 -1z" />
    <glyph glyph-name="idieresis" unicode="&#xef;" horiz-adv-x="241" 
d="M105 -7q-28 0 -40.5 11t-12.5 33q0 21 13 57.5t33.5 78.5t43.5 80t44.5 62.5t34.5 24.5q18 0 18 -16q0 -10 -17 -38t-37 -58q-8 -11 -22 -30t-27 -35.5t-17 -22.5q-10 -15 -21 -49q-12 -34 -12 -52q0 -8 3.5 -12t16.5 -4q25 0 56 16t63 40.5t60.5 50.5t48.5 45q4 4 12 4
q15 0 15 -12q0 -11 -14 -25q-27 -27 -50 -48t-44 -37q-33 -24 -73 -44t-75 -20zM311 395q-7 -3 -15.5 8t-8.5 22q0 10 8 17t10 8q5 1 9.5 1.5t8.5 0.5q17 0 17 -14q0 -3 -2 -11q-2 -9 -7.5 -17.5t-19.5 -14.5zM195 395q-7 -3 -15.5 8t-8.5 22q0 10 8 17t10 8q5 1 9.5 1.5
t8.5 0.5q17 0 17 -14q0 -3 -2 -11q-2 -9 -7.5 -17.5t-19.5 -14.5z" />
    <glyph glyph-name="eth" unicode="&#xf0;" horiz-adv-x="331" 
d="M98 5q-81 0 -81 91q0 84 72 171q75 92 157 92q34 0 53 -27q-1 51 -16 101.5t-42 88.5l-100 -62q-5 -4 -10 -4q-6 0 -13 10q-3 5 -3 9q0 8 8 13l97 60q-22 22 -48 35t-56 13q-7 0 -16 -1t-17 -3h-4q-19 0 -19 15q0 10 15 15q24 6 47 6q39 0 72 -16t58 -44l86 53q5 3 9 3
q7 0 12 -8q3 -6 3 -11q0 -9 -8 -13l-82 -51q28 -41 42.5 -94.5t14.5 -110.5q0 -56 -14.5 -110.5t-45.5 -99.5q-43 -63 -82 -89.5t-80 -29.5v-2h-9zM97 37q6 0 7 1q76 9 130 87q50 74 50 152q0 39 -33 46l-13 3q-37 0 -88 -48q-42 -39 -64 -79q-35 -62 -35 -108q0 -54 46 -54
z" />
    <glyph glyph-name="ntilde" unicode="&#xf1;" horiz-adv-x="397" 
d="M25 -25q-16 0 -16 13q0 5 4 12.5t7 12.5l90 181q58 118 58 131q0 14 14 14q19 0 19 -20q0 -7 -9 -30t-23 -52q-24 -52 -40 -80q30 35 61 66t63 59q95 83 146 83q35 0 35 -33q0 -30 -51 -135q-51 -106 -51 -134q0 -13 9 -13q3 0 9.5 2.5t13.5 2.5q17 0 17 -16
q0 -20 -43 -20q-20 0 -29 9.5t-9 25.5q0 48 49 146q49 97 49 117q0 12 -9 12q-22 0 -71 -37q-53 -40 -106 -92t-101 -119l-70 -97q-6 -9 -16 -9zM277 421q-4 0 -8 2.5t-2 9.5q3 9 10 22t22 23t39 10q18 0 28.5 -7t19 -14.5t21.5 -7.5q17 0 25 11t13 18q5 5 10 5q14 0 10 -16
q-5 -16 -20 -32.5t-43 -16.5q-14 0 -25 7.5t-22.5 15t-27.5 7.5q-14 0 -21.5 -9.5t-14.5 -20.5q-4 -7 -14 -7z" />
    <glyph glyph-name="ograve" unicode="&#xf2;" horiz-adv-x="333" 
d="M141 5q-81 0 -81 91q0 42 20 88t53 85.5t73.5 64.5t82.5 25q37 0 54 -28t17 -62q0 -45 -18 -91.5t-49 -85.5t-70 -63t-82 -24zM140 37q6 0 7 1q39 5 72 28t57.5 57.5t37.5 74.5t13 79q0 23 -13 36t-33 13q-29 0 -61.5 -24t-61 -61t-46.5 -77.5t-18 -72.5q0 -54 46 -54z
M330 415q-3 0 -8 3q-31 28 -59.5 54t-37.5 35t-9 15q0 5 4 10t9 6h2q5 0 10 -3t9 -7q13 -13 31 -31.5t34.5 -35t23.5 -24.5q4 -4 4 -9q0 -4 -4 -8.5t-9 -4.5z" />
    <glyph glyph-name="oacute" unicode="&#xf3;" horiz-adv-x="333" 
d="M141 5q-81 0 -81 91q0 42 20 88t53 85.5t73.5 64.5t82.5 25q37 0 54 -28t17 -62q0 -45 -18 -91.5t-49 -85.5t-70 -63t-82 -24zM140 37q6 0 7 1q39 5 72 28t57.5 57.5t37.5 74.5t13 79q0 23 -13 36t-33 13q-29 0 -61.5 -24t-61 -61t-46.5 -77.5t-18 -72.5q0 -54 46 -54z
M293 415q-4 0 -8.5 4.5t-4.5 8.5q0 5 4 9q8 8 24 24.5t34 35t31 31.5q4 4 9.5 7t9.5 3q5 0 9.5 -4.5t5.5 -9.5v-2q0 -6 -9 -15t-37 -35t-60 -54q-4 -3 -8 -3z" />
    <glyph glyph-name="ocircumflex" unicode="&#xf4;" horiz-adv-x="333" 
d="M141 5q-81 0 -81 91q0 42 20 88t53 85.5t73.5 64.5t82.5 25q37 0 54 -28t17 -62q0 -45 -18 -91.5t-49 -85.5t-70 -63t-82 -24zM140 37q6 0 7 1q39 5 72 28t57.5 57.5t37.5 74.5t13 79q0 23 -13 36t-33 13q-29 0 -61.5 -24t-61 -61t-46.5 -77.5t-18 -72.5q0 -54 46 -54z
M213 413q-4 0 -8.5 4t-4.5 8q0 5 4 8q2 2 21 15t43.5 29.5t45.5 29t28 12.5q6 0 17.5 -12t23.5 -28.5t21 -30t11 -17.5q1 -2 1 -6q0 -5 -5 -8.5t-10 -3.5q-7 0 -12 6q-28 38 -53 64q-19 -9 -45 -24.5t-47 -29t-26 -15.5q-2 -1 -5 -1z" />
    <glyph glyph-name="otilde" unicode="&#xf5;" horiz-adv-x="333" 
d="M141 5q-81 0 -81 91q0 42 20 88t53 85.5t73.5 64.5t82.5 25q37 0 54 -28t17 -62q0 -45 -18 -91.5t-49 -85.5t-70 -63t-82 -24zM140 37q6 0 7 1q39 5 72 28t57.5 57.5t37.5 74.5t13 79q0 23 -13 36t-33 13q-29 0 -61.5 -24t-61 -61t-46.5 -77.5t-18 -72.5q0 -54 46 -54z
M231 415q-4 0 -8 2.5t-2 9.5q3 9 10 22t22 23t39 10q18 0 28.5 -7t19 -14.5t21.5 -7.5q17 0 25 11t13 18q5 5 10 5q14 0 10 -16q-5 -16 -20 -32.5t-43 -16.5q-14 0 -25 7.5t-22.5 15t-27.5 7.5q-14 0 -21.5 -9.5t-14.5 -20.5q-4 -7 -14 -7z" />
    <glyph glyph-name="odieresis" unicode="&#xf6;" horiz-adv-x="333" 
d="M141 5q-81 0 -81 91q0 42 20 88t53 85.5t73.5 64.5t82.5 25q37 0 54 -28t17 -62q0 -45 -18 -91.5t-49 -85.5t-70 -63t-82 -24zM140 37q6 0 7 1q39 5 72 28t57.5 57.5t37.5 74.5t13 79q0 23 -13 36t-33 13q-29 0 -61.5 -24t-61 -61t-46.5 -77.5t-18 -72.5q0 -54 46 -54z
M371 419q-7 -3 -15.5 8t-8.5 22q0 10 8 17t10 8q5 1 9.5 1.5t8.5 0.5q17 0 17 -14q0 -3 -2 -11q-2 -9 -7.5 -17.5t-19.5 -14.5zM255 419q-7 -3 -15.5 8t-8.5 22q0 10 8 17t10 8q5 1 9.5 1.5t8.5 0.5q17 0 17 -14q0 -3 -2 -11q-2 -9 -7.5 -17.5t-19.5 -14.5z" />
    <glyph glyph-name="divide" unicode="&#xf7;" horiz-adv-x="513" 
d="M349 348q-25 0 -25 12q0 8 13.5 23.5t31.5 28.5t30 13q9 0 9 -8q0 -1 -5 -9q-18 -19 -35 -51q-4 -9 -19 -9zM146 214q-23 0 -23 20q0 26 116 44q44 7 81 10t65 3q77 0 131 -14q8 0 8 -5t-16 -6q-11 -2 -31 0l-23 1q-90 0 -212 -21q-54 -9 -84 -28q-7 -4 -12 -4zM269 125
q-25 0 -25 12q0 8 13.5 23.5t31.5 28.5t30 13q9 0 9 -8q0 -1 -5 -9q-16 -18 -35 -51q-4 -9 -19 -9z" />
    <glyph glyph-name="oslash" unicode="&#xf8;" horiz-adv-x="331" 
d="M24 -88q-10 0 -13 12q-2 5 1 11q3 5 13.5 25t29.5 54q-38 20 -38 82q0 84 72 171q75 92 156 92l47 87q3 7 10 8q2 1 7 1q10 0 13 -11v-3q0 -6 -1 -9q-5 -9 -16 -29t-28 -51q13 -7 23 -21q17 -26 17 -62q0 -85 -62 -168q-66 -88 -148 -94v-2h-9q-6 0 -11 1l-47 -85h1
q-3 -7 -10 -8q-2 -1 -7 -1zM51 91q0 -36 20 -48l3 6l132 239l20 37q-33 -6 -76 -47q-42 -39 -64 -79q-35 -62 -35 -108zM199 210l-95 -172q76 9 130 87q50 74 50 152q0 33 -24 43q-13 -23 -28 -50.5t-33 -59.5z" />
    <glyph glyph-name="ugrave" unicode="&#xf9;" horiz-adv-x="469" 
d="M339 -34q-49 0 -49 71q0 38 18 92q-121 -141 -190 -141q-57 0 -57 69q0 26 8.5 62.5t23 75.5t31.5 73t34 55q6 7 15 7q5 0 10 -3.5t5 -10.5q0 -6 -7 -17q-45 -74 -64 -129q-24 -63 -24 -109q0 -43 22 -43q14 0 37 14t47.5 34.5t42.5 38.5q50 53 90 113q18 28 32.5 54.5
t26.5 55.5q5 11 8.5 16.5t10.5 5.5q21 0 21 -16q0 -10 -7 -14q-102 -207 -102 -285q0 -21 4 -29.5t14 -8.5q14 0 43.5 18t69.5 55l105 96q8 8 15 8q16 0 16 -15q0 -13 -63 -70q-27 -25 -48 -42t-39 -30q-34 -24 -60 -37.5t-40 -13.5zM319 401q-3 0 -8 3q-31 28 -59.5 54
t-37.5 35t-9 15q0 5 4 10t9 6h2q5 0 10 -3t9 -7q13 -13 31 -31.5t34.5 -35t23.5 -24.5q4 -4 4 -9q0 -4 -4 -8.5t-9 -4.5z" />
    <glyph glyph-name="uacute" unicode="&#xfa;" horiz-adv-x="469" 
d="M339 -34q-49 0 -49 71q0 38 18 92q-121 -141 -190 -141q-57 0 -57 69q0 26 8.5 62.5t23 75.5t31.5 73t34 55q6 7 15 7q5 0 10 -3.5t5 -10.5q0 -6 -7 -17q-45 -74 -64 -129q-24 -63 -24 -109q0 -43 22 -43q14 0 37 14t47.5 34.5t42.5 38.5q50 53 90 113q18 28 32.5 54.5
t26.5 55.5q5 11 8.5 16.5t10.5 5.5q21 0 21 -16q0 -10 -7 -14q-102 -207 -102 -285q0 -21 4 -29.5t14 -8.5q14 0 43.5 18t69.5 55l105 96q8 8 15 8q16 0 16 -15q0 -13 -63 -70q-27 -25 -48 -42t-39 -30q-34 -24 -60 -37.5t-40 -13.5zM282 401q-4 0 -8.5 4.5t-4.5 8.5
q0 5 4 9q8 8 24 24.5t34 35t31 31.5q4 4 9.5 7t9.5 3q5 0 9.5 -4.5t5.5 -9.5v-2q0 -6 -9 -15t-37 -35t-60 -54q-4 -3 -8 -3z" />
    <glyph glyph-name="ucircumflex" unicode="&#xfb;" horiz-adv-x="469" 
d="M339 -34q-49 0 -49 71q0 38 18 92q-121 -141 -190 -141q-57 0 -57 69q0 26 8.5 62.5t23 75.5t31.5 73t34 55q6 7 15 7q5 0 10 -3.5t5 -10.5q0 -6 -7 -17q-45 -74 -64 -129q-24 -63 -24 -109q0 -43 22 -43q14 0 37 14t47.5 34.5t42.5 38.5q50 53 90 113q18 28 32.5 54.5
t26.5 55.5q5 11 8.5 16.5t10.5 5.5q21 0 21 -16q0 -10 -7 -14q-102 -207 -102 -285q0 -21 4 -29.5t14 -8.5q14 0 43.5 18t69.5 55l105 96q8 8 15 8q16 0 16 -15q0 -13 -63 -70q-27 -25 -48 -42t-39 -30q-34 -24 -60 -37.5t-40 -13.5zM202 399q-4 0 -8.5 4t-4.5 8q0 5 4 8
q2 2 21 15t43.5 29.5t45.5 29t28 12.5q6 0 17.5 -12t23.5 -28.5t21 -30t11 -17.5q1 -2 1 -6q0 -5 -5 -8.5t-10 -3.5q-7 0 -12 6q-28 38 -53 64q-19 -9 -45 -24.5t-47 -29t-26 -15.5q-2 -1 -5 -1z" />
    <glyph glyph-name="udieresis" unicode="&#xfc;" horiz-adv-x="469" 
d="M339 -34q-49 0 -49 71q0 38 18 92q-121 -141 -190 -141q-57 0 -57 69q0 26 8.5 62.5t23 75.5t31.5 73t34 55q6 7 15 7q5 0 10 -3.5t5 -10.5q0 -6 -7 -17q-45 -74 -64 -129q-24 -63 -24 -109q0 -43 22 -43q14 0 37 14t47.5 34.5t42.5 38.5q50 53 90 113q18 28 32.5 54.5
t26.5 55.5q5 11 8.5 16.5t10.5 5.5q21 0 21 -16q0 -10 -7 -14q-102 -207 -102 -285q0 -21 4 -29.5t14 -8.5q14 0 43.5 18t69.5 55l105 96q8 8 15 8q16 0 16 -15q0 -13 -63 -70q-27 -25 -48 -42t-39 -30q-34 -24 -60 -37.5t-40 -13.5zM360 405q-7 -3 -15.5 8t-8.5 22
q0 10 8 17t10 8q5 1 9.5 1.5t8.5 0.5q17 0 17 -14q0 -3 -2 -11q-2 -9 -7.5 -17.5t-19.5 -14.5zM244 405q-7 -3 -15.5 8t-8.5 22q0 10 8 17t10 8q5 1 9.5 1.5t8.5 0.5q17 0 17 -14q0 -3 -2 -11q-2 -9 -7.5 -17.5t-19.5 -14.5z" />
    <glyph glyph-name="yacute" unicode="&#xfd;" horiz-adv-x="420" 
d="M46 -331q-61 0 -61 72q0 61 26 118q4 10 13 10q18 0 18 -16q0 -4 -2.5 -10.5t-5.5 -14.5q-7 -19 -11 -40t-4 -44q0 -26 7 -35t18 -9q26 0 61.5 24t73.5 76q27 37 56 88t62 117q44 87 81 177q-25 -32 -52 -62t-58 -56q-83 -71 -138 -71q-66 0 -66 76q0 27 10.5 65t29.5 87
q3 8 3 13.5t3 11.5q16 35 53 78q8 9 14 9q15 0 15 -22q-97 -143 -97 -242q0 -42 33 -42q37 0 103 51q47 36 87 81.5t72 94.5q22 33 35.5 58.5t16.5 34.5q5 15 14 15q19 0 19 -16q0 -8 -7.5 -28.5t-18.5 -48.5q-16 -41 -46 -110t-75 -164q-56 -118 -110 -193
q-40 -57 -87.5 -95t-84.5 -38zM320 421q-4 0 -8.5 4.5t-4.5 8.5q0 5 4 9q8 8 24 24.5t34 35t31 31.5q4 4 9.5 7t9.5 3q5 0 9.5 -4.5t5.5 -9.5v-2q0 -6 -9 -15t-37 -35t-60 -54q-4 -3 -8 -3z" />
    <glyph glyph-name="thorn" unicode="&#xfe;" horiz-adv-x="410" 
d="M147 -34q-18 0 -30.5 10t-12.5 29q0 22 22.5 41t74.5 31l98 22q19 34 29 51.5t10 41.5q0 53 -79 101q-10 7 -26 13t-29.5 10t-19.5 4q-30 -69 -63 -147.5t-62 -155t-46.5 -140t-17.5 -102.5q0 -21 2.5 -30t15.5 -9l5 1q15 0 15 -16q0 -18 -25 -18q-47 0 -47 67
q0 36 15 95.5t41 133.5t57.5 153t65.5 155t65.5 139.5t56.5 105.5q61 102 106 116h2q19 0 19 -21q0 -12 -12 -12q-26 0 -89 -109q-20 -34 -37.5 -67.5t-33.5 -66.5q-5 -11 -10.5 -23.5t-11.5 -25.5q4 2 7 2q17 0 35 -6.5t39 -17.5q45 -24 71.5 -58.5t26.5 -76.5
q0 -34 -21 -73q70 16 138 80q5 5 11 5q18 0 18 -17q0 -5 -4 -10q-47 -57 -191 -98q-32 -40 -83 -72q-58 -35 -95 -35zM152 -2q14 0 42 13.5t63 44.5v1l-67 -15q-22 -4 -36 -13.5t-14 -21.5q0 -9 12 -9z" />
    <glyph glyph-name="ydieresis" unicode="&#xff;" horiz-adv-x="420" 
d="M46 -331q-61 0 -61 72q0 61 26 118q4 10 13 10q18 0 18 -16q0 -4 -2.5 -10.5t-5.5 -14.5q-7 -19 -11 -40t-4 -44q0 -26 7 -35t18 -9q26 0 61.5 24t73.5 76q27 37 56 88t62 117q44 87 81 177q-25 -32 -52 -62t-58 -56q-83 -71 -138 -71q-66 0 -66 76q0 27 10.5 65t29.5 87
q3 8 3 13.5t3 11.5q16 35 53 78q8 9 14 9q15 0 15 -22q-97 -143 -97 -242q0 -42 33 -42q37 0 103 51q47 36 87 81.5t72 94.5q22 33 35.5 58.5t16.5 34.5q5 15 14 15q19 0 19 -16q0 -8 -7.5 -28.5t-18.5 -48.5q-16 -41 -46 -110t-75 -164q-56 -118 -110 -193
q-40 -57 -87.5 -95t-84.5 -38zM398 425q-7 -3 -15.5 8t-8.5 22q0 10 8 17t10 8q5 1 9.5 1.5t8.5 0.5q17 0 17 -14q0 -3 -2 -11q-2 -9 -7.5 -17.5t-19.5 -14.5zM282 425q-7 -3 -15.5 8t-8.5 22q0 10 8 17t10 8q5 1 9.5 1.5t8.5 0.5q17 0 17 -14q0 -3 -2 -11q-2 -9 -7.5 -17.5
t-19.5 -14.5z" />
    <glyph glyph-name="Amacron" unicode="&#x100;" horiz-adv-x="626" 
d="M-38 -59q-17 0 -17 16q0 6 1 8q37 81 201 242q-5 -1 -9 -1.5t-6 -0.5q-17 0 -17 19q0 11 17 14q10 2 21.5 3.5t29.5 5.5q121 126 233.5 216.5t215.5 148.5q9 5 16 8.5t12 3.5q12 0 12 -16q0 -30 -60 -206l-44 -129q26 0 26 -16q0 -18 -34 -18q-19 -52 -35.5 -114.5
t-27.5 -128.5q-4 -21 -18 -21q-17 0 -17 18q0 3 2 13t6 26q12 58 21.5 96t17 64.5t13.5 48.5q-184 -4 -324 -27q-40 -41 -67 -69.5t-40 -42.5q-60 -66 -96 -120q-3 -5 -7.5 -13t-11.5 -19q-4 -9 -14 -9zM239 255q58 8 131 12.5t164 6.5q15 46 30 89.5t29 83.5q17 44 45 132
q-116 -67 -215.5 -148t-183.5 -176zM562 684q-6 0 -11 3t-5 9q0 5 4.5 10t11.5 6t24 1.5t37.5 0.5h36.5h38t40.5 -0.5t29.5 -1.5q14 -2 14 -15t-14 -13q-19 1 -49.5 1.5t-51.5 0.5q-22 0 -53 -0.5t-52 -1.5z" />
    <glyph glyph-name="amacron" unicode="&#x101;" horiz-adv-x="454" 
d="M103 -10q-58 0 -58 55q0 36 17.5 77.5t47.5 81t67 72t76 52t75 19.5q64 0 64 -63q0 -41 -20 -41q-18 0 -18 17q0 7 3.5 14.5t3.5 16.5q0 28 -38 28q-61 0 -153 -93q-22 -23 -43 -54t-34.5 -62.5t-13.5 -59.5q0 -27 30 -27q26 0 55.5 16t51.5 33q44 33 90 90q7 8 18 21
t25 29q5 5 12 5q16 0 16 -16l-38 -57q-38 -56 -38 -92q0 -26 25 -26q21 0 46 11t41 22q32 21 67 52.5t67 63.5q4 4 12 4q15 0 15 -12q0 -11 -14 -25q-40 -40 -72 -68.5t-61 -46.5q-19 -11 -47 -23t-64 -12q-49 0 -49 52q0 20 5 33q-91 -87 -169 -87zM236 407q-6 0 -11 3
t-5 9q0 5 4.5 10t11.5 6q11 2 32 2h46h49t39 -2q14 -2 14 -15t-14 -13q-19 1 -39.5 1.5t-41.5 0.5q-22 0 -43 -0.5t-42 -1.5z" />
    <glyph glyph-name="Abreve" unicode="&#x102;" horiz-adv-x="626" 
d="M-38 -59q-17 0 -17 16q0 6 1 8q37 81 201 242q-5 -1 -9 -1.5t-6 -0.5q-17 0 -17 19q0 11 17 14q10 2 21.5 3.5t29.5 5.5q121 126 233.5 216.5t215.5 148.5q9 5 16 8.5t12 3.5q12 0 12 -16q0 -30 -60 -206l-44 -129q26 0 26 -16q0 -18 -34 -18q-19 -52 -35.5 -114.5
t-27.5 -128.5q-4 -21 -18 -21q-17 0 -17 18q0 3 2 13t6 26q12 58 21.5 96t17 64.5t13.5 48.5q-184 -4 -324 -27q-40 -41 -67 -69.5t-40 -42.5q-60 -66 -96 -120q-3 -5 -7.5 -13t-11.5 -19q-4 -9 -14 -9zM239 255q58 8 131 12.5t164 6.5q15 46 30 89.5t29 83.5q17 44 45 132
q-116 -67 -215.5 -148t-183.5 -176zM672 684q-42 0 -64 16t-22 42q0 15 4.5 26.5t16.5 11.5q9 0 9 -9q0 -5 -1 -9.5t-1 -9.5q0 -19 14.5 -28t53.5 -9q35 0 66 14.5t47 41.5q3 5 8.5 7t9.5 2q5 0 9 -3t2 -7q-14 -41 -57 -63.5t-95 -22.5z" />
    <glyph glyph-name="abreve" unicode="&#x103;" horiz-adv-x="454" 
d="M103 -10q-58 0 -58 55q0 36 17.5 77.5t47.5 81t67 72t76 52t75 19.5q64 0 64 -63q0 -41 -20 -41q-18 0 -18 17q0 7 3.5 14.5t3.5 16.5q0 28 -38 28q-61 0 -153 -93q-22 -23 -43 -54t-34.5 -62.5t-13.5 -59.5q0 -27 30 -27q26 0 55.5 16t51.5 33q44 33 90 90q7 8 18 21
t25 29q5 5 12 5q16 0 16 -16l-38 -57q-38 -56 -38 -92q0 -26 25 -26q21 0 46 11t41 22q32 21 67 52.5t67 63.5q4 4 12 4q15 0 15 -12q0 -11 -14 -25q-40 -40 -72 -68.5t-61 -46.5q-19 -11 -47 -23t-64 -12q-49 0 -49 52q0 20 5 33q-91 -87 -169 -87zM340 407q-27 0 -46.5 16
t-19.5 42q0 15 4.5 26.5t16.5 11.5q9 0 9 -9q0 -5 -1 -9.5t-1 -9.5q0 -37 48 -37q70 0 103 56q3 5 8.5 7t9.5 2q5 0 9 -3t2 -7q-14 -41 -52 -63.5t-90 -22.5z" />
    <glyph glyph-name="Aogonek" unicode="&#x104;" horiz-adv-x="626" 
d="M-38 -59q-17 0 -17 16q0 6 1 8q37 81 201 242q-5 -1 -9 -1.5t-6 -0.5q-17 0 -17 19q0 11 17 14q10 2 21.5 3.5t29.5 5.5q121 126 233.5 216.5t215.5 148.5q9 5 16 8.5t12 3.5q12 0 12 -16q0 -30 -60 -206l-44 -129q26 0 26 -16q0 -18 -34 -18q-19 -52 -35.5 -114.5
t-27.5 -128.5q-4 -21 -18 -21q-17 0 -17 18q0 3 2 13t6 26q12 58 21.5 96t17 64.5t13.5 48.5q-184 -4 -324 -27q-40 -41 -67 -69.5t-40 -42.5q-60 -66 -96 -120q-3 -5 -7.5 -13t-11.5 -19q-4 -9 -14 -9zM239 255q58 8 131 12.5t164 6.5q15 46 30 89.5t29 83.5q17 44 45 132
q-116 -67 -215.5 -148t-183.5 -176zM481 -162q-28 0 -46.5 17t-18.5 39q0 23 10 44t22.5 36.5t19.5 20.5q6 5 14 5q12 0 12 -9q0 -4 -4 -8q-12 -13 -27 -35t-15 -43q0 -18 12.5 -28t31.5 -10q12 0 23.5 3t19.5 7q6 2 8 2q10 0 10 -10q0 -7 -6 -12q-7 -6 -25 -12.5t-41 -6.5z
" />
    <glyph glyph-name="aogonek" unicode="&#x105;" horiz-adv-x="454" 
d="M103 -10q-58 0 -58 55q0 36 17.5 77.5t47.5 81t67 72t76 52t75 19.5q64 0 64 -63q0 -41 -20 -41q-18 0 -18 17q0 7 3.5 14.5t3.5 16.5q0 28 -38 28q-61 0 -153 -93q-22 -23 -43 -54t-34.5 -62.5t-13.5 -59.5q0 -27 30 -27q26 0 55.5 16t51.5 33q44 33 90 90q7 8 18 21
t25 29q5 5 12 5q16 0 16 -16l-38 -57q-38 -56 -38 -92q0 -26 25 -26q21 0 46 11t41 22q32 21 67 52.5t67 63.5q4 4 12 4q15 0 15 -12q0 -11 -14 -25q-40 -40 -72 -68.5t-61 -46.5q-19 -11 -47 -23t-64 -12q-49 0 -49 52q0 20 5 33q-91 -87 -169 -87zM323 -152
q-28 0 -46.5 17t-18.5 39q0 23 10 44t22.5 36.5t19.5 20.5q6 5 14 5q12 0 12 -9q0 -4 -4 -8q-12 -13 -27 -35t-15 -43q0 -18 12.5 -28t31.5 -10q12 0 23.5 3t19.5 7q6 2 8 2q10 0 10 -10q0 -7 -6 -12q-7 -6 -25 -12.5t-41 -6.5z" />
    <glyph glyph-name="Cacute" unicode="&#x106;" horiz-adv-x="792" 
d="M384 -45q-91 0 -158.5 31.5t-104.5 92t-37 145.5q0 80 30.5 147t88.5 124q88 85 205.5 131t242.5 46q62 0 109 -21.5t74 -57.5t27 -79q0 -28 -13 -51.5t-29 -37.5t-26 -14q-8 0 -16 7.5t-8 12.5q0 6 14 17t27.5 29.5t13.5 45.5q0 36 -24.5 63.5t-68 43t-99.5 15.5
q-111 0 -216 -46.5t-184 -124.5q-55 -55 -83 -116t-28 -141q0 -77 36.5 -128.5t98.5 -77t139 -25.5q88 0 187 28q58 16 98 36.5t60 38.5q19 17 28 25t15 8q7 0 7 -9q0 -10 -11.5 -25t-25.5 -26q-35 -27 -88.5 -48.5t-106.5 -35.5q-47 -12 -90 -17.5t-84 -5.5zM619 732
q-10 4 -10 14q0 7 6 10q9 6 32.5 20.5t49 31t40.5 26.5q13 9 23 6q9 -5 9 -15t-12 -17q-7 -4 -28.5 -16.5t-48.5 -28t-52 -29.5q-4 -2 -9 -2z" />
    <glyph glyph-name="cacute" unicode="&#x107;" horiz-adv-x="371" 
d="M183 -14q-53 0 -83 31t-30 83q0 90 85 196q44 54 89.5 82.5t85.5 28.5q35 0 54 -24t19 -60q0 -22 -6 -45q-4 -16 -16 -16q-19 0 -19 21q0 9 3.5 23.5t3.5 28.5q0 40 -39 40q-21 0 -50.5 -15t-58.5 -39.5t-51 -55.5q-67 -91 -67 -163q0 -83 75 -83q47 0 90 14.5t101 60.5
q36 28 54 45t39 36q6 4 11 4t10 -3t5 -9q0 -11 -20 -31q-17 -16 -36 -33.5t-60 -48.5q-44 -34 -93.5 -51t-95.5 -17zM324 463q-4 0 -8.5 4.5t-4.5 8.5q0 5 4 9q8 8 24 24.5t34 35t31 31.5q4 4 9.5 7t9.5 3q5 0 9.5 -4.5t5.5 -9.5v-2q0 -6 -9 -15t-37 -35t-60 -54
q-4 -3 -8 -3z" />
    <glyph glyph-name="Ccircumflex" unicode="&#x108;" horiz-adv-x="792" 
d="M384 -45q-91 0 -158.5 31.5t-104.5 92t-37 145.5q0 80 30.5 147t88.5 124q88 85 205.5 131t242.5 46q62 0 109 -21.5t74 -57.5t27 -79q0 -28 -13 -51.5t-29 -37.5t-26 -14q-8 0 -16 7.5t-8 12.5q0 6 14 17t27.5 29.5t13.5 45.5q0 36 -24.5 63.5t-68 43t-99.5 15.5
q-111 0 -216 -46.5t-184 -124.5q-55 -55 -83 -116t-28 -141q0 -77 36.5 -128.5t98.5 -77t139 -25.5q88 0 187 28q58 16 98 36.5t60 38.5q19 17 28 25t15 8q7 0 7 -9q0 -10 -11.5 -25t-25.5 -26q-35 -27 -88.5 -48.5t-106.5 -35.5q-47 -12 -90 -17.5t-84 -5.5zM545 726
q-4 0 -8.5 4t-4.5 8q0 5 4 8q2 2 16.5 11t36 21.5t43.5 25t39 20.5t23 8t19.5 -11t28.5 -26.5t27.5 -29.5t17.5 -21q1 -2 1 -6q0 -5 -5 -8.5t-10 -3.5q-7 0 -12 6q-17 18 -37.5 36t-35.5 28q-15 -7 -36.5 -17.5t-43.5 -22t-38.5 -19.5t-19.5 -10q-2 -1 -5 -1z" />
    <glyph glyph-name="ccircumflex" unicode="&#x109;" horiz-adv-x="371" 
d="M183 -14q-53 0 -83 31t-30 83q0 90 85 196q44 54 89.5 82.5t85.5 28.5q35 0 54 -24t19 -60q0 -22 -6 -45q-4 -16 -16 -16q-19 0 -19 21q0 9 3.5 23.5t3.5 28.5q0 40 -39 40q-21 0 -50.5 -15t-58.5 -39.5t-51 -55.5q-67 -91 -67 -163q0 -83 75 -83q47 0 90 14.5t101 60.5
q36 28 54 45t39 36q6 4 11 4t10 -3t5 -9q0 -11 -20 -31q-17 -16 -36 -33.5t-60 -48.5q-44 -34 -93.5 -51t-95.5 -17zM244 461q-4 0 -8.5 4t-4.5 8q0 5 4 8q2 2 21 15t43.5 29.5t45.5 29t28 12.5q6 0 17.5 -12t23.5 -28.5t21 -30t11 -17.5q1 -2 1 -6q0 -5 -5 -8.5t-10 -3.5
q-7 0 -12 6q-28 38 -53 64q-19 -9 -45 -24.5t-47 -29t-26 -15.5q-2 -1 -5 -1z" />
    <glyph glyph-name="Cdotaccent" unicode="&#x10a;" horiz-adv-x="792" 
d="M384 -45q-91 0 -158.5 31.5t-104.5 92t-37 145.5q0 80 30.5 147t88.5 124q88 85 205.5 131t242.5 46q62 0 109 -21.5t74 -57.5t27 -79q0 -28 -13 -51.5t-29 -37.5t-26 -14q-8 0 -16 7.5t-8 12.5q0 6 14 17t27.5 29.5t13.5 45.5q0 36 -24.5 63.5t-68 43t-99.5 15.5
q-111 0 -216 -46.5t-184 -124.5q-55 -55 -83 -116t-28 -141q0 -77 36.5 -128.5t98.5 -77t139 -25.5q88 0 187 28q58 16 98 36.5t60 38.5q19 17 28 25t15 8q7 0 7 -9q0 -10 -11.5 -25t-25.5 -26q-35 -27 -88.5 -48.5t-106.5 -35.5q-47 -12 -90 -17.5t-84 -5.5zM660 732
q-7 -3 -15.5 8t-8.5 22q0 10 8 17t10 8q5 1 9.5 1.5t8.5 0.5q17 0 17 -14q0 -3 -2 -11q-2 -9 -7.5 -17.5t-19.5 -14.5z" />
    <glyph glyph-name="cdotaccent" unicode="&#x10b;" horiz-adv-x="371" 
d="M183 -14q-53 0 -83 31t-30 83q0 90 85 196q44 54 89.5 82.5t85.5 28.5q35 0 54 -24t19 -60q0 -22 -6 -45q-4 -16 -16 -16q-19 0 -19 21q0 9 3.5 23.5t3.5 28.5q0 40 -39 40q-21 0 -50.5 -15t-58.5 -39.5t-51 -55.5q-67 -91 -67 -163q0 -83 75 -83q47 0 90 14.5t101 60.5
q36 28 54 45t39 36q6 4 11 4t10 -3t5 -9q0 -11 -20 -31q-17 -16 -36 -33.5t-60 -48.5q-44 -34 -93.5 -51t-95.5 -17zM339 467q-7 -3 -15.5 8t-8.5 22q0 10 8 17t10 8q5 1 9.5 1.5t8.5 0.5q17 0 17 -14q0 -3 -2 -11q-2 -9 -7.5 -17.5t-19.5 -14.5z" />
    <glyph glyph-name="Ccaron" unicode="&#x10c;" horiz-adv-x="792" 
d="M810 838q5 0 9 -3.5t4 -8.5t-4 -8q-2 -2 -16.5 -11t-36 -21.5t-43.5 -25t-39 -20.5t-23 -8t-19.5 11t-28.5 26.5t-27.5 29.5t-17.5 21q-1 2 -1 6q0 5 5 8.5t10 3.5q8 0 12 -6q17 -18 37.5 -35.5t35.5 -28.5q15 7 36.5 18t43.5 22t38.5 19.5t19.5 9.5q2 1 5 1zM384 -45
q-91 0 -158.5 31.5t-104.5 92t-37 145.5q0 80 30.5 147t88.5 124q88 85 205.5 131t242.5 46q62 0 109 -21.5t74 -57.5t27 -79q0 -28 -13 -51.5t-29 -37.5t-26 -14q-8 0 -16 7.5t-8 12.5q0 6 14 17t27.5 29.5t13.5 45.5q0 36 -24.5 63.5t-68 43t-99.5 15.5q-111 0 -216 -46.5
t-184 -124.5q-55 -55 -83 -116t-28 -141q0 -77 36.5 -128.5t98.5 -77t139 -25.5q88 0 187 28q58 16 98 36.5t60 38.5q19 17 28 25t15 8q7 0 7 -9q0 -10 -11.5 -25t-25.5 -26q-35 -27 -88.5 -48.5t-106.5 -35.5q-47 -12 -90 -17.5t-84 -5.5z" />
    <glyph glyph-name="ccaron" unicode="&#x10d;" horiz-adv-x="371" 
d="M467 569q5 0 9 -3.5t4 -8.5t-4 -8q-2 -2 -21 -15t-43.5 -29.5t-45.5 -29t-28 -12.5q-6 0 -17.5 12t-23.5 28.5t-21 30t-11 17.5q-1 2 -1 6q0 5 5 8.5t10 3.5q8 0 12 -6q28 -38 53 -64q20 9 46 24.5t47 29t25 15.5q2 1 5 1zM183 -14q-53 0 -83 31t-30 83q0 90 85 196
q44 54 89.5 82.5t85.5 28.5q35 0 54 -24t19 -60q0 -22 -6 -45q-4 -16 -16 -16q-19 0 -19 21q0 9 3.5 23.5t3.5 28.5q0 40 -39 40q-21 0 -50.5 -15t-58.5 -39.5t-51 -55.5q-67 -91 -67 -163q0 -83 75 -83q47 0 90 14.5t101 60.5q36 28 54 45t39 36q6 4 11 4t10 -3t5 -9
q0 -11 -20 -31q-17 -16 -36 -33.5t-60 -48.5q-44 -34 -93.5 -51t-95.5 -17z" />
    <glyph glyph-name="Dcaron" unicode="&#x10e;" horiz-adv-x="840" 
d="M776 857q5 0 9 -3.5t4 -8.5t-4 -8q-2 -2 -21 -15t-43.5 -29.5t-45.5 -29t-28 -12.5q-6 0 -17.5 12t-23.5 28.5t-21 30t-11 17.5q-1 2 -1 6q0 5 5 8.5t10 3.5q8 0 12 -6q28 -38 53 -64q20 9 46 24.5t47 29t25 15.5q2 1 5 1zM50 -31q-17 0 -17 25q0 38 38 130.5t115 237.5
q44 82 72 136t44 86.5t23 49t8 24.5q0 4 2 6l-39 2q-13 1 -19.5 7t-6.5 13q0 14 16 14q218 0 378 -90q83 -47 137 -117.5t54 -159.5q0 -72 -40 -124t-108.5 -90t-154.5 -68q-58 -20 -129 -38.5t-139 -29.5t-120 -11q-36 0 -56 10q-21 11 -21 24q0 11 12 11q8 0 15 -3t20 -6
t38 -3q36 0 81.5 6.5t95 17.5t96.5 24.5t86 26.5q84 29 149.5 64t102.5 83t37 116q0 143 -167 238q-111 62 -289 81q4 -5 4 -11q0 -9 -14.5 -41t-38 -77t-49.5 -95t-50 -94q-151 -289 -151 -348q0 -4 0.5 -6t0.5 -6q0 -5 -4 -10t-12 -5z" />
    <glyph glyph-name="dcaron" unicode="&#x10f;" horiz-adv-x="418" 
d="M383 -89q-8 0 -19.5 7.5t-17.5 14.5q-12 15 -16 36t-4 46q0 21 1.5 45.5t5.5 52.5q-26 -30 -58.5 -58.5t-66 -46.5t-63.5 -18q-75 0 -75 80q0 83 58 160q29 38 66 73t78 57t81 22q30 0 53 -23q2 4 5.5 13t10.5 23q24 52 53 108.5t52 93.5q26 41 49 41q16 0 16 -25
q0 -43 -81 -201q-5 -9 -17.5 -32.5t-29 -54t-33.5 -60.5t-30.5 -53.5t-19.5 -32.5q-11 -45 -17 -85.5t-6 -83.5q0 -16 1.5 -29.5t7.5 -21.5q5 -6 11 -9.5t14 -6.5q12 -3 12 -14q0 -18 -21 -18zM430 329q38 65 67 121.5t47 106.5q-40 -52 -67 -110t-47 -118zM138 20
q29 0 61.5 19.5t61.5 46.5q26 24 48 49.5t41 52.5q8 35 18.5 69t23.5 68q-16 25 -45 25q-30 0 -66.5 -22.5t-70 -55.5t-57.5 -63q-50 -67 -50 -142q0 -47 35 -47zM633 465q-6 0 -6 7q0 4 2 12t9 19q20 31 28 54.5t8 63.5q0 17 17 17q19 0 19 -17q0 -45 -16 -83t-51 -68
q-8 -5 -10 -5z" />
    <glyph glyph-name="Dcroat" unicode="&#x110;" horiz-adv-x="840" 
d="M50 -31q-17 0 -17 25q0 38 38 130.5t115 237.5q44 82 72 136t44 86.5t23 49t8 24.5q0 4 2 6l-39 2q-13 1 -19.5 7t-6.5 13q0 14 16 14q218 0 378 -90q83 -47 137 -117.5t54 -159.5q0 -72 -40 -124t-108.5 -90t-154.5 -68q-58 -20 -129 -38.5t-139 -29.5t-120 -11
q-36 0 -56 10q-21 11 -21 24q0 11 12 11q8 0 15 -3t20 -6t38 -3q36 0 81.5 6.5t95 17.5t96.5 24.5t86 26.5q84 29 149.5 64t102.5 83t37 116q0 143 -167 238q-111 62 -289 81q4 -5 4 -11q0 -9 -14.5 -41t-38 -77t-49.5 -95t-50 -94q-151 -289 -151 -348q0 -4 0.5 -6t0.5 -6
q0 -5 -4 -10t-12 -5zM122 312q-6 0 -11 3t-5 9q0 5 4.5 10t11.5 6q11 2 32 2h46h57.5t40.5 -2q14 -2 14 -15t-14 -13q-19 1 -40.5 1.5t-50.5 0.5q-22 0 -43 -0.5t-42 -1.5z" />
    <glyph glyph-name="dcroat" unicode="&#x111;" horiz-adv-x="418" 
d="M383 -89q-8 0 -19.5 7.5t-17.5 14.5q-12 15 -16 36t-4 46q0 21 1.5 45.5t5.5 52.5q-26 -30 -58.5 -58.5t-66 -46.5t-63.5 -18q-75 0 -75 80q0 83 58 160q29 38 66 73t78 57t81 22q30 0 53 -23q2 4 5.5 13t10.5 23q24 52 53 108.5t52 93.5q26 41 49 41q16 0 16 -25
q0 -43 -81 -201q-5 -9 -17.5 -32.5t-29 -54t-33.5 -60.5t-30.5 -53.5t-19.5 -32.5q-11 -45 -17 -85.5t-6 -83.5q0 -16 1.5 -29.5t7.5 -21.5q5 -6 11 -9.5t14 -6.5q12 -3 12 -14q0 -18 -21 -18zM430 329q38 65 67 121.5t47 106.5q-40 -52 -67 -110t-47 -118zM138 20
q29 0 61.5 19.5t61.5 46.5q26 24 48 49.5t41 52.5q8 35 18.5 69t23.5 68q-16 25 -45 25q-30 0 -66.5 -22.5t-70 -55.5t-57.5 -63q-50 -67 -50 -142q0 -47 35 -47zM387 431q-6 0 -11 3t-5 9q0 5 4.5 10t11.5 6q11 2 32 2h46h57.5t40.5 -2q14 -2 14 -15t-14 -13
q-19 1 -40.5 1.5t-50.5 0.5q-22 0 -43 -0.5t-42 -1.5z" />
    <glyph glyph-name="Emacron" unicode="&#x112;" horiz-adv-x="609" 
d="M16 -37q-18 0 -18 17q0 8 6.5 21.5t11.5 24.5q30 63 79.5 149t118.5 194q-27 0 -27 16q0 17 19 17l30 -1q31 47 53 79t35 50q22 29 47.5 58.5t56.5 57.5q47 10 96.5 14.5t100.5 4.5q90 0 126 -9q13 -3 17.5 -7t4.5 -11q0 -17 -15 -17q-12 0 -46 5.5t-104 5.5
q-34 0 -75 -4t-90 -12q-42 -32 -169 -215h245q16 0 16 -16t-16 -16h-266q-145 -222 -213 -366q270 60 408 60q96 0 96 -46q0 -16 -16 -16q-13 0 -14 10q-1 11 -17.5 14.5t-51.5 3.5q-44 0 -98.5 -6.5t-116.5 -16.5q-88 -13 -143 -28t-71 -15zM501 725q-6 0 -11 3t-5 9
q0 5 4.5 10t11.5 6t24 1.5t37.5 0.5h36.5h38t40.5 -0.5t29.5 -1.5q14 -2 14 -15t-14 -13q-19 1 -49.5 1.5t-51.5 0.5q-22 0 -53 -0.5t-52 -1.5z" />
    <glyph glyph-name="emacron" unicode="&#x113;" horiz-adv-x="352" 
d="M160 -18q-42 0 -66 29t-24 71q0 72 48 148q13 21 30 41.5t37 39.5q30 29 63 48t64 19q51 0 51 -48q0 -60 -70 -109q-65 -44 -128 -44q-11 0 -19.5 1.5t-15.5 3.5q-10 -19 -18 -49t-8 -52q0 -66 58 -66q47 0 89 16.5t100 62.5q36 28 54 45t39 36q6 4 11 4t10 -3t5 -9
q0 -11 -20 -31q-17 -16 -36 -33.5t-60 -48.5q-44 -34 -96 -53t-98 -19zM159 209q32 0 61 10t55 29q58 43 58 81q0 17 -21 17q-40 0 -93 -49q-26 -24 -42.5 -43.5t-30.5 -42.5q6 -2 13 -2zM210 425q-6 0 -11 3t-5 9q0 5 4.5 10t11.5 6q11 2 32 2h46h49t39 -2q14 -2 14 -15
t-14 -13q-19 1 -39.5 1.5t-41.5 0.5q-22 0 -43 -0.5t-42 -1.5z" />
    <glyph glyph-name="Ebreve" unicode="&#x114;" horiz-adv-x="609" 
d="M16 -37q-18 0 -18 17q0 8 6.5 21.5t11.5 24.5q30 63 79.5 149t118.5 194q-27 0 -27 16q0 17 19 17l30 -1q31 47 53 79t35 50q22 29 47.5 58.5t56.5 57.5q47 10 96.5 14.5t100.5 4.5q90 0 126 -9q13 -3 17.5 -7t4.5 -11q0 -17 -15 -17q-12 0 -46 5.5t-104 5.5
q-34 0 -75 -4t-90 -12q-42 -32 -169 -215h245q16 0 16 -16t-16 -16h-266q-145 -222 -213 -366q270 60 408 60q96 0 96 -46q0 -16 -16 -16q-13 0 -14 10q-1 11 -17.5 14.5t-51.5 3.5q-44 0 -98.5 -6.5t-116.5 -16.5q-88 -13 -143 -28t-71 -15zM611 725q-42 0 -64 16t-22 42
q0 15 4.5 26.5t16.5 11.5q9 0 9 -9q0 -5 -1 -9.5t-1 -9.5q0 -19 14.5 -28t53.5 -9q35 0 66 14.5t47 41.5q3 5 8.5 7t9.5 2q5 0 9 -3t2 -7q-14 -41 -57 -63.5t-95 -22.5z" />
    <glyph glyph-name="ebreve" unicode="&#x115;" horiz-adv-x="352" 
d="M160 -18q-42 0 -66 29t-24 71q0 72 48 148q13 21 30 41.5t37 39.5q30 29 63 48t64 19q51 0 51 -48q0 -60 -70 -109q-65 -44 -128 -44q-11 0 -19.5 1.5t-15.5 3.5q-10 -19 -18 -49t-8 -52q0 -66 58 -66q47 0 89 16.5t100 62.5q36 28 54 45t39 36q6 4 11 4t10 -3t5 -9
q0 -11 -20 -31q-17 -16 -36 -33.5t-60 -48.5q-44 -34 -96 -53t-98 -19zM159 209q32 0 61 10t55 29q58 43 58 81q0 17 -21 17q-40 0 -93 -49q-26 -24 -42.5 -43.5t-30.5 -42.5q6 -2 13 -2zM314 425q-27 0 -46.5 16t-19.5 42q0 15 4.5 26.5t16.5 11.5q9 0 9 -9q0 -5 -1 -9.5
t-1 -9.5q0 -37 48 -37q70 0 103 56q3 5 8.5 7t9.5 2q5 0 9 -3t2 -7q-14 -41 -52 -63.5t-90 -22.5z" />
    <glyph glyph-name="Edotaccent" unicode="&#x116;" horiz-adv-x="609" 
d="M16 -37q-18 0 -18 17q0 8 6.5 21.5t11.5 24.5q30 63 79.5 149t118.5 194q-27 0 -27 16q0 17 19 17l30 -1q31 47 53 79t35 50q22 29 47.5 58.5t56.5 57.5q47 10 96.5 14.5t100.5 4.5q90 0 126 -9q13 -3 17.5 -7t4.5 -11q0 -17 -15 -17q-12 0 -46 5.5t-104 5.5
q-34 0 -75 -4t-90 -12q-42 -32 -169 -215h245q16 0 16 -16t-16 -16h-266q-145 -222 -213 -366q270 60 408 60q96 0 96 -46q0 -16 -16 -16q-13 0 -14 10q-1 11 -17.5 14.5t-51.5 3.5q-44 0 -98.5 -6.5t-116.5 -16.5q-88 -13 -143 -28t-71 -15zM608 725q-7 -3 -15.5 8t-8.5 22
q0 10 8 17t10 8q5 1 9.5 1.5t8.5 0.5q17 0 17 -14q0 -3 -2 -11q-2 -9 -7.5 -17.5t-19.5 -14.5z" />
    <glyph glyph-name="edotaccent" unicode="&#x117;" horiz-adv-x="352" 
d="M160 -18q-42 0 -66 29t-24 71q0 72 48 148q13 21 30 41.5t37 39.5q30 29 63 48t64 19q51 0 51 -48q0 -60 -70 -109q-65 -44 -128 -44q-11 0 -19.5 1.5t-15.5 3.5q-10 -19 -18 -49t-8 -52q0 -66 58 -66q47 0 89 16.5t100 62.5q36 28 54 45t39 36q6 4 11 4t10 -3t5 -9
q0 -11 -20 -31q-17 -16 -36 -33.5t-60 -48.5q-44 -34 -96 -53t-98 -19zM159 209q32 0 61 10t55 29q58 43 58 81q0 17 -21 17q-40 0 -93 -49q-26 -24 -42.5 -43.5t-30.5 -42.5q6 -2 13 -2zM311 425q-7 -3 -15.5 8t-8.5 22q0 10 8 17t10 8q5 1 9.5 1.5t8.5 0.5q17 0 17 -14
q0 -3 -2 -11q-2 -9 -7.5 -17.5t-19.5 -14.5z" />
    <glyph glyph-name="Eogonek" unicode="&#x118;" horiz-adv-x="609" 
d="M16 -37q-18 0 -18 17q0 8 6.5 21.5t11.5 24.5q30 63 79.5 149t118.5 194q-27 0 -27 16q0 17 19 17l30 -1q31 47 53 79t35 50q22 29 47.5 58.5t56.5 57.5q47 10 96.5 14.5t100.5 4.5q90 0 126 -9q13 -3 17.5 -7t4.5 -11q0 -17 -15 -17q-12 0 -46 5.5t-104 5.5
q-34 0 -75 -4t-90 -12q-42 -32 -169 -215h245q16 0 16 -16t-16 -16h-266q-145 -222 -213 -366q270 60 408 60q96 0 96 -46q0 -16 -16 -16q-13 0 -14 10q-1 11 -17.5 14.5t-51.5 3.5q-44 0 -98.5 -6.5t-116.5 -16.5q-88 -13 -143 -28t-71 -15zM465 -117q-28 0 -46.5 17
t-18.5 39q0 23 10 44t22.5 36.5t19.5 20.5q6 5 14 5q12 0 12 -9q0 -4 -4 -8q-12 -13 -27 -35t-15 -43q0 -18 12.5 -28t31.5 -10q12 0 23.5 3t19.5 7q6 2 8 2q10 0 10 -10q0 -7 -6 -12q-7 -6 -25 -12.5t-41 -6.5z" />
    <glyph glyph-name="eogonek" unicode="&#x119;" horiz-adv-x="352" 
d="M160 -18q-42 0 -66 29t-24 71q0 72 48 148q13 21 30 41.5t37 39.5q30 29 63 48t64 19q51 0 51 -48q0 -60 -70 -109q-65 -44 -128 -44q-11 0 -19.5 1.5t-15.5 3.5q-10 -19 -18 -49t-8 -52q0 -66 58 -66q47 0 89 16.5t100 62.5q36 28 54 45t39 36q6 4 11 4t10 -3t5 -9
q0 -11 -20 -31q-17 -16 -36 -33.5t-60 -48.5q-44 -34 -96 -53t-98 -19zM159 209q32 0 61 10t55 29q58 43 58 81q0 17 -21 17q-40 0 -93 -49q-26 -24 -42.5 -43.5t-30.5 -42.5q6 -2 13 -2zM330 -93q-28 0 -46.5 17t-18.5 39q0 23 10 44t22.5 36.5t19.5 20.5q6 5 14 5
q12 0 12 -9q0 -4 -4 -8q-12 -13 -27 -35t-15 -43q0 -18 12.5 -28t31.5 -10q12 0 23.5 3t19.5 7q6 2 8 2q10 0 10 -10q0 -7 -6 -12q-7 -6 -25 -12.5t-41 -6.5z" />
    <glyph glyph-name="Ecaron" unicode="&#x11a;" horiz-adv-x="609" 
d="M758 831q5 0 9 -3.5t4 -8.5t-4 -8q-2 -2 -16.5 -11t-36 -21.5t-43.5 -25t-39 -20.5t-23 -8t-19.5 11t-28.5 26.5t-27.5 29.5t-17.5 21q-1 2 -1 6q0 5 5 8.5t10 3.5q8 0 12 -6q17 -18 37.5 -35.5t35.5 -28.5q15 7 36.5 18t43.5 22t38.5 19.5t19.5 9.5q2 1 5 1zM16 -37
q-18 0 -18 17q0 8 6.5 21.5t11.5 24.5q30 63 79.5 149t118.5 194q-27 0 -27 16q0 17 19 17l30 -1q31 47 53 79t35 50q22 29 47.5 58.5t56.5 57.5q47 10 96.5 14.5t100.5 4.5q90 0 126 -9q13 -3 17.5 -7t4.5 -11q0 -17 -15 -17q-12 0 -46 5.5t-104 5.5q-34 0 -75 -4t-90 -12
q-42 -32 -169 -215h245q16 0 16 -16t-16 -16h-266q-145 -222 -213 -366q270 60 408 60q96 0 96 -46q0 -16 -16 -16q-13 0 -14 10q-1 11 -17.5 14.5t-51.5 3.5q-44 0 -98.5 -6.5t-116.5 -16.5q-88 -13 -143 -28t-71 -15z" />
    <glyph glyph-name="ecaron" unicode="&#x11b;" horiz-adv-x="352" 
d="M439 527q5 0 9 -3.5t4 -8.5t-4 -8q-2 -2 -21 -15t-43.5 -29.5t-45.5 -29t-28 -12.5q-6 0 -17.5 12t-23.5 28.5t-21 30t-11 17.5q-1 2 -1 6q0 5 5 8.5t10 3.5q8 0 12 -6q28 -38 53 -64q20 9 46 24.5t47 29t25 15.5q2 1 5 1zM160 -18q-42 0 -66 29t-24 71q0 72 48 148
q13 21 30 41.5t37 39.5q30 29 63 48t64 19q51 0 51 -48q0 -60 -70 -109q-65 -44 -128 -44q-11 0 -19.5 1.5t-15.5 3.5q-10 -19 -18 -49t-8 -52q0 -66 58 -66q47 0 89 16.5t100 62.5q36 28 54 45t39 36q6 4 11 4t10 -3t5 -9q0 -11 -20 -31q-17 -16 -36 -33.5t-60 -48.5
q-44 -34 -96 -53t-98 -19zM159 209q32 0 61 10t55 29q58 43 58 81q0 17 -21 17q-40 0 -93 -49q-26 -24 -42.5 -43.5t-30.5 -42.5q6 -2 13 -2z" />
    <glyph glyph-name="Gcircumflex" unicode="&#x11c;" horiz-adv-x="916" 
d="M364 -43q-82 0 -145 33t-99 93.5t-36 140.5q0 85 34 155t98 128q182 165 433 165q53 0 101.5 -18.5t79.5 -54t31 -85.5q0 -41 -25 -70q-6 -8 -19.5 -20.5t-23.5 -12.5q-8 0 -16 6.5t-8 13.5q0 5 7 11.5l21 19.5q27 27 27 61q0 41 -28.5 68t-72.5 40.5t-93 13.5
q-110 0 -214.5 -46.5t-184.5 -126.5q-53 -53 -81.5 -115.5t-28.5 -139.5q0 -64 23.5 -107t60.5 -70q38 -27 83 -39.5t86 -12.5q48 0 102.5 13t107 35.5t94.5 49.5q18 12 29.5 21t16.5 14l30 51q12 20 29 50t39 70q-31 0 -78 -9t-98 -23q-31 -8 -61.5 -18.5t-38.5 -10.5
q-17 0 -17 18q0 5 3 8.5t13 8.5q23 13 59 24.5t80 19.5q40 8 79 11t76 2l3 6q4 10 14 10q15 0 19 -16q25 -1 57 -7q16 -3 16 -18t-15 -15q-7 0 -27.5 4t-44.5 4q-22 -43 -87 -153q-13 -22 -22 -38t-14 -27q-18 -35 -27 -68q-3 -11 -12 -11q-20 0 -20 18q0 12 14 49
q-45 -29 -102.5 -52.5t-116.5 -37.5t-110 -14zM543 726q-4 0 -8.5 4t-4.5 8q0 5 4 8q2 2 16.5 11t36 21.5t43.5 25t39 20.5t23 8t19.5 -11t28.5 -26.5t27.5 -29.5t17.5 -21q1 -2 1 -6q0 -5 -5 -8.5t-10 -3.5q-7 0 -12 6q-17 18 -37.5 36t-35.5 28q-15 -7 -36.5 -17.5
t-43.5 -22t-38.5 -19.5t-19.5 -10q-2 -1 -5 -1z" />
    <glyph glyph-name="gcircumflex" unicode="&#x11d;" horiz-adv-x="393" 
d="M79 -329q-42 0 -63 31.5t-21 71.5q0 30 2.5 58.5t7.5 56.5q3 16 14 16q20 0 20 -21q0 -6 -3 -18q-3 -10 -3 -15q-2 -16 -3 -33.5t-1 -35.5q0 -79 58 -79q17 0 39.5 23t40.5 50q42 63 89 199l33 95q-81 -97 -146 -97q-40 0 -62 30t-22 73q0 86 76 190q83 111 163 111
q63 0 83 -74q38 92 70 92q12 0 12 -20q0 -40 -37 -107q-8 -13 -19.5 -32t-25.5 -45l-34 -83q-10 -24 -25 -60.5t-34 -85.5q-22 -60 -40.5 -103.5t-33.5 -71.5q-65 -116 -131 -116h-4zM143 8q63 0 186 169l29 74q-7 5 -10 21q-9 43 -21 57t-32 14q-23 0 -53 -21t-57 -51.5
t-43 -59.5q-48 -82 -48 -141q0 -62 49 -62zM242 429q-4 0 -8.5 4t-4.5 8q0 5 4 8q2 2 21 15t43.5 29.5t45.5 29t28 12.5q6 0 17.5 -12t23.5 -28.5t21 -30t11 -17.5q1 -2 1 -6q0 -5 -5 -8.5t-10 -3.5q-7 0 -12 6q-28 38 -53 64q-19 -9 -45 -24.5t-47 -29t-26 -15.5
q-2 -1 -5 -1z" />
    <glyph glyph-name="Gbreve" unicode="&#x11e;" horiz-adv-x="916" 
d="M364 -43q-82 0 -145 33t-99 93.5t-36 140.5q0 85 34 155t98 128q182 165 433 165q53 0 101.5 -18.5t79.5 -54t31 -85.5q0 -41 -25 -70q-6 -8 -19.5 -20.5t-23.5 -12.5q-8 0 -16 6.5t-8 13.5q0 5 7 11.5l21 19.5q27 27 27 61q0 41 -28.5 68t-72.5 40.5t-93 13.5
q-110 0 -214.5 -46.5t-184.5 -126.5q-53 -53 -81.5 -115.5t-28.5 -139.5q0 -64 23.5 -107t60.5 -70q38 -27 83 -39.5t86 -12.5q48 0 102.5 13t107 35.5t94.5 49.5q18 12 29.5 21t16.5 14l30 51q12 20 29 50t39 70q-31 0 -78 -9t-98 -23q-31 -8 -61.5 -18.5t-38.5 -10.5
q-17 0 -17 18q0 5 3 8.5t13 8.5q23 13 59 24.5t80 19.5q40 8 79 11t76 2l3 6q4 10 14 10q15 0 19 -16q25 -1 57 -7q16 -3 16 -18t-15 -15q-7 0 -27.5 4t-44.5 4q-22 -43 -87 -153q-13 -22 -22 -38t-14 -27q-18 -35 -27 -68q-3 -11 -12 -11q-20 0 -20 18q0 12 14 49
q-45 -29 -102.5 -52.5t-116.5 -37.5t-110 -14zM661 732q-42 0 -64 16t-22 42q0 15 4.5 26.5t16.5 11.5q9 0 9 -9q0 -5 -1 -9.5t-1 -9.5q0 -19 14.5 -28t53.5 -9q35 0 66 14.5t47 41.5q3 5 8.5 7t9.5 2q5 0 9 -3t2 -7q-14 -41 -57 -63.5t-95 -22.5z" />
    <glyph glyph-name="gbreve" unicode="&#x11f;" horiz-adv-x="393" 
d="M79 -329q-42 0 -63 31.5t-21 71.5q0 30 2.5 58.5t7.5 56.5q3 16 14 16q20 0 20 -21q0 -6 -3 -18q-3 -10 -3 -15q-2 -16 -3 -33.5t-1 -35.5q0 -79 58 -79q17 0 39.5 23t40.5 50q42 63 89 199l33 95q-81 -97 -146 -97q-40 0 -62 30t-22 73q0 86 76 190q83 111 163 111
q63 0 83 -74q38 92 70 92q12 0 12 -20q0 -40 -37 -107q-8 -13 -19.5 -32t-25.5 -45l-34 -83q-10 -24 -25 -60.5t-34 -85.5q-22 -60 -40.5 -103.5t-33.5 -71.5q-65 -116 -131 -116h-4zM143 8q63 0 186 169l29 74q-7 5 -10 21q-9 43 -21 57t-32 14q-23 0 -53 -21t-57 -51.5
t-43 -59.5q-48 -82 -48 -141q0 -62 49 -62zM340 435q-27 0 -46.5 16t-19.5 42q0 15 4.5 26.5t16.5 11.5q9 0 9 -9q0 -5 -1 -9.5t-1 -9.5q0 -37 48 -37q70 0 103 56q3 5 8.5 7t9.5 2q5 0 9 -3t2 -7q-14 -41 -52 -63.5t-90 -22.5z" />
    <glyph glyph-name="Gdotaccent" unicode="&#x120;" horiz-adv-x="916" 
d="M364 -43q-82 0 -145 33t-99 93.5t-36 140.5q0 85 34 155t98 128q182 165 433 165q53 0 101.5 -18.5t79.5 -54t31 -85.5q0 -41 -25 -70q-6 -8 -19.5 -20.5t-23.5 -12.5q-8 0 -16 6.5t-8 13.5q0 5 7 11.5l21 19.5q27 27 27 61q0 41 -28.5 68t-72.5 40.5t-93 13.5
q-110 0 -214.5 -46.5t-184.5 -126.5q-53 -53 -81.5 -115.5t-28.5 -139.5q0 -64 23.5 -107t60.5 -70q38 -27 83 -39.5t86 -12.5q48 0 102.5 13t107 35.5t94.5 49.5q18 12 29.5 21t16.5 14l30 51q12 20 29 50t39 70q-31 0 -78 -9t-98 -23q-31 -8 -61.5 -18.5t-38.5 -10.5
q-17 0 -17 18q0 5 3 8.5t13 8.5q23 13 59 24.5t80 19.5q40 8 79 11t76 2l3 6q4 10 14 10q15 0 19 -16q25 -1 57 -7q16 -3 16 -18t-15 -15q-7 0 -27.5 4t-44.5 4q-22 -43 -87 -153q-13 -22 -22 -38t-14 -27q-18 -35 -27 -68q-3 -11 -12 -11q-20 0 -20 18q0 12 14 49
q-45 -29 -102.5 -52.5t-116.5 -37.5t-110 -14zM658 732q-7 -3 -15.5 8t-8.5 22q0 10 8 17t10 8q5 1 9.5 1.5t8.5 0.5q17 0 17 -14q0 -3 -2 -11q-2 -9 -7.5 -17.5t-19.5 -14.5z" />
    <glyph glyph-name="gdotaccent" unicode="&#x121;" horiz-adv-x="393" 
d="M79 -329q-42 0 -63 31.5t-21 71.5q0 30 2.5 58.5t7.5 56.5q3 16 14 16q20 0 20 -21q0 -6 -3 -18q-3 -10 -3 -15q-2 -16 -3 -33.5t-1 -35.5q0 -79 58 -79q17 0 39.5 23t40.5 50q42 63 89 199l33 95q-81 -97 -146 -97q-40 0 -62 30t-22 73q0 86 76 190q83 111 163 111
q63 0 83 -74q38 92 70 92q12 0 12 -20q0 -40 -37 -107q-8 -13 -19.5 -32t-25.5 -45l-34 -83q-10 -24 -25 -60.5t-34 -85.5q-22 -60 -40.5 -103.5t-33.5 -71.5q-65 -116 -131 -116h-4zM143 8q63 0 186 169l29 74q-7 5 -10 21q-9 43 -21 57t-32 14q-23 0 -53 -21t-57 -51.5
t-43 -59.5q-48 -82 -48 -141q0 -62 49 -62zM337 435q-7 -3 -15.5 8t-8.5 22q0 10 8 17t10 8q5 1 9.5 1.5t8.5 0.5q17 0 17 -14q0 -3 -2 -11q-2 -9 -7.5 -17.5t-19.5 -14.5z" />
    <glyph glyph-name="uni0122" unicode="&#x122;" horiz-adv-x="916" 
d="M364 -43q-82 0 -145 33t-99 93.5t-36 140.5q0 85 34 155t98 128q182 165 433 165q53 0 101.5 -18.5t79.5 -54t31 -85.5q0 -41 -25 -70q-6 -8 -19.5 -20.5t-23.5 -12.5q-8 0 -16 6.5t-8 13.5q0 5 7 11.5l21 19.5q27 27 27 61q0 41 -28.5 68t-72.5 40.5t-93 13.5
q-110 0 -214.5 -46.5t-184.5 -126.5q-53 -53 -81.5 -115.5t-28.5 -139.5q0 -64 23.5 -107t60.5 -70q38 -27 83 -39.5t86 -12.5q48 0 102.5 13t107 35.5t94.5 49.5q18 12 29.5 21t16.5 14l30 51q12 20 29 50t39 70q-31 0 -78 -9t-98 -23q-31 -8 -61.5 -18.5t-38.5 -10.5
q-17 0 -17 18q0 5 3 8.5t13 8.5q23 13 59 24.5t80 19.5q40 8 79 11t76 2l3 6q4 10 14 10q15 0 19 -16q25 -1 57 -7q16 -3 16 -18t-15 -15q-7 0 -27.5 4t-44.5 4q-22 -43 -87 -153q-13 -22 -22 -38t-14 -27q-18 -35 -27 -68q-3 -11 -12 -11q-20 0 -20 18q0 12 14 49
q-45 -29 -102.5 -52.5t-116.5 -37.5t-110 -14zM376 -115q12 0 17 -8.5t5 -19.5q0 -31 -26 -65t-62 -62q-5 -4 -11 -4q-9 0 -9 8q0 4 4 8q13 14 27 32t24 35.5t10 28.5q0 8 -3.5 12.5t-3.5 10.5q0 10 7.5 17t20.5 7z" />
    <glyph glyph-name="uni0123" unicode="&#x123;" horiz-adv-x="393" 
d="M79 -329q-42 0 -63 31.5t-21 71.5q0 30 2.5 58.5t7.5 56.5q3 16 14 16q20 0 20 -21q0 -6 -3 -18q-3 -10 -3 -15q-2 -16 -3 -33.5t-1 -35.5q0 -79 58 -79q17 0 39.5 23t40.5 50q42 63 89 199l33 95q-81 -97 -146 -97q-40 0 -62 30t-22 73q0 86 76 190q83 111 163 111
q63 0 83 -74q38 92 70 92q12 0 12 -20q0 -40 -37 -107q-8 -13 -19.5 -32t-25.5 -45l-34 -83q-10 -24 -25 -60.5t-34 -85.5q-22 -60 -40.5 -103.5t-33.5 -71.5q-65 -116 -131 -116h-4zM143 8q63 0 186 169l29 74q-7 5 -10 21q-9 43 -21 57t-32 14q-23 0 -53 -21t-57 -51.5
t-43 -59.5q-48 -82 -48 -141q0 -62 49 -62zM337 434q-12 0 -17 8.5t-5 19.5q0 32 26 65.5t62 61.5q5 4 11 4q9 0 9 -8q0 -4 -4 -8q-12 -13 -26.5 -31.5t-24.5 -35.5t-10 -29q0 -7 3.5 -12t3.5 -11q0 -10 -7 -17t-21 -7z" />
    <glyph glyph-name="Hcircumflex" unicode="&#x124;" horiz-adv-x="844" 
d="M56 -98q-19 0 -19 17q0 118 138 368q10 18 31 53q-34 -4 -56.5 -14.5t-29.5 -10.5q-18 0 -18 17q0 26 124 45q17 29 43.5 72t63.5 101q27 43 46 75.5t31 59.5q4 10 13 10q19 0 19 -20q0 -7 -23.5 -46.5t-73.5 -120.5l-79 -127q38 4 80 6t86 2q88 0 323 -15
q20 43 42.5 84.5t47.5 82.5q36 61 63 95.5t40 44.5t21 10q15 0 15 -16q0 -8 -9 -14q-18 -13 -44 -47t-58 -89q-48 -81 -82 -154q35 0 35 -17q0 -7 -5 -12t-15 -4l-30 2q-101 -225 -101 -308v-22q0 -12 -17 -12q-16 0 -16 35q0 88 98 310q-122 7 -200.5 10t-113.5 3
q-98 0 -179 -9l-43 -75q-49 -87 -77 -155.5t-38 -102.5q-10 -39 -13 -60t-5 -39q-1 -13 -15 -13zM594 749q-4 0 -8.5 4t-4.5 8q0 5 4 8q2 2 16.5 11t36 21.5t43.5 25t39 20.5t23 8t19.5 -11t28.5 -26.5t27.5 -29.5t17.5 -21q1 -2 1 -6q0 -5 -5 -8.5t-10 -3.5q-7 0 -12 6
q-17 18 -37.5 36t-35.5 28q-15 -7 -36.5 -17.5t-43.5 -22t-38.5 -19.5t-19.5 -10q-2 -1 -5 -1z" />
    <glyph glyph-name="hcircumflex" unicode="&#x125;" horiz-adv-x="443" 
d="M48 -18q-16 0 -16 16q0 21 15 66.5t39.5 105t52.5 122.5q16 35 33 68.5t32 58.5q148 250 184 250q14 0 14 -14q0 -9 -13.5 -33.5t-35 -57t-46 -65.5t-46 -60.5t-34.5 -41.5q-11 -13 -24.5 -38t-26.5 -51.5t-21 -46.5l-38 -94q15 20 39 45q57 63 118.5 95.5t103.5 32.5
q23 0 37 -14t14 -34q0 -39 -51 -131q-51 -91 -51 -112q0 -11 12 -11q28 0 61 20.5t68 52.5t68 64q4 4 12 4q15 0 15 -12q0 -11 -14 -25q-67 -67 -115 -100t-101 -33q-40 0 -40 37q0 14 5 27t16 35l46 91q17 34 25 57t8 35q0 17 -21 17q-37 0 -86.5 -29.5t-105.5 -88.5
q-32 -34 -57.5 -72t-40.5 -82l-12 -35q-7 -19 -22 -19zM302 723q-4 0 -8.5 4t-4.5 8q0 5 4 8q2 2 21 15t43.5 29.5t45.5 29t28 12.5q6 0 17.5 -12t23.5 -28.5t21 -30t11 -17.5q1 -2 1 -6q0 -5 -5 -8.5t-10 -3.5q-7 0 -12 6q-28 38 -53 64q-19 -9 -45 -24.5t-47 -29
t-26 -15.5q-2 -1 -5 -1z" />
    <glyph glyph-name="Hbar" unicode="&#x126;" horiz-adv-x="822" 
d="M56 -98q-19 0 -19 17q0 118 138 368q10 18 31 53q-34 -4 -56.5 -14.5t-29.5 -10.5q-18 0 -18 17q0 26 124 45q14 24 34 56.5t47 74.5q-46 -6 -81 -14h-5q-16 1 -16 19q0 12 36.5 20t89.5 14l2 3q27 43 46 75.5t31 59.5q4 10 13 10q19 0 19 -20q0 -10 -71 -125
q44 3 89 4.5t82 1.5h27t23 -1q48 -1 117 -5t135 -10l1 1q36 61 63 95.5t40 44.5t21 10q15 0 15 -16q0 -8 -9 -14q-17 -13 -41 -44t-54 -80q28 -4 28 -18q0 -13 -24 -15l-22 2q-41 -70 -71 -135q35 0 35 -17q0 -7 -5 -12t-15 -4l-30 2q-101 -225 -101 -308v-22q0 -12 -17 -12
q-16 0 -16 35q0 88 98 310q-122 7 -200.5 10t-113.5 3q-98 0 -179 -9l-43 -75q-48 -88 -76.5 -156t-38.5 -102q-10 -39 -13 -60t-5 -39q-1 -13 -15 -13zM432 389q88 0 323 -15q16 34 34 68t37 67q-71 6 -137.5 9.5t-104.5 4.5q-12 1 -24 1h-24q-47 0 -95 -2.5t-92 -7.5
l-4 -6l-79 -127q38 4 80 6t86 2z" />
    <glyph glyph-name="hbar" unicode="&#x127;" horiz-adv-x="443" 
d="M48 -18q-16 0 -16 16q0 21 15 66.5t39.5 105t52.5 122.5q16 35 33 68.5t32 58.5q148 250 184 250q14 0 14 -14q0 -9 -13.5 -33.5t-35 -57t-46 -65.5t-46 -60.5t-34.5 -41.5q-11 -13 -24.5 -38t-26.5 -51.5t-21 -46.5l-38 -94q15 20 39 45q57 63 118.5 95.5t103.5 32.5
q23 0 37 -14t14 -34q0 -39 -51 -131q-51 -91 -51 -112q0 -11 12 -11q28 0 61 20.5t68 52.5t68 64q4 4 12 4q15 0 15 -12q0 -11 -14 -25q-67 -67 -115 -100t-101 -33q-40 0 -40 37q0 14 5 27t16 35l46 91q17 34 25 57t8 35q0 17 -21 17q-37 0 -86.5 -29.5t-105.5 -88.5
q-32 -34 -57.5 -72t-40.5 -82l-12 -35q-7 -19 -22 -19zM132 371q-6 0 -11 3t-5 9q0 5 4.5 10t11.5 6q11 2 32 2h46h57.5t40.5 -2q14 -2 14 -15t-14 -13q-19 1 -40.5 1.5t-50.5 0.5q-22 0 -43 -0.5t-42 -1.5z" />
    <glyph glyph-name="Itilde" unicode="&#x128;" horiz-adv-x="422" 
d="M-31 -25q-17 0 -17 17q0 16 19 16q17 0 42 2.5t44 3.5q3 19 20 56t45 84t63 97l167 238q11 17 30.5 47.5t46.5 74.5q-30 -2 -54.5 -5t-43.5 -6q-28 -4 -37 -6t-14 -2q-17 0 -17 19q0 11 14 14q59 11 115.5 17t111.5 6q54 0 88 -9q16 -5 21.5 -10t5.5 -13q0 -16 -15 -16
q-5 0 -14 4t-27.5 7.5t-55.5 3.5h-24.5t-17.5 -1q-1 -21 -38 -74l-50 -71l-128 -187q-36 -52 -66 -100t-56 -90q-15 -25 -33 -73q38 4 63 5.5t36 1.5q22 0 39.5 -1.5t30.5 -3.5q15 -3 15 -15q0 -16 -18 -16q-12 0 -30.5 1.5t-32.5 1.5q-45 0 -110 -9q-5 -8 -14 -8
q-8 0 -12 7q-30 -4 -53 -6t-39 -2zM373 703q-4 0 -8 2.5t-2 9.5q3 9 10 22t22 23t39 10q18 0 38.5 -7t39 -14.5t31.5 -7.5q17 0 25 11t13 18q5 5 10 5q14 0 10 -16q-5 -16 -20 -32.5t-43 -16.5q-14 0 -35 7.5t-42.5 15t-37.5 7.5q-14 0 -21.5 -9.5t-14.5 -20.5q-4 -7 -14 -7
z" />
    <glyph glyph-name="itilde" unicode="&#x129;" horiz-adv-x="241" 
d="M105 -7q-28 0 -40.5 11t-12.5 33q0 21 13 57.5t33.5 78.5t43.5 80t44.5 62.5t34.5 24.5q18 0 18 -16q0 -10 -17 -38t-37 -58q-8 -11 -22 -30t-27 -35.5t-17 -22.5q-10 -15 -21 -49q-12 -34 -12 -52q0 -8 3.5 -12t16.5 -4q25 0 56 16t63 40.5t60.5 50.5t48.5 45q4 4 12 4
q15 0 15 -12q0 -11 -14 -25q-27 -27 -50 -48t-44 -37q-33 -24 -73 -44t-75 -20zM171 391q-4 0 -8 2.5t-2 9.5q3 9 10 22t22 23t39 10q18 0 28.5 -7t19 -14.5t21.5 -7.5q17 0 25 11t13 18q5 5 10 5q14 0 10 -16q-5 -16 -20 -32.5t-43 -16.5q-14 0 -25 7.5t-22.5 15t-27.5 7.5
q-14 0 -21.5 -9.5t-14.5 -20.5q-4 -7 -14 -7z" />
    <glyph glyph-name="Imacron" unicode="&#x12a;" horiz-adv-x="422" 
d="M-31 -25q-17 0 -17 17q0 16 19 16q17 0 42 2.5t44 3.5q3 19 20 56t45 84t63 97l167 238q11 17 30.5 47.5t46.5 74.5q-30 -2 -54.5 -5t-43.5 -6q-28 -4 -37 -6t-14 -2q-17 0 -17 19q0 11 14 14q59 11 115.5 17t111.5 6q54 0 88 -9q16 -5 21.5 -10t5.5 -13q0 -16 -15 -16
q-5 0 -14 4t-27.5 7.5t-55.5 3.5h-24.5t-17.5 -1q-1 -21 -38 -74l-50 -71l-128 -187q-36 -52 -66 -100t-56 -90q-15 -25 -33 -73q38 4 63 5.5t36 1.5q22 0 39.5 -1.5t30.5 -3.5q15 -3 15 -15q0 -16 -18 -16q-12 0 -30.5 1.5t-32.5 1.5q-45 0 -110 -9q-5 -8 -14 -8
q-8 0 -12 7q-30 -4 -53 -6t-39 -2zM363 707q-6 0 -11 3t-5 9q0 5 4.5 10t11.5 6t24 1.5t37.5 0.5h36.5h38t40.5 -0.5t29.5 -1.5q14 -2 14 -15t-14 -13q-19 1 -49.5 1.5t-51.5 0.5q-22 0 -53 -0.5t-52 -1.5z" />
    <glyph glyph-name="imacron" unicode="&#x12b;" horiz-adv-x="241" 
d="M105 -7q-28 0 -40.5 11t-12.5 33q0 21 13 57.5t33.5 78.5t43.5 80t44.5 62.5t34.5 24.5q18 0 18 -16q0 -10 -17 -38t-37 -58q-8 -11 -22 -30t-27 -35.5t-17 -22.5q-10 -15 -21 -49q-12 -34 -12 -52q0 -8 3.5 -12t16.5 -4q25 0 56 16t63 40.5t60.5 50.5t48.5 45q4 4 12 4
q15 0 15 -12q0 -11 -14 -25q-27 -27 -50 -48t-44 -37q-33 -24 -73 -44t-75 -20zM147 395q-6 0 -11 3t-5 9q0 5 4.5 10t11.5 6q11 2 32 2h46h49t39 -2q14 -2 14 -15t-14 -13q-19 1 -39.5 1.5t-41.5 0.5q-22 0 -43 -0.5t-42 -1.5z" />
    <glyph glyph-name="Ibreve" unicode="&#x12c;" horiz-adv-x="422" 
d="M-31 -25q-17 0 -17 17q0 16 19 16q17 0 42 2.5t44 3.5q3 19 20 56t45 84t63 97l167 238q11 17 30.5 47.5t46.5 74.5q-30 -2 -54.5 -5t-43.5 -6q-28 -4 -37 -6t-14 -2q-17 0 -17 19q0 11 14 14q59 11 115.5 17t111.5 6q54 0 88 -9q16 -5 21.5 -10t5.5 -13q0 -16 -15 -16
q-5 0 -14 4t-27.5 7.5t-55.5 3.5h-24.5t-17.5 -1q-1 -21 -38 -74l-50 -71l-128 -187q-36 -52 -66 -100t-56 -90q-15 -25 -33 -73q38 4 63 5.5t36 1.5q22 0 39.5 -1.5t30.5 -3.5q15 -3 15 -15q0 -16 -18 -16q-12 0 -30.5 1.5t-32.5 1.5q-45 0 -110 -9q-5 -8 -14 -8
q-8 0 -12 7q-30 -4 -53 -6t-39 -2zM473 707q-42 0 -64 16t-22 42q0 15 4.5 26.5t16.5 11.5q9 0 9 -9q0 -5 -1 -9.5t-1 -9.5q0 -19 14.5 -28t53.5 -9q35 0 66 14.5t47 41.5q3 5 8.5 7t9.5 2q5 0 9 -3t2 -7q-14 -41 -57 -63.5t-95 -22.5z" />
    <glyph glyph-name="ibreve" unicode="&#x12d;" horiz-adv-x="241" 
d="M105 -7q-28 0 -40.5 11t-12.5 33q0 21 13 57.5t33.5 78.5t43.5 80t44.5 62.5t34.5 24.5q18 0 18 -16q0 -10 -17 -38t-37 -58q-8 -11 -22 -30t-27 -35.5t-17 -22.5q-10 -15 -21 -49q-12 -34 -12 -52q0 -8 3.5 -12t16.5 -4q25 0 56 16t63 40.5t60.5 50.5t48.5 45q4 4 12 4
q15 0 15 -12q0 -11 -14 -25q-27 -27 -50 -48t-44 -37q-33 -24 -73 -44t-75 -20zM251 395q-27 0 -46.5 16t-19.5 42q0 15 4.5 26.5t16.5 11.5q9 0 9 -9q0 -5 -1 -9.5t-1 -9.5q0 -37 48 -37q70 0 103 56q3 5 8.5 7t9.5 2q5 0 9 -3t2 -7q-14 -41 -52 -63.5t-90 -22.5z" />
    <glyph glyph-name="Iogonek" unicode="&#x12e;" horiz-adv-x="422" 
d="M-31 -25q-17 0 -17 17q0 16 19 16q17 0 42 2.5t44 3.5q3 19 20 56t45 84t63 97l167 238q11 17 30.5 47.5t46.5 74.5q-30 -2 -54.5 -5t-43.5 -6q-28 -4 -37 -6t-14 -2q-17 0 -17 19q0 11 14 14q59 11 115.5 17t111.5 6q54 0 88 -9q16 -5 21.5 -10t5.5 -13q0 -16 -15 -16
q-5 0 -14 4t-27.5 7.5t-55.5 3.5h-24.5t-17.5 -1q-1 -21 -38 -74l-50 -71l-128 -187q-36 -52 -66 -100t-56 -90q-15 -25 -33 -73q38 4 63 5.5t36 1.5q22 0 39.5 -1.5t30.5 -3.5q15 -3 15 -15q0 -16 -18 -16q-12 0 -30.5 1.5t-32.5 1.5q-45 0 -110 -9q-5 -8 -14 -8
q-8 0 -12 7q-30 -4 -53 -6t-39 -2zM79 -164q-28 0 -46.5 17t-18.5 39q0 23 10 44t22.5 36.5t19.5 20.5q6 5 14 5q12 0 12 -9q0 -4 -4 -8q-12 -13 -27 -35t-15 -43q0 -18 12.5 -28t31.5 -10q12 0 23.5 3t19.5 7q6 2 8 2q10 0 10 -10q0 -7 -6 -12q-7 -6 -25 -12.5t-41 -6.5z
" />
    <glyph glyph-name="iogonek" unicode="&#x12f;" horiz-adv-x="241" 
d="M105 -7q-28 0 -40.5 11t-12.5 33q0 21 13 57.5t33.5 78.5t43.5 80t44.5 62.5t34.5 24.5q18 0 18 -16q0 -10 -17 -38t-37 -58q-8 -11 -22 -30t-27 -35.5t-17 -22.5q-10 -15 -21 -49q-12 -34 -12 -52q0 -8 3.5 -12t16.5 -4q25 0 56 16t63 40.5t60.5 50.5t48.5 45q4 4 12 4
q15 0 15 -12q0 -11 -14 -25q-27 -27 -50 -48t-44 -37q-33 -24 -73 -44t-75 -20zM248 395q-7 -3 -15.5 8t-8.5 22q0 10 8 17t10 8q5 1 9.5 1.5t8.5 0.5q17 0 17 -14q0 -3 -2 -11q-2 -9 -7.5 -17.5t-19.5 -14.5zM102 -142q-28 0 -46.5 17t-18.5 39q0 23 10 44t22.5 36.5
t19.5 20.5q6 5 14 5q12 0 12 -9q0 -4 -4 -8q-12 -13 -27 -35t-15 -43q0 -18 12.5 -28t31.5 -10q12 0 23.5 3t19.5 7q6 2 8 2q10 0 10 -10q0 -7 -6 -12q-7 -6 -25 -12.5t-41 -6.5z" />
    <glyph glyph-name="Idotaccent" unicode="&#x130;" horiz-adv-x="422" 
d="M-31 -25q-17 0 -17 17q0 16 19 16q17 0 42 2.5t44 3.5q3 19 20 56t45 84t63 97l167 238q11 17 30.5 47.5t46.5 74.5q-30 -2 -54.5 -5t-43.5 -6q-28 -4 -37 -6t-14 -2q-17 0 -17 19q0 11 14 14q59 11 115.5 17t111.5 6q54 0 88 -9q16 -5 21.5 -10t5.5 -13q0 -16 -15 -16
q-5 0 -14 4t-27.5 7.5t-55.5 3.5h-24.5t-17.5 -1q-1 -21 -38 -74l-50 -71l-128 -187q-36 -52 -66 -100t-56 -90q-15 -25 -33 -73q38 4 63 5.5t36 1.5q22 0 39.5 -1.5t30.5 -3.5q15 -3 15 -15q0 -16 -18 -16q-12 0 -30.5 1.5t-32.5 1.5q-45 0 -110 -9q-5 -8 -14 -8
q-8 0 -12 7q-30 -4 -53 -6t-39 -2zM470 707q-7 -3 -15.5 8t-8.5 22q0 10 8 17t10 8q5 1 9.5 1.5t8.5 0.5q17 0 17 -14q0 -3 -2 -11q-2 -9 -7.5 -17.5t-19.5 -14.5z" />
    <glyph glyph-name="dotlessi" unicode="&#x131;" horiz-adv-x="241" 
d="M105 -7q-28 0 -40.5 11t-12.5 33q0 21 13 57.5t33.5 78.5t43.5 80t44.5 62.5t34.5 24.5q18 0 18 -16q0 -10 -17 -38t-37 -58q-8 -11 -22 -30t-27 -35.5t-17 -22.5q-10 -15 -21 -49q-12 -34 -12 -52q0 -8 3.5 -12t16.5 -4q25 0 56 16t63 40.5t60.5 50.5t48.5 45q4 4 12 4
q15 0 15 -12q0 -11 -14 -25q-27 -27 -50 -48t-44 -37q-33 -24 -73 -44t-75 -20z" />
    <glyph glyph-name="Jcircumflex" unicode="&#x134;" horiz-adv-x="556" 
d="M108 -31q-43 0 -69.5 26t-26.5 69q0 31 13 63t33.5 60.5t42.5 47.5q17 16 30 16t13 -13q0 -12 -17 -27q-34 -29 -56 -71t-22 -78q0 -57 61 -57q36 0 72.5 24t72.5 63.5t69.5 88.5t63.5 98q133 215 177 356q-13 -1 -39.5 -8t-66.5 -20q-38 -12 -57 -18.5t-26 -6.5
q-19 0 -19 17q0 9 13 17q21 13 55.5 24.5t78.5 19.5q77 15 148 15q29 0 59 -3t48 -7q17 -3 17 -17q0 -15 -14 -15q-4 0 -31 4.5t-72 4.5q-31 0 -63 -3q4 -4 4 -10q0 -3 -3.5 -12.5t-6.5 -17.5q-26 -73 -65.5 -151.5t-91.5 -164.5q-36 -59 -75 -115t-80.5 -101t-84 -71.5
t-85.5 -26.5zM487 729q-4 0 -8.5 4t-4.5 8q0 5 4 8q2 2 16.5 11t36 21.5t43.5 25t39 20.5t23 8t19.5 -11t28.5 -26.5t27.5 -29.5t17.5 -21q1 -2 1 -6q0 -5 -5 -8.5t-10 -3.5q-7 0 -12 6q-17 18 -37.5 36t-35.5 28q-15 -7 -36.5 -17.5t-43.5 -22t-38.5 -19.5t-19.5 -10
q-2 -1 -5 -1z" />
    <glyph glyph-name="jcircumflex" unicode="&#x135;" horiz-adv-x="253" 
d="M-103 -333q-38 0 -61 42q-18 35 -18 78q0 23 6 47q8 35 24 35q18 0 18 -17l-2 -6v-1h-1q-13 -20 -13 -55q0 -31 10 -55q14 -33 40 -33q7 0 9 1q65 15 138 177q8 17 17.5 40.5t20.5 54.5q7 19 12.5 37.5t9.5 36.5l34 159q33 127 65 127q6 0 16 -6t10 -12v-2q0 -4 -20 -38
q-11 -19 -17 -30t-8 -15l-18 -74l-38 -143q-3 -18 -12 -50q-31 -96 -81 -178q-73 -120 -141 -120zM133 386q-4 0 -8.5 4t-4.5 8q0 5 4 8q2 2 21 15t43.5 29.5t45.5 29t28 12.5q6 0 17.5 -12t23.5 -28.5t21 -30t11 -17.5q1 -2 1 -6q0 -5 -5 -8.5t-10 -3.5q-7 0 -12 6
q-28 38 -53 64q-19 -9 -45 -24.5t-47 -29t-26 -15.5q-2 -1 -5 -1z" />
    <glyph glyph-name="uni0136" unicode="&#x136;" horiz-adv-x="700" 
d="M47 -43q-7 0 -15 6.5t-8 13.5q0 14 11.5 45t30.5 71t41 79l111 196q128 228 136 278q1 16 14 16q11 0 15 -8.5t4 -17.5q0 -20 -13.5 -57t-43.5 -90l-82 -143q-51 -89 -80.5 -140.5t-46.5 -82.5q-25 -48 -44 -91t-21 -64q0 -11 -9 -11zM512 -17q-17 0 -17 11q0 5 10.5 18
t20.5 29q23 37 43.5 84t20.5 87q0 38 -21.5 61.5t-57 35t-78.5 11.5q-41 0 -113 -23t-83 -23q-16 0 -16 17q0 2 5 11.5t12 19.5t11 11l24 4l88 35q56 23 112.5 47.5t111.5 50.5q79 37 147.5 75.5t123.5 74.5q10 7 14.5 8.5t8.5 1.5q16 0 16 -15q0 -9 -15 -22
q-65 -54 -279 -154q-37 -14 -98.5 -39t-135.5 -55q24 6 48 6q56 0 105 -13.5t79.5 -43t30.5 -78.5q0 -39 -17.5 -84t-46.5 -91l-27 -42q-10 -16 -27 -16zM269 -70q12 0 17 -8.5t5 -19.5q0 -31 -26 -65t-62 -62q-5 -4 -11 -4q-9 0 -9 8q0 4 4 8q13 14 27 32t24 35.5t10 28.5
q0 8 -3.5 12.5t-3.5 10.5q0 10 7.5 17t20.5 7z" />
    <glyph glyph-name="uni0137" unicode="&#x137;" horiz-adv-x="369" 
d="M333 -47q-10 0 -15 12l-14 34q-22 53 -63 105.5t-81 96.5q-22 -45 -39 -81t-31 -67.5t-30 -65.5q-4 -10 -14 -10q-17 0 -17 14q0 6 4.5 15.5t8.5 19.5q26 63 67.5 150t94.5 190q101 197 162 282q14 20 27.5 36t23.5 16q18 0 18 -19q0 -26 -76 -138q-6 -9 -21 -30
t-32 -45.5t-31.5 -45t-19.5 -28.5l-72 -143q242 141 260 141q16 0 16 -18q0 -11 -12 -16q-44 -21 -69.5 -34t-51.5 -27q-22 -14 -56.5 -34t-81.5 -46q24 -26 52 -60.5t52.5 -71t40.5 -67.5t16 -50q0 -15 -16 -15zM168 -70q12 0 17 -8.5t5 -19.5q0 -31 -26 -65t-62 -62
q-5 -4 -11 -4q-9 0 -9 8q0 4 4 8q13 14 27 32t24 35.5t10 28.5q0 8 -3.5 12.5t-3.5 10.5q0 10 7.5 17t20.5 7z" />
    <glyph glyph-name="kgreenlandic" unicode="&#x138;" horiz-adv-x="395" 
d="M305 -47q-10 0 -15 12l-14 34q-12 29 -30 58t-41 58q-4 5 -22.5 27t-50.5 59q-43 -87 -68 -142q-5 -13 -13 -31t-19 -41q-6 -10 -14 -10q-17 0 -17 14l1 3v3q20 51 48.5 114t60.5 128.5t65 125.5t63.5 106.5t55.5 69.5q5 3 10 3q15 0 18 -19q1 -9 -11.5 -31.5t-31.5 -51
t-38.5 -55t-33.5 -44.5t-15 -20l-38 -72q242 141 260 141q16 0 16 -18q0 -11 -10 -15l-40 -19q-13 -7 -34 -18t-49 -26v1q-22 -14 -56.5 -34t-81.5 -46q130 -140 160 -244q1 -1 1 -5q0 -15 -16 -15z" />
    <glyph glyph-name="Lacute" unicode="&#x139;" horiz-adv-x="620" 
d="M23 -43q-7 0 -16 7t-9 15q0 9 20 46t64 111t115 192l131 219q11 20 27 47t39 64q6 9 13 9t14 -6.5t7 -13.5q0 -4 -50 -88.5t-151 -251.5q-38 -63 -82.5 -139t-94.5 -165q290 78 446 78q47 0 78.5 -15.5t31.5 -30.5q0 -17 -17 -17q-14 0 -14 15v3q-10 5 -34 8t-55 3
q-38 0 -86 -6.5t-97.5 -16t-92.5 -19.5q-42 -9 -79.5 -19.5t-69.5 -18.5q-19 -4 -27.5 -7t-10.5 -3zM384 727q-10 4 -10 14q0 7 6 10q9 6 32.5 20.5t49 31t40.5 26.5q13 9 23 6q9 -5 9 -15t-12 -17q-7 -4 -28.5 -16.5t-48.5 -28t-52 -29.5q-4 -2 -9 -2z" />
    <glyph glyph-name="lacute" unicode="&#x13a;" horiz-adv-x="253" 
d="M169 -27q-46 0 -70.5 28.5t-24.5 75.5q0 34 12 82q21 81 71 188q39 81 84 159.5t99 154.5q86 122 120 122q22 0 22 -12q0 -17 -56 -85l-70 -85q-91 -110 -148.5 -225t-89.5 -230q-9 -33 -9 -62q0 -76 62 -76q22 0 45 13q23 12 25 12q12 0 12 -17q0 -15 -11 -23
q-34 -20 -73 -20zM454 839q-4 0 -8.5 4.5t-4.5 8.5q0 5 4 9q8 8 24 24.5t34 35t31 31.5q4 4 9.5 7t9.5 3q5 0 9.5 -4.5t5.5 -9.5v-2q0 -6 -9 -15t-37 -35t-60 -54q-4 -3 -8 -3z" />
    <glyph glyph-name="uni013B" unicode="&#x13b;" horiz-adv-x="620" 
d="M23 -43q-7 0 -16 7t-9 15q0 9 20 46t64 111t115 192l131 219q11 20 27 47t39 64q6 9 13 9t14 -6.5t7 -13.5q0 -4 -50 -88.5t-151 -251.5q-38 -63 -82.5 -139t-94.5 -165q290 78 446 78q47 0 78.5 -15.5t31.5 -30.5q0 -17 -17 -17q-14 0 -14 15v3q-10 5 -34 8t-55 3
q-38 0 -86 -6.5t-97.5 -16t-92.5 -19.5q-42 -9 -79.5 -19.5t-69.5 -18.5q-19 -4 -27.5 -7t-10.5 -3zM302 -46q12 0 17 -8.5t5 -19.5q0 -31 -26 -65t-62 -62q-5 -4 -11 -4q-9 0 -9 8q0 4 4 8q13 14 27 32t24 35.5t10 28.5q0 8 -3.5 12.5t-3.5 10.5q0 10 7.5 17t20.5 7z" />
    <glyph glyph-name="uni013C" unicode="&#x13c;" horiz-adv-x="253" 
d="M169 -27q-46 0 -70.5 28.5t-24.5 75.5q0 34 12 82q21 81 71 188q39 81 84 159.5t99 154.5q86 122 120 122q22 0 22 -12q0 -17 -56 -85l-70 -85q-91 -110 -148.5 -225t-89.5 -230q-9 -33 -9 -62q0 -76 62 -76q22 0 45 13q23 12 25 12q12 0 12 -17q0 -15 -11 -23
q-34 -20 -73 -20zM144 -70q12 0 17 -8.5t5 -19.5q0 -31 -26 -65t-62 -62q-5 -4 -11 -4q-9 0 -9 8q0 4 4 8q13 14 27 32t24 35.5t10 28.5q0 8 -3.5 12.5t-3.5 10.5q0 10 7.5 17t20.5 7z" />
    <glyph glyph-name="Lcaron" unicode="&#x13d;" horiz-adv-x="620" 
d="M23 -43q-7 0 -16 7t-9 15q0 9 20 46t64 111t115 192l131 219q11 20 27 47t39 64q6 9 13 9t14 -6.5t7 -13.5q0 -4 -50 -88.5t-151 -251.5q-38 -63 -82.5 -139t-94.5 -165q290 78 446 78q47 0 78.5 -15.5t31.5 -30.5q0 -17 -17 -17q-14 0 -14 15v3q-10 5 -34 8t-55 3
q-38 0 -86 -6.5t-97.5 -16t-92.5 -19.5q-42 -9 -79.5 -19.5t-69.5 -18.5q-19 -4 -27.5 -7t-10.5 -3zM562 487q-6 0 -6 7q0 4 2 12t9 19q20 31 28 54.5t8 63.5q0 17 17 17q19 0 19 -17q0 -45 -16 -83t-51 -68q-8 -5 -10 -5z" />
    <glyph glyph-name="lcaron" unicode="&#x13e;" horiz-adv-x="253" 
d="M169 -27q-46 0 -70.5 28.5t-24.5 75.5q0 34 12 82q21 81 71 188q39 81 84 159.5t99 154.5q86 122 120 122q22 0 22 -12q0 -17 -56 -85l-70 -85q-91 -110 -148.5 -225t-89.5 -230q-9 -33 -9 -62q0 -76 62 -76q22 0 45 13q23 12 25 12q12 0 12 -17q0 -15 -11 -23
q-34 -20 -73 -20zM537 609q-6 0 -6 7q0 4 2 12t9 19q20 31 28 54.5t8 63.5q0 17 17 17q19 0 19 -17q0 -45 -16 -83t-51 -68q-8 -5 -10 -5z" />
    <glyph glyph-name="Ldot" unicode="&#x13f;" horiz-adv-x="620" 
d="M23 -43q-7 0 -16 7t-9 15q0 9 20 46t64 111t115 192l131 219q11 20 27 47t39 64q6 9 13 9t14 -6.5t7 -13.5q0 -4 -50 -88.5t-151 -251.5q-38 -63 -82.5 -139t-94.5 -165q290 78 446 78q47 0 78.5 -15.5t31.5 -30.5q0 -17 -17 -17q-14 0 -14 15v3q-10 5 -34 8t-55 3
q-38 0 -86 -6.5t-97.5 -16t-92.5 -19.5q-42 -9 -79.5 -19.5t-69.5 -18.5q-19 -4 -27.5 -7t-10.5 -3zM299 321q-27 0 -27 25q0 27 25 27q27 0 27 -25q0 -27 -25 -27z" />
    <glyph glyph-name="ldot" unicode="&#x140;" horiz-adv-x="253" 
d="M169 -27q-46 0 -70.5 28.5t-24.5 75.5q0 34 12 82q21 81 71 188q39 81 84 159.5t99 154.5q86 122 120 122q22 0 22 -12q0 -17 -56 -85l-70 -85q-91 -110 -148.5 -225t-89.5 -230q-9 -33 -9 -62q0 -76 62 -76q22 0 45 13q23 12 25 12q12 0 12 -17q0 -15 -11 -23
q-34 -20 -73 -20zM291 303q-27 0 -27 25q0 27 25 27q27 0 27 -25q0 -27 -25 -27z" />
    <glyph glyph-name="Lslash" unicode="&#x141;" horiz-adv-x="649" 
d="M23 -43q-7 0 -16 7t-9 15q0 11 27.5 60t89.5 152l-40 -8q-15 -4 -19 13q-3 16 13 19l69 14q13 23 28 47.5t31 51.5l131 219q11 20 27 47t39 64q6 9 13 9t14 -6.5t7 -13.5q0 -4 -50 -88.5t-151 -251.5q-20 -32 -41 -67l130 27q15 3 18 -12q4 -18 -13 -21l-157 -33
q-26 -45 -54.5 -94.5t-59.5 -103.5q290 78 446 78q47 0 78.5 -15.5t31.5 -30.5q0 -17 -17 -17q-14 0 -14 15v3q-10 5 -34 8t-55 3q-38 0 -86 -6.5t-97.5 -16t-92.5 -19.5q-42 -9 -79.5 -19.5t-69.5 -18.5q-19 -4 -27.5 -7t-10.5 -3z" />
    <glyph glyph-name="lslash" unicode="&#x142;" horiz-adv-x="292" 
d="M169 -27q-46 0 -70.5 28.5t-24.5 75.5q0 34 12 82q4 17 10 35l-56 -11q-15 -4 -19 13q-3 16 13 19l74 15q19 54 49 117q39 81 84 159.5t99 154.5q86 122 120 122q22 0 22 -12q0 -17 -56 -85l-70 -85q-72 -88 -123.5 -179t-84.5 -183l133 28q15 3 18 -12q4 -18 -13 -21
l-151 -32q-9 -28 -17 -56q-9 -33 -9 -62q0 -76 62 -76q22 0 45 13q23 12 25 12q12 0 12 -17q0 -15 -11 -23q-34 -20 -73 -20z" />
    <glyph glyph-name="Nacute" unicode="&#x143;" horiz-adv-x="769" 
d="M30 -52q-8 0 -15.5 7t-7.5 14t3 15.5t7 19.5q60 183 159 345q124 202 194 263q19 16 25.5 20.5t11.5 4.5q24 0 24 -21q0 -12 -1 -41t-1 -70q0 -86 17 -207.5t52 -258.5q68 93 119 169.5t89 145.5q28 50 57.5 104.5t55 104.5t41 89.5t15.5 59.5q0 14 13 14q20 0 20 -19
q0 -29 -16.5 -70.5t-51.5 -106.5t-91 -166q-45 -82 -79.5 -138.5t-72.5 -110.5q-16 -21 -38 -53.5t-51 -76.5q-7 -12 -18 -12q-8 0 -12 5t-8 18q-17 55 -31.5 121.5t-25.5 136.5t-17 136.5t-6 122.5v70q-81 -78 -185 -252q-57 -94 -95 -181.5t-64 -176.5q-8 -25 -16 -25z
M615 755q-10 4 -10 14q0 7 6 10q9 6 32.5 20.5t49 31t40.5 26.5q13 9 23 6q9 -5 9 -15t-12 -17q-7 -4 -28.5 -16.5t-48.5 -28t-52 -29.5q-4 -2 -9 -2z" />
    <glyph glyph-name="nacute" unicode="&#x144;" horiz-adv-x="397" 
d="M25 -25q-16 0 -16 13q0 5 4 12.5t7 12.5l90 181q58 118 58 131q0 14 14 14q19 0 19 -20q0 -7 -9 -30t-23 -52q-24 -52 -40 -80q30 35 61 66t63 59q95 83 146 83q35 0 35 -33q0 -30 -51 -135q-51 -106 -51 -134q0 -13 9 -13q3 0 9.5 2.5t13.5 2.5q17 0 17 -16
q0 -20 -43 -20q-20 0 -29 9.5t-9 25.5q0 48 49 146q49 97 49 117q0 12 -9 12q-22 0 -71 -37q-53 -40 -106 -92t-101 -119l-70 -97q-6 -9 -16 -9zM339 421q-4 0 -8.5 4.5t-4.5 8.5q0 5 4 9q8 8 24 24.5t34 35t31 31.5q4 4 9.5 7t9.5 3q5 0 9.5 -4.5t5.5 -9.5v-2q0 -6 -9 -15
t-37 -35t-60 -54q-4 -3 -8 -3z" />
    <glyph glyph-name="uni0145" unicode="&#x145;" horiz-adv-x="769" 
d="M30 -52q-8 0 -15.5 7t-7.5 14t3 15.5t7 19.5q60 183 159 345q124 202 194 263q19 16 25.5 20.5t11.5 4.5q24 0 24 -21q0 -12 -1 -41t-1 -70q0 -86 17 -207.5t52 -258.5q68 93 119 169.5t89 145.5q28 50 57.5 104.5t55 104.5t41 89.5t15.5 59.5q0 14 13 14q20 0 20 -19
q0 -29 -16.5 -70.5t-51.5 -106.5t-91 -166q-45 -82 -79.5 -138.5t-72.5 -110.5q-16 -21 -38 -53.5t-51 -76.5q-7 -12 -18 -12q-8 0 -12 5t-8 18q-17 55 -31.5 121.5t-25.5 136.5t-17 136.5t-6 122.5v70q-81 -78 -185 -252q-57 -94 -95 -181.5t-64 -176.5q-8 -25 -16 -25z
M282 -70q12 0 17 -8.5t5 -19.5q0 -31 -26 -65t-62 -62q-5 -4 -11 -4q-9 0 -9 8q0 4 4 8q13 14 27 32t24 35.5t10 28.5q0 8 -3.5 12.5t-3.5 10.5q0 10 7.5 17t20.5 7z" />
    <glyph glyph-name="uni0146" unicode="&#x146;" horiz-adv-x="397" 
d="M25 -25q-16 0 -16 13q0 5 4 12.5t7 12.5l90 181q58 118 58 131q0 14 14 14q19 0 19 -20q0 -7 -9 -30t-23 -52q-24 -52 -40 -80q30 35 61 66t63 59q95 83 146 83q35 0 35 -33q0 -30 -51 -135q-51 -106 -51 -134q0 -13 9 -13q3 0 9.5 2.5t13.5 2.5q17 0 17 -16
q0 -20 -43 -20q-20 0 -29 9.5t-9 25.5q0 48 49 146q49 97 49 117q0 12 -9 12q-22 0 -71 -37q-53 -40 -106 -92t-101 -119l-70 -97q-6 -9 -16 -9zM155 -70q12 0 17 -8.5t5 -19.5q0 -31 -26 -65t-62 -62q-5 -4 -11 -4q-9 0 -9 8q0 4 4 8q13 14 27 32t24 35.5t10 28.5
q0 8 -3.5 12.5t-3.5 10.5q0 10 7.5 17t20.5 7z" />
    <glyph glyph-name="Ncaron" unicode="&#x147;" horiz-adv-x="769" 
d="M806 861q5 0 9 -3.5t4 -8.5t-4 -8q-2 -2 -16.5 -11t-36 -21.5t-43.5 -25t-39 -20.5t-23 -8t-19.5 11t-28.5 26.5t-27.5 29.5t-17.5 21q-1 2 -1 6q0 5 5 8.5t10 3.5q8 0 12 -6q17 -18 37.5 -35.5t35.5 -28.5q15 7 36.5 18t43.5 22t38.5 19.5t19.5 9.5q2 1 5 1zM30 -52
q-8 0 -15.5 7t-7.5 14t3 15.5t7 19.5q60 183 159 345q124 202 194 263q19 16 25.5 20.5t11.5 4.5q24 0 24 -21q0 -12 -1 -41t-1 -70q0 -86 17 -207.5t52 -258.5q68 93 119 169.5t89 145.5q28 50 57.5 104.5t55 104.5t41 89.5t15.5 59.5q0 14 13 14q20 0 20 -19
q0 -29 -16.5 -70.5t-51.5 -106.5t-91 -166q-45 -82 -79.5 -138.5t-72.5 -110.5q-16 -21 -38 -53.5t-51 -76.5q-7 -12 -18 -12q-8 0 -12 5t-8 18q-17 55 -31.5 121.5t-25.5 136.5t-17 136.5t-6 122.5v70q-81 -78 -185 -252q-57 -94 -95 -181.5t-64 -176.5q-8 -25 -16 -25z
" />
    <glyph glyph-name="ncaron" unicode="&#x148;" horiz-adv-x="397" 
d="M482 527q5 0 9 -3.5t4 -8.5t-4 -8q-2 -2 -21 -15t-43.5 -29.5t-45.5 -29t-28 -12.5q-6 0 -17.5 12t-23.5 28.5t-21 30t-11 17.5q-1 2 -1 6q0 5 5 8.5t10 3.5q8 0 12 -6q28 -38 53 -64q20 9 46 24.5t47 29t25 15.5q2 1 5 1zM25 -25q-16 0 -16 13q0 5 4 12.5t7 12.5l90 181
q58 118 58 131q0 14 14 14q19 0 19 -20q0 -7 -9 -30t-23 -52q-24 -52 -40 -80q30 35 61 66t63 59q95 83 146 83q35 0 35 -33q0 -30 -51 -135q-51 -106 -51 -134q0 -13 9 -13q3 0 9.5 2.5t13.5 2.5q17 0 17 -16q0 -20 -43 -20q-20 0 -29 9.5t-9 25.5q0 48 49 146
q49 97 49 117q0 12 -9 12q-22 0 -71 -37q-53 -40 -106 -92t-101 -119l-70 -97q-6 -9 -16 -9z" />
    <glyph glyph-name="Eng" unicode="&#x14a;" horiz-adv-x="722" 
d="M191 -333q-33 0 -47 26.5t-14 60.5q0 17 3 33t9 35t15.5 33t19.5 14q15 0 15 -9q0 -10 -11.5 -29.5t-15.5 -40.5q-1 -7 -1.5 -13.5t-0.5 -13.5q0 -24 8.5 -42.5t28.5 -18.5q21 0 46 16.5t51 43t50 57.5t43 61q6 9 18.5 30.5t25 43.5t16.5 31q-20 63 -38 139.5t-31.5 157
t-21 158t-5.5 143.5q-81 -78 -185 -252q-112 -186 -165 -374v4q-1 0 -3 -6.5t-7 -6.5q-8 0 -15.5 7t-7.5 16l-1 -2q61 202 170 380q140 228 222 285v1q4 2 9 2q24 0 24 -21v-14t-1 -21t-1.5 -21t-0.5 -15q0 -116 24 -249t59 -270q10 13 27.5 41.5t39.5 65.5t44 75.5
t41.5 72.5t32.5 56q22 35 48 80.5t49.5 92.5t39 85.5t15.5 58.5q0 14 13 14q20 0 20 -19q0 -29 -16.5 -70t-51 -103t-88.5 -156q-40 -73 -87.5 -153t-93 -154.5t-83.5 -134t-60 -91.5q-43 -62 -91.5 -91t-82.5 -29z" />
    <glyph glyph-name="eng" unicode="&#x14b;" horiz-adv-x="427" 
d="M97 -327q-34 0 -53.5 15t-28.5 37t-11 44t-1 36q1 16 11 35.5t23 18.5t13 -8t-7.5 -19.5t-8.5 -26.5q-1 -11 1 -29t8.5 -36t18.5 -30.5t31 -12.5q28 0 57 45t61 121t69 169q15 36 32.5 79.5t34 85.5t27 75.5t10.5 48.5q0 4 -2 8q-25 0 -74 -37q-53 -40 -106 -92
t-101 -119l-73 -102q-4 -4 -11 -4q-18 0 -18 16l101 203q58 118 58 131q0 14 14 14q19 0 19 -19h1q-5 -25 -33 -83q-24 -52 -40 -80q30 35 61 66t63 59q95 83 146 83q35 0 35 -33q0 -3 -9 -28.5t-24.5 -66.5t-34 -89.5t-37 -97.5t-35 -91.5t-28 -71t-14.5 -34.5
q-46 -100 -81 -140t-64 -40z" />
    <glyph glyph-name="Omacron" unicode="&#x14c;" horiz-adv-x="821" 
d="M335 -43q-62 0 -117.5 24t-90.5 72.5t-35 121.5q0 38 17 88.5t43 100t54 84.5q31 39 73.5 74t90.5 62t97 42.5t93 15.5q54 0 104.5 -21t90.5 -58t63.5 -85.5t23.5 -102.5q0 -52 -23 -103t-60.5 -96.5t-83.5 -83.5q-73 -60 -161.5 -97.5t-177.5 -37.5h-1zM329 -10
q85 0 167.5 35.5t149.5 90.5q44 36 80 79.5t58 91t22 93.5q0 45 -20.5 86t-55 73t-78.5 50.5t-91 18.5q-42 0 -88.5 -15t-91.5 -40.5t-84.5 -59t-67.5 -69.5q-26 -34 -50 -81t-38.5 -94t-14.5 -82q0 -56 26.5 -95.5t72.5 -60.5t104 -21zM462 702q-6 0 -11 3t-5 9q0 5 4.5 10
t11.5 6t24 1.5t37.5 0.5h36.5h38t40.5 -0.5t29.5 -1.5q14 -2 14 -15t-14 -13q-19 1 -49.5 1.5t-51.5 0.5q-22 0 -53 -0.5t-52 -1.5z" />
    <glyph glyph-name="omacron" unicode="&#x14d;" horiz-adv-x="333" 
d="M141 5q-81 0 -81 91q0 42 20 88t53 85.5t73.5 64.5t82.5 25q37 0 54 -28t17 -62q0 -45 -18 -91.5t-49 -85.5t-70 -63t-82 -24zM140 37q6 0 7 1q39 5 72 28t57.5 57.5t37.5 74.5t13 79q0 23 -13 36t-33 13q-29 0 -61.5 -24t-61 -61t-46.5 -77.5t-18 -72.5q0 -54 46 -54z
M207 419q-6 0 -11 3t-5 9q0 5 4.5 10t11.5 6q11 2 32 2h46h49t39 -2q14 -2 14 -15t-14 -13q-19 1 -39.5 1.5t-41.5 0.5q-22 0 -43 -0.5t-42 -1.5z" />
    <glyph glyph-name="Obreve" unicode="&#x14e;" horiz-adv-x="821" 
d="M335 -43q-62 0 -117.5 24t-90.5 72.5t-35 121.5q0 38 17 88.5t43 100t54 84.5q31 39 73.5 74t90.5 62t97 42.5t93 15.5q54 0 104.5 -21t90.5 -58t63.5 -85.5t23.5 -102.5q0 -52 -23 -103t-60.5 -96.5t-83.5 -83.5q-73 -60 -161.5 -97.5t-177.5 -37.5h-1zM329 -10
q85 0 167.5 35.5t149.5 90.5q44 36 80 79.5t58 91t22 93.5q0 45 -20.5 86t-55 73t-78.5 50.5t-91 18.5q-42 0 -88.5 -15t-91.5 -40.5t-84.5 -59t-67.5 -69.5q-26 -34 -50 -81t-38.5 -94t-14.5 -82q0 -56 26.5 -95.5t72.5 -60.5t104 -21zM572 702q-42 0 -64 16t-22 42
q0 15 4.5 26.5t16.5 11.5q9 0 9 -9q0 -5 -1 -9.5t-1 -9.5q0 -19 14.5 -28t53.5 -9q35 0 66 14.5t47 41.5q3 5 8.5 7t9.5 2q5 0 9 -3t2 -7q-14 -41 -57 -63.5t-95 -22.5z" />
    <glyph glyph-name="obreve" unicode="&#x14f;" horiz-adv-x="333" 
d="M141 5q-81 0 -81 91q0 42 20 88t53 85.5t73.5 64.5t82.5 25q37 0 54 -28t17 -62q0 -45 -18 -91.5t-49 -85.5t-70 -63t-82 -24zM140 37q6 0 7 1q39 5 72 28t57.5 57.5t37.5 74.5t13 79q0 23 -13 36t-33 13q-29 0 -61.5 -24t-61 -61t-46.5 -77.5t-18 -72.5q0 -54 46 -54z
M311 419q-27 0 -46.5 16t-19.5 42q0 15 4.5 26.5t16.5 11.5q9 0 9 -9q0 -5 -1 -9.5t-1 -9.5q0 -37 48 -37q70 0 103 56q3 5 8.5 7t9.5 2q5 0 9 -3t2 -7q-14 -41 -52 -63.5t-90 -22.5z" />
    <glyph glyph-name="Ohungarumlaut" unicode="&#x150;" horiz-adv-x="821" 
d="M335 -43q-62 0 -117.5 24t-90.5 72.5t-35 121.5q0 38 17 88.5t43 100t54 84.5q31 39 73.5 74t90.5 62t97 42.5t93 15.5q54 0 104.5 -21t90.5 -58t63.5 -85.5t23.5 -102.5q0 -52 -23 -103t-60.5 -96.5t-83.5 -83.5q-73 -60 -161.5 -97.5t-177.5 -37.5h-1zM329 -10
q85 0 167.5 35.5t149.5 90.5q44 36 80 79.5t58 91t22 93.5q0 45 -20.5 86t-55 73t-78.5 50.5t-91 18.5q-42 0 -88.5 -15t-91.5 -40.5t-84.5 -59t-67.5 -69.5q-26 -34 -50 -81t-38.5 -94t-14.5 -82q0 -56 26.5 -95.5t72.5 -60.5t104 -21zM602 702q-9 0 -13 7q-1 4 0 10
q4 11 12 32.5t17.5 45.5t15.5 42q5 14 15 17q1 0 1.5 0.5t1.5 0.5q10 0 14 -8q2 -2 2 -7q0 -6 -3 -12q-4 -12 -19.5 -47.5t-32.5 -73.5q-3 -4 -6 -6q-1 -1 -5 -1zM535 702q-9 0 -13 7q-1 4 0 10q4 11 12 32.5t17.5 45.5t15.5 42q5 14 15 17q1 0 1.5 0.5t1.5 0.5q10 0 14 -8
q2 -2 2 -7q0 -6 -3 -12q-4 -12 -19.5 -47.5t-32.5 -73.5q-3 -4 -6 -6q-1 -1 -5 -1z" />
    <glyph glyph-name="ohungarumlaut" unicode="&#x151;" horiz-adv-x="333" 
d="M141 5q-81 0 -81 91q0 42 20 88t53 85.5t73.5 64.5t82.5 25q37 0 54 -28t17 -62q0 -45 -18 -91.5t-49 -85.5t-70 -63t-82 -24zM140 37q6 0 7 1q39 5 72 28t57.5 57.5t37.5 74.5t13 79q0 23 -13 36t-33 13q-29 0 -61.5 -24t-61 -61t-46.5 -77.5t-18 -72.5q0 -54 46 -54z
M341 419q-9 0 -13 7q-1 4 0 10q4 11 12 32.5t17.5 45.5t15.5 42q5 14 15 17q1 0 1.5 0.5t1.5 0.5q10 0 14 -8q2 -2 2 -7q0 -6 -3 -12q-4 -12 -19.5 -47.5t-32.5 -73.5q-3 -4 -6 -6q-1 -1 -5 -1zM274 419q-9 0 -13 7q-1 4 0 10q4 11 12 32.5t17.5 45.5t15.5 42q5 14 15 17
q1 0 1.5 0.5t1.5 0.5q10 0 14 -8q2 -2 2 -7q0 -6 -3 -12q-4 -12 -19.5 -47.5t-32.5 -73.5q-3 -4 -6 -6q-1 -1 -5 -1z" />
    <glyph glyph-name="OE" unicode="&#x152;" horiz-adv-x="1074" 
d="M252 -43q-102 0 -170 58q-73 61 -73 160q0 11 1.5 24t5.5 26q67 262 296 372q93 45 165 45q62 0 119.5 -28.5t99.5 -76.5t56 -108q56 83 99.5 137t72.5 79l2 1q47 10 96.5 14.5t100.5 4.5q108 0 136 -12q12 -4 12 -15q0 -17 -15 -17h-4q-30 5 -66.5 8t-79.5 3
q-34 0 -75 -4t-90 -12q-50 -38 -169 -215h245q16 0 16 -16t-16 -16h-267q-73 -113 -126.5 -204.5t-85.5 -161.5q270 60 408 60q96 0 96 -46q0 -16 -17 -16q-11 0 -14 10t-6 10q-5 8 -62 8q-44 0 -98 -6t-117 -17q-1 0 -54.5 -10.5t-158.5 -32.5h-1q-18 0 -18 22l26 57
q-133 -85 -269 -85h-1zM246 -10q81 0 164.5 32.5t147.5 89.5q29 55 68 119.5t86 137.5q-27 0 -27 16q0 19 38 17q-6 56 -42 103t-89 75t-111 28q-64 0 -154 -42q-217 -102 -280 -353q-6 -24 -6 -46q0 -83 62 -133q56 -44 143 -44z" />
    <glyph glyph-name="oe" unicode="&#x153;" horiz-adv-x="581" 
d="M141 5q-81 0 -81 91q0 42 20 88t53 85.5t73.5 64.5t82.5 25q37 0 54 -28t17 -62q0 -45 -18 -91.5t-49 -85.5t-70 -63t-82 -24zM140 37q6 0 7 1q39 5 72 28t57.5 57.5t37.5 74.5t13 79q0 23 -13 36t-33 13q-29 0 -61.5 -24t-61 -61t-46.5 -77.5t-18 -72.5q0 -54 46 -54z
M389 -4q-42 0 -66 29t-24 71q0 72 48 148q13 21 30 41.5t37 39.5q30 29 63 48t64 19q51 0 51 -48q0 -60 -70 -109q-65 -44 -128 -44q-11 0 -19.5 1.5t-15.5 3.5q-10 -19 -18 -49t-8 -52q0 -66 58 -66q47 0 89 16.5t100 62.5q36 28 54 45t39 36q6 4 11 4t10 -3t5 -9
q0 -11 -20 -31q-17 -16 -36 -33.5t-60 -48.5q-44 -34 -96 -53t-98 -19zM388 223q32 0 61 10t55 29q58 43 58 81q0 17 -21 17q-40 0 -93 -49q-26 -24 -42.5 -43.5t-30.5 -42.5q6 -2 13 -2z" />
    <glyph glyph-name="Racute" unicode="&#x154;" horiz-adv-x="615" 
d="M18 -29q-20 0 -20 17q0 14 53 122q44 89 66 129q-10 4 -10 16q0 9 10 14t19 9q38 65 70 116.5t57 89.5q49 75 83 120t54 60q15 4 78 4q110 0 173 -33.5t63 -87.5q0 -89 -134 -161q-88 -48 -215 -78q44 -6 79.5 -22.5t57 -44t21.5 -67.5q0 -27 -11.5 -59.5t-29.5 -63
t-38 -53.5q-8 -10 -21 -10q-17 0 -17 11q0 4 6 10.5t13 16.5q9 13 22 38t23.5 54t10.5 54q0 40 -23.5 65t-60.5 36.5t-78 11.5q-71 0 -154 -30q-25 -46 -48.5 -91t-43.5 -90q-7 -16 -17 -39.5t-24 -54.5q-4 -9 -14 -9zM186 293q34 10 56.5 13.5t50.5 6.5q5 1 28.5 8.5
t66.5 20.5q50 16 91 33t73 34q120 65 120 138q0 24 -19.5 41t-50 27.5t-65.5 15.5t-65 5q-16 0 -29 -1.5t-24 -3.5q-52 -61 -102.5 -132.5t-88.5 -136.5q-18 -31 -26 -44.5t-16 -24.5zM548 720q-10 4 -10 14q0 7 6 10q9 6 32.5 20.5t49 31t40.5 26.5q13 9 23 6q9 -5 9 -15
t-12 -17q-7 -4 -28.5 -16.5t-48.5 -28t-52 -29.5q-4 -2 -9 -2z" />
    <glyph glyph-name="racute" unicode="&#x155;" horiz-adv-x="321" 
d="M25 -25q-16 0 -16 13q0 6 3.5 12t5.5 10l91 184q58 118 58 131q0 14 14 14q19 0 19 -19q0 -10 -9 -32t-23 -51q-24 -52 -40 -80q30 35 61 66t63 59q95 83 146 83q35 0 35 -33q0 -32 -21 -32q-10 0 -15 17q-3 12 -14 12q-17 0 -66 -37q-54 -40 -108.5 -95t-115.5 -140
l-50 -70q-4 -5 -7.5 -8.5t-10.5 -3.5zM294 421q-4 0 -8.5 4.5t-4.5 8.5q0 5 4 9q8 8 24 24.5t34 35t31 31.5q4 4 9.5 7t9.5 3q5 0 9.5 -4.5t5.5 -9.5v-2q0 -6 -9 -15t-37 -35t-60 -54q-4 -3 -8 -3z" />
    <glyph glyph-name="uni0156" unicode="&#x156;" horiz-adv-x="615" 
d="M18 -29q-20 0 -20 17q0 14 53 122q44 89 66 129q-10 4 -10 16q0 9 10 14t19 9q38 65 70 116.5t57 89.5q49 75 83 120t54 60q15 4 78 4q110 0 173 -33.5t63 -87.5q0 -89 -134 -161q-88 -48 -215 -78q44 -6 79.5 -22.5t57 -44t21.5 -67.5q0 -27 -11.5 -59.5t-29.5 -63
t-38 -53.5q-8 -10 -21 -10q-17 0 -17 11q0 4 6 10.5t13 16.5q9 13 22 38t23.5 54t10.5 54q0 40 -23.5 65t-60.5 36.5t-78 11.5q-71 0 -154 -30q-25 -46 -48.5 -91t-43.5 -90q-7 -16 -17 -39.5t-24 -54.5q-4 -9 -14 -9zM186 293q34 10 56.5 13.5t50.5 6.5q5 1 28.5 8.5
t66.5 20.5q50 16 91 33t73 34q120 65 120 138q0 24 -19.5 41t-50 27.5t-65.5 15.5t-65 5q-16 0 -29 -1.5t-24 -3.5q-52 -61 -102.5 -132.5t-88.5 -136.5q-18 -31 -26 -44.5t-16 -24.5zM223 -70q12 0 17 -8.5t5 -19.5q0 -31 -26 -65t-62 -62q-5 -4 -11 -4q-9 0 -9 8q0 4 4 8
q13 14 27 32t24 35.5t10 28.5q0 8 -3.5 12.5t-3.5 10.5q0 10 7.5 17t20.5 7z" />
    <glyph glyph-name="uni0157" unicode="&#x157;" horiz-adv-x="321" 
d="M25 -25q-16 0 -16 13q0 6 3.5 12t5.5 10l91 184q58 118 58 131q0 14 14 14q19 0 19 -19q0 -10 -9 -32t-23 -51q-24 -52 -40 -80q30 35 61 66t63 59q95 83 146 83q35 0 35 -33q0 -32 -21 -32q-10 0 -15 17q-3 12 -14 12q-17 0 -66 -37q-54 -40 -108.5 -95t-115.5 -140
l-50 -70q-4 -5 -7.5 -8.5t-10.5 -3.5zM16 -74q12 0 17 -8.5t5 -19.5q0 -31 -26 -65t-62 -62q-5 -4 -11 -4q-9 0 -9 8q0 4 4 8q13 14 27 32t24 35.5t10 28.5q0 8 -3.5 12.5t-3.5 10.5q0 10 7.5 17t20.5 7z" />
    <glyph glyph-name="Rcaron" unicode="&#x158;" horiz-adv-x="615" 
d="M739 826q5 0 9 -3.5t4 -8.5t-4 -8q-2 -2 -16.5 -11t-36 -21.5t-43.5 -25t-39 -20.5t-23 -8t-19.5 11t-28.5 26.5t-27.5 29.5t-17.5 21q-1 2 -1 6q0 5 5 8.5t10 3.5q8 0 12 -6q17 -18 37.5 -35.5t35.5 -28.5q15 7 36.5 18t43.5 22t38.5 19.5t19.5 9.5q2 1 5 1zM18 -29
q-20 0 -20 17q0 14 53 122q44 89 66 129q-10 4 -10 16q0 9 10 14t19 9q38 65 70 116.5t57 89.5q49 75 83 120t54 60q15 4 78 4q110 0 173 -33.5t63 -87.5q0 -89 -134 -161q-88 -48 -215 -78q44 -6 79.5 -22.5t57 -44t21.5 -67.5q0 -27 -11.5 -59.5t-29.5 -63t-38 -53.5
q-8 -10 -21 -10q-17 0 -17 11q0 4 6 10.5t13 16.5q9 13 22 38t23.5 54t10.5 54q0 40 -23.5 65t-60.5 36.5t-78 11.5q-71 0 -154 -30q-25 -46 -48.5 -91t-43.5 -90q-7 -16 -17 -39.5t-24 -54.5q-4 -9 -14 -9zM186 293q34 10 56.5 13.5t50.5 6.5q5 1 28.5 8.5t66.5 20.5
q50 16 91 33t73 34q120 65 120 138q0 24 -19.5 41t-50 27.5t-65.5 15.5t-65 5q-16 0 -29 -1.5t-24 -3.5q-52 -61 -102.5 -132.5t-88.5 -136.5q-18 -31 -26 -44.5t-16 -24.5z" />
    <glyph glyph-name="rcaron" unicode="&#x159;" horiz-adv-x="321" 
d="M437 527q5 0 9 -3.5t4 -8.5t-4 -8q-2 -2 -21 -15t-43.5 -29.5t-45.5 -29t-28 -12.5q-6 0 -17.5 12t-23.5 28.5t-21 30t-11 17.5q-1 2 -1 6q0 5 5 8.5t10 3.5q8 0 12 -6q28 -38 53 -64q20 9 46 24.5t47 29t25 15.5q2 1 5 1zM25 -25q-16 0 -16 13q0 6 3.5 12t5.5 10l91 184
q58 118 58 131q0 14 14 14q19 0 19 -19q0 -10 -9 -32t-23 -51q-24 -52 -40 -80q30 35 61 66t63 59q95 83 146 83q35 0 35 -33q0 -32 -21 -32q-10 0 -15 17q-3 12 -14 12q-17 0 -66 -37q-54 -40 -108.5 -95t-115.5 -140l-50 -70q-4 -5 -7.5 -8.5t-10.5 -3.5z" />
    <glyph glyph-name="Sacute" unicode="&#x15a;" horiz-adv-x="611" 
d="M254 -43q-64 0 -120.5 21t-91.5 60t-35 92q0 17 6 36q8 26 18 26q15 0 15 -17q0 -7 -4 -19t-4 -23q0 -44 30 -76.5t77.5 -49.5t99.5 -17q113 0 192 54q41 28 68 67.5t27 84.5q0 41 -20.5 68t-56.5 46.5t-83 35.5q-134 47 -134 114q0 36 27 69t66 58.5t75 38.5
q53 20 98.5 27.5t84.5 7.5q53 0 75 -24.5t22 -60.5q0 -28 -13.5 -54t-36.5 -45q-26 -22 -42 -22q-17 0 -17 16q0 9 9 13q67 34 67 93q0 26 -14.5 38.5t-49.5 12.5q-32 0 -71.5 -7t-80.5 -21q-36 -13 -73 -35t-61.5 -48t-24.5 -52q0 -55 106 -88q183 -58 183 -178
q0 -36 -16.5 -71t-43 -64t-56.5 -50q-43 -30 -93.5 -43.5t-103.5 -13.5zM527 719q-10 4 -10 14q0 7 6 10q9 6 32.5 20.5t49 31t40.5 26.5q13 9 23 6q9 -5 9 -15t-12 -17q-7 -4 -28.5 -16.5t-48.5 -28t-52 -29.5q-4 -2 -9 -2z" />
    <glyph glyph-name="sacute" unicode="&#x15b;" horiz-adv-x="310" 
d="M80 -33q-56 0 -56 37q0 23 16.5 46t39.5 42t43 29q6 3 16.5 6t17.5 3q8 0 8 -6q0 -5 -11 -11q-46 -22 -71.5 -52.5t-25.5 -49.5q0 -18 31 -18q26 0 56.5 13t58 34t45.5 45t18 46q0 15 -9.5 27t-30.5 18l-66 20q-25 8 -36 21t-11 29q0 30 22.5 54t56.5 38t66 14t56 -15.5
t24 -41.5q0 -15 -8.5 -28t-19.5 -13q-17 0 -17 14q0 5 5.5 12.5t5.5 14.5q0 30 -46 30q-25 0 -49.5 -10.5t-40.5 -27.5t-16 -37t40 -32l64 -20q29 -9 40 -24.5t11 -34.5q0 -45 -55 -93q-89 -79 -172 -79zM252 408q-4 0 -8.5 4.5t-4.5 8.5q0 5 4 9q8 8 24 24.5t34 35t31 31.5
q4 4 9.5 7t9.5 3q5 0 9.5 -4.5t5.5 -9.5v-2q0 -6 -9 -15t-37 -35t-60 -54q-4 -3 -8 -3z" />
    <glyph glyph-name="Scircumflex" unicode="&#x15c;" horiz-adv-x="611" 
d="M254 -43q-64 0 -120.5 21t-91.5 60t-35 92q0 17 6 36q8 26 18 26q15 0 15 -17q0 -7 -4 -19t-4 -23q0 -44 30 -76.5t77.5 -49.5t99.5 -17q113 0 192 54q41 28 68 67.5t27 84.5q0 41 -20.5 68t-56.5 46.5t-83 35.5q-134 47 -134 114q0 36 27 69t66 58.5t75 38.5
q53 20 98.5 27.5t84.5 7.5q53 0 75 -24.5t22 -60.5q0 -28 -13.5 -54t-36.5 -45q-26 -22 -42 -22q-17 0 -17 16q0 9 9 13q67 34 67 93q0 26 -14.5 38.5t-49.5 12.5q-32 0 -71.5 -7t-80.5 -21q-36 -13 -73 -35t-61.5 -48t-24.5 -52q0 -55 106 -88q183 -58 183 -178
q0 -36 -16.5 -71t-43 -64t-56.5 -50q-43 -30 -93.5 -43.5t-103.5 -13.5zM453 713q-4 0 -8.5 4t-4.5 8q0 5 4 8q2 2 16.5 11t36 21.5t43.5 25t39 20.5t23 8t19.5 -11t28.5 -26.5t27.5 -29.5t17.5 -21q1 -2 1 -6q0 -5 -5 -8.5t-10 -3.5q-7 0 -12 6q-17 18 -37.5 36t-35.5 28
q-15 -7 -36.5 -17.5t-43.5 -22t-38.5 -19.5t-19.5 -10q-2 -1 -5 -1z" />
    <glyph glyph-name="scircumflex" unicode="&#x15d;" horiz-adv-x="310" 
d="M80 -33q-56 0 -56 37q0 23 16.5 46t39.5 42t43 29q6 3 16.5 6t17.5 3q8 0 8 -6q0 -5 -11 -11q-46 -22 -71.5 -52.5t-25.5 -49.5q0 -18 31 -18q26 0 56.5 13t58 34t45.5 45t18 46q0 15 -9.5 27t-30.5 18l-66 20q-25 8 -36 21t-11 29q0 30 22.5 54t56.5 38t66 14t56 -15.5
t24 -41.5q0 -15 -8.5 -28t-19.5 -13q-17 0 -17 14q0 5 5.5 12.5t5.5 14.5q0 30 -46 30q-25 0 -49.5 -10.5t-40.5 -27.5t-16 -37t40 -32l64 -20q29 -9 40 -24.5t11 -34.5q0 -45 -55 -93q-89 -79 -172 -79zM172 406q-4 0 -8.5 4t-4.5 8q0 5 4 8q2 2 21 15t43.5 29.5t45.5 29
t28 12.5q6 0 17.5 -12t23.5 -28.5t21 -30t11 -17.5q1 -2 1 -6q0 -5 -5 -8.5t-10 -3.5q-7 0 -12 6q-28 38 -53 64q-19 -9 -45 -24.5t-47 -29t-26 -15.5q-2 -1 -5 -1z" />
    <glyph glyph-name="Scedilla" unicode="&#x15e;" horiz-adv-x="611" 
d="M254 -43q-64 0 -120.5 21t-91.5 60t-35 92q0 17 6 36q8 26 18 26q15 0 15 -17q0 -7 -4 -19t-4 -23q0 -44 30 -76.5t77.5 -49.5t99.5 -17q113 0 192 54q41 28 68 67.5t27 84.5q0 41 -20.5 68t-56.5 46.5t-83 35.5q-134 47 -134 114q0 36 27 69t66 58.5t75 38.5
q53 20 98.5 27.5t84.5 7.5q53 0 75 -24.5t22 -60.5q0 -28 -13.5 -54t-36.5 -45q-26 -22 -42 -22q-17 0 -17 16q0 9 9 13q67 34 67 93q0 26 -14.5 38.5t-49.5 12.5q-32 0 -71.5 -7t-80.5 -21q-36 -13 -73 -35t-61.5 -48t-24.5 -52q0 -55 106 -88q183 -58 183 -178
q0 -36 -16.5 -71t-43 -64t-56.5 -50q-43 -30 -93.5 -43.5t-103.5 -13.5zM193 -210q-8 0 -20.5 2.5t-22.5 7.5q-11 6 -14 11.5t-3 10.5q0 7 6 9t11 -1q7 -4 20 -8t23 -4q18 0 32.5 6t14.5 27q0 15 -9 25t-18 21.5t-9 28.5q0 20 16.5 35t37.5 15q5 0 8 -3.5t3 -7.5q0 -6 -4 -7
q-12 -6 -20 -10.5t-8 -18.5t9 -24.5t18 -23t9 -35.5t-22.5 -39.5t-57.5 -16.5z" />
    <glyph glyph-name="scedilla" unicode="&#x15f;" horiz-adv-x="310" 
d="M80 -33q-56 0 -56 37q0 23 16.5 46t39.5 42t43 29q6 3 16.5 6t17.5 3q8 0 8 -6q0 -5 -11 -11q-46 -22 -71.5 -52.5t-25.5 -49.5q0 -18 31 -18q26 0 56.5 13t58 34t45.5 45t18 46q0 15 -9.5 27t-30.5 18l-66 20q-25 8 -36 21t-11 29q0 30 22.5 54t56.5 38t66 14t56 -15.5
t24 -41.5q0 -15 -8.5 -28t-19.5 -13q-17 0 -17 14q0 5 5.5 12.5t5.5 14.5q0 30 -46 30q-25 0 -49.5 -10.5t-40.5 -27.5t-16 -37t40 -32l64 -20q29 -9 40 -24.5t11 -34.5q0 -45 -55 -93q-89 -79 -172 -79zM56 -193q-8 0 -20.5 2.5t-22.5 7.5q-11 6 -14 11.5t-3 10.5q0 7 6 9
t11 -1q7 -4 20 -8t23 -4q18 0 32.5 6t14.5 27q0 15 -9 25t-18 21.5t-9 28.5q0 20 16.5 35t37.5 15q5 0 8 -3.5t3 -7.5q0 -6 -4 -7q-12 -6 -20 -10.5t-8 -18.5t9 -24.5t18 -23t9 -35.5t-22.5 -39.5t-57.5 -16.5z" />
    <glyph glyph-name="Scaron" unicode="&#x160;" horiz-adv-x="611" 
d="M718 825q5 0 9 -3.5t4 -8.5t-4 -8q-2 -2 -16.5 -11t-36 -21.5t-43.5 -25t-39 -20.5t-23 -8t-19.5 11t-28.5 26.5t-27.5 29.5t-17.5 21q-1 2 -1 6q0 5 5 8.5t10 3.5q8 0 12 -6q17 -18 37.5 -35.5t35.5 -28.5q15 7 36.5 18t43.5 22t38.5 19.5t19.5 9.5q2 1 5 1zM254 -43
q-64 0 -120.5 21t-91.5 60t-35 92q0 17 6 36q8 26 18 26q15 0 15 -17q0 -7 -4 -19t-4 -23q0 -44 30 -76.5t77.5 -49.5t99.5 -17q113 0 192 54q41 28 68 67.5t27 84.5q0 41 -20.5 68t-56.5 46.5t-83 35.5q-134 47 -134 114q0 36 27 69t66 58.5t75 38.5q53 20 98.5 27.5
t84.5 7.5q53 0 75 -24.5t22 -60.5q0 -28 -13.5 -54t-36.5 -45q-26 -22 -42 -22q-17 0 -17 16q0 9 9 13q67 34 67 93q0 26 -14.5 38.5t-49.5 12.5q-32 0 -71.5 -7t-80.5 -21q-36 -13 -73 -35t-61.5 -48t-24.5 -52q0 -55 106 -88q183 -58 183 -178q0 -36 -16.5 -71t-43 -64
t-56.5 -50q-43 -30 -93.5 -43.5t-103.5 -13.5z" />
    <glyph glyph-name="scaron" unicode="&#x161;" horiz-adv-x="310" 
d="M395 514q5 0 9 -3.5t4 -8.5t-4 -8q-2 -2 -21 -15t-43.5 -29.5t-45.5 -29t-28 -12.5q-6 0 -17.5 12t-23.5 28.5t-21 30t-11 17.5q-1 2 -1 6q0 5 5 8.5t10 3.5q8 0 12 -6q28 -38 53 -64q20 9 46 24.5t47 29t25 15.5q2 1 5 1zM80 -33q-56 0 -56 37q0 23 16.5 46t39.5 42
t43 29q6 3 16.5 6t17.5 3q8 0 8 -6q0 -5 -11 -11q-46 -22 -71.5 -52.5t-25.5 -49.5q0 -18 31 -18q26 0 56.5 13t58 34t45.5 45t18 46q0 15 -9.5 27t-30.5 18l-66 20q-25 8 -36 21t-11 29q0 30 22.5 54t56.5 38t66 14t56 -15.5t24 -41.5q0 -15 -8.5 -28t-19.5 -13
q-17 0 -17 14q0 5 5.5 12.5t5.5 14.5q0 30 -46 30q-25 0 -49.5 -10.5t-40.5 -27.5t-16 -37t40 -32l64 -20q29 -9 40 -24.5t11 -34.5q0 -45 -55 -93q-89 -79 -172 -79z" />
    <glyph glyph-name="uni0162" unicode="&#x162;" horiz-adv-x="530" 
d="M190 -60q-17 0 -17 20q0 32 35 112.5t105 207.5l190 342h-19q-233 0 -304 -57q-29 -23 -40 -66q-1 -15 -13 -15q-20 0 -20 18q0 50 55 90q83 62 311 62q66 0 133 -3l104 -7q32 -2 58 -3.5t46 -1.5q16 0 16 -16t-16 -16q-35 0 -104 6q-50 5 -78 6t-51 1q-21 0 -31 0.5
t-14 0.5q-12 -31 -61 -119l-101 -180q-85 -152 -126.5 -242t-41.5 -116v-5q0 -19 -16 -19zM156 -131q12 0 17 -8.5t5 -19.5q0 -31 -26 -65t-62 -62q-5 -4 -11 -4q-9 0 -9 8q0 4 4 8q13 14 27 32t24 35.5t10 28.5q0 8 -3.5 12.5t-3.5 10.5q0 10 7.5 17t20.5 7z" />
    <glyph glyph-name="uni0163" unicode="&#x163;" horiz-adv-x="229" 
d="M61 -69q-19 0 -19 30q0 44 49.5 154t147.5 288q-38 0 -71.5 -9.5t-35.5 -23.5q-1 -4 -4.5 -7.5t-10.5 -3.5q-16 0 -16 16q0 26 41 43t115 17l69 114q7 11 15 24.5t18 29.5q10 14 23 14q8 0 12 -4.5t4 -9.5q0 -15 -44 -80q-55 -81 -59 -88q15 0 45 -2.5t71 -7.5
q15 -1 15 -15q0 -16 -18 -16q-7 0 -28 2.5t-45 4.5t-41 1l-15 -1q-203 -357 -202 -444l1 -8v-2q0 -16 -17 -16zM30 -140q12 0 17 -8.5t5 -19.5q0 -31 -26 -65t-62 -62q-5 -4 -11 -4q-9 0 -9 8q0 4 4 8q13 14 27 32t24 35.5t10 28.5q0 8 -3.5 12.5t-3.5 10.5q0 10 7.5 17
t20.5 7z" />
    <glyph glyph-name="Tcaron" unicode="&#x164;" horiz-adv-x="530" 
d="M695 826q5 0 9 -3.5t4 -8.5t-4 -8q-2 -2 -16.5 -11t-36 -21.5t-43.5 -25t-39 -20.5t-23 -8t-19.5 11t-28.5 26.5t-27.5 29.5t-17.5 21q-1 2 -1 6q0 5 5 8.5t10 3.5q8 0 12 -6q17 -18 37.5 -35.5t35.5 -28.5q15 7 36.5 18t43.5 22t38.5 19.5t19.5 9.5q2 1 5 1zM190 -60
q-17 0 -17 20q0 32 35 112.5t105 207.5l190 342h-19q-233 0 -304 -57q-29 -23 -40 -66q-1 -15 -13 -15q-20 0 -20 18q0 50 55 90q83 62 311 62q66 0 133 -3l104 -7q32 -2 58 -3.5t46 -1.5q16 0 16 -16t-16 -16q-35 0 -104 6q-50 5 -78 6t-51 1q-21 0 -31 0.5t-14 0.5
q-12 -31 -61 -119l-101 -180q-85 -152 -126.5 -242t-41.5 -116v-5q0 -19 -16 -19z" />
    <glyph glyph-name="tcaron" unicode="&#x165;" horiz-adv-x="229" 
d="M61 -69q-19 0 -19 30q0 44 49.5 154t147.5 288q-38 0 -71.5 -9.5t-35.5 -23.5q-1 -4 -4.5 -7.5t-10.5 -3.5q-16 0 -16 16q0 26 41 43t115 17l69 114q7 11 15 24.5t18 29.5q10 14 23 14q8 0 12 -4.5t4 -9.5q0 -15 -44 -80q-55 -81 -59 -88q15 0 45 -2.5t71 -7.5
q15 -1 15 -15q0 -16 -18 -16q-7 0 -28 2.5t-45 4.5t-41 1l-15 -1q-203 -357 -202 -444l1 -8v-2q0 -16 -17 -16zM456 489q-6 0 -6 7q0 4 2 12t9 19q20 31 28 54.5t8 63.5q0 17 17 17q19 0 19 -17q0 -45 -16 -83t-51 -68q-8 -5 -10 -5z" />
    <glyph glyph-name="Tbar" unicode="&#x166;" horiz-adv-x="530" 
d="M190 -60q-17 0 -17 20q0 32 35 112.5t105 207.5l190 342h-19q-233 0 -304 -57q-29 -23 -40 -66q-1 -15 -13 -15q-20 0 -20 18q0 50 55 90q83 62 311 62q66 0 133 -3l104 -7q32 -2 58 -3.5t46 -1.5q16 0 16 -16t-16 -16q-35 0 -104 6q-50 5 -78 6t-51 1q-21 0 -31 0.5
t-14 0.5q-12 -31 -61 -119l-101 -180q-85 -152 -126.5 -242t-41.5 -116v-5q0 -19 -16 -19zM336 410q-6 0 -11 3t-5 9q0 5 4.5 10t11.5 6q11 2 32 2h46h57.5t40.5 -2q14 -2 14 -15t-14 -13q-19 1 -40.5 1.5t-50.5 0.5q-22 0 -43 -0.5t-42 -1.5z" />
    <glyph glyph-name="tbar" unicode="&#x167;" horiz-adv-x="229" 
d="M61 -69q-19 0 -19 30q0 44 49.5 154t147.5 288q-38 0 -71.5 -9.5t-35.5 -23.5q-1 -4 -4.5 -7.5t-10.5 -3.5q-16 0 -16 16q0 26 41 43t115 17l69 114q7 11 15 24.5t18 29.5q10 14 23 14q8 0 12 -4.5t4 -9.5q0 -15 -44 -80q-55 -81 -59 -88q15 0 45 -2.5t71 -7.5
q15 -1 15 -15q0 -16 -18 -16q-7 0 -28 2.5t-45 4.5t-41 1l-15 -1q-203 -357 -202 -444l1 -8v-2q0 -16 -17 -16zM121 274q-6 0 -11 3t-5 9q0 5 4.5 10t11.5 6q11 2 32 2h46h57.5t40.5 -2q14 -2 14 -15t-14 -13q-19 1 -40.5 1.5t-50.5 0.5q-22 0 -43 -0.5t-42 -1.5z" />
    <glyph glyph-name="Utilde" unicode="&#x168;" horiz-adv-x="760" 
d="M604 -99q-46 0 -46 102t45 250q-133 -147 -228 -216t-160 -69q-112 0 -112 135q0 144 109 344q46 84 87 125q11 11 23 21.5t21 10.5q21 0 21 -19q0 -7 -8 -12q-26 -18 -56 -54t-62 -91q-27 -45 -50.5 -100.5t-37.5 -111.5t-14 -104q0 -112 81 -112q38 0 80.5 24t85 59.5
t77.5 69.5q36 35 62.5 62t52 55.5t57.5 66.5l18 47q13 33 24 57.5t19 40.5q71 137 102 137q8 0 11.5 -9.5t3.5 -22.5q0 -19 -12.5 -48t-31 -61.5t-37 -61t-31.5 -46.5l-36 -49q-4 -8 -14 -35.5t-24 -74.5q-31 -100 -31 -197q0 -82 17 -82q3 0 4 1.5t4 1.5q8 0 8 -13
q0 -21 -22 -21zM460 654q-4 0 -8 2.5t-2 9.5q3 9 10 22t22 23t39 10q18 0 38.5 -7t39 -14.5t31.5 -7.5q17 0 25 11t13 18q5 5 10 5q14 0 10 -16q-5 -16 -20 -32.5t-43 -16.5q-14 0 -35 7.5t-42.5 15t-37.5 7.5q-14 0 -21.5 -9.5t-14.5 -20.5q-4 -7 -14 -7z" />
    <glyph glyph-name="utilde" unicode="&#x169;" horiz-adv-x="469" 
d="M339 -34q-49 0 -49 71q0 38 18 92q-121 -141 -190 -141q-57 0 -57 69q0 26 8.5 62.5t23 75.5t31.5 73t34 55q6 7 15 7q5 0 10 -3.5t5 -10.5q0 -6 -7 -17q-45 -74 -64 -129q-24 -63 -24 -109q0 -43 22 -43q14 0 37 14t47.5 34.5t42.5 38.5q50 53 90 113q18 28 32.5 54.5
t26.5 55.5q5 11 8.5 16.5t10.5 5.5q21 0 21 -16q0 -10 -7 -14q-102 -207 -102 -285q0 -21 4 -29.5t14 -8.5q14 0 43.5 18t69.5 55l105 96q8 8 15 8q16 0 16 -15q0 -13 -63 -70q-27 -25 -48 -42t-39 -30q-34 -24 -60 -37.5t-40 -13.5zM220 401q-4 0 -8 2.5t-2 9.5q3 9 10 22
t22 23t39 10q18 0 28.5 -7t19 -14.5t21.5 -7.5q17 0 25 11t13 18q5 5 10 5q14 0 10 -16q-5 -16 -20 -32.5t-43 -16.5q-14 0 -25 7.5t-22.5 15t-27.5 7.5q-14 0 -21.5 -9.5t-14.5 -20.5q-4 -7 -14 -7z" />
    <glyph glyph-name="Umacron" unicode="&#x16a;" horiz-adv-x="760" 
d="M604 -99q-46 0 -46 102t45 250q-133 -147 -228 -216t-160 -69q-112 0 -112 135q0 144 109 344q46 84 87 125q11 11 23 21.5t21 10.5q21 0 21 -19q0 -7 -8 -12q-26 -18 -56 -54t-62 -91q-27 -45 -50.5 -100.5t-37.5 -111.5t-14 -104q0 -112 81 -112q38 0 80.5 24t85 59.5
t77.5 69.5q36 35 62.5 62t52 55.5t57.5 66.5l18 47q13 33 24 57.5t19 40.5q71 137 102 137q8 0 11.5 -9.5t3.5 -22.5q0 -19 -12.5 -48t-31 -61.5t-37 -61t-31.5 -46.5l-36 -49q-4 -8 -14 -35.5t-24 -74.5q-31 -100 -31 -197q0 -82 17 -82q3 0 4 1.5t4 1.5q8 0 8 -13
q0 -21 -22 -21zM450 658q-6 0 -11 3t-5 9q0 5 4.5 10t11.5 6t24 1.5t37.5 0.5h36.5h38t40.5 -0.5t29.5 -1.5q14 -2 14 -15t-14 -13q-19 1 -49.5 1.5t-51.5 0.5q-22 0 -53 -0.5t-52 -1.5z" />
    <glyph glyph-name="umacron" unicode="&#x16b;" horiz-adv-x="469" 
d="M339 -34q-49 0 -49 71q0 38 18 92q-121 -141 -190 -141q-57 0 -57 69q0 26 8.5 62.5t23 75.5t31.5 73t34 55q6 7 15 7q5 0 10 -3.5t5 -10.5q0 -6 -7 -17q-45 -74 -64 -129q-24 -63 -24 -109q0 -43 22 -43q14 0 37 14t47.5 34.5t42.5 38.5q50 53 90 113q18 28 32.5 54.5
t26.5 55.5q5 11 8.5 16.5t10.5 5.5q21 0 21 -16q0 -10 -7 -14q-102 -207 -102 -285q0 -21 4 -29.5t14 -8.5q14 0 43.5 18t69.5 55l105 96q8 8 15 8q16 0 16 -15q0 -13 -63 -70q-27 -25 -48 -42t-39 -30q-34 -24 -60 -37.5t-40 -13.5zM196 405q-6 0 -11 3t-5 9q0 5 4.5 10
t11.5 6q11 2 32 2h46h49t39 -2q14 -2 14 -15t-14 -13q-19 1 -39.5 1.5t-41.5 0.5q-22 0 -43 -0.5t-42 -1.5z" />
    <glyph glyph-name="Ubreve" unicode="&#x16c;" horiz-adv-x="760" 
d="M604 -99q-46 0 -46 102t45 250q-133 -147 -228 -216t-160 -69q-112 0 -112 135q0 144 109 344q46 84 87 125q11 11 23 21.5t21 10.5q21 0 21 -19q0 -7 -8 -12q-26 -18 -56 -54t-62 -91q-27 -45 -50.5 -100.5t-37.5 -111.5t-14 -104q0 -112 81 -112q38 0 80.5 24t85 59.5
t77.5 69.5q36 35 62.5 62t52 55.5t57.5 66.5l18 47q13 33 24 57.5t19 40.5q71 137 102 137q8 0 11.5 -9.5t3.5 -22.5q0 -19 -12.5 -48t-31 -61.5t-37 -61t-31.5 -46.5l-36 -49q-4 -8 -14 -35.5t-24 -74.5q-31 -100 -31 -197q0 -82 17 -82q3 0 4 1.5t4 1.5q8 0 8 -13
q0 -21 -22 -21zM560 658q-42 0 -64 16t-22 42q0 15 4.5 26.5t16.5 11.5q9 0 9 -9q0 -5 -1 -9.5t-1 -9.5q0 -19 14.5 -28t53.5 -9q35 0 66 14.5t47 41.5q3 5 8.5 7t9.5 2q5 0 9 -3t2 -7q-14 -41 -57 -63.5t-95 -22.5z" />
    <glyph glyph-name="ubreve" unicode="&#x16d;" horiz-adv-x="469" 
d="M339 -34q-49 0 -49 71q0 38 18 92q-121 -141 -190 -141q-57 0 -57 69q0 26 8.5 62.5t23 75.5t31.5 73t34 55q6 7 15 7q5 0 10 -3.5t5 -10.5q0 -6 -7 -17q-45 -74 -64 -129q-24 -63 -24 -109q0 -43 22 -43q14 0 37 14t47.5 34.5t42.5 38.5q50 53 90 113q18 28 32.5 54.5
t26.5 55.5q5 11 8.5 16.5t10.5 5.5q21 0 21 -16q0 -10 -7 -14q-102 -207 -102 -285q0 -21 4 -29.5t14 -8.5q14 0 43.5 18t69.5 55l105 96q8 8 15 8q16 0 16 -15q0 -13 -63 -70q-27 -25 -48 -42t-39 -30q-34 -24 -60 -37.5t-40 -13.5zM300 405q-27 0 -46.5 16t-19.5 42
q0 15 4.5 26.5t16.5 11.5q9 0 9 -9q0 -5 -1 -9.5t-1 -9.5q0 -37 48 -37q70 0 103 56q3 5 8.5 7t9.5 2q5 0 9 -3t2 -7q-14 -41 -52 -63.5t-90 -22.5z" />
    <glyph glyph-name="Uring" unicode="&#x16e;" horiz-adv-x="760" 
d="M604 -99q-46 0 -46 102t45 250q-133 -147 -228 -216t-160 -69q-112 0 -112 135q0 144 109 344q46 84 87 125q11 11 23 21.5t21 10.5q21 0 21 -19q0 -7 -8 -12q-26 -18 -56 -54t-62 -91q-27 -45 -50.5 -100.5t-37.5 -111.5t-14 -104q0 -112 81 -112q38 0 80.5 24t85 59.5
t77.5 69.5q36 35 62.5 62t52 55.5t57.5 66.5l18 47q13 33 24 57.5t19 40.5q71 137 102 137q8 0 11.5 -9.5t3.5 -22.5q0 -19 -12.5 -48t-31 -61.5t-37 -61t-31.5 -46.5l-36 -49q-4 -8 -14 -35.5t-24 -74.5q-31 -100 -31 -197q0 -82 17 -82q3 0 4 1.5t4 1.5q8 0 8 -13
q0 -21 -22 -21zM554 658q-25 0 -37 15t-12 35q0 27 21 52.5t61 25.5q28 0 42 -15.5t14 -36.5q0 -27 -22.5 -51.5t-66.5 -24.5zM567 683q23 0 34 14t11 31q0 31 -29 31q-22 0 -35 -14.5t-13 -32.5q0 -13 10 -21t22 -8z" />
    <glyph glyph-name="uring" unicode="&#x16f;" horiz-adv-x="469" 
d="M339 -34q-49 0 -49 71q0 38 18 92q-121 -141 -190 -141q-57 0 -57 69q0 26 8.5 62.5t23 75.5t31.5 73t34 55q6 7 15 7q5 0 10 -3.5t5 -10.5q0 -6 -7 -17q-45 -74 -64 -129q-24 -63 -24 -109q0 -43 22 -43q14 0 37 14t47.5 34.5t42.5 38.5q50 53 90 113q18 28 32.5 54.5
t26.5 55.5q5 11 8.5 16.5t10.5 5.5q21 0 21 -16q0 -10 -7 -14q-102 -207 -102 -285q0 -21 4 -29.5t14 -8.5q14 0 43.5 18t69.5 55l105 96q8 8 15 8q16 0 16 -15q0 -13 -63 -70q-27 -25 -48 -42t-39 -30q-34 -24 -60 -37.5t-40 -13.5zM295 405q-24 0 -35.5 14.5t-11.5 33.5
q0 26 20.5 50t57.5 24q27 0 40.5 -15t13.5 -35q0 -25 -21.5 -48.5t-63.5 -23.5zM307 429q22 0 32.5 13.5t10.5 29.5q0 29 -27 29q-22 0 -34 -14t-12 -31q0 -13 9.5 -20t20.5 -7z" />
    <glyph glyph-name="Uhungarumlaut" unicode="&#x170;" horiz-adv-x="760" 
d="M604 -99q-46 0 -46 102t45 250q-133 -147 -228 -216t-160 -69q-112 0 -112 135q0 144 109 344q46 84 87 125q11 11 23 21.5t21 10.5q21 0 21 -19q0 -7 -8 -12q-26 -18 -56 -54t-62 -91q-27 -45 -50.5 -100.5t-37.5 -111.5t-14 -104q0 -112 81 -112q38 0 80.5 24t85 59.5
t77.5 69.5q36 35 62.5 62t52 55.5t57.5 66.5l18 47q13 33 24 57.5t19 40.5q71 137 102 137q8 0 11.5 -9.5t3.5 -22.5q0 -19 -12.5 -48t-31 -61.5t-37 -61t-31.5 -46.5l-36 -49q-4 -8 -14 -35.5t-24 -74.5q-31 -100 -31 -197q0 -82 17 -82q3 0 4 1.5t4 1.5q8 0 8 -13
q0 -21 -22 -21zM590 658q-9 0 -13 7q-1 4 0 10q4 11 12 32.5t17.5 45.5t15.5 42q5 14 15 17q1 0 1.5 0.5t1.5 0.5q10 0 14 -8q2 -2 2 -7q0 -6 -3 -12q-4 -12 -19.5 -47.5t-32.5 -73.5q-3 -4 -6 -6q-1 -1 -5 -1zM523 658q-9 0 -13 7q-1 4 0 10q4 11 12 32.5t17.5 45.5
t15.5 42q5 14 15 17q1 0 1.5 0.5t1.5 0.5q10 0 14 -8q2 -2 2 -7q0 -6 -3 -12q-4 -12 -19.5 -47.5t-32.5 -73.5q-3 -4 -6 -6q-1 -1 -5 -1z" />
    <glyph glyph-name="uhungarumlaut" unicode="&#x171;" horiz-adv-x="469" 
d="M339 -34q-49 0 -49 71q0 38 18 92q-121 -141 -190 -141q-57 0 -57 69q0 26 8.5 62.5t23 75.5t31.5 73t34 55q6 7 15 7q5 0 10 -3.5t5 -10.5q0 -6 -7 -17q-45 -74 -64 -129q-24 -63 -24 -109q0 -43 22 -43q14 0 37 14t47.5 34.5t42.5 38.5q50 53 90 113q18 28 32.5 54.5
t26.5 55.5q5 11 8.5 16.5t10.5 5.5q21 0 21 -16q0 -10 -7 -14q-102 -207 -102 -285q0 -21 4 -29.5t14 -8.5q14 0 43.5 18t69.5 55l105 96q8 8 15 8q16 0 16 -15q0 -13 -63 -70q-27 -25 -48 -42t-39 -30q-34 -24 -60 -37.5t-40 -13.5zM330 405q-9 0 -13 7q-1 4 0 10
q4 11 12 32.5t17.5 45.5t15.5 42q5 14 15 17q1 0 1.5 0.5t1.5 0.5q10 0 14 -8q2 -2 2 -7q0 -6 -3 -12q-4 -12 -19.5 -47.5t-32.5 -73.5q-3 -4 -6 -6q-1 -1 -5 -1zM263 405q-9 0 -13 7q-1 4 0 10q4 11 12 32.5t17.5 45.5t15.5 42q5 14 15 17q1 0 1.5 0.5t1.5 0.5q10 0 14 -8
q2 -2 2 -7q0 -6 -3 -12q-4 -12 -19.5 -47.5t-32.5 -73.5q-3 -4 -6 -6q-1 -1 -5 -1z" />
    <glyph glyph-name="Uogonek" unicode="&#x172;" horiz-adv-x="760" 
d="M604 -99q-46 0 -46 102t45 250q-133 -147 -228 -216t-160 -69q-112 0 -112 135q0 144 109 344q46 84 87 125q11 11 23 21.5t21 10.5q21 0 21 -19q0 -7 -8 -12q-26 -18 -56 -54t-62 -91q-27 -45 -50.5 -100.5t-37.5 -111.5t-14 -104q0 -112 81 -112q38 0 80.5 24t85 59.5
t77.5 69.5q36 35 62.5 62t52 55.5t57.5 66.5l18 47q13 33 24 57.5t19 40.5q71 137 102 137q8 0 11.5 -9.5t3.5 -22.5q0 -19 -12.5 -48t-31 -61.5t-37 -61t-31.5 -46.5l-36 -49q-4 -8 -14 -35.5t-24 -74.5q-31 -100 -31 -197q0 -82 17 -82q3 0 4 1.5t4 1.5q8 0 8 -13
q0 -21 -22 -21zM590 -232q-28 0 -46.5 17t-18.5 39q0 23 10 44t22.5 36.5t19.5 20.5q6 5 14 5q12 0 12 -9q0 -4 -4 -8q-12 -13 -27 -35t-15 -43q0 -18 12.5 -28t31.5 -10q12 0 23.5 3t19.5 7q6 2 8 2q10 0 10 -10q0 -7 -6 -12q-7 -6 -25 -12.5t-41 -6.5z" />
    <glyph glyph-name="uogonek" unicode="&#x173;" horiz-adv-x="469" 
d="M339 -34q-49 0 -49 71q0 38 18 92q-121 -141 -190 -141q-57 0 -57 69q0 26 8.5 62.5t23 75.5t31.5 73t34 55q6 7 15 7q5 0 10 -3.5t5 -10.5q0 -6 -7 -17q-45 -74 -64 -129q-24 -63 -24 -109q0 -43 22 -43q14 0 37 14t47.5 34.5t42.5 38.5q50 53 90 113q18 28 32.5 54.5
t26.5 55.5q5 11 8.5 16.5t10.5 5.5q21 0 21 -16q0 -10 -7 -14q-102 -207 -102 -285q0 -21 4 -29.5t14 -8.5q14 0 43.5 18t69.5 55l105 96q8 8 15 8q16 0 16 -15q0 -13 -63 -70q-27 -25 -48 -42t-39 -30q-34 -24 -60 -37.5t-40 -13.5zM343 -176q-28 0 -46.5 17t-18.5 39
q0 23 10 44t22.5 36.5t19.5 20.5q6 5 14 5q12 0 12 -9q0 -4 -4 -8q-12 -13 -27 -35t-15 -43q0 -18 12.5 -28t31.5 -10q12 0 23.5 3t19.5 7q6 2 8 2q10 0 10 -10q0 -7 -6 -12q-7 -6 -25 -12.5t-41 -6.5z" />
    </font>
</defs>
</svg>
