<?xml version="1.0" standalone="no"?>
<!DOCTYPE svg PUBLIC "-//W3C//DTD SVG 1.1//EN" "http://www.w3.org/Graphics/SVG/1.1/DTD/svg11.dtd" >
<svg xmlns="http://www.w3.org/2000/svg" xmlns:xlink="http://www.w3.org/1999/xlink" version="1.1">
<metadata>
Created by FontForge 20201107 at Wed Nov 27 11:28:21 2024
 By 
Copyright 2023 The Playwrite Project Authors (https://github.com/TypeTogether/Playwrite)
</metadata>
<defs>
<font id="PlaywriteAUTAS-Regular" horiz-adv-x="0" >
  <font-face 
    font-family="Playwrite AU TAS"
    font-weight="400"
    font-stretch="normal"
    units-per-em="1000"
    panose-1="0 0 0 0 0 0 0 0 0 0"
    ascent="800"
    descent="-200"
    x-height="500"
    cap-height="1015"
    bbox="-715 -519 1785.9 1473"
    underline-thickness="50"
    underline-position="-125"
    unicode-range="U+000D-25CC"
  />
<missing-glyph horiz-adv-x="935" 
d="M382 1013h668l-330 -1013h-668zM445 933l-279 -853h492l278 853h-491z" />
    <glyph glyph-name=".notdef" horiz-adv-x="935" 
d="M382 1013h668l-330 -1013h-668zM445 933l-279 -853h492l278 853h-491z" />
    <glyph glyph-name=".null" 
 />
    <glyph glyph-name="nonmarkingreturn" horiz-adv-x="333" 
 />
    <glyph glyph-name="CR" unicode="&#xd;" horiz-adv-x="300" 
 />
    <glyph glyph-name="space" unicode=" " horiz-adv-x="300" 
 />
    <glyph glyph-name="exclam" unicode="!" horiz-adv-x="388" 
d="M185 216q-44 0 -35 28l231 744q5 14 18 20.5t35 6.5q44 0 35 -27l-231 -744q-5 -14 -18 -21t-35 -7zM123 -14q-21 0 -35 13.5t-14 38.5q-1 27 16.5 51t54.5 24q21 0 34.5 -13t14.5 -39q1 -27 -16 -51t-55 -24z" />
    <glyph glyph-name="quotedbl" unicode="&#x22;" horiz-adv-x="336" 
d="M232 711q-22 0 -23 9.5t2 21.5l57 223q4 16 17.5 28t38.5 12q28 0 35.5 -12t1.5 -28l-87 -223q-5 -12 -14.5 -21.5t-27.5 -9.5zM399 711q-22 0 -23 9.5t2 21.5l57 223q4 16 17.5 28t38.5 12q28 0 35.5 -12t1.5 -28l-87 -223q-5 -12 -14.5 -21.5t-27.5 -9.5z" />
    <glyph glyph-name="numbersign" unicode="#" horiz-adv-x="925" 
d="M176 -19q-40 11 -30 39l79 208h-175q-15 0 -18.5 9t3.5 31q8 23 16.5 31.5t23.5 8.5h180l97 258h-162q-15 0 -18.5 9t3.5 31q8 23 16.5 31.5t23.5 8.5h167l88 232q12 26 53 16q40 -12 30 -39l-79 -209h252l88 232q10 26 52 16q41 -12 30 -39l-79 -209h181q15 0 19 -8.5
t-4 -31.5q-7 -22 -16 -31t-24 -9h-186l-97 -258h168q15 0 19 -8.5t-4 -31.5q-7 -22 -16 -31t-24 -9h-173l-87 -230q-11 -26 -53 -17q-19 5 -27 15t-3 24l79 208h-253l-87 -230q-11 -26 -53 -17zM346 308h253l97 258h-252z" />
    <glyph glyph-name="dollar" unicode="$" horiz-adv-x="748" 
d="M337 -20q-52 0 -96.5 12.5t-81.5 34t-66 48t-51 54.5q-8 12 -2.5 22.5t15.5 20.5q13 11 24 14t21 -8q26 -29 61 -54.5t79.5 -42t97.5 -16.5q55 0 102.5 14t83 40.5t55 66t19.5 90.5q0 33 -10.5 60t-30 50t-48.5 43.5t-67 41.5q-35 19 -66.5 40t-57 45t-44 52.5
t-28.5 63.5t-10 78q0 58 22.5 106.5t64.5 84t100.5 55t131.5 19.5q56 0 104 -16.5t87 -43.5t70 -58q10 -10 8 -21.5t-16 -23.5q-11 -11 -22.5 -13t-22.5 6q-26 22 -55.5 41.5t-66.5 31.5t-87 12q-48 0 -89.5 -11.5t-72 -34t-47 -56t-16.5 -77.5q0 -36 8.5 -63.5t27.5 -50.5
t50 -45t76 -46q48 -25 84.5 -52.5t62 -60t39 -71t13.5 -84.5q0 -67 -26.5 -121t-74 -94t-112 -61.5t-140.5 -21.5zM235 -150q-41 0 -32 28l409 1256q9 27 49 27t31 -27l-409 -1256q-9 -28 -48 -28z" />
    <glyph glyph-name="percent" unicode="%" horiz-adv-x="915" 
d="M347 578q-50 0 -85.5 21t-54 57.5t-18.5 81.5q0 36 11 74t31 74.5t48.5 65.5t65 46t79.5 17q51 0 86 -20t53.5 -55t18.5 -80q0 -34 -10.5 -72t-30.5 -75.5t-48 -68t-65 -48.5t-81 -18zM357 654q26 0 47.5 12.5t38.5 34t29 47.5t18 53.5t6 52.5q0 44 -21.5 64.5
t-57.5 20.5q-27 0 -49.5 -13t-40 -34.5t-29 -47.5t-18 -52.5t-6.5 -49.5q0 -43 22.5 -65.5t60.5 -22.5zM125 -9q-10 -11 -20.5 -11.5t-25.5 11.5q-16 13 -16.5 22t10.5 21l863 971q11 11 21.5 11.5t24.5 -11.5q15 -12 16.5 -21t-9.5 -21zM651 -19q-51 0 -86 21t-53.5 57.5
t-18.5 81.5q0 36 10.5 74t30.5 74.5t49 65.5t65 46t79 17q51 0 86 -20t53.5 -54.5t18.5 -79.5q0 -34 -10.5 -72.5t-30 -75.5t-48 -67.5t-65 -49t-80.5 -18.5zM660 58q26 0 47.5 12.5t38.5 34t29 47.5t18 53.5t6 51.5q0 44 -21.5 64.5t-56.5 20.5q-28 0 -50.5 -13t-40 -34
t-29 -47t-17.5 -52.5t-6 -50.5q0 -43 22 -65t60 -22z" />
    <glyph glyph-name="ampersand" unicode="&#x26;" horiz-adv-x="947" 
d="M355 -19q-60 0 -108 19.5t-82 54.5t-52 81.5t-18 99.5q0 72 22.5 125t61 92.5t87 68.5t100.5 52q-13 27 -23 53.5t-15 54t-5 54.5q0 58 19 109t53.5 89t82 59.5t105.5 21.5q43 0 79.5 -13.5t63.5 -38t42 -58.5t15 -75q0 -49 -16 -87t-44.5 -67.5t-66 -52.5t-80.5 -42
t-87 -38l187 -298q40 53 74 119t60 144q5 16 17 22.5t34 6.5q23 0 32 -7.5t4 -22.5q-33 -101 -77.5 -184.5t-98.5 -147.5l81 -130q9 -14 5.5 -25.5t-24.5 -25.5q-19 -14 -32.5 -13.5t-21.5 14.5l-72 114q-68 -63 -145 -95.5t-157 -32.5zM365 64q62 0 126 29t123 84l-209 331
q-44 -20 -83 -44.5t-69 -55t-47.5 -71t-17.5 -92.5q0 -54 21 -95t60.5 -63.5t95.5 -22.5zM449 608q39 15 74.5 31t66.5 34t53.5 39.5t35 48t12.5 60.5q0 35 -14 60t-40 38.5t-62 13.5q-52 0 -87.5 -25t-54 -68t-18.5 -97q0 -24 4 -47t12 -45t18 -43z" />
    <glyph glyph-name="quotesingle" unicode="'" horiz-adv-x="169" 
d="M232 711q-22 0 -23 9.5t2 21.5l57 223q4 16 17.5 28t38.5 12q28 0 35.5 -12t1.5 -28l-87 -223q-5 -12 -14.5 -21.5t-27.5 -9.5z" />
    <glyph glyph-name="parenleft" unicode="(" horiz-adv-x="326" 
d="M505 1019q-49 -61 -92.5 -132t-79.5 -147.5t-63 -156.5t-43 -162q-20 -80 -30.5 -159.5t-10 -152.5t11.5 -136q4 -27 -4 -37t-30 -14q-20 -3 -32 1.5t-15 23.5q-13 77 -14.5 156.5t9 160.5t31.5 162q16 81 40.5 162t59.5 161.5t81.5 158t104.5 151.5q18 22 33 25t37 -10
q17 -10 20.5 -21.5t-14.5 -33.5z" />
    <glyph glyph-name="parenright" unicode=")" horiz-adv-x="326" 
d="M-17 -20q49 61 92.5 132t79 147.5t62.5 157t43 161.5q22 81 32.5 160t10 152t-12.5 136q-5 27 3.5 37t30.5 14q20 3 32 -1t15 -24q13 -77 14.5 -156t-9 -160t-32.5 -163q-16 -81 -40.5 -162t-59 -161.5t-81 -158t-105.5 -151.5q-17 -21 -32 -24.5t-37 9.5
q-17 11 -20.5 22.5t14.5 32.5z" />
    <glyph glyph-name="asterisk" unicode="*" horiz-adv-x="358" 
d="M308 629q-31 0 -25 19l45 137l-132 -44q-10 -2 -17 2t-11 17q-7 26 11 33l139 46l-104 97q-7 7 -6.5 15t10.5 18q8 8 17 10.5t17 -5.5l105 -99l41 125q3 10 11 14.5t22 4.5q29 0 25 -19l-42 -130l139 46q11 4 16.5 -0.5t9.5 -16.5q8 -26 -10 -33l-149 -50l102 -95
q8 -7 7 -15t-12 -16q-8 -9 -16 -11.5t-17 4.5l-101 94l-42 -129q-6 -19 -33 -19z" />
    <glyph glyph-name="plus" unicode="+" horiz-adv-x="763" 
d="M355 151q-31 0 -39.5 10t-1.5 29l161 501q7 21 16.5 27t28.5 6q31 0 39.5 -9.5t1.5 -29.5l-161 -501q-7 -21 -16 -27t-29 -6zM161 398q-11 0 -15 10t3 32q11 38 36 38h538q11 0 15 -10t-3 -33q-10 -37 -36 -37h-538z" />
    <glyph glyph-name="comma" unicode="," horiz-adv-x="313" 
d="M-19 -201q-10 0 -21.5 10t-11.5 20q0 5 1.5 10t5.5 10q30 39 48.5 71t27.5 63t10 63q2 19 15 31.5t38 12.5q24 0 35.5 -11.5t11.5 -28.5q0 -38 -17.5 -83t-47 -86t-66.5 -69q-8 -7 -15.5 -10t-13.5 -3z" />
    <glyph glyph-name="hyphen" unicode="-" horiz-adv-x="576" 
d="M143 301q-15 0 -18.5 9t3.5 31q8 23 16.5 31.5t23.5 8.5h325q15 0 19 -8.5t-4 -31.5q-7 -22 -16 -31t-24 -9h-325z" />
    <glyph glyph-name="period" unicode="." horiz-adv-x="313" 
d="M80 -34q-29 0 -43 14t-14 39q0 37 16.5 57t50.5 20q30 0 44.5 -14t14.5 -38q0 -37 -17 -57.5t-52 -20.5z" />
    <glyph glyph-name="slash" unicode="/" horiz-adv-x="363" 
d="M-65 -75q-19 6 -27.5 15.5t0.5 23.5l621 1095q8 14 24.5 18t35.5 -2q19 -5 27.5 -15t0.5 -24l-622 -1095q-8 -13 -24 -17t-36 1z" />
    <glyph glyph-name="zero" unicode="0" horiz-adv-x="846" 
d="M365 -19q-76 0 -136 32t-95 99.5t-35 172.5q0 79 17 163.5t49.5 166.5t80 154t108 127.5t134 87t158.5 31.5q75 0 134.5 -32.5t94 -98.5t34.5 -167q0 -80 -17 -166t-49 -168.5t-79 -154.5t-107.5 -127.5t-134 -87.5t-157.5 -32zM386 67q61 0 116.5 27t103.5 75
t86.5 110.5t65.5 133t41.5 142.5t14.5 139q0 87 -23 138t-65.5 74t-100.5 23q-62 0 -118.5 -27t-104.5 -75t-86.5 -110t-65.5 -131.5t-41.5 -141t-14.5 -136.5q0 -91 24 -144t67 -75t101 -22z" />
    <glyph glyph-name="one" unicode="1" horiz-adv-x="499" 
d="M191 -14q-21 0 -31 7.5t-5 22.5l278 865q-29 -20 -58.5 -39t-57 -35.5t-52.5 -29.5q-22 -11 -37 -10.5t-26 23.5q-9 22 -1.5 34t31.5 25q31 17 66 38t69.5 45t63.5 47q18 15 30 22.5t25 10.5t34 3q20 0 30 -7.5t5 -22.5l-309 -971q-4 -16 -18 -22t-37 -6z" />
    <glyph glyph-name="two" unicode="2" horiz-adv-x="736" 
d="M3 0q-14 0 -21.5 11t-6 26t15.5 26l309 243q76 60 137.5 111t109 96t82 85t57 75t33.5 68t11 64q0 43 -18.5 71t-55 42t-89.5 14q-70 0 -126 -25.5t-115 -67.5q-20 -16 -34.5 -15.5t-30.5 19.5q-13 14 -9.5 27t26.5 32q37 32 85.5 57.5t105.5 40.5t117 15q51 0 93.5 -14
t73.5 -40t48 -63t17 -82q0 -40 -12 -80.5t-36 -82.5t-62.5 -87.5t-91 -95.5t-120.5 -107.5t-151 -123.5l-202 -159h443q10 0 14.5 -5t4.5 -15q0 -27 -12.5 -43.5t-27.5 -16.5h-562z" />
    <glyph glyph-name="three" unicode="3" horiz-adv-x="756" 
d="M333 -19q-65 0 -122 24.5t-100 66.5t-67 98q-11 27 -11.5 40.5t23.5 24.5q21 11 31.5 7t20.5 -27q25 -49 58 -83.5t77 -52.5t103 -18q65 0 115 19.5t84 54t51.5 81t17.5 99.5q0 55 -23 96t-66.5 63.5t-104.5 22.5h-66q-11 0 -15 9.5t1 30.5q6 20 16 30t21 10h59
q60 0 111.5 13.5t89.5 40.5t59.5 68.5t21.5 95.5q0 34 -11.5 60t-33 44t-51.5 27t-68 9q-40 0 -77 -10.5t-72 -31t-68 -50.5q-19 -17 -30.5 -17t-30.5 17q-16 16 -12 28.5t24 34.5q32 32 77 56.5t97 38.5t107 14q49 0 92 -14.5t76.5 -42.5t52.5 -67.5t19 -89.5
q0 -53 -15.5 -97.5t-45 -80t-74.5 -60t-105 -36.5q43 -14 73.5 -44t47 -71.5t16.5 -90.5q0 -71 -26.5 -133t-76 -108.5t-118.5 -72.5t-152 -26z" />
    <glyph glyph-name="four" unicode="4" horiz-adv-x="770" 
d="M488 -14q-22 0 -33 7t-6 23l82 250h-449q-22 0 -27 20t11 38l569 664q13 15 27 21.5t38 5.5q15 -2 26.5 -6.5t13.5 -14t-12 -25.5l-538 -623h367l107 326q9 28 51 28q23 0 33.5 -7t5.5 -23l-106 -324h103q10 0 14.5 -5.5t4.5 -14.5q0 -28 -12.5 -44t-27.5 -16h-108
l-83 -252q-9 -28 -51 -28z" />
    <glyph glyph-name="five" unicode="5" horiz-adv-x="756" 
d="M339 -19q-40 0 -80 9t-77 27.5t-70.5 46t-61.5 63.5q-17 23 -21 37t15 30t30.5 14.5t28.5 -20.5q35 -42 71.5 -70t80.5 -41.5t100 -13.5q69 0 122 25.5t89.5 70t55.5 102.5t19 122q0 41 -9.5 73t-29.5 55t-52 35t-77 12q-44 0 -84 -10.5t-75.5 -28.5t-67.5 -42
q-15 -11 -35.5 -14.5t-32.5 6.5t-2 39l164 467q3 8 11.5 15.5t22.5 7.5h483q9 0 14 -5.5t5 -14.5q0 -28 -12.5 -44t-27.5 -16h-433l-120 -341q28 18 60 31.5t66 21.5t68 8q83 0 140 -31.5t86.5 -87t29.5 -124.5q0 -99 -29.5 -176t-83 -130t-125 -80.5t-156.5 -27.5z" />
    <glyph glyph-name="six" unicode="6" horiz-adv-x="812" 
d="M409 -19q-84 0 -146 38.5t-95.5 112.5t-33.5 181q0 112 32.5 212.5t92.5 184.5t143.5 148t185.5 103.5t218 50.5q25 3 36 -2.5t13 -28.5q2 -26 -8.5 -33.5t-33.5 -10.5q-109 -12 -200 -49.5t-163.5 -96t-122 -133.5t-76 -161t-26.5 -179q0 -67 14.5 -116t41 -80t62.5 -46
t78 -15q63 0 114 23t87.5 65t55.5 97.5t19 118.5q0 55 -21 95t-59.5 61.5t-90.5 21.5q-39 0 -77.5 -13t-73.5 -35.5t-65.5 -51t-55 -59t-42.5 -58.5l-27 63q30 50 68.5 93t84.5 74.5t98 49.5t107 18q56 0 101 -18t77 -50.5t49.5 -77t17.5 -96.5q0 -89 -27 -162.5t-77.5 -127
t-120 -82.5t-154.5 -29z" />
    <glyph glyph-name="seven" unicode="7" horiz-adv-x="613" 
d="M85 -14q-35 0 -39.5 14t13.5 39l627 879h-446q-10 0 -14.5 5t-4.5 15q0 27 12.5 43.5t27.5 16.5h525q14 0 25 -15.5t-5 -38.5l-653 -915q-14 -21 -29.5 -32t-38.5 -11z" />
    <glyph glyph-name="eight" unicode="8" horiz-adv-x="756" 
d="M332 -19q-63 0 -116 16.5t-91 47.5t-59 74.5t-21 97.5q0 57 24.5 106t69.5 90t106 74t133 56q-49 33 -78.5 69.5t-42.5 74.5t-13 74q0 60 24 106.5t67.5 80t103.5 50.5t132 17q54 0 101.5 -14t82.5 -39.5t55 -61.5t20 -80q0 -53 -20.5 -97t-56.5 -79t-84.5 -62
t-105.5 -47q46 -31 81 -70t54.5 -84.5t19.5 -96.5q0 -74 -29.5 -130.5t-82 -95t-123 -58t-151.5 -19.5zM352 62q57 0 106.5 15t87.5 43.5t59 68.5t21 90q0 49 -20.5 88t-58.5 72t-92 60q-67 -22 -125 -51.5t-101.5 -64.5t-68 -76.5t-24.5 -88.5q0 -42 19.5 -71t50.5 -48
t69 -28t77 -9zM487 577q77 25 133 60t87.5 77t31.5 86q0 34 -15.5 59.5t-41 42t-58.5 24.5t-69 8q-45 0 -84.5 -10t-70 -30.5t-48 -51.5t-17.5 -74t20.5 -77.5t55.5 -62.5t76 -51z" />
    <glyph glyph-name="nine" unicode="9" horiz-adv-x="812" 
d="M566 1019q85 0 146.5 -38.5t95 -112.5t33.5 -181q0 -112 -32.5 -212.5t-92.5 -184.5t-143.5 -148t-185.5 -103.5t-218 -50.5q-25 -3 -36 2.5t-13 28.5q-1 26 9 33.5t33 10.5q109 12 200.5 49.5t163.5 96t121.5 133.5t76 161t26.5 179q0 67 -14.5 116t-41 80t-62 46
t-78.5 15q-63 0 -114 -23t-87.5 -65t-55.5 -97t-19 -119q0 -55 21 -94.5t60 -61.5t90 -22q39 0 77.5 13t73.5 36t65.5 51t55 58.5t42.5 58.5l27 -63q-29 -50 -68 -93t-85 -74.5t-98 -49.5t-107 -18t-100.5 18t-77.5 50.5t-49.5 77t-17.5 96.5q0 89 27 162.5t77.5 127
t120 82.5t154.5 29z" />
    <glyph glyph-name="colon" unicode=":" horiz-adv-x="313" 
d="M80 -34q-29 0 -43 14t-14 39q0 37 16.5 57t50.5 20q30 0 44.5 -14t14.5 -38q0 -37 -17 -57.5t-52 -20.5zM214 402q-29 0 -43 14t-14 39q0 37 16.5 57t50.5 20q30 0 44.5 -14t14.5 -38q0 -37 -17 -57.5t-52 -20.5z" />
    <glyph glyph-name="semicolon" unicode=";" horiz-adv-x="313" 
d="M214 402q-29 0 -43 14t-14 39q0 37 16.5 57t50.5 20q30 0 44.5 -14t14.5 -38q0 -37 -17 -57.5t-52 -20.5zM-6 -201q-10 0 -21.5 10t-11.5 20q0 5 1.5 10t5.5 10q30 39 48.5 71t27.5 63t10 63q2 19 15 31.5t38 12.5q24 0 35.5 -11.5t11.5 -28.5q0 -38 -17.5 -83t-47 -86
t-66.5 -69q-8 -7 -15.5 -10t-13.5 -3z" />
    <glyph glyph-name="less" unicode="&#x3c;" horiz-adv-x="763" 
d="M598 201l-410 202q-18 8 -23 19t-1 23q4 14 12.5 21t27.5 14l527 219q17 8 27 4.5t17 -18.5q11 -25 6.5 -39t-27.5 -23l-453 -185l338 -165q20 -10 21.5 -22.5t-7.5 -31.5q-10 -19 -22.5 -23t-32.5 5z" />
    <glyph glyph-name="equal" unicode="=" horiz-adv-x="763" 
d="M202 523q-11 0 -15 10t3 32q11 38 36 38h538q11 0 15 -10t-3 -33q-10 -37 -36 -37h-538zM121 273q-11 0 -15 10t3 32q11 38 36 38h538q11 0 15 -10t-3 -33q-10 -37 -36 -37h-538z" />
    <glyph glyph-name="greater" unicode="&#x3e;" horiz-adv-x="763" 
d="M161 200q-16 -7 -26.5 -4t-16.5 18q-11 26 -6 39.5t27 22.5l452 185l-337 165q-19 10 -21 22.5t7 31.5q11 20 23.5 23.5t31.5 -5.5l410 -202q18 -8 23 -19t1 -23q-4 -14 -12.5 -20.5t-27.5 -14.5z" />
    <glyph glyph-name="question" unicode="?" horiz-adv-x="562" 
d="M199 215q-21 0 -30 7t-5 21l77 233q4 13 15 20t28 8q94 9 160 40.5t106 76.5t58.5 93.5t18.5 90.5q0 40 -17 69t-49 45t-77 16q-41 0 -80 -13.5t-74 -33.5t-65 -43q-10 -7 -22.5 -2.5t-21.5 18.5q-10 16 -10.5 26.5t12.5 19.5q45 36 89.5 60t88.5 36t85 12
q77 0 128.5 -28t77.5 -75.5t26 -106.5q0 -64 -26.5 -124t-78 -111.5t-127 -88.5t-174.5 -54l-60 -184q-4 -14 -17.5 -21t-35.5 -7zM144 -14q-20 0 -34 13.5t-14 38.5q0 27 17 51t54 24q20 0 34.5 -13t14.5 -39q0 -27 -17 -51t-55 -24z" />
    <glyph glyph-name="at" unicode="@" horiz-adv-x="894" 
d="M253 172q0 44 16 94.5t48 96.5t80 75.5t109 29.5q22 0 46 -6t46 -16l3 2q7 8 16 12t23 4q24 0 32 -8.5t2 -25.5l-87 -260q-7 -22 -4.5 -33.5t18.5 -11.5q45 0 83 21t65 55.5t41.5 77t14.5 85.5q0 79 -35.5 132t-99 80t-147.5 27q-100 0 -176 -35.5t-127.5 -96.5
t-77.5 -135t-26 -151q0 -60 18.5 -111t54 -88.5t86.5 -58t117 -20.5q48 0 95.5 9.5t100.5 26.5q25 8 35 -22q9 -31 -16 -39q-60 -20 -113.5 -28.5t-109.5 -8.5q-77 0 -138.5 25t-105.5 70.5t-67 107t-23 133.5q0 92 32.5 178.5t94.5 156t151.5 110t202.5 40.5q97 0 174 -36
t121.5 -103t44.5 -162q0 -64 -23.5 -120t-64.5 -98.5t-93.5 -67t-110.5 -24.5q-40 0 -58.5 19t-19.5 46q0 8 2 18.5t3 18.5q-43 -52 -84 -77.5t-76 -25.5q-42 0 -67.5 32t-25.5 86zM336 186q0 -18 5 -31.5t13.5 -20t19.5 -6.5q25 0 55.5 24t64 69.5t66.5 109.5l18 51
q-19 7 -38 10t-41 3q-41 0 -72 -22t-51 -55.5t-30 -69t-10 -62.5z" />
    <glyph glyph-name="A" unicode="A" horiz-adv-x="833" 
d="M-15 -14q-26 0 -34 15.5t7 37.5l620 936q14 23 29 31.5t39 8.5q19 0 30.5 -9.5t12.5 -41.5l44 -933q2 -20 -9.5 -32.5t-37.5 -12.5q-22 0 -29 8.5t-9 28.5l-12 262h-416l-170 -259q-18 -26 -28.5 -33t-36.5 -7zM275 365h358l-24 509z" />
    <glyph glyph-name="B" unicode="B" horiz-adv-x="805" 
d="M106 0q-45 0 -35 28l307 942q9 28 54 28h203q75 0 131 -20t87 -61.5t31 -105.5q0 -60 -26.5 -109.5t-71.5 -87t-101.5 -59t-114.5 -24.5l-2 -5q42 -3 80 -17t67.5 -38t46.5 -57.5t17 -75.5q0 -69 -22 -124t-62.5 -95.5t-96 -66.5t-123 -39t-142.5 -13h-227zM176 80h160
q70 0 133 14t112 44.5t77 78.5t28 116q0 31 -14.5 59t-42.5 49.5t-67.5 34t-89.5 12.5h-164zM335 568h148q56 0 110 15.5t98 45.5t70 71.5t26 92.5q0 43 -17.5 70t-57 41t-102.5 14h-161z" />
    <glyph glyph-name="C" unicode="C" horiz-adv-x="861" 
d="M467 -19q-74 0 -133 24t-100 70.5t-63 113.5t-22 151q0 69 16.5 145t49 152t80.5 143.5t112 120.5t143 83.5t174 30.5q63 0 113.5 -14t89 -40.5t65.5 -66.5q8 -11 3.5 -19.5t-18.5 -19.5q-13 -10 -22.5 -11.5t-23.5 10.5q-25 26 -56 42.5t-71 25t-95 8.5
q-69 0 -130.5 -25t-113.5 -69.5t-93 -101.5t-69.5 -121.5t-44 -130.5t-15.5 -127q0 -72 14.5 -126t43.5 -90t74 -54.5t106 -18.5q42 0 79.5 13t73 37t71.5 57.5t74 74.5q12 12 23.5 7.5t21.5 -15.5q14 -14 15 -24t-10 -24q-66 -81 -130.5 -127t-123 -65t-108.5 -19z" />
    <glyph glyph-name="D" unicode="D" horiz-adv-x="965" 
d="M106 0q-44 0 -35 28l307 942q5 14 18 21t35 7h173q95 0 166.5 -24t119 -66t71 -99t23.5 -122q0 -121 -34.5 -225.5t-97 -189.5t-146.5 -145.5t-185.5 -93.5t-212.5 -33h-202zM177 85h131q91 0 176.5 27t158 79t127 126t84.5 167t30 202q0 53 -19.5 95.5t-56.5 71.5
t-89 44.5t-116 15.5h-156z" />
    <glyph glyph-name="E" unicode="E" horiz-adv-x="736" 
d="M116 0q-25 0 -35 9t-4 31l300 930q4 14 15.5 21t31.5 7h481q11 0 15 -10t-2 -30q-5 -20 -15 -30t-21 -10h-434l-113 -350h360q11 0 15 -10t-1 -30q-6 -20 -16 -30t-21 -10h-363l-130 -408h429q11 0 15.5 -9.5t-1.5 -30.5q-5 -19 -15 -29.5t-21 -10.5h-470z" />
    <glyph glyph-name="F" unicode="F" horiz-adv-x="694" 
d="M101 -14q-43 0 -34 28l310 956q5 14 18.5 21t35.5 7h464q11 0 15 -10t-1 -30q-6 -20 -15.5 -30t-20.5 -10h-425l-124 -379h361q11 0 14.5 -11t-3.5 -31q-6 -19 -16 -28.5t-21 -9.5h-360l-143 -445q-5 -14 -19.5 -21t-35.5 -7z" />
    <glyph glyph-name="G_locl.au" unicode="G" horiz-adv-x="974" 
d="M370 -17q-51 0 -94.5 20t-75.5 58t-49.5 93t-17.5 124q0 94 23 185t65.5 173.5t101 151t128.5 120t148.5 79.5t161.5 28q58 0 108 -14t91.5 -42t71.5 -71q11 -15 7 -28t-21 -23q-16 -11 -26.5 -8t-21.5 15q-29 32 -63.5 51t-73 27t-82.5 8q-69 0 -135 -26t-125 -72.5
t-107.5 -108.5t-84 -135t-55 -152t-19.5 -158q0 -55 13 -94.5t35.5 -65t51.5 -38t62 -12.5q56 0 115.5 28.5t121.5 84t124.5 137.5t125.5 188q5 14 18 20.5t34 6.5q45 0 35 -27l-161 -492q-4 -14 -17 -21t-35 -7q-46 0 -36 28l85 257q-53 -71 -107 -125t-107.5 -90.5
t-107 -54.5t-105.5 -18z" />
    <glyph glyph-name="H" unicode="H" horiz-adv-x="985" 
d="M102 -14q-44 0 -35 28l316 974q5 14 18 20.5t34 6.5q46 0 35 -27l-137 -425h523l137 425q5 14 18 20.5t35 6.5q45 0 35 -27l-316 -974q-4 -14 -17 -21t-35 -7q-44 0 -35 28l152 469h-523l-152 -469q-4 -14 -17.5 -21t-35.5 -7z" />
    <glyph glyph-name="I" unicode="I" horiz-adv-x="375" 
d="M107 -14q-23 0 -33.5 7t-6.5 23l313 972q5 14 17.5 20.5t34.5 6.5q23 0 33 -7t5 -23l-313 -971q-4 -14 -16 -21t-34 -7z" />
    <glyph glyph-name="J" unicode="J" horiz-adv-x="721" 
d="M272 -19q-53 0 -105.5 23.5t-91 68t-49.5 106.5q-3 18 4.5 26t26.5 12q23 5 34 -0.5t16 -25.5q11 -38 34 -66.5t57 -43.5t75 -15q34 0 63.5 7t56.5 22.5t50.5 42t43.5 65.5t38 94l224 691q5 14 18 20.5t35 6.5q21 0 30.5 -6.5t4.5 -20.5l-226 -696q-22 -69 -49.5 -120.5
t-59 -88t-68 -59t-77 -33t-85.5 -10.5z" />
    <glyph glyph-name="K" unicode="K" horiz-adv-x="764" 
d="M101 -16q-22 0 -30.5 7t-4.5 22l317 974q9 28 53 28q45 0 35 -28l-134 -411l539 423q19 15 31.5 13t25.5 -20t11.5 -29t-22.5 -26l-540 -419q45 -94 91 -174.5t96 -152.5t108 -145q14 -18 10 -30t-25 -28q-15 -10 -29 -6.5t-23 14.5q-45 58 -87 118.5t-79.5 123
t-70.5 127.5t-62 131l-157 -483q-4 -15 -17.5 -22t-35.5 -7z" />
    <glyph glyph-name="L" unicode="L" horiz-adv-x="694" 
d="M109 0q-45 0 -32 40l306 948q5 14 15 20.5t32 6.5q23 0 34 -7t5 -23l-292 -905h411q11 0 15 -9.5t-2 -30.5q-5 -19 -15 -29.5t-21 -10.5h-456z" />
    <glyph glyph-name="M_locl.au" unicode="M" horiz-adv-x="1165" 
d="M108 -14q-45 0 -36 30l310 970q5 14 18.5 21.5t37.5 7.5q21 0 31.5 -8.5t11.5 -20.5l61 -859l604 859q11 15 25 22t38 7q25 0 36 -8t6 -24l-306 -969q-4 -14 -15 -21t-34 -7q-48 0 -37 30l254 790l-547 -783q-9 -13 -20.5 -18t-30.5 -5t-32 5.5t-14 21.5l-54 781
l-257 -794q-4 -14 -15.5 -21t-34.5 -7z" />
    <glyph glyph-name="N" unicode="N" horiz-adv-x="986" 
d="M102 -14q-44 0 -35 28l316 974q5 14 18 20.5t34 6.5q18 0 27.5 -6.5t14.5 -20.5l248 -829l269 829q5 14 18 20.5t34 6.5q46 0 35 -27l-315 -974q-4 -14 -17.5 -21t-33.5 -7q-16 0 -24 5t-13 23l-251 839l-273 -839q-4 -14 -17 -21t-35 -7z" />
    <glyph glyph-name="O" unicode="O" horiz-adv-x="1027" 
d="M485 -19q-75 0 -136 25.5t-104.5 74t-67 117t-23.5 153.5q0 73 16.5 149.5t48.5 151t78.5 140t108 116t136.5 79t163 28.5q75 0 135.5 -25.5t103 -73.5t66 -116t23.5 -152q0 -78 -17 -157.5t-50 -154t-80 -139t-108 -113t-134.5 -76t-158.5 -27.5zM500 66q68 0 127 24
t108.5 66.5t87.5 98.5t64 120t39.5 130t13.5 130q0 72 -16 127t-48 92.5t-78.5 56.5t-107.5 19q-67 0 -126.5 -24t-108.5 -67t-87.5 -99t-65.5 -119.5t-40.5 -129t-13.5 -128.5q0 -71 16 -126.5t47.5 -93t78.5 -57.5t110 -20z" />
    <glyph glyph-name="P" unicode="P" horiz-adv-x="777" 
d="M107 -14q-48 0 -39 30l309 954q5 14 17 21t34 7h176q100 0 166.5 -24t100 -71.5t33.5 -120.5q0 -84 -31.5 -148t-90 -109t-140 -73.5t-181.5 -41.5q-43 -5 -90 -7.5t-90 -3.5l-125 -385q-5 -14 -15.5 -21t-33.5 -7zM306 479q27 0 58 1.5t62 4.5t59 6q106 17 179 53
t111.5 92.5t38.5 134.5q0 52 -23.5 84.5t-72.5 47.5t-128 15h-142z" />
    <glyph glyph-name="Q" unicode="Q" horiz-adv-x="1027" 
d="M659 -213q-18 -4 -30 4t-18 26l-110 351q-7 20 1 34t29 18q18 5 30 -3.5t17 -26.5l111 -351q8 -19 -0.5 -33t-29.5 -19zM485 -19q-75 0 -136 25.5t-104.5 74t-67 117t-23.5 153.5q0 73 16.5 149.5t48.5 151t78.5 140t108 116t136.5 79t163 28.5q75 0 135.5 -25.5
t103 -73.5t66 -116t23.5 -152q0 -78 -17 -157.5t-50 -154t-80 -139t-108 -113t-134.5 -76t-158.5 -27.5zM500 66q68 0 127 24t108.5 66.5t87.5 98.5t64 120t39.5 130t13.5 130q0 72 -16 127t-48 92.5t-78.5 56.5t-107.5 19q-67 0 -126.5 -24t-108.5 -67t-87.5 -99
t-65.5 -119.5t-40.5 -129t-13.5 -128.5q0 -71 16 -126.5t47.5 -93t78.5 -57.5t110 -20z" />
    <glyph glyph-name="R" unicode="R" horiz-adv-x="770" 
d="M107 -14q-22 0 -32.5 7t-6.5 23l309 954q5 14 17 21t34 7h144q107 0 175.5 -19.5t100.5 -64t32 -120.5q0 -50 -15 -93.5t-44 -80.5t-71.5 -66.5t-98 -51t-122 -34.5t-144.5 -16q35 -70 76 -138t91 -133.5t112 -129.5q8 -8 11.5 -21.5t-19.5 -33.5q-15 -13 -29.5 -10.5
t-26.5 14.5q-59 60 -115.5 133t-105 153t-85.5 157l-138 -429q-5 -14 -15.5 -21t-33.5 -7zM319 522q64 0 120 6t104 17.5t87 28t69 38.5t50.5 49t30.5 58.5t10 67.5q0 51 -20.5 79.5t-71 40t-139.5 11.5h-111z" />
    <glyph glyph-name="S" unicode="S" horiz-adv-x="764" 
d="M343 -20q-52 0 -96.5 12.5t-81 34t-65.5 48t-51 54.5q-9 12 -3.5 22.5t15.5 20.5q14 11 25 14t20 -8q26 -29 61 -54.5t79.5 -42t97.5 -16.5q55 0 102.5 14t83 40.5t55 66t19.5 90.5q0 33 -10.5 60t-30 50t-48.5 43.5t-67 41.5q-35 19 -66 40t-56.5 45t-44 52.5t-29 63.5
t-10.5 78q0 58 22.5 106.5t64.5 84t100.5 55t131.5 19.5q57 0 104.5 -16.5t86.5 -43.5t70 -58q11 -10 8.5 -21.5t-16.5 -23.5q-11 -11 -22.5 -13t-22.5 6q-26 22 -55.5 41.5t-66.5 31.5t-87 12q-48 0 -89.5 -11.5t-71.5 -34t-47 -56t-17 -77.5q0 -36 8.5 -63.5t28 -50.5
t50.5 -45t75 -46q48 -25 85 -52.5t62.5 -60t38.5 -71t13 -84.5q0 -67 -26 -121t-74 -94t-112.5 -61.5t-140.5 -21.5z" />
    <glyph glyph-name="T" unicode="T" horiz-adv-x="766" 
d="M298 -15q-42 0 -35 28l295 905h-294q-15 0 -18.5 9t3.5 31q8 23 17 31.5t24 8.5h673q15 0 18.5 -8.5t-4.5 -31.5q-7 -22 -16 -31t-24 -9h-292l-295 -905q-4 -14 -17 -21t-35 -7z" />
    <glyph glyph-name="U_locl.au" unicode="U" horiz-adv-x="982" 
d="M336 -19q-66 0 -111 24t-68.5 70.5t-22.5 112t27 148.5l208 652q5 14 16.5 20.5t35.5 6.5q23 0 34 -7t6 -23l-214 -660q-21 -66 -24 -114.5t10 -80.5t41.5 -48t69.5 -16q43 0 88.5 15.5t92 46t94.5 77t96.5 108t96.5 138.5l172 537q5 14 17.5 20.5t34.5 6.5t32.5 -8
t5.5 -22l-312 -971q-4 -14 -17 -21t-35 -7t-32 8.5t-6 21.5l73 226q-48 -63 -97.5 -112t-101 -82t-104 -50t-106.5 -17z" />
    <glyph glyph-name="V" unicode="V" horiz-adv-x="805" 
d="M322 -14q-19 0 -30.5 10.5t-11.5 41.5l-24 932q-1 21 11 33t38 12q23 0 29.5 -8t7.5 -28l19 -851l562 847q17 26 28.5 33t36.5 7q26 0 34 -15.5t-7 -36.5l-624 -937q-16 -22 -30 -31t-39 -9z" />
    <glyph glyph-name="W" unicode="W" horiz-adv-x="1323" 
d="M313 -14q-19 0 -30.5 10t-12.5 42l-14 932q-1 21 11 33t37 12q23 0 30 -8t7 -28l10 -843l486 839q16 27 28 33.5t38 6.5q23 0 30.5 -8t7.5 -28l9 -845l492 841q16 26 28 33t37 7q26 0 33.5 -15.5t-6.5 -36.5l-553 -937q-14 -22 -29 -31t-40 -9q-19 0 -30.5 10.5
t-12.5 41.5l-11 806l-477 -818q-13 -22 -28.5 -31t-39.5 -9z" />
    <glyph glyph-name="X" unicode="X" horiz-adv-x="762" 
d="M610 -14q-19 0 -29.5 6t-17.5 28l-117 409l-379 -409q-19 -20 -34.5 -27t-34.5 -7q-13 0 -23.5 7t-11 20.5t15.5 31.5l441 473l-124 438q-7 28 2.5 43.5t31.5 15.5q20 0 30.5 -6t17.5 -28l112 -392l365 392q20 21 35 27.5t34 6.5q13 0 23.5 -7t11 -20t-16.5 -32
l-427 -455l130 -456q8 -27 -2.5 -43t-32.5 -16z" />
    <glyph glyph-name="Y_locl" unicode="Y" horiz-adv-x="762" 
d="M190 4q-14 -17 -28.5 -16.5t-29.5 13.5q-16 14 -17.5 28.5t12.5 30.5l279 337l-152 556q-5 19 1.5 33t27.5 20q24 8 37.5 1.5t18.5 -26.5l134 -502l429 518q14 17 29 18t31 -13q17 -14 18.5 -28.5t-12.5 -31.5z" />
    <glyph glyph-name="Z" unicode="Z" horiz-adv-x="680" 
d="M-34 0q-12 0 -18 9.5t-4.5 23.5t11.5 25l777 860h-444q-11 0 -15.5 9.5t1.5 30.5q5 20 15 30t21 10h548q17 0 22 -20t-11 -38l-778 -860h493q11 0 15 -9.5t-2 -30.5q-5 -19 -15 -29.5t-21 -10.5h-595z" />
    <glyph glyph-name="bracketleft" unicode="[" horiz-adv-x="425" 
d="M637 1035q-7 -22 -17 -31t-25 -9h-111l-322 -990h111q15 0 18.5 -8.5t-4.5 -31.5q-7 -22 -16 -31t-24 -9h-160q-44 0 -35 27l357 1095q9 28 53 28h160q15 0 19 -8.5t-4 -31.5z" />
    <glyph glyph-name="backslash" unicode="\" horiz-adv-x="363" 
d="M309 -76q-22 -2 -33 4t-12 21l-86 1094q-1 15 9.5 23t31.5 10q22 2 34 -4t13 -21l85 -1095q2 -15 -9 -22.5t-33 -9.5z" />
    <glyph glyph-name="bracketright" unicode="]" horiz-adv-x="425" 
d="M-50 -35q8 23 17.5 31.5t24.5 8.5h111l322 990h-111q-15 0 -18 9t4 31q8 23 16.5 31.5t23.5 8.5h160q44 0 35 -27l-357 -1095q-9 -28 -53 -28h-160q-15 0 -18.5 9t3.5 31z" />
    <glyph glyph-name="asciicircum" unicode="^" horiz-adv-x="763" 
d="M243 645l323 339q16 17 28.5 24t28.5 7q17 0 25.5 -7.5t12.5 -23.5l101 -340q6 -19 0 -30.5t-26 -19.5q-22 -8 -34.5 -1.5t-19.5 30.5l-84 288l-296 -312q-18 -19 -31.5 -19.5t-30.5 13.5q-15 13 -14.5 23.5t17.5 28.5z" />
    <glyph glyph-name="underscore" unicode="_" horiz-adv-x="300" 
d="M-123 -134q-15 0 -18.5 9t3.5 31q8 23 16.5 31.5t23.5 8.5h298q15 0 19 -8.5t-4 -31.5q-7 -22 -16 -31t-24 -9h-298z" />
    <glyph glyph-name="grave" unicode="`" horiz-adv-x="645" 
d="M473 623q-7 0 -14.5 5t-15.5 18l-81 145l-5.5 11t-2.5 11q0 11 9 20.5t22.5 15.5t26.5 6q23 0 35 -32l57 -153q2 -4 3 -8.5t1 -8.5q0 -15 -11.5 -22.5t-23.5 -7.5z" />
    <glyph glyph-name="a.mod" unicode="a" horiz-adv-x="622" 
d="M159 -17q-37 0 -64.5 18.5t-42.5 53t-15 80.5t13.5 98t41 102.5t67 92t91.5 66.5t117 25q30 0 62 -8.5t61 -23.5l1 4q6 16 15.5 20t27.5 4q31 0 39.5 -9.5t1.5 -29.5l-123 -369q-5 -16 -6 -26.5t3 -15.5t13 -5q11 0 22 7t22.5 19t23.5 27q8 10 16.5 12t21.5 -7
q16 -10 18.5 -20t-2.5 -21q-9 -15 -28.5 -37.5t-47.5 -38.5t-63 -16t-53 14t-23.5 35.5t-2.5 46.5t9 48q1 2 1.5 4.5t1.5 5.5q-40 -54 -78.5 -89t-74 -51t-66.5 -16zM128 150q0 -27 7 -46.5t20.5 -30t31.5 -10.5q34 0 76 32.5t87 95t92 151.5l25 76q-31 13 -58 17.5t-51 4.5
q-45 0 -82 -19.5t-64.5 -52t-46 -71.5t-28 -77.5t-9.5 -69.5z" />
    <glyph glyph-name="b.mod" unicode="b" horiz-adv-x="598" 
d="M63 -15q-16 0 -30.5 7t-7.5 26l314 965q6 20 15.5 26t29.5 6q31 0 39.5 -9.5t1.5 -28.5l-197 -602q38 50 75 82t71 47t66 15q55 0 88 -41t33 -112q0 -46 -14 -98t-41.5 -102.5t-67 -91.5t-90 -66t-112.5 -25q-32 0 -63.5 9.5t-60.5 24.5l-2 -6q-4 -13 -14 -19.5t-33 -6.5
zM134 84q31 -13 57 -18t51 -5q44 0 80 20t63.5 52.5t46 71t28 77.5t9.5 70q0 27 -7 46.5t-19.5 30t-31.5 10.5q-35 0 -74.5 -29.5t-82.5 -86.5t-88 -141z" />
    <glyph glyph-name="c.mod" unicode="c" horiz-adv-x="522" 
d="M231 -19q-63 0 -103.5 25t-59.5 67.5t-19 94.5q0 56 19.5 117.5t57.5 114.5t95 86t133 33q57 0 96.5 -18t69.5 -53q15 -18 10.5 -30.5t-16.5 -23.5q-13 -10 -26 -11.5t-26 13.5q-19 21 -47 32t-70 11q-50 0 -89 -26t-65 -67t-39 -86.5t-13 -86.5q0 -34 11.5 -59t34 -38.5
t56.5 -14.5q34 0 61.5 13t52 34.5t47.5 46.5q14 14 29 10.5t25 -14.5q12 -12 13.5 -24t-11.5 -27q-36 -46 -75.5 -72t-77.5 -36.5t-74 -10.5z" />
    <glyph glyph-name="d.mod" unicode="d" horiz-adv-x="641" 
d="M159 -17q-37 0 -64.5 18.5t-42.5 53t-15 80.5t13.5 98t41 102.5t67 92t91.5 66.5t117 25q31 0 64 -8.5t63 -24.5l164 497q6 20 15.5 26t29.5 6q31 0 39.5 -9.5t1.5 -29.5l-286 -868q-7 -23 -4 -35.5t17 -12.5q11 0 21 6.5t21 18.5t24 28q8 10 16.5 12t21.5 -7
q16 -10 18.5 -20t-3.5 -21q-18 -29 -39.5 -50t-46.5 -31.5t-53 -10.5q-35 0 -55 16t-24 48.5t9 80.5q0 3 0.5 5.5t1.5 4.5q-40 -54 -79.5 -89t-76.5 -51.5t-68 -16.5zM128 150q0 -27 7 -46.5t20.5 -30t31.5 -10.5q35 0 77.5 32t89 94t92.5 150l25 78q-32 14 -60 18.5
t-53 4.5q-45 0 -82 -19.5t-64.5 -52t-46 -71.5t-28 -77.5t-9.5 -69.5z" />
    <glyph glyph-name="e.mod" unicode="e" horiz-adv-x="526" 
d="M225 -19q-59 0 -98 25t-58.5 67.5t-19.5 94.5q0 58 21 120t61 114t98.5 84.5t135.5 32.5q47 0 79 -14.5t48.5 -40.5t16.5 -63q0 -41 -24.5 -74t-65.5 -59.5t-94.5 -45t-112 -30.5t-117.5 -18l12 71q39 4 82 12t84 20t74 29t52 38t19 47t-16.5 37.5t-46.5 11.5
q-51 0 -91.5 -25.5t-68 -66t-42 -87t-14.5 -88.5q0 -34 11 -59.5t33 -39t54 -13.5t58 12.5t49 33t46 44.5q13 14 28 10.5t25 -14.5q11 -11 13 -23.5t-11 -27.5q-36 -43 -73 -68.5t-73.5 -36t-73.5 -10.5z" />
    <glyph glyph-name="f.mod" unicode="f" horiz-adv-x="366" 
d="M-147 -519q-24 0 -45.5 7t-39.5 20t-34 30q-12 14 -11 27.5t16 25.5q15 14 26.5 15t24.5 -11t30.5 -25.5t39.5 -13.5q25 0 39 18.5t31 71.5l252 774h-84q-11 0 -15.5 10t1.5 30q12 40 39 40h85l114 351q19 58 46 95t63 55t82 18q50 0 82.5 -18.5t49.5 -36.5
q14 -15 11 -27t-14 -23q-13 -13 -24.5 -14.5t-23.5 6.5q-19 15 -40 24t-43 9q-39 0 -63 -22t-41 -72l-112 -345h127q26 0 12 -40q-12 -40 -35 -40h-130l-257 -792q-18 -55 -39 -87t-50 -46t-70 -14z" />
    <glyph glyph-name="g.mod" unicode="g" horiz-adv-x="610" 
d="M75 -519q-49 0 -93.5 19t-77.5 51q-19 19 -20.5 34t18.5 31q16 14 29 11.5t28 -18.5q24 -25 55.5 -37.5t66.5 -12.5q44 0 73.5 16.5t51.5 53.5t42 99l134 412q-40 -54 -79.5 -89t-75.5 -51.5t-68 -16.5q-37 0 -64 18.5t-42 53t-15 80.5t13.5 98t40.5 102.5t67 92t92 66.5
t117 25q30 0 62.5 -8.5t63.5 -24.5l1 3q5 16 15 21t28 5q31 0 39.5 -9.5t1.5 -29.5l-246 -751q-31 -97 -66.5 -150t-81.5 -73.5t-110 -20.5zM187 63q35 0 77 31.5t88.5 92.5t92.5 149l27 81q-33 14 -60.5 18.5t-52.5 4.5q-46 0 -82.5 -19.5t-64.5 -52t-46.5 -71.5
t-27.5 -77.5t-9 -69.5q0 -27 6.5 -46.5t20 -30t31.5 -10.5z" />
    <glyph glyph-name="h.mod" unicode="h" horiz-adv-x="651" 
d="M473 -15q-40 0 -59 16t-23 41.5t1.5 54.5t14.5 56l65 191q14 40 7.5 67.5t-45.5 27.5q-32 0 -69.5 -24t-77 -68.5t-76.5 -106t-69 -134.5l-31 -95q-4 -13 -14 -19.5t-33 -6.5q-16 0 -29.5 7t-8.5 26l313 965q6 20 15.5 26t29.5 6q31 0 39.5 -9.5t1.5 -29.5l-205 -630
q28 41 58.5 73t61.5 54.5t62.5 34t63.5 11.5q49 0 75 -23.5t29 -68.5t-18 -109l-71 -210q-6 -17 -7 -27.5t3.5 -15.5t12.5 -5q11 0 22.5 7.5t23 19.5t23.5 26q8 10 16.5 12t21.5 -7q16 -10 18.5 -20t-3.5 -21q-9 -15 -28.5 -37.5t-47.5 -38.5t-63 -16z" />
    <glyph glyph-name="i.mod" unicode="i" horiz-adv-x="300" 
d="M127 -15q-59 0 -75.5 44.5t10.5 127.5l107 326q7 20 16.5 26t28.5 6q31 0 39.5 -9.5t1.5 -29.5l-120 -368q-8 -23 -5 -35.5t17 -12.5q11 0 21 6.5t21 18.5t24 28q8 10 16.5 12t21.5 -7q16 -10 18.5 -20t-3.5 -21q-18 -29 -39.5 -50t-46.5 -31.5t-53 -10.5zM276 669
q-20 0 -34 13t-14 38q0 27 17.5 51t54.5 24q21 0 35 -12.5t14 -38.5q0 -27 -17.5 -51t-55.5 -24z" />
    <glyph glyph-name="j.mod" unicode="j" horiz-adv-x="280" 
d="M-173 -519q-29 0 -56.5 16.5t-47.5 46.5q-10 15 -11 27t18 25q15 11 27.5 11t21.5 -12q18 -22 30 -30.5t25 -8.5q20 0 31 20.5t28 72.5l272 834q7 20 16.5 26t28.5 6q31 0 39.5 -9.5t1.5 -29.5l-277 -848q-20 -64 -42.5 -95.5t-48 -41.5t-56.5 -10zM276 669q-20 0 -34 13
t-14 38q0 27 17.5 51t54.5 24q21 0 35 -12.5t14 -38.5q0 -27 -17.5 -51t-55.5 -24z" />
    <glyph glyph-name="k.ful" unicode="k" horiz-adv-x="539" 
d="M337 -19q-28 0 -50 10t-40.5 34t-36 67.5t-36.5 109.5l-61 -191q-5 -13 -15 -19.5t-33 -6.5q-16 0 -30 7t-7 26l311 965q6 20 15.5 26t29.5 6q21 0 30.5 -5t12 -13.5t-1.5 -20.5l-184 -567q45 51 93.5 80t93.5 29q38 0 61.5 -25t23.5 -64q0 -29 -13 -56t-36 -51.5
t-55 -45.5t-71 -38t-82 -30q14 -46 26 -75.5t22.5 -46t21.5 -22.5t23 -6q17 0 37 14t50 45q11 12 22 11t21 -10q10 -11 12 -21t-7 -22q-43 -52 -81 -73t-66 -21zM192 257q50 12 93.5 29.5t75 38.5t49.5 43.5t18 43.5q0 13 -7.5 20t-22.5 7q-26 0 -59 -22t-69 -60t-74 -88z
" />
    <glyph glyph-name="l.mod" unicode="l" horiz-adv-x="299" 
d="M129 -15q-58 0 -74.5 44.5t10.5 127.5l271 826q7 20 16.5 26t28.5 6q31 0 39.5 -9.5t1.5 -29.5l-285 -868q-7 -23 -4 -35.5t17 -12.5q11 0 21 6.5t21 18.5t23 28q8 10 16.5 12t21.5 -7q16 -10 18.5 -20t-3.5 -21q-17 -29 -39 -50t-46.5 -31.5t-53.5 -10.5z" />
    <glyph glyph-name="m.mod" unicode="m" horiz-adv-x="964" 
d="M786 -15q-39 0 -58 16t-23 41.5t1.5 54.5t14.5 56l64 191q9 26 11 47.5t-8.5 34.5t-39.5 13q-32 0 -69 -25t-75 -71.5t-74.5 -109t-68.5 -136.5h-39q35 99 76 177t88 133t96 83.5t99 28.5q54 0 78 -27t24.5 -72.5t-18.5 -101.5l-72 -210q-5 -17 -6 -27.5t3.5 -15.5
t12.5 -5q11 0 22.5 7t23 19t23.5 27q7 10 15.5 12t21.5 -7q17 -10 19 -20t-3 -21q-9 -15 -28.5 -37.5t-47.5 -38.5t-63 -16zM56 -15q-16 0 -30 7t-7 26l150 465q7 20 16.5 26t28.5 6q31 0 39.5 -9.5t1.5 -29.5l-40 -124q27 40 56 71.5t58.5 52.5t60 32t60.5 11
q54 0 78.5 -26.5t24.5 -72.5t-19 -102l-100 -307q-5 -13 -15 -19.5t-33 -6.5q-16 0 -30 7t-7 26l106 326q9 26 11 47.5t-8.5 34.5t-39.5 13q-31 0 -67 -24t-73.5 -68.5t-73.5 -105t-68 -132.5l-32 -98q-4 -13 -14.5 -19.5t-33.5 -6.5z" />
    <glyph glyph-name="n.mod" unicode="n" horiz-adv-x="646" 
d="M468 -15q-38 0 -57 16t-23 41.5t1 54.5t14 56l65 191q10 27 10.5 48.5t-11 34t-39.5 12.5q-33 0 -70.5 -24t-76.5 -68.5t-76.5 -105.5t-69.5 -134l-31 -96q-4 -13 -14.5 -19.5t-33.5 -6.5q-16 0 -30 7t-7 26l150 465q7 20 16.5 26t28.5 6q31 0 39.5 -9.5t1.5 -29.5
l-42 -130q28 42 58 74t61.5 54.5t63.5 33.5t64 11q50 0 76 -23.5t29.5 -68.5t-18.5 -109l-71 -210q-5 -17 -6 -27.5t3 -15.5t13 -5q11 0 22 7t22.5 19t23.5 27q8 10 16.5 12t21.5 -7q16 -10 18.5 -20t-3.5 -21q-9 -15 -28.5 -37.5t-47.5 -38.5t-63 -16z" />
    <glyph glyph-name="o.mod" unicode="o" horiz-adv-x="588" 
d="M241 -19q-62 0 -105 25t-64.5 69.5t-21.5 100.5q0 53 19 112.5t56.5 112t94 85.5t131.5 33q62 0 104.5 -23.5t64 -66t21.5 -98.5q0 -40 -11.5 -87.5t-35 -94t-59.5 -84.5t-84.5 -61t-109.5 -23zM251 61q49 0 86 26t62 66.5t38 85t13 82.5q0 39 -13 65t-37 39.5t-57 13.5
q-50 0 -88 -25.5t-63.5 -65.5t-38.5 -84t-13 -81q0 -39 13.5 -66.5t38.5 -41.5t59 -14z" />
    <glyph glyph-name="p.mod" unicode="p" horiz-adv-x="595" 
d="M-99 -515q-16 0 -30 7t-7 26l312 965q7 20 16.5 26t28.5 6q31 0 39.5 -9.5t1.5 -29.5l-33 -101q38 50 75 81.5t71 47t66 15.5q55 0 88 -41t33 -112q0 -46 -14 -98t-41.5 -102.5t-67 -91.5t-90 -66t-112.5 -25q-32 0 -63.5 9.5t-59.5 24.5l-165 -506q-4 -13 -14.5 -19.5
t-33.5 -6.5zM135 84q30 -13 56.5 -18t51.5 -5q44 0 80 20t63.5 52.5t46 71t28 77.5t9.5 70q0 27 -7 46.5t-19.5 30t-31.5 10.5q-35 0 -74.5 -29.5t-82.5 -87t-89 -139.5z" />
    <glyph glyph-name="q.mod_au" unicode="q" horiz-adv-x="623" 
d="M275 -499q-10 -12 -26 -10t-25 13t3 25q25 35 58.5 74t75 79t88.5 77q10 8 19.5 4.5t16.5 -15.5q8 -10 6.5 -20.5t-11.5 -17.5q-35 -26 -72 -61.5t-71.5 -74t-61.5 -73.5zM172 -17q-37 0 -64.5 18.5t-42.5 53t-15 80.5t13.5 98t41 102.5t67 92t91.5 66.5t117 25
q31 0 63.5 -8.5t62.5 -24.5l2 3q4 15 13.5 20.5t29.5 5.5q31 0 39.5 -9.5t1.5 -29.5l-314 -965q-4 -13 -14 -19.5t-33 -6.5q-16 0 -30 7t-8 26l202 621q-41 -54 -80.5 -88.5t-75.5 -51t-67 -16.5zM141 150q0 -27 7 -46.5t20.5 -30t31.5 -10.5q34 0 77 32t89.5 93.5
t92.5 150.5l25 78q-32 14 -60 18.5t-53 4.5q-45 0 -82 -19.5t-64.5 -52t-46 -71.5t-28 -77.5t-9.5 -69.5z" />
    <glyph glyph-name="r.mod" unicode="r" horiz-adv-x="454" 
d="M56 -15q-16 0 -30 7t-7 26l150 465q7 20 16.5 26t28.5 6q31 0 39.5 -9.5t1.5 -29.5l-43 -133q29 42 58.5 75t58 55.5t55.5 34t49 11.5q27 0 47 -11.5t32 -27.5q9 -10 8 -21.5t-12 -24.5t-21 -18t-19 4q-12 8 -24.5 13.5t-24.5 5.5q-26 0 -61.5 -24t-75 -68.5
t-77.5 -105.5t-70 -134l-31 -96q-4 -13 -14.5 -19.5t-33.5 -6.5z" />
    <glyph glyph-name="s.mod" unicode="s" horiz-adv-x="479" 
d="M201 -19q-44 0 -82.5 14t-67.5 36.5t-45 46.5q-6 11 -6 22t14 22q13 10 25 12t20 -11q23 -31 61 -52t81 -21q38 0 62.5 9t37 27.5t12.5 44.5q0 25 -14.5 43t-37 32t-48.5 28t-48.5 32t-37 44t-14.5 63t18 70t57.5 54.5t101.5 21.5q45 0 80 -12.5t58.5 -31.5t35.5 -38
q8 -12 9 -21t-15 -22q-13 -9 -23 -10t-20 8q-24 25 -54.5 41.5t-74.5 16.5q-47 0 -67 -19.5t-20 -48.5q0 -23 14.5 -41t37 -32.5t48.5 -29t48.5 -32.5t37 -43.5t14.5 -61.5q0 -58 -26.5 -93.5t-71.5 -51.5t-100 -16z" />
    <glyph glyph-name="t.mod" unicode="t" horiz-adv-x="388" 
d="M158 -15q-44 0 -67 20.5t-25 59t15 91.5l86 264h-77q-11 0 -15 10t1 30q6 20 16 30t21 10h80l65 198q6 20 15.5 26t29.5 6q31 0 39.5 -9.5t1.5 -29.5l-63 -191h126q11 0 15.5 -9.5t-1.5 -30.5q-5 -19 -15 -29.5t-21 -10.5h-130l-97 -294q-11 -34 -6 -50t24 -16
q24 0 50 18.5t51 50.5q8 9 17.5 11t24.5 -8q15 -9 17 -18.5t-3 -18.5q-11 -20 -35.5 -46t-59 -45t-80.5 -19z" />
    <glyph glyph-name="u.mod" unicode="u" horiz-adv-x="646" 
d="M161 -15q-49 0 -76.5 23t-31 67.5t16.5 106.5l100 301q7 20 16.5 26t28.5 6q31 0 39.5 -9.5t1.5 -29.5l-104 -311q-10 -29 -11.5 -52t10.5 -36t41 -13q33 0 70 25t76.5 70.5t77 107.5t68.5 136l26 80q7 20 16.5 26t28.5 6q31 0 39.5 -9.5t1.5 -29.5l-121 -369
q-5 -16 -6 -26.5t3 -15.5t13 -5q11 0 21.5 7t21.5 18.5t22 26.5q8 11 19 12t25 -7q14 -10 16.5 -19.5t-3.5 -18.5q-11 -17 -30 -39t-46.5 -38.5t-62.5 -16.5q-37 0 -55 14t-23 36t-2 47t9 49l8 25q-28 -41 -58 -73t-61 -54t-62.5 -33t-62.5 -11z" />
    <glyph glyph-name="v.mod" unicode="v" horiz-adv-x="509" 
d="M168 -15q-22 0 -29.5 7.5t-8.5 22.5l-35 453q-1 23 10.5 35t30.5 12q17 0 28 -6t12 -28l27 -371l268 378q13 17 23.5 22t24.5 5q28 0 39 -15t-3 -32l-332 -457q-10 -12 -22 -19t-33 -7z" />
    <glyph glyph-name="w.mod" unicode="w" horiz-adv-x="804" 
d="M146 -15q-21 0 -29 8.5t-9 29.5l-12 453q0 14 8 26.5t36 12.5q22 0 31.5 -8.5t9.5 -31.5l3 -354l240 363q12 18 25 24.5t32 6.5q17 0 29.5 -10t13.5 -36l11 -346l231 365q11 17 22.5 22t25.5 5q28 0 38 -14t-2 -33l-297 -457q-7 -11 -22 -18.5t-37 -7.5t-30.5 8.5
t-8.5 29.5l-11 355l-243 -367q-7 -10 -20 -18t-35 -8z" />
    <glyph glyph-name="x.mod" unicode="x" horiz-adv-x="534" 
d="M406 40q9 -19 4 -31.5t-17.5 -18t-28.5 -5.5q-11 0 -18.5 6t-15.5 22l-81 175l-189 -180q-13 -13 -26 -18t-29 -5q-25 0 -36.5 16.5t16.5 42.5l233 214l-94 202q-8 18 -5 30.5t14 19t26 6.5q17 0 25.5 -6t15.5 -22l81 -177l199 180q14 13 25 19t25 6q17 0 30 -7.5
t14.5 -20t-15.5 -27.5l-244 -222z" />
    <glyph glyph-name="y.mod" unicode="y" horiz-adv-x="628" 
d="M161 -15q-49 0 -76.5 23t-31 67.5t16.5 106.5l100 301q7 20 16.5 26t28.5 6q31 0 39.5 -9.5t1.5 -29.5l-104 -311q-10 -29 -11.5 -52t10.5 -36t41 -13q32 0 69.5 25t76.5 70.5t76.5 107t69.5 135.5l26 81q7 20 16.5 26t28.5 6q31 0 39.5 -9.5t1.5 -29.5l-245 -751
q-30 -91 -63 -144.5t-79 -76.5t-115 -23q-37 0 -69.5 9.5t-58 26t-44.5 35.5q-14 15 -18 28.5t17 29.5q18 14 29 14.5t25 -14.5q23 -25 54.5 -38t69.5 -13q44 0 73.5 16.5t51.5 53.5t42 99l139 431q-28 -42 -58 -74.5t-61 -54.5t-62.5 -33.5t-62.5 -11.5z" />
    <glyph glyph-name="z.mod" unicode="z" horiz-adv-x="495" 
d="M11 0q-21 0 -25.5 19.5t12.5 35.5l355 365h-219q-11 0 -15 10t1 30q6 20 15.5 30t20.5 10h314q17 0 24.5 -10t6.5 -23t-10 -22l-353 -365h241q11 0 15 -9.5t-1 -30.5q-6 -19 -16 -29.5t-21 -10.5h-345z" />
    <glyph glyph-name="braceleft" unicode="{" horiz-adv-x="375" 
d="M554 1075q19 0 19.5 -12t-4.5 -28q-7 -22 -16 -31t-24 -9q-47 0 -80 -9t-50 -33.5t-17 -70.5q1 -16 3 -32t5 -32t6 -34.5t5.5 -39.5t3.5 -45q0 -49 -20 -90t-60 -70t-100 -45q26 -9 45 -26t29 -38.5t10 -43.5q0 -36 -13.5 -67.5t-35 -59t-45.5 -52.5t-45.5 -49.5
t-35.5 -49t-14 -50.5q0 -22 26.5 -37.5t73.5 -15.5q17 0 18.5 -10.5t-3.5 -29.5q-7 -22 -16 -31t-24 -9q-47 0 -84 12t-58.5 36.5t-21.5 61.5q0 35 14 66t36 61t46 59t46 56.5t35.5 54.5t13.5 54q0 22 -9 37t-25.5 24t-39.5 13q-18 4 -20.5 12.5t4.5 27.5q8 23 15 30.5
t23 9.5q46 5 78.5 25t50.5 53t17 81q0 23 -2.5 41t-5.5 35t-6 33.5t-5.5 34.5t-2.5 39q0 65 34 108.5t93 64t133 20.5z" />
    <glyph glyph-name="bar" unicode="|" horiz-adv-x="425" 
d="M104 -77q-45 0 -35 27l363 1100q9 28 53 28q43 0 33 -28l-363 -1100q-9 -27 -51 -27z" />
    <glyph glyph-name="braceright" unicode="}" horiz-adv-x="374" 
d="M-18 -75q-19 0 -19.5 12t4.5 28q7 23 16 31.5t24 8.5q48 0 81 9.5t50 33.5t17 70q-1 16 -3 32t-5.5 32t-6 34.5t-5 39.5t-3.5 45q0 50 20 90.5t60 70t99 44.5q-25 9 -44 26t-29.5 38.5t-10.5 43.5q0 36 13.5 67.5t35 59t46 52.5t46 49.5t35 49t13.5 50.5q0 23 -26.5 38
t-73.5 15q-16 0 -18 10.5t3 29.5q8 23 16.5 31.5t23.5 8.5q48 0 84.5 -12t58 -36.5t21.5 -61.5q0 -35 -13.5 -66t-35.5 -61t-46 -59t-46 -56.5t-35.5 -54.5t-13.5 -54q0 -22 9 -37t25.5 -23.5t39.5 -13.5q17 -4 19.5 -12.5t-4.5 -27.5q-7 -22 -14.5 -30t-23.5 -10
q-45 -5 -78 -25t-50.5 -53t-17.5 -81q0 -22 2.5 -40.5t6 -35.5t6 -33.5t5.5 -34.5t3 -39q0 -65 -34 -108t-93 -64t-134 -21z" />
    <glyph glyph-name="asciitilde" unicode="~" horiz-adv-x="763" 
d="M584 316q-27 0 -53.5 10t-54.5 30.5t-61 52.5q-37 35 -63.5 49.5t-56.5 14.5q-29 0 -56 -24.5t-38 -83.5q-7 -37 -47 -37q-26 0 -34.5 9t-3.5 34q13 61 38 102t62 62t85 21q45 0 83.5 -18t80.5 -58q48 -45 76 -62.5t54 -17.5t52 25t36 83q7 37 47 37q26 0 34.5 -9
t3.5 -35q-12 -60 -37.5 -101.5t-62 -62.5t-84.5 -21z" />
    <glyph glyph-name="nbspace" unicode="&#xa0;" horiz-adv-x="300" 
 />
    <glyph glyph-name="exclamdown" unicode="&#xa1;" horiz-adv-x="388" 
d="M-35 -514q-44 0 -35 27l231 744q5 14 18 21t34 7q45 0 35 -28l-231 -744q-4 -13 -17 -20t-35 -7zM253 388q-20 0 -34 13.5t-14 38.5q-1 27 16.5 51t54.5 24q20 0 34 -13t15 -39q1 -27 -16.5 -51t-55.5 -24z" />
    <glyph glyph-name="cent" unicode="&#xa2;" horiz-adv-x="588" 
d="M262 -19q-65 0 -108.5 27t-64.5 74.5t-21 107.5q0 55 15 112t43.5 109t70 92.5t95 64.5t117.5 24q39 0 72 -9.5t60 -28t49 -44.5q15 -17 11 -29.5t-17 -23.5q-15 -11 -27 -11t-26 14q-15 17 -34.5 28.5t-43.5 17.5t-53 6q-45 0 -82.5 -19t-67 -52t-50 -74t-31.5 -86
t-11 -87q0 -40 13 -70t38.5 -46t62.5 -17q37 0 68.5 13.5t61 38.5t61.5 57q13 14 26.5 10.5t24.5 -13.5q12 -12 13.5 -24t-10.5 -26q-43 -52 -87 -81.5t-86.5 -42t-81.5 -12.5zM188 -150q-41 0 -32 28l271 830q9 28 49 28t31 -28l-271 -830q-9 -28 -48 -28z" />
    <glyph glyph-name="sterling" unicode="&#xa3;" horiz-adv-x="749" 
d="M-10 0q-17 0 -19 11t5 32q8 23 17 30t23 7h136l102 312h-114q-15 0 -18.5 9t3.5 30q8 23 17 30.5t24 7.5h113l105 320q25 75 60.5 125t86.5 75.5t119 25.5q65 0 125.5 -26.5t98.5 -67.5q12 -13 11.5 -25.5t-17.5 -27.5q-16 -14 -28.5 -13.5t-26.5 12.5q-39 32 -84.5 49.5
t-83.5 17.5q-68 0 -109 -37.5t-67 -113.5l-102 -314h236q15 0 18 -7.5t-4 -30.5q-7 -22 -16 -30.5t-24 -8.5h-236l-102 -312h414q14 0 18 -8t-3 -29q-7 -22 -15.5 -32.5t-25.5 -10.5h-637z" />
    <glyph glyph-name="yen" unicode="&#xa5;" horiz-adv-x="744" 
d="M284 -14q-44 0 -35 28l76 234h-208q-15 0 -18 8.5t4 30.5q7 23 16 31t24 8h207l26 79h-210q-15 0 -18.5 8.5t3.5 30.5q8 23 17 31t24 8h185l-115 487q-4 20 6.5 32.5t36.5 12.5q23 0 31 -9t12 -27l106 -447l393 450q14 17 27 25t37 8q26 0 35.5 -15.5t-8.5 -36.5
l-421 -480h190q15 0 18.5 -8t-4.5 -31q-7 -22 -16 -30.5t-24 -8.5h-215l-26 -79h218q15 0 18.5 -8t-3.5 -31q-7 -22 -16.5 -30.5t-24.5 -8.5h-217l-76 -234q-9 -28 -55 -28z" />
    <glyph glyph-name="section" unicode="&#xa7;" horiz-adv-x="739" 
d="M232 -449q-50 0 -94.5 12t-82.5 32t-68 45.5t-50 51.5q-9 11 -3 21.5t18 19.5q14 12 25 13t20 -9q23 -27 60 -50t82.5 -37t93.5 -14q43 0 82.5 14t70.5 41t49 66.5t18 90.5q0 38 -15 69.5t-39.5 58t-55 50.5t-62.5 48.5t-63 50t-55.5 56t-39 67.5t-14.5 83q0 72 29.5 123
t80.5 87t112 59q-26 34 -42 73.5t-16 87.5q0 55 18.5 101t52.5 80.5t83 53.5t110 19q53 0 105.5 -19.5t96 -49t69.5 -62.5q9 -11 6 -22t-17 -23q-12 -10 -24 -11.5t-21 8.5q-24 25 -57.5 46t-73.5 34.5t-85 13.5q-51 0 -89 -19.5t-59.5 -57t-21.5 -91.5q0 -38 15 -69.5
t40.5 -58.5t56.5 -51.5t64.5 -49t65 -50t57 -55.5t40 -66t14.5 -81q0 -72 -30.5 -124t-82.5 -87.5t-115 -59.5q25 -33 39.5 -72t14.5 -89q0 -65 -24.5 -119.5t-67.5 -94.5t-99.5 -62t-121.5 -22zM442 62q57 23 98 53t63.5 70.5t22.5 94.5q0 28 -11 52t-30 46t-43.5 42
t-52 41t-55.5 42.5t-54 45.5q-56 -23 -96 -53.5t-61.5 -71t-21.5 -92.5q0 -31 10.5 -56.5t29.5 -48t42.5 -42.5t51 -39.5t55 -40t52.5 -43.5z" />
    <glyph glyph-name="dieresis" unicode="&#xa8;" horiz-adv-x="645" 
d="M348 669q-20 0 -34 13t-14 38q0 27 17.5 51t54.5 24q21 0 35 -12.5t14 -38.5q0 -27 -17.5 -51t-55.5 -24zM587 669q-21 0 -35 13t-14 38q0 27 17.5 51t54.5 24q21 0 35 -12.5t14 -38.5q0 -27 -17 -51t-55 -24z" />
    <glyph glyph-name="copyright" unicode="&#xa9;" horiz-adv-x="1005" 
d="M581 76q-86 0 -159.5 32t-129 88.5t-86 132t-30.5 163.5t30.5 163.5t86 132t129 88.5t158.5 32q86 0 159.5 -32t129 -88.5t86 -132t30.5 -163.5t-30.5 -163.5t-86 -132t-129 -88.5t-158.5 -32zM580 126q74 0 138.5 28.5t113 78t75.5 116t27 143.5q0 76 -27 142.5
t-75.5 116.5t-112.5 78.5t-138 28.5t-138.5 -28.5t-113 -78.5t-75.5 -116.5t-27 -142.5q0 -77 27 -143.5t75.5 -116t113 -78t137.5 -28.5zM574 261q-59 0 -100 30t-62.5 81.5t-21.5 115.5q0 67 23.5 121t68 86t105.5 32q35 0 71.5 -14t67.5 -53q8 -10 4.5 -18.5t-12.5 -16.5
q-10 -10 -19 -11t-16 5q-19 16 -42 27t-53 11q-36 0 -63.5 -19.5t-42.5 -57.5t-15 -92q0 -53 14.5 -87.5t39.5 -51.5t55 -17q31 0 59 19t50 44q7 7 16.5 5.5t20.5 -9.5q9 -6 12.5 -14.5t-1.5 -15.5q-21 -34 -48.5 -56t-56 -33t-54.5 -11z" />
    <glyph glyph-name="ordfeminine" unicode="&#xaa;" horiz-adv-x="480" 
d="M303 611q-42 0 -67.5 32t-25.5 86q0 44 16.5 94.5t48.5 96.5t79.5 75.5t108.5 29.5q22 0 46 -5.5t47 -16.5l2 2q5 9 14.5 12.5t23.5 3.5q26 0 33.5 -8t1.5 -25l-93 -277q-3 -9 -3.5 -15.5t2 -10t7.5 -3.5q10 0 19.5 8.5t23.5 25.5q6 8 14 10t20 -7q14 -8 16.5 -16.5
t-1.5 -17.5q-8 -13 -22.5 -30t-36 -29.5t-49.5 -12.5q-41 0 -55.5 19.5t-14.5 45.5q0 9 1.5 18t3.5 18q-44 -52 -84.5 -77.5t-75.5 -25.5zM293 743q0 -18 4.5 -31.5t13.5 -20t20 -6.5q25 0 55 24t63.5 69.5t67.5 109.5l18 51q-19 8 -38.5 11t-40.5 3q-42 0 -72.5 -22.5
t-50.5 -56t-30 -69t-10 -62.5z" />
    <glyph glyph-name="guillemetleft" unicode="&#xab;" horiz-adv-x="725" 
d="M244 -14q-15 0 -26 6t-19 22l-94 200q-7 13 -9.5 20.5t-2.5 11.5q0 8 9 17t28 26l224 199q18 15 32.5 21t29.5 6q19 0 32 -8.5t16 -20.5t-11 -25l-258 -229l89 -192q11 -22 -1 -38t-39 -16zM494 -14q-15 0 -26 6t-19 22l-94 200q-7 13 -9.5 20.5t-2.5 11.5q0 8 9 17
t28 26l224 199q18 15 32.5 21t29.5 6q19 0 32 -8.5t16 -20.5t-11 -25l-258 -229l89 -192q11 -22 -1 -38t-39 -16z" />
    <glyph glyph-name="logicalnot" unicode="&#xac;" horiz-adv-x="763" 
d="M609 151q-31 0 -39.5 10t-1.5 29l66 208h-473q-11 0 -15 10t3 32q14 38 36 38h534q30 0 16 -43l-81 -251q-7 -21 -16 -27t-29 -6z" />
    <glyph glyph-name="registered" unicode="&#xae;" horiz-adv-x="683" 
d="M522 553q-58 0 -109 21.5t-90 60.5t-60.5 90t-21.5 109q0 59 21.5 109.5t60.5 89.5t90 60.5t109 21.5q59 0 110 -21.5t90 -60.5t60.5 -89.5t21.5 -109.5q0 -58 -21.5 -109t-60.5 -90t-90 -60.5t-110 -21.5zM522 590q67 0 122.5 33t88.5 88.5t33 122.5t-33 122.5
t-88.5 88.5t-122.5 33q-66 0 -121.5 -33t-88.5 -88.5t-33 -122.5t33 -122.5t88.5 -88.5t121.5 -33zM447 661q-17 0 -24.5 6t-7.5 16v312q0 21 39 21h60q62 0 97 -20t35 -72q0 -40 -27 -64.5t-70 -35.5q23 -31 47.5 -54.5t52.5 -45.5q13 -10 14.5 -20.5t-11.5 -24.5
q-23 -26 -47 -6q-34 28 -65.5 61.5t-58.5 74.5v-126q0 -10 -7.5 -16t-26.5 -6zM481 869q44 0 71 12t27 37q0 17 -14.5 24.5t-33.5 7.5h-50v-81z" />
    <glyph glyph-name="macron" unicode="&#xaf;" horiz-adv-x="645" 
d="M341 686q-20 0 -24 12t0 30q5 21 14 32t27 11h258q20 0 24 -12t-1 -31q-5 -21 -14 -31.5t-27 -10.5h-257z" />
    <glyph glyph-name="degree" unicode="&#xb0;" horiz-adv-x="453" 
d="M418 696q-47 0 -82.5 20t-56.5 56t-21 85q0 47 21 82.5t56.5 55.5t82.5 20t83 -20t56.5 -55.5t20.5 -82.5q0 -49 -20.5 -85t-56.5 -56t-83 -20zM418 763q39 0 63.5 25.5t24.5 68.5q0 42 -24.5 67t-63.5 25q-40 0 -64 -25t-24 -67q0 -43 24 -68.5t64 -25.5z" />
    <glyph glyph-name="plusminus" unicode="&#xb1;" horiz-adv-x="763" 
d="M374 218q-31 0 -39.5 9.5t-1.5 28.5l145 442q6 20 15.5 26t29.5 6q31 0 39.5 -9.5t1.5 -29.5l-145 -441q-7 -20 -16 -26t-29 -6zM59 83q-11 0 -15 10t3 32q11 38 36 38h538q11 0 15 -10t-3 -33q-10 -37 -36 -37h-538zM174 436q-11 0 -15 10t3 32q11 38 36 38h538
q11 0 15 -10t-3 -33q-10 -37 -36 -37h-538z" />
    <glyph glyph-name="acute" unicode="&#xb4;" horiz-adv-x="645" 
d="M413 616q-9 0 -21.5 9.5t-12.5 20.5q0 7 2.5 13t7.5 12l123 153q9 12 16 16t15 4q10 0 22.5 -7t21.5 -18t9 -23q0 -8 -3.5 -13t-9.5 -10l-141 -142q-15 -15 -29 -15z" />
    <glyph glyph-name="paragraph" unicode="&#xb6;" horiz-adv-x="983" 
d="M271 -390q-45 0 -35 28l223 688h-2q-69 0 -125.5 34.5t-89.5 95t-33 138.5q0 75 26.5 147t79 130t128 92.5t173.5 34.5h493q15 0 19 -8.5t-4 -31.5q-7 -22 -16 -31t-24 -9h-107l-416 -1280q-9 -28 -53 -28t-35 28l417 1280h-151l-416 -1280q-9 -28 -52 -28z" />
    <glyph glyph-name="periodcentered" unicode="&#xb7;" horiz-adv-x="313" 
d="M148 207q-20 0 -34.5 13t-14.5 38q0 27 18.5 51t54.5 24q20 0 34.5 -12.5t14.5 -38.5q0 -27 -17.5 -51t-55.5 -24z" />
    <glyph glyph-name="cedilla" unicode="&#xb8;" horiz-adv-x="645" 
d="M187 -269q-37 0 -66.5 7.5t-46.5 20.5q-8 8 -7 20.5t6 21.5q7 13 15.5 17.5t18.5 0.5q13 -6 32 -12.5t50 -6.5q25 0 39 7.5t14 27.5q0 22 -19.5 27.5t-46.5 2.5q-11 -1 -15.5 2t-8.5 9q-4 7 -2.5 13.5t6.5 13.5l73 110h69l-80 -118l-29 16q44 14 75 8.5t47.5 -25.5
t16.5 -49q0 -37 -19.5 -62.5t-51.5 -38.5t-70 -13z" />
    <glyph glyph-name="ordmasculine" unicode="&#xba;" horiz-adv-x="454" 
d="M374 610q-50 0 -84.5 20t-52 55t-17.5 79q0 40 14.5 85t43.5 85t72 65.5t101 25.5q50 0 84.5 -19t52 -52t17.5 -76q0 -39 -14 -85t-43 -87.5t-72 -68.5t-102 -27zM384 684q33 0 58.5 18t43 47t26.5 60.5t9 58.5q0 43 -21 63t-56 20t-62 -18.5t-45 -46.5t-27 -59t-9 -57
q0 -42 23 -64t60 -22z" />
    <glyph glyph-name="guillemetright" unicode="&#xbb;" horiz-adv-x="725" 
d="M59 -15q-18 0 -31.5 8.5t-16 21t11.5 24.5l256 230l-88 191q-10 23 1.5 38.5t38.5 15.5q15 0 26.5 -5.5t18.5 -22.5l94 -200q7 -13 10 -20t3 -12q0 -7 -9 -16.5t-29 -26.5l-224 -198q-17 -15 -32 -21.5t-30 -6.5zM309 -15q-18 0 -31.5 8.5t-16 21t11.5 24.5l256 230
l-88 191q-10 23 1.5 38.5t38.5 15.5q15 0 26.5 -5.5t18.5 -22.5l94 -200q7 -13 10 -20t3 -12q0 -7 -9 -16.5t-29 -26.5l-224 -198q-17 -15 -32 -21.5t-30 -6.5z" />
    <glyph glyph-name="questiondown" unicode="&#xbf;" horiz-adv-x="562" 
d="M357 286q21 0 30.5 -7t4.5 -21l-77 -233q-4 -13 -14.5 -19.5t-27.5 -8.5q-95 -9 -161 -40.5t-106 -76.5t-58.5 -93.5t-18.5 -90.5q0 -39 17 -68.5t49 -45.5t77 -16q42 0 80.5 13.5t73.5 34t66 42.5q11 8 23.5 3.5t19.5 -19.5q10 -15 10.5 -26t-11.5 -20
q-44 -35 -89 -59.5t-88.5 -36.5t-85.5 -12q-77 0 -128.5 28t-77.5 76t-26 106q0 64 26 124t77.5 111.5t127 88.5t175.5 54l59 184q5 14 18 21t35 7zM412 515q20 0 34 -13t14 -39q0 -27 -16.5 -51t-54.5 -24q-20 0 -34.5 13.5t-14.5 38.5q0 27 17.5 51t54.5 24z" />
    <glyph glyph-name="Agrave" unicode="&#xc0;" horiz-adv-x="833" 
d="M-15 -14q-26 0 -34 15.5t7 37.5l620 936q14 23 29 31.5t39 8.5q19 0 30.5 -9.5t12.5 -41.5l44 -933q2 -20 -9.5 -32.5t-37.5 -12.5q-22 0 -29 8.5t-9 28.5l-12 262h-416l-170 -259q-18 -26 -28.5 -33t-36.5 -7zM275 365h358l-24 509zM698 1058q-4 0 -9 3t-10 7l-143 124
q-10 8 -12.5 13t-2.5 12q0 11 9.5 23t22.5 20.5t22 8.5q7 0 11.5 -3t9.5 -8l132 -146q6 -7 7 -10.5t1 -6.5q0 -10 -13.5 -23.5t-24.5 -13.5z" />
    <glyph glyph-name="Aacute" unicode="&#xc1;" horiz-adv-x="833" 
d="M-15 -14q-26 0 -34 15.5t7 37.5l620 936q14 23 29 31.5t39 8.5q19 0 30.5 -9.5t12.5 -41.5l44 -933q2 -20 -9.5 -32.5t-37.5 -12.5q-22 0 -29 8.5t-9 28.5l-12 262h-416l-170 -259q-18 -26 -28.5 -33t-36.5 -7zM275 365h358l-24 509zM596 1058q-11 0 -24.5 13.5
t-13.5 23.5q0 4 1.5 8t7.5 10l158 145q5 5 9.5 8t10.5 3q10 0 22.5 -9t21.5 -21t9 -23q0 -7 -2 -12t-13 -13l-168 -123l-10.5 -7t-8.5 -3z" />
    <glyph glyph-name="Acircumflex" unicode="&#xc2;" horiz-adv-x="833" 
d="M-15 -14q-26 0 -34 15.5t7 37.5l620 936q14 23 29 31.5t39 8.5q19 0 30.5 -9.5t12.5 -41.5l44 -933q2 -20 -9.5 -32.5t-37.5 -12.5q-22 0 -29 8.5t-9 28.5l-12 262h-416l-170 -259q-18 -26 -28.5 -33t-36.5 -7zM275 365h358l-24 509zM498 1058q-12 0 -20 12t-8 23
q0 10 3.5 15t7.5 9l162 126q15 13 28.5 18t29.5 5q13 0 23.5 -6.5t18.5 -19.5l93 -130q5 -7 5.5 -12.5t0.5 -10.5q0 -12 -13 -20.5t-22 -8.5q-10 0 -17 5t-15 12l-93 90l-153 -96q-7 -4 -14.5 -7.5t-16.5 -3.5z" />
    <glyph glyph-name="Atilde" unicode="&#xc3;" horiz-adv-x="833" 
d="M-15 -14q-26 0 -34 15.5t7 37.5l620 936q14 23 29 31.5t39 8.5q19 0 30.5 -9.5t12.5 -41.5l44 -933q2 -20 -9.5 -32.5t-37.5 -12.5q-22 0 -29 8.5t-9 28.5l-12 262h-416l-170 -259q-18 -26 -28.5 -33t-36.5 -7zM275 365h358l-24 509zM509 1088q-32 0 -30 28
q5 65 29.5 95.5t70.5 30.5q30 0 56 -10.5t48 -25t41.5 -25t35.5 -10.5q10 0 19 10.5t13 35.5q4 26 41 26q16 0 22.5 -6.5t5.5 -19.5q-5 -66 -29 -97t-71 -31q-31 0 -57 10.5t-48 25t-40.5 25t-36.5 10.5q-13 0 -21.5 -11.5t-11.5 -35.5q-1 -12 -11 -18.5t-26 -6.5z" />
    <glyph glyph-name="Adieresis" unicode="&#xc4;" horiz-adv-x="833" 
d="M-15 -14q-26 0 -34 15.5t7 37.5l620 936q14 23 29 31.5t39 8.5q19 0 30.5 -9.5t12.5 -41.5l44 -933q2 -20 -9.5 -32.5t-37.5 -12.5q-22 0 -29 8.5t-9 28.5l-12 262h-416l-170 -259q-18 -26 -28.5 -33t-36.5 -7zM275 365h358l-24 509zM531 1092q-21 0 -35 13t-14 39
q0 27 18.5 50.5t54.5 23.5q20 0 34 -12.5t14 -38.5q0 -27 -17 -51t-55 -24zM777 1092q-20 0 -34.5 13t-14.5 39q0 27 18.5 50.5t54.5 23.5q20 0 34.5 -12.5t14.5 -38.5q0 -27 -17.5 -51t-55.5 -24z" />
    <glyph glyph-name="Aring" unicode="&#xc5;" horiz-adv-x="833" 
d="M-15 -14q-26 0 -34 15.5t7 37.5l620 936q14 23 29 31.5t39 8.5q19 0 30.5 -9.5t12.5 -41.5l44 -933q2 -20 -9.5 -32.5t-37.5 -12.5q-22 0 -29 8.5t-9 28.5l-12 262h-416l-170 -259q-18 -26 -28.5 -33t-36.5 -7zM275 365h358l-24 509zM655 1051q-40 0 -67.5 13t-41.5 37
t-14 57q0 38 21 69t57 49t80 18q41 0 69 -13t42.5 -37t14.5 -58q0 -39 -21.5 -69.5t-57.5 -48t-82 -17.5zM660 1111q35 0 59 21t24 52q0 24 -14 37t-43 13q-33 0 -57 -21.5t-24 -51.5q0 -24 14.5 -37t40.5 -13z" />
    <glyph glyph-name="AE" unicode="&#xc6;" horiz-adv-x="1070" 
d="M920 0h-413q-25 0 -35.5 9t-3.5 31l135 419h-211l-356 -457q-10 -13 -25 -16t-35 2q-19 6 -25 18.5t5 26.5l729 933q12 17 24.5 24.5t30.5 7.5h499q11 0 15 -10t-1 -30q-6 -20 -16 -30t-21 -10h-376l-122 -379h303q11 0 15 -10t-2 -30q-5 -20 -15 -30t-21 -10h-306
l-122 -379h373q11 0 15 -9.5t-2 -30.5q-5 -19 -15 -29.5t-21 -10.5zM454 539h175l124 384z" />
    <glyph glyph-name="Ccedilla" unicode="&#xc7;" horiz-adv-x="861" 
d="M467 -19q-74 0 -133 24t-100 70.5t-63 113.5t-22 151q0 69 16.5 145t49 152t80.5 143.5t112 120.5t143 83.5t174 30.5q63 0 113.5 -14t89 -40.5t65.5 -66.5q8 -11 3.5 -19.5t-18.5 -19.5q-13 -10 -22.5 -11.5t-23.5 10.5q-25 26 -56 42.5t-71 25t-95 8.5
q-69 0 -130.5 -25t-113.5 -69.5t-93 -101.5t-69.5 -121.5t-44 -130.5t-15.5 -127q0 -72 14.5 -126t43.5 -90t74 -54.5t106 -18.5q42 0 79.5 13t73 37t71.5 57.5t74 74.5q12 12 23.5 7.5t21.5 -15.5q14 -14 15 -24t-10 -24q-66 -81 -130.5 -127t-123 -65t-108.5 -19z
M352 -269q-37 0 -66.5 7.5t-46.5 20.5q-8 8 -7 20.5t6 21.5q7 13 15.5 17.5t18.5 0.5q13 -6 32 -12.5t50 -6.5q25 0 39 7.5t14 27.5q0 22 -19.5 27.5t-46.5 2.5q-11 -1 -15.5 2t-8.5 9q-4 7 -2.5 13.5t6.5 13.5l73 110h65l-76 -118l-29 16q44 14 75 8.5t47.5 -25.5t16.5 -49
q0 -37 -19.5 -62.5t-51.5 -38.5t-70 -13z" />
    <glyph glyph-name="Egrave" unicode="&#xc8;" horiz-adv-x="736" 
d="M116 0q-25 0 -35 9t-4 31l300 930q4 14 15.5 21t31.5 7h481q11 0 15 -10t-2 -30q-5 -20 -15 -30t-21 -10h-434l-113 -350h360q11 0 15 -10t-1 -30q-6 -20 -16 -30t-21 -10h-363l-130 -408h429q11 0 15.5 -9.5t-1.5 -30.5q-5 -19 -15 -29.5t-21 -10.5h-470zM719 1058
q-4 0 -9 3t-10 7l-143 124q-10 8 -12.5 13t-2.5 12q0 11 9.5 23t22.5 20.5t22 8.5q7 0 11.5 -3t9.5 -8l132 -146q6 -7 7 -10.5t1 -6.5q0 -10 -13.5 -23.5t-24.5 -13.5z" />
    <glyph glyph-name="Eacute" unicode="&#xc9;" horiz-adv-x="736" 
d="M116 0q-25 0 -35 9t-4 31l300 930q4 14 15.5 21t31.5 7h481q11 0 15 -10t-2 -30q-5 -20 -15 -30t-21 -10h-434l-113 -350h360q11 0 15 -10t-1 -30q-6 -20 -16 -30t-21 -10h-363l-130 -408h429q11 0 15.5 -9.5t-1.5 -30.5q-5 -19 -15 -29.5t-21 -10.5h-470zM617 1058
q-11 0 -24.5 13.5t-13.5 23.5q0 4 1.5 8t7.5 10l158 145q5 5 9.5 8t10.5 3q10 0 22.5 -9t21.5 -21t9 -23q0 -7 -2 -12t-13 -13l-168 -123l-10.5 -7t-8.5 -3z" />
    <glyph glyph-name="Ecircumflex" unicode="&#xca;" horiz-adv-x="736" 
d="M116 0q-25 0 -35 9t-4 31l300 930q4 14 15.5 21t31.5 7h481q11 0 15 -10t-2 -30q-5 -20 -15 -30t-21 -10h-434l-113 -350h360q11 0 15 -10t-1 -30q-6 -20 -16 -30t-21 -10h-363l-130 -408h429q11 0 15.5 -9.5t-1.5 -30.5q-5 -19 -15 -29.5t-21 -10.5h-470zM519 1058
q-12 0 -20 12t-8 23q0 10 3.5 15t7.5 9l162 126q15 13 28.5 18t29.5 5q13 0 23.5 -6.5t18.5 -19.5l93 -130q5 -7 5.5 -12.5t0.5 -10.5q0 -12 -13 -20.5t-22 -8.5q-10 0 -17 5t-15 12l-93 90l-153 -96q-7 -4 -14.5 -7.5t-16.5 -3.5z" />
    <glyph glyph-name="Edieresis" unicode="&#xcb;" horiz-adv-x="736" 
d="M116 0q-25 0 -35 9t-4 31l300 930q4 14 15.5 21t31.5 7h481q11 0 15 -10t-2 -30q-5 -20 -15 -30t-21 -10h-434l-113 -350h360q11 0 15 -10t-1 -30q-6 -20 -16 -30t-21 -10h-363l-130 -408h429q11 0 15.5 -9.5t-1.5 -30.5q-5 -19 -15 -29.5t-21 -10.5h-470zM552 1092
q-21 0 -35 13t-14 39q0 27 18.5 50.5t54.5 23.5q20 0 34 -12.5t14 -38.5q0 -27 -17 -51t-55 -24zM798 1092q-20 0 -34.5 13t-14.5 39q0 27 18.5 50.5t54.5 23.5q20 0 34.5 -12.5t14.5 -38.5q0 -27 -17.5 -51t-55.5 -24z" />
    <glyph glyph-name="Igrave" unicode="&#xcc;" horiz-adv-x="375" 
d="M107 -14q-23 0 -33.5 7t-6.5 23l313 972q5 14 17.5 20.5t34.5 6.5q23 0 33 -7t5 -23l-313 -971q-4 -14 -16 -21t-34 -7zM504 1058q-4 0 -9 3t-10 7l-143 124q-10 8 -12.5 13t-2.5 12q0 11 9.5 23t22.5 20.5t22 8.5q7 0 11.5 -3t9.5 -8l132 -146q6 -7 7 -10.5t1 -6.5
q0 -10 -13.5 -23.5t-24.5 -13.5z" />
    <glyph glyph-name="Iacute" unicode="&#xcd;" horiz-adv-x="375" 
d="M107 -14q-23 0 -33.5 7t-6.5 23l313 972q5 14 17.5 20.5t34.5 6.5q23 0 33 -7t5 -23l-313 -971q-4 -14 -16 -21t-34 -7zM402 1058q-11 0 -24.5 13.5t-13.5 23.5q0 4 1.5 8t7.5 10l158 145q5 5 9.5 8t10.5 3q10 0 22.5 -9t21.5 -21t9 -23q0 -7 -2 -12t-13 -13l-168 -123
l-10.5 -7t-8.5 -3z" />
    <glyph glyph-name="Icircumflex" unicode="&#xce;" horiz-adv-x="375" 
d="M107 -14q-23 0 -33.5 7t-6.5 23l313 972q5 14 17.5 20.5t34.5 6.5q23 0 33 -7t5 -23l-313 -971q-4 -14 -16 -21t-34 -7zM304 1058q-12 0 -20 12t-8 23q0 10 3.5 15t7.5 9l162 126q15 13 28.5 18t29.5 5q13 0 23.5 -6.5t18.5 -19.5l93 -130q5 -7 5.5 -12.5t0.5 -10.5
q0 -12 -13 -20.5t-22 -8.5q-10 0 -17 5t-15 12l-93 90l-153 -96q-7 -4 -14.5 -7.5t-16.5 -3.5z" />
    <glyph glyph-name="Idieresis" unicode="&#xcf;" horiz-adv-x="375" 
d="M107 -14q-23 0 -33.5 7t-6.5 23l313 972q5 14 17.5 20.5t34.5 6.5q23 0 33 -7t5 -23l-313 -971q-4 -14 -16 -21t-34 -7zM337 1092q-21 0 -35 13t-14 39q0 27 18.5 50.5t54.5 23.5q20 0 34 -12.5t14 -38.5q0 -27 -17 -51t-55 -24zM583 1092q-20 0 -34.5 13t-14.5 39
q0 27 18.5 50.5t54.5 23.5q20 0 34.5 -12.5t14.5 -38.5q0 -27 -17.5 -51t-55.5 -24z" />
    <glyph glyph-name="Eth" unicode="&#xd0;" horiz-adv-x="965" 
d="M106 0q-44 0 -35 28l307 942q5 14 18 21t35 7h173q95 0 166.5 -24t119 -66t71 -99t23.5 -122q0 -121 -34.5 -225.5t-97 -189.5t-146.5 -145.5t-185.5 -93.5t-212.5 -33h-202zM177 85h131q91 0 176.5 27t158 79t127 126t84.5 167t30 202q0 53 -19.5 95.5t-56.5 71.5
t-89 44.5t-116 15.5h-156zM119 468q-18 0 -20 11t1 24q3 14 10 26t26 12h394q19 0 21 -12t-1 -26q-3 -13 -10 -24t-25 -11h-396z" />
    <glyph glyph-name="Ntilde" unicode="&#xd1;" horiz-adv-x="986" 
d="M102 -14q-44 0 -35 28l316 974q5 14 18 20.5t34 6.5q18 0 27.5 -6.5t14.5 -20.5l248 -829l269 829q5 14 18 20.5t34 6.5q46 0 35 -27l-315 -974q-4 -14 -17.5 -21t-33.5 -7q-16 0 -24 5t-13 23l-251 839l-273 -839q-4 -14 -17 -21t-35 -7zM629 1088q-32 0 -30 28
q5 65 29.5 95.5t70.5 30.5q30 0 56 -10.5t48 -25t41.5 -25t35.5 -10.5q10 0 19 10.5t13 35.5q4 26 41 26q16 0 22.5 -6.5t5.5 -19.5q-5 -66 -29 -97t-71 -31q-31 0 -57 10.5t-48 25t-40.5 25t-36.5 10.5q-13 0 -21.5 -11.5t-11.5 -35.5q-1 -12 -11 -18.5t-26 -6.5z" />
    <glyph glyph-name="Ograve" unicode="&#xd2;" horiz-adv-x="1027" 
d="M485 -19q-75 0 -136 25.5t-104.5 74t-67 117t-23.5 153.5q0 73 16.5 149.5t48.5 151t78.5 140t108 116t136.5 79t163 28.5q75 0 135.5 -25.5t103 -73.5t66 -116t23.5 -152q0 -78 -17 -157.5t-50 -154t-80 -139t-108 -113t-134.5 -76t-158.5 -27.5zM500 66q68 0 127 24
t108.5 66.5t87.5 98.5t64 120t39.5 130t13.5 130q0 72 -16 127t-48 92.5t-78.5 56.5t-107.5 19q-67 0 -126.5 -24t-108.5 -67t-87.5 -99t-65.5 -119.5t-40.5 -129t-13.5 -128.5q0 -71 16 -126.5t47.5 -93t78.5 -57.5t110 -20zM811 1058q-4 0 -9 3t-10 7l-143 124
q-10 8 -12.5 13t-2.5 12q0 11 9.5 23t22.5 20.5t22 8.5q7 0 11.5 -3t9.5 -8l132 -146q6 -7 7 -10.5t1 -6.5q0 -10 -13.5 -23.5t-24.5 -13.5z" />
    <glyph glyph-name="Oacute" unicode="&#xd3;" horiz-adv-x="1027" 
d="M485 -19q-75 0 -136 25.5t-104.5 74t-67 117t-23.5 153.5q0 73 16.5 149.5t48.5 151t78.5 140t108 116t136.5 79t163 28.5q75 0 135.5 -25.5t103 -73.5t66 -116t23.5 -152q0 -78 -17 -157.5t-50 -154t-80 -139t-108 -113t-134.5 -76t-158.5 -27.5zM500 66q68 0 127 24
t108.5 66.5t87.5 98.5t64 120t39.5 130t13.5 130q0 72 -16 127t-48 92.5t-78.5 56.5t-107.5 19q-67 0 -126.5 -24t-108.5 -67t-87.5 -99t-65.5 -119.5t-40.5 -129t-13.5 -128.5q0 -71 16 -126.5t47.5 -93t78.5 -57.5t110 -20zM709 1058q-11 0 -24.5 13.5t-13.5 23.5
q0 4 1.5 8t7.5 10l158 145q5 5 9.5 8t10.5 3q10 0 22.5 -9t21.5 -21t9 -23q0 -7 -2 -12t-13 -13l-168 -123l-10.5 -7t-8.5 -3z" />
    <glyph glyph-name="Ocircumflex" unicode="&#xd4;" horiz-adv-x="1027" 
d="M485 -19q-75 0 -136 25.5t-104.5 74t-67 117t-23.5 153.5q0 73 16.5 149.5t48.5 151t78.5 140t108 116t136.5 79t163 28.5q75 0 135.5 -25.5t103 -73.5t66 -116t23.5 -152q0 -78 -17 -157.5t-50 -154t-80 -139t-108 -113t-134.5 -76t-158.5 -27.5zM500 66q68 0 127 24
t108.5 66.5t87.5 98.5t64 120t39.5 130t13.5 130q0 72 -16 127t-48 92.5t-78.5 56.5t-107.5 19q-67 0 -126.5 -24t-108.5 -67t-87.5 -99t-65.5 -119.5t-40.5 -129t-13.5 -128.5q0 -71 16 -126.5t47.5 -93t78.5 -57.5t110 -20zM611 1058q-12 0 -20 12t-8 23q0 10 3.5 15
t7.5 9l162 126q15 13 28.5 18t29.5 5q13 0 23.5 -6.5t18.5 -19.5l93 -130q5 -7 5.5 -12.5t0.5 -10.5q0 -12 -13 -20.5t-22 -8.5q-10 0 -17 5t-15 12l-93 90l-153 -96q-7 -4 -14.5 -7.5t-16.5 -3.5z" />
    <glyph glyph-name="Otilde" unicode="&#xd5;" horiz-adv-x="1027" 
d="M485 -19q-75 0 -136 25.5t-104.5 74t-67 117t-23.5 153.5q0 73 16.5 149.5t48.5 151t78.5 140t108 116t136.5 79t163 28.5q75 0 135.5 -25.5t103 -73.5t66 -116t23.5 -152q0 -78 -17 -157.5t-50 -154t-80 -139t-108 -113t-134.5 -76t-158.5 -27.5zM500 66q68 0 127 24
t108.5 66.5t87.5 98.5t64 120t39.5 130t13.5 130q0 72 -16 127t-48 92.5t-78.5 56.5t-107.5 19q-67 0 -126.5 -24t-108.5 -67t-87.5 -99t-65.5 -119.5t-40.5 -129t-13.5 -128.5q0 -71 16 -126.5t47.5 -93t78.5 -57.5t110 -20zM623 1088q-32 0 -30 28q5 65 29.5 95.5
t70.5 30.5q30 0 56 -10.5t48 -25t41.5 -25t35.5 -10.5q10 0 19 10.5t13 35.5q4 26 41 26q16 0 22.5 -6.5t5.5 -19.5q-5 -66 -29 -97t-71 -31q-31 0 -57 10.5t-48 25t-40.5 25t-36.5 10.5q-13 0 -21.5 -11.5t-11.5 -35.5q-1 -12 -11 -18.5t-26 -6.5z" />
    <glyph glyph-name="Odieresis" unicode="&#xd6;" horiz-adv-x="1027" 
d="M485 -19q-75 0 -136 25.5t-104.5 74t-67 117t-23.5 153.5q0 73 16.5 149.5t48.5 151t78.5 140t108 116t136.5 79t163 28.5q75 0 135.5 -25.5t103 -73.5t66 -116t23.5 -152q0 -78 -17 -157.5t-50 -154t-80 -139t-108 -113t-134.5 -76t-158.5 -27.5zM500 66q68 0 127 24
t108.5 66.5t87.5 98.5t64 120t39.5 130t13.5 130q0 72 -16 127t-48 92.5t-78.5 56.5t-107.5 19q-67 0 -126.5 -24t-108.5 -67t-87.5 -99t-65.5 -119.5t-40.5 -129t-13.5 -128.5q0 -71 16 -126.5t47.5 -93t78.5 -57.5t110 -20zM645 1092q-21 0 -35 13t-14 39q0 27 18.5 50.5
t54.5 23.5q20 0 34 -12.5t14 -38.5q0 -27 -17 -51t-55 -24zM891 1092q-20 0 -34.5 13t-14.5 39q0 27 18.5 50.5t54.5 23.5q20 0 34.5 -12.5t14.5 -38.5q0 -27 -17.5 -51t-55.5 -24z" />
    <glyph glyph-name="multiply" unicode="&#xd7;" horiz-adv-x="763" 
d="M576 215q-19 -13 -34 -11t-29 21l-104 154l-218 -164q-15 -11 -27.5 -8.5t-25.5 19.5q-11 17 -8.5 30.5t19.5 26.5l215 161l-108 160q-10 16 -7 28.5t20 25.5q20 14 35.5 12.5t24.5 -15.5l106 -157l215 162q14 11 27 9.5t27 -18.5q13 -17 12 -30.5t-17 -25.5l-218 -163
l108 -159q11 -16 8.5 -30t-21.5 -28z" />
    <glyph glyph-name="Oslash" unicode="&#xd8;" horiz-adv-x="1027" 
d="M485 -19q-75 0 -136 25.5t-104.5 74t-67 117t-23.5 153.5q0 73 16.5 149.5t48.5 151t78.5 140t108 116t136.5 79t163 28.5q75 0 135.5 -25.5t103 -73.5t66 -116t23.5 -152q0 -78 -17 -157.5t-50 -154t-80 -139t-108 -113t-134.5 -76t-158.5 -27.5zM500 66q68 0 127 24
t108.5 66.5t87.5 98.5t64 120t39.5 130t13.5 130q0 72 -16 127t-48 92.5t-78.5 56.5t-107.5 19q-67 0 -126.5 -24t-108.5 -67t-87.5 -99t-65.5 -119.5t-40.5 -129t-13.5 -128.5q0 -71 16 -126.5t47.5 -93t78.5 -57.5t110 -20zM194 -30q-7 -10 -21.5 -13.5t-33.5 12.5
q-31 25 -10 51l864 999q8 11 24 11.5t32 -11.5q14 -10 16.5 -24.5t-8.5 -28.5z" />
    <glyph glyph-name="Ugrave" unicode="&#xd9;" horiz-adv-x="958" 
d="M415 -19q-83 0 -143 23.5t-94 68.5t-39 111t22 152l208 652q5 14 16.5 20.5t35.5 6.5q23 0 34 -7t6 -23l-214 -661q-29 -89 -16 -146.5t62.5 -84.5t129.5 -27q88 0 154.5 29.5t112.5 87t72 141.5l206 664q5 14 16.5 20.5t34.5 6.5q48 0 39 -30l-209 -672
q-34 -109 -95.5 -183t-146.5 -111.5t-192 -37.5zM778 1058q-4 0 -9 3t-10 7l-143 124q-10 8 -12.5 13t-2.5 12q0 11 9.5 23t22.5 20.5t22 8.5q7 0 11.5 -3t9.5 -8l132 -146q6 -7 7 -10.5t1 -6.5q0 -10 -13.5 -23.5t-24.5 -13.5z" />
    <glyph glyph-name="Uacute" unicode="&#xda;" horiz-adv-x="958" 
d="M415 -19q-83 0 -143 23.5t-94 68.5t-39 111t22 152l208 652q5 14 16.5 20.5t35.5 6.5q23 0 34 -7t6 -23l-214 -661q-29 -89 -16 -146.5t62.5 -84.5t129.5 -27q88 0 154.5 29.5t112.5 87t72 141.5l206 664q5 14 16.5 20.5t34.5 6.5q48 0 39 -30l-209 -672
q-34 -109 -95.5 -183t-146.5 -111.5t-192 -37.5zM676 1058q-11 0 -24.5 13.5t-13.5 23.5q0 4 1.5 8t7.5 10l158 145q5 5 9.5 8t10.5 3q10 0 22.5 -9t21.5 -21t9 -23q0 -7 -2 -12t-13 -13l-168 -123l-10.5 -7t-8.5 -3z" />
    <glyph glyph-name="Ucircumflex" unicode="&#xdb;" horiz-adv-x="958" 
d="M415 -19q-83 0 -143 23.5t-94 68.5t-39 111t22 152l208 652q5 14 16.5 20.5t35.5 6.5q23 0 34 -7t6 -23l-214 -661q-29 -89 -16 -146.5t62.5 -84.5t129.5 -27q88 0 154.5 29.5t112.5 87t72 141.5l206 664q5 14 16.5 20.5t34.5 6.5q48 0 39 -30l-209 -672
q-34 -109 -95.5 -183t-146.5 -111.5t-192 -37.5zM578 1058q-12 0 -20 12t-8 23q0 10 3.5 15t7.5 9l162 126q15 13 28.5 18t29.5 5q13 0 23.5 -6.5t18.5 -19.5l93 -130q5 -7 5.5 -12.5t0.5 -10.5q0 -12 -13 -20.5t-22 -8.5q-10 0 -17 5t-15 12l-93 90l-153 -96
q-7 -4 -14.5 -7.5t-16.5 -3.5z" />
    <glyph glyph-name="Udieresis" unicode="&#xdc;" horiz-adv-x="958" 
d="M415 -19q-83 0 -143 23.5t-94 68.5t-39 111t22 152l208 652q5 14 16.5 20.5t35.5 6.5q23 0 34 -7t6 -23l-214 -661q-29 -89 -16 -146.5t62.5 -84.5t129.5 -27q88 0 154.5 29.5t112.5 87t72 141.5l206 664q5 14 16.5 20.5t34.5 6.5q48 0 39 -30l-209 -672
q-34 -109 -95.5 -183t-146.5 -111.5t-192 -37.5zM612 1092q-21 0 -35 13t-14 39q0 27 18.5 50.5t54.5 23.5q20 0 34 -12.5t14 -38.5q0 -27 -17 -51t-55 -24zM858 1092q-20 0 -34.5 13t-14.5 39q0 27 18.5 50.5t54.5 23.5q20 0 34.5 -12.5t14.5 -38.5q0 -27 -17.5 -51
t-55.5 -24z" />
    <glyph glyph-name="Yacute" unicode="&#xdd;" horiz-adv-x="690" 
d="M250 -14q-44 0 -35 28l138 425l-112 531q-4 20 6.5 32.5t36.5 12.5q23 0 31 -9t12 -27l92 -447l407 450q14 17 27 25t37 8q26 0 35.5 -15.5t-8.5 -36.5l-475 -527l-137 -422q-9 -28 -55 -28zM536 1058q-11 0 -24.5 13.5t-13.5 23.5q0 4 1.5 8t7.5 10l158 145q5 5 9.5 8
t10.5 3q10 0 22.5 -9t21.5 -21t9 -23q0 -7 -2 -12t-13 -13l-168 -123l-10.5 -7t-8.5 -3z" />
    <glyph glyph-name="Thorn" unicode="&#xde;" horiz-adv-x="802" 
d="M107 -14q-22 0 -32.5 7t-6.5 23l316 972q5 14 16 20.5t33 6.5q23 0 33.5 -7t5.5 -23l-43 -127h129q100 0 166.5 -23.5t100 -72t33.5 -121.5q0 -83 -31.5 -147t-90 -109t-140 -73.5t-181.5 -41.5q-43 -5 -90 -7.5t-90 -3.5l-79 -245q-5 -14 -15.5 -21t-33.5 -7zM260 339
q28 1 58 2t61 3.5t59 7.5q107 16 180.5 52t111 92.5t37.5 134.5q0 52 -23.5 84.5t-72.5 47.5t-126 15h-143z" />
    <glyph glyph-name="germandbls.jmc" unicode="&#xdf;" horiz-adv-x="700" 
d="M-76 -515q-16 0 -30.5 7t-8.5 26l403 1235q27 82 68.5 141.5t98 91.5t128.5 32q45 0 80 -14t59 -40t36.5 -62.5t12.5 -81.5q0 -33 -9 -69.5t-26 -72t-41 -68t-54.5 -59t-65.5 -45.5t-74 -27q43 -16 71 -47.5t42 -71.5t14 -82q0 -55 -18.5 -108t-54.5 -95.5t-88.5 -68
t-120.5 -25.5q-46 0 -77 7t-53 18q-13 8 -15.5 22t7.5 32q8 14 16.5 18t18.5 2q30 -10 54 -14.5t52 -4.5q47 0 83 17.5t60.5 48t37.5 69t13 79.5q0 43 -17 82t-48.5 63t-77.5 24h-6q-17 0 -17 16t6 33q4 13 10.5 22t20.5 9h14q36 0 68.5 12.5t61 34.5t52 50.5t40 61t26 65.5
t9.5 64q0 39 -11.5 67t-35.5 43.5t-63 15.5q-50 0 -88.5 -24t-66.5 -68.5t-48 -106.5l-402 -1228q-4 -13 -14 -19.5t-32 -6.5z" />
    <glyph glyph-name="agrave" unicode="&#xe0;" horiz-adv-x="623" 
d="M159 -17q-37 0 -64.5 18.5t-42.5 53t-15 80.5t13.5 98t41 102.5t67 92t91.5 66.5t117 25q30 0 62 -8.5t61 -23.5l1 4q6 16 15.5 20t27.5 4q31 0 39.5 -9.5t1.5 -29.5l-123 -369q-5 -16 -6 -26.5t3 -15.5t13 -5q11 0 22 7t22.5 19t23.5 27q8 10 16.5 12t21.5 -7
q16 -10 18.5 -20t-2.5 -21q-9 -15 -28.5 -37.5t-47.5 -38.5t-63 -16t-53 14t-23.5 35.5t-2.5 46.5t9 48q1 2 1.5 4.5t1.5 5.5q-40 -54 -78.5 -89t-74 -51t-66.5 -16zM128 150q0 -27 7 -46.5t20.5 -30t31.5 -10.5q34 0 76 32.5t87 95t92 151.5l25 76q-31 13 -58 17.5t-51 4.5
q-45 0 -82 -19.5t-64.5 -52t-46 -71.5t-28 -77.5t-9.5 -69.5zM439 623q-7 0 -14.5 5t-15.5 18l-81 145l-5.5 11t-2.5 11q0 11 9 20.5t22.5 15.5t26.5 6q23 0 35 -32l57 -153q2 -4 3 -8.5t1 -8.5q0 -15 -11.5 -22.5t-23.5 -7.5z" />
    <glyph glyph-name="aacute" unicode="&#xe1;" horiz-adv-x="623" 
d="M159 -17q-37 0 -64.5 18.5t-42.5 53t-15 80.5t13.5 98t41 102.5t67 92t91.5 66.5t117 25q30 0 62 -8.5t61 -23.5l1 4q6 16 15.5 20t27.5 4q31 0 39.5 -9.5t1.5 -29.5l-123 -369q-5 -16 -6 -26.5t3 -15.5t13 -5q11 0 22 7t22.5 19t23.5 27q8 10 16.5 12t21.5 -7
q16 -10 18.5 -20t-2.5 -21q-9 -15 -28.5 -37.5t-47.5 -38.5t-63 -16t-53 14t-23.5 35.5t-2.5 46.5t9 48q1 2 1.5 4.5t1.5 5.5q-40 -54 -78.5 -89t-74 -51t-66.5 -16zM128 150q0 -27 7 -46.5t20.5 -30t31.5 -10.5q34 0 76 32.5t87 95t92 151.5l25 76q-31 13 -58 17.5t-51 4.5
q-45 0 -82 -19.5t-64.5 -52t-46 -71.5t-28 -77.5t-9.5 -69.5zM381 616q-9 0 -21.5 9.5t-12.5 20.5q0 7 2.5 13t7.5 12l123 153q9 12 16 16t15 4q10 0 22.5 -7t21.5 -18t9 -23q0 -8 -3.5 -13t-9.5 -10l-141 -142q-15 -15 -29 -15z" />
    <glyph glyph-name="acircumflex" unicode="&#xe2;" horiz-adv-x="623" 
d="M159 -17q-37 0 -64.5 18.5t-42.5 53t-15 80.5t13.5 98t41 102.5t67 92t91.5 66.5t117 25q30 0 62 -8.5t61 -23.5l1 4q6 16 15.5 20t27.5 4q31 0 39.5 -9.5t1.5 -29.5l-123 -369q-5 -16 -6 -26.5t3 -15.5t13 -5q11 0 22 7t22.5 19t23.5 27q8 10 16.5 12t21.5 -7
q16 -10 18.5 -20t-2.5 -21q-9 -15 -28.5 -37.5t-47.5 -38.5t-63 -16t-53 14t-23.5 35.5t-2.5 46.5t9 48q1 2 1.5 4.5t1.5 5.5q-40 -54 -78.5 -89t-74 -51t-66.5 -16zM128 150q0 -27 7 -46.5t20.5 -30t31.5 -10.5q34 0 76 32.5t87 95t92 151.5l25 76q-31 13 -58 17.5t-51 4.5
q-45 0 -82 -19.5t-64.5 -52t-46 -71.5t-28 -77.5t-9.5 -69.5zM277 610q-13 0 -22.5 11t-9.5 23q0 9 4 15t8 10l158 149q14 13 28 17.5t30 4.5q13 0 24.5 -6.5t17.5 -19.5l82 -153q4 -7 5 -12t1 -10q0 -12 -14.5 -20.5t-24.5 -8.5t-15.5 5t-10.5 11l-86 113l-147 -114
q-6 -4 -13 -9.5t-15 -5.5z" />
    <glyph glyph-name="atilde" unicode="&#xe3;" horiz-adv-x="623" 
d="M159 -17q-37 0 -64.5 18.5t-42.5 53t-15 80.5t13.5 98t41 102.5t67 92t91.5 66.5t117 25q30 0 62 -8.5t61 -23.5l1 4q6 16 15.5 20t27.5 4q31 0 39.5 -9.5t1.5 -29.5l-123 -369q-5 -16 -6 -26.5t3 -15.5t13 -5q11 0 22 7t22.5 19t23.5 27q8 10 16.5 12t21.5 -7
q16 -10 18.5 -20t-2.5 -21q-9 -15 -28.5 -37.5t-47.5 -38.5t-63 -16t-53 14t-23.5 35.5t-2.5 46.5t9 48q1 2 1.5 4.5t1.5 5.5q-40 -54 -78.5 -89t-74 -51t-66.5 -16zM128 150q0 -27 7 -46.5t20.5 -30t31.5 -10.5q34 0 76 32.5t87 95t92 151.5l25 76q-31 13 -58 17.5t-51 4.5
q-45 0 -82 -19.5t-64.5 -52t-46 -71.5t-28 -77.5t-9.5 -69.5zM279 640q-31 0 -30 28q5 66 31 99.5t71 33.5q30 0 56 -11t48.5 -25.5t41.5 -25.5t36 -11q10 0 18.5 11.5t12.5 36.5q6 27 43 27q16 0 22.5 -6.5t4.5 -20.5q-4 -66 -28.5 -100.5t-72.5 -34.5q-31 0 -57 11
t-47.5 25.5t-40.5 25.5t-37 11q-13 0 -21 -12.5t-12 -36.5q-2 -12 -12 -18.5t-27 -6.5z" />
    <glyph glyph-name="adieresis" unicode="&#xe4;" horiz-adv-x="623" 
d="M159 -17q-37 0 -64.5 18.5t-42.5 53t-15 80.5t13.5 98t41 102.5t67 92t91.5 66.5t117 25q30 0 62 -8.5t61 -23.5l1 4q6 16 15.5 20t27.5 4q31 0 39.5 -9.5t1.5 -29.5l-123 -369q-5 -16 -6 -26.5t3 -15.5t13 -5q11 0 22 7t22.5 19t23.5 27q8 10 16.5 12t21.5 -7
q16 -10 18.5 -20t-2.5 -21q-9 -15 -28.5 -37.5t-47.5 -38.5t-63 -16t-53 14t-23.5 35.5t-2.5 46.5t9 48q1 2 1.5 4.5t1.5 5.5q-40 -54 -78.5 -89t-74 -51t-66.5 -16zM128 150q0 -27 7 -46.5t20.5 -30t31.5 -10.5q34 0 76 32.5t87 95t92 151.5l25 76q-31 13 -58 17.5t-51 4.5
q-45 0 -82 -19.5t-64.5 -52t-46 -71.5t-28 -77.5t-9.5 -69.5zM314 669q-20 0 -34 13t-14 38q0 27 17.5 51t54.5 24q21 0 35 -12.5t14 -38.5q0 -27 -17.5 -51t-55.5 -24zM553 669q-21 0 -35 13t-14 38q0 27 17.5 51t54.5 24q21 0 35 -12.5t14 -38.5q0 -27 -17 -51t-55 -24z
" />
    <glyph glyph-name="aring" unicode="&#xe5;" horiz-adv-x="623" 
d="M159 -17q-37 0 -64.5 18.5t-42.5 53t-15 80.5t13.5 98t41 102.5t67 92t91.5 66.5t117 25q30 0 62 -8.5t61 -23.5l1 4q6 16 15.5 20t27.5 4q31 0 39.5 -9.5t1.5 -29.5l-123 -369q-5 -16 -6 -26.5t3 -15.5t13 -5q11 0 22 7t22.5 19t23.5 27q8 10 16.5 12t21.5 -7
q16 -10 18.5 -20t-2.5 -21q-9 -15 -28.5 -37.5t-47.5 -38.5t-63 -16t-53 14t-23.5 35.5t-2.5 46.5t9 48q1 2 1.5 4.5t1.5 5.5q-40 -54 -78.5 -89t-74 -51t-66.5 -16zM128 150q0 -27 7 -46.5t20.5 -30t31.5 -10.5q34 0 76 32.5t87 95t92 151.5l25 76q-31 13 -58 17.5t-51 4.5
q-45 0 -82 -19.5t-64.5 -52t-46 -71.5t-28 -77.5t-9.5 -69.5zM424 601q-55 0 -85 29.5t-30 84.5q0 41 20.5 73.5t55.5 52t77 19.5q58 0 89 -28.5t31 -83.5q0 -41 -20.5 -74.5t-56.5 -53t-81 -19.5zM429 661q22 0 40 12t29 31.5t11 41.5q0 28 -12.5 41t-38.5 13
q-20 0 -37.5 -12t-28 -31t-10.5 -41q0 -27 12 -41t35 -14z" />
    <glyph glyph-name="ae.mod" unicode="&#xe6;" horiz-adv-x="893" 
d="M36 134q0 46 15 99t44 103.5t72 92t99.5 66t125.5 24.5q39 0 74 -7t72.5 -21.5t83.5 -39.5q-49 -54 -82 -125.5t-33 -152.5q0 -34 11 -59.5t32.5 -39t53.5 -13.5t58 12.5t49.5 33t45.5 44.5q14 14 28.5 10.5t24.5 -14.5q12 -11 14 -23.5t-12 -27.5q-36 -43 -73 -68.5
t-73.5 -36t-72.5 -10.5q-59 0 -98.5 25t-58.5 67.5t-19 94.5q0 56 17.5 111t43.5 103t50 83l12 -64q-28 17 -65 28t-89 11q-61 0 -109.5 -30t-81.5 -77t-50 -99.5t-17 -97.5q0 -24 6.5 -40.5t19 -24.5t31.5 -8q31 0 66 25t72.5 68t76 100t75.5 122l69 -12
q-61 -111 -112.5 -185t-97 -117.5t-86 -62t-80.5 -18.5q-67 0 -99.5 42.5t-32.5 108.5zM877 401q0 -41 -24.5 -74t-65.5 -59.5t-94.5 -45t-112 -30.5t-117.5 -18l12 71q39 4 82 12t83.5 20t73.5 29t52.5 38t19.5 47t-17 37.5t-50 11.5q-44 0 -84 -10t-78 -35l-13 81
q40 20 83 31.5t105 11.5q71 0 108 -32t37 -86z" />
    <glyph glyph-name="ccedilla" unicode="&#xe7;" horiz-adv-x="523" 
d="M231 -19q-63 0 -103.5 25t-59.5 67.5t-19 94.5q0 56 19.5 117.5t57.5 114.5t95 86t133 33q57 0 96.5 -18t69.5 -53q15 -18 10.5 -30.5t-16.5 -23.5q-13 -10 -26 -11.5t-26 13.5q-19 21 -47 32t-70 11q-50 0 -89 -26t-65 -67t-39 -86.5t-13 -86.5q0 -34 11.5 -59t34 -38.5
t56.5 -14.5q34 0 61.5 13t52 34.5t47.5 46.5q14 14 29 10.5t25 -14.5q12 -12 13.5 -24t-11.5 -27q-36 -46 -75.5 -72t-77.5 -36.5t-74 -10.5zM158 -269q-37 0 -66.5 7.5t-46.5 20.5q-8 8 -7 20.5t6 21.5q7 13 15.5 17.5t18.5 0.5q13 -6 32 -12.5t50 -6.5q25 0 39 7.5
t14 27.5q0 22 -19.5 27.5t-46.5 2.5q-11 -1 -15.5 2t-8.5 9q-4 7 -2.5 13.5t6.5 13.5l73 110h69l-80 -118l-29 16q44 14 75 8.5t47.5 -25.5t16.5 -49q0 -37 -19.5 -62.5t-51.5 -38.5t-70 -13z" />
    <glyph glyph-name="egrave" unicode="&#xe8;" horiz-adv-x="526" 
d="M225 -19q-59 0 -98 25t-58.5 67.5t-19.5 94.5q0 58 21 120t61 114t98.5 84.5t135.5 32.5q47 0 79 -14.5t48.5 -40.5t16.5 -63q0 -41 -24.5 -74t-65.5 -59.5t-94.5 -45t-112 -30.5t-117.5 -18l12 71q39 4 82 12t84 20t74 29t52 38t19 47t-16.5 37.5t-46.5 11.5
q-51 0 -91.5 -25.5t-68 -66t-42 -87t-14.5 -88.5q0 -34 11 -59.5t33 -39t54 -13.5t58 12.5t49 33t46 44.5q13 14 28 10.5t25 -14.5q11 -11 13 -23.5t-11 -27.5q-36 -43 -73 -68.5t-73.5 -36t-73.5 -10.5zM418 623q-7 0 -14.5 5t-15.5 18l-81 145l-5.5 11t-2.5 11
q0 11 9 20.5t22.5 15.5t26.5 6q23 0 35 -32l57 -153q2 -4 3 -8.5t1 -8.5q0 -15 -11.5 -22.5t-23.5 -7.5z" />
    <glyph glyph-name="eacute" unicode="&#xe9;" horiz-adv-x="526" 
d="M225 -19q-59 0 -98 25t-58.5 67.5t-19.5 94.5q0 58 21 120t61 114t98.5 84.5t135.5 32.5q47 0 79 -14.5t48.5 -40.5t16.5 -63q0 -41 -24.5 -74t-65.5 -59.5t-94.5 -45t-112 -30.5t-117.5 -18l12 71q39 4 82 12t84 20t74 29t52 38t19 47t-16.5 37.5t-46.5 11.5
q-51 0 -91.5 -25.5t-68 -66t-42 -87t-14.5 -88.5q0 -34 11 -59.5t33 -39t54 -13.5t58 12.5t49 33t46 44.5q13 14 28 10.5t25 -14.5q11 -11 13 -23.5t-11 -27.5q-36 -43 -73 -68.5t-73.5 -36t-73.5 -10.5zM358 616q-9 0 -21.5 9.5t-12.5 20.5q0 7 2.5 13t7.5 12l123 153
q9 12 16 16t15 4q10 0 22.5 -7t21.5 -18t9 -23q0 -8 -3.5 -13t-9.5 -10l-141 -142q-15 -15 -29 -15z" />
    <glyph glyph-name="ecircumflex" unicode="&#xea;" horiz-adv-x="526" 
d="M225 -19q-59 0 -98 25t-58.5 67.5t-19.5 94.5q0 58 21 120t61 114t98.5 84.5t135.5 32.5q47 0 79 -14.5t48.5 -40.5t16.5 -63q0 -41 -24.5 -74t-65.5 -59.5t-94.5 -45t-112 -30.5t-117.5 -18l12 71q39 4 82 12t84 20t74 29t52 38t19 47t-16.5 37.5t-46.5 11.5
q-51 0 -91.5 -25.5t-68 -66t-42 -87t-14.5 -88.5q0 -34 11 -59.5t33 -39t54 -13.5t58 12.5t49 33t46 44.5q13 14 28 10.5t25 -14.5q11 -11 13 -23.5t-11 -27.5q-36 -43 -73 -68.5t-73.5 -36t-73.5 -10.5zM256 610q-13 0 -22.5 11t-9.5 23q0 9 4 15t8 10l158 149
q14 13 28 17.5t30 4.5q13 0 24.5 -6.5t17.5 -19.5l82 -153q4 -7 5 -12t1 -10q0 -12 -14.5 -20.5t-24.5 -8.5t-15.5 5t-10.5 11l-86 113l-147 -114q-6 -4 -13 -9.5t-15 -5.5z" />
    <glyph glyph-name="edieresis" unicode="&#xeb;" horiz-adv-x="526" 
d="M225 -19q-59 0 -98 25t-58.5 67.5t-19.5 94.5q0 58 21 120t61 114t98.5 84.5t135.5 32.5q47 0 79 -14.5t48.5 -40.5t16.5 -63q0 -41 -24.5 -74t-65.5 -59.5t-94.5 -45t-112 -30.5t-117.5 -18l12 71q39 4 82 12t84 20t74 29t52 38t19 47t-16.5 37.5t-46.5 11.5
q-51 0 -91.5 -25.5t-68 -66t-42 -87t-14.5 -88.5q0 -34 11 -59.5t33 -39t54 -13.5t58 12.5t49 33t46 44.5q13 14 28 10.5t25 -14.5q11 -11 13 -23.5t-11 -27.5q-36 -43 -73 -68.5t-73.5 -36t-73.5 -10.5zM293 669q-20 0 -34 13t-14 38q0 27 17.5 51t54.5 24q21 0 35 -12.5
t14 -38.5q0 -27 -17.5 -51t-55.5 -24zM532 669q-21 0 -35 13t-14 38q0 27 17.5 51t54.5 24q21 0 35 -12.5t14 -38.5q0 -27 -17 -51t-55 -24z" />
    <glyph glyph-name="igrave" unicode="&#xec;" horiz-adv-x="304" 
d="M127 -15q-39 0 -58 16t-22.5 41.5t1.5 54.5t13 56l108 330q7 20 17 26t33 6t33.5 -9t5.5 -23l-123 -376q-7 -16 -7.5 -26.5t4 -15.5t12.5 -5q11 0 22 6.5t22 18.5t22 27q8 11 19.5 12t24.5 -7q14 -10 16 -19.5t-4 -18.5q-9 -17 -28.5 -39t-47.5 -38.5t-63 -16.5zM283 623
q-7 0 -14.5 5t-15.5 18l-81 145l-5.5 11t-2.5 11q0 11 9 20.5t22.5 15.5t26.5 6q23 0 35 -32l57 -153q2 -4 3 -8.5t1 -8.5q0 -15 -11.5 -22.5t-23.5 -7.5z" />
    <glyph glyph-name="iacute" unicode="&#xed;" horiz-adv-x="304" 
d="M127 -15q-39 0 -58 16t-22.5 41.5t1.5 54.5t13 56l108 330q7 20 17 26t33 6t33.5 -9t5.5 -23l-123 -376q-7 -16 -7.5 -26.5t4 -15.5t12.5 -5q11 0 22 6.5t22 18.5t22 27q8 11 19.5 12t24.5 -7q14 -10 16 -19.5t-4 -18.5q-9 -17 -28.5 -39t-47.5 -38.5t-63 -16.5zM223 616
q-9 0 -21.5 9.5t-12.5 20.5q0 7 2.5 13t7.5 12l123 153q9 12 16 16t15 4q10 0 22.5 -7t21.5 -18t9 -23q0 -8 -3.5 -13t-9.5 -10l-141 -142q-15 -15 -29 -15z" />
    <glyph glyph-name="icircumflex" unicode="&#xee;" horiz-adv-x="304" 
d="M127 -15q-39 0 -58 16t-22.5 41.5t1.5 54.5t13 56l108 330q7 20 17 26t33 6t33.5 -9t5.5 -23l-123 -376q-7 -16 -7.5 -26.5t4 -15.5t12.5 -5q11 0 22 6.5t22 18.5t22 27q8 11 19.5 12t24.5 -7q14 -10 16 -19.5t-4 -18.5q-9 -17 -28.5 -39t-47.5 -38.5t-63 -16.5zM121 610
q-13 0 -22.5 11t-9.5 23q0 9 4 15t8 10l158 149q14 13 28 17.5t30 4.5q13 0 24.5 -6.5t17.5 -19.5l82 -153q4 -7 5 -12t1 -10q0 -12 -14.5 -20.5t-24.5 -8.5t-15.5 5t-10.5 11l-86 113l-147 -114q-6 -4 -13 -9.5t-15 -5.5z" />
    <glyph glyph-name="idieresis" unicode="&#xef;" horiz-adv-x="304" 
d="M127 -15q-39 0 -58 16t-22.5 41.5t1.5 54.5t13 56l108 330q7 20 17 26t33 6t33.5 -9t5.5 -23l-123 -376q-7 -16 -7.5 -26.5t4 -15.5t12.5 -5q11 0 22 6.5t22 18.5t22 27q8 11 19.5 12t24.5 -7q14 -10 16 -19.5t-4 -18.5q-9 -17 -28.5 -39t-47.5 -38.5t-63 -16.5zM158 669
q-20 0 -34 13t-14 38q0 27 17.5 51t54.5 24q21 0 35 -12.5t14 -38.5q0 -27 -17.5 -51t-55.5 -24zM397 669q-21 0 -35 13t-14 38q0 27 17.5 51t54.5 24q21 0 35 -12.5t14 -38.5q0 -27 -17 -51t-55 -24z" />
    <glyph glyph-name="eth.mod" unicode="&#xf0;" horiz-adv-x="603" 
d="M254 -19q-62 0 -105 25t-64.5 69.5t-21.5 100.5q0 53 18.5 112.5t54.5 112t88.5 85.5t120.5 33q36 0 67 -9t57 -26q3 63 0 126t-11.5 125t-24 121.5t-38.5 114.5q-6 14 0 24.5t22 18.5q34 14 49 -19q26 -59 44.5 -122t30.5 -127.5t17 -128.5t4 -126t-9 -120
q-4 -90 -28 -161.5t-64 -123t-93 -78.5t-114 -27zM264 61q40 0 75 21t61 61t42.5 99.5t20.5 135.5q2 6 3 12.5t2 12.5q-26 17 -56.5 26.5t-68.5 9.5q-45 0 -80.5 -25.5t-59.5 -65.5t-37 -84t-13 -81q0 -39 13.5 -66.5t38.5 -41.5t59 -14zM360 721q-10 -4 -20 3t-15 26
q-2 13 2.5 20.5t14.5 11.5l281 108q26 10 35 -24q5 -16 1 -24t-15 -12z" />
    <glyph glyph-name="ntilde" unicode="&#xf1;" horiz-adv-x="646" 
d="M468 -15q-38 0 -57 16t-23 41.5t1 54.5t14 56l65 191q10 27 10.5 48.5t-11 34t-39.5 12.5q-33 0 -70.5 -24t-76.5 -68.5t-76.5 -105.5t-69.5 -134l-31 -96q-4 -13 -14.5 -19.5t-33.5 -6.5q-16 0 -30 7t-7 26l150 465q7 20 16.5 26t28.5 6q31 0 39.5 -9.5t1.5 -29.5
l-42 -130q28 42 58 74t61.5 54.5t63.5 33.5t64 11q50 0 76 -23.5t29.5 -68.5t-18.5 -109l-71 -210q-5 -17 -6 -27.5t3 -15.5t13 -5q11 0 22 7t22.5 19t23.5 27q8 10 16.5 12t21.5 -7q16 -10 18.5 -20t-3.5 -21q-9 -15 -28.5 -37.5t-47.5 -38.5t-63 -16zM282 640
q-31 0 -30 28q5 66 31 99.5t71 33.5q30 0 56 -11t48.5 -25.5t41.5 -25.5t36 -11q10 0 18.5 11.5t12.5 36.5q6 27 43 27q16 0 22.5 -6.5t4.5 -20.5q-4 -66 -28.5 -100.5t-72.5 -34.5q-31 0 -57 11t-47.5 25.5t-40.5 25.5t-37 11q-13 0 -21 -12.5t-12 -36.5q-2 -12 -12 -18.5
t-27 -6.5z" />
    <glyph glyph-name="ograve" unicode="&#xf2;" horiz-adv-x="589" 
d="M241 -19q-62 0 -105 25t-64.5 69.5t-21.5 100.5q0 53 19 112.5t56.5 112t94 85.5t131.5 33q62 0 104.5 -23.5t64 -66t21.5 -98.5q0 -40 -11.5 -87.5t-35 -94t-59.5 -84.5t-84.5 -61t-109.5 -23zM251 61q49 0 86 26t62 66.5t38 85t13 82.5q0 39 -13 65t-37 39.5t-57 13.5
q-50 0 -88 -25.5t-63.5 -65.5t-38.5 -84t-13 -81q0 -39 13.5 -66.5t38.5 -41.5t59 -14zM422 623q-7 0 -14.5 5t-15.5 18l-81 145l-5.5 11t-2.5 11q0 11 9 20.5t22.5 15.5t26.5 6q23 0 35 -32l57 -153q2 -4 3 -8.5t1 -8.5q0 -15 -11.5 -22.5t-23.5 -7.5z" />
    <glyph glyph-name="oacute" unicode="&#xf3;" horiz-adv-x="589" 
d="M241 -19q-62 0 -105 25t-64.5 69.5t-21.5 100.5q0 53 19 112.5t56.5 112t94 85.5t131.5 33q62 0 104.5 -23.5t64 -66t21.5 -98.5q0 -40 -11.5 -87.5t-35 -94t-59.5 -84.5t-84.5 -61t-109.5 -23zM251 61q49 0 86 26t62 66.5t38 85t13 82.5q0 39 -13 65t-37 39.5t-57 13.5
q-50 0 -88 -25.5t-63.5 -65.5t-38.5 -84t-13 -81q0 -39 13.5 -66.5t38.5 -41.5t59 -14zM362 616q-9 0 -21.5 9.5t-12.5 20.5q0 7 2.5 13t7.5 12l123 153q9 12 16 16t15 4q10 0 22.5 -7t21.5 -18t9 -23q0 -8 -3.5 -13t-9.5 -10l-141 -142q-15 -15 -29 -15z" />
    <glyph glyph-name="ocircumflex" unicode="&#xf4;" horiz-adv-x="589" 
d="M241 -19q-62 0 -105 25t-64.5 69.5t-21.5 100.5q0 53 19 112.5t56.5 112t94 85.5t131.5 33q62 0 104.5 -23.5t64 -66t21.5 -98.5q0 -40 -11.5 -87.5t-35 -94t-59.5 -84.5t-84.5 -61t-109.5 -23zM251 61q49 0 86 26t62 66.5t38 85t13 82.5q0 39 -13 65t-37 39.5t-57 13.5
q-50 0 -88 -25.5t-63.5 -65.5t-38.5 -84t-13 -81q0 -39 13.5 -66.5t38.5 -41.5t59 -14zM260 610q-13 0 -22.5 11t-9.5 23q0 9 4 15t8 10l158 149q14 13 28 17.5t30 4.5q13 0 24.5 -6.5t17.5 -19.5l82 -153q4 -7 5 -12t1 -10q0 -12 -14.5 -20.5t-24.5 -8.5t-15.5 5t-10.5 11
l-86 113l-147 -114q-6 -4 -13 -9.5t-15 -5.5z" />
    <glyph glyph-name="otilde" unicode="&#xf5;" horiz-adv-x="589" 
d="M241 -19q-62 0 -105 25t-64.5 69.5t-21.5 100.5q0 53 19 112.5t56.5 112t94 85.5t131.5 33q62 0 104.5 -23.5t64 -66t21.5 -98.5q0 -40 -11.5 -87.5t-35 -94t-59.5 -84.5t-84.5 -61t-109.5 -23zM251 61q49 0 86 26t62 66.5t38 85t13 82.5q0 39 -13 65t-37 39.5t-57 13.5
q-50 0 -88 -25.5t-63.5 -65.5t-38.5 -84t-13 -81q0 -39 13.5 -66.5t38.5 -41.5t59 -14zM262 640q-31 0 -30 28q5 66 31 99.5t71 33.5q30 0 56 -11t48.5 -25.5t41.5 -25.5t36 -11q10 0 18.5 11.5t12.5 36.5q6 27 43 27q16 0 22.5 -6.5t4.5 -20.5q-4 -66 -28.5 -100.5
t-72.5 -34.5q-31 0 -57 11t-47.5 25.5t-40.5 25.5t-37 11q-13 0 -21 -12.5t-12 -36.5q-2 -12 -12 -18.5t-27 -6.5z" />
    <glyph glyph-name="odieresis" unicode="&#xf6;" horiz-adv-x="589" 
d="M241 -19q-62 0 -105 25t-64.5 69.5t-21.5 100.5q0 53 19 112.5t56.5 112t94 85.5t131.5 33q62 0 104.5 -23.5t64 -66t21.5 -98.5q0 -40 -11.5 -87.5t-35 -94t-59.5 -84.5t-84.5 -61t-109.5 -23zM251 61q49 0 86 26t62 66.5t38 85t13 82.5q0 39 -13 65t-37 39.5t-57 13.5
q-50 0 -88 -25.5t-63.5 -65.5t-38.5 -84t-13 -81q0 -39 13.5 -66.5t38.5 -41.5t59 -14zM297 669q-20 0 -34 13t-14 38q0 27 17.5 51t54.5 24q21 0 35 -12.5t14 -38.5q0 -27 -17.5 -51t-55.5 -24zM536 669q-21 0 -35 13t-14 38q0 27 17.5 51t54.5 24q21 0 35 -12.5t14 -38.5
q0 -27 -17 -51t-55 -24z" />
    <glyph glyph-name="divide" unicode="&#xf7;" horiz-adv-x="763" 
d="M161 398q-11 0 -15 10t3 32q11 38 36 38h538q11 0 15 -10t-3 -33q-10 -37 -36 -37h-538zM385 172q-29 0 -43 14t-14 39q0 37 16.5 57t50.5 20q30 0 44.5 -14t14.5 -38q0 -37 -17 -57.5t-52 -20.5zM483 572q-29 0 -43 14t-14 39q0 37 16.5 57t50.5 20q30 0 44.5 -14
t14.5 -38q0 -37 -17 -57.5t-52 -20.5z" />
    <glyph glyph-name="oslash" unicode="&#xf8;" horiz-adv-x="589" 
d="M241 -19q-62 0 -105 25t-64.5 69.5t-21.5 100.5q0 53 19 112.5t56.5 112t94 85.5t131.5 33q62 0 104.5 -23.5t64 -66t21.5 -98.5q0 -40 -11.5 -87.5t-35 -94t-59.5 -84.5t-84.5 -61t-109.5 -23zM251 61q49 0 86 26t62 66.5t38 85t13 82.5q0 39 -13 65t-37 39.5t-57 13.5
q-50 0 -88 -25.5t-63.5 -65.5t-38.5 -84t-13 -81q0 -39 13.5 -66.5t38.5 -41.5t59 -14zM85 -43q-8 -9 -21.5 -7.5t-24.5 11.5q-11 8 -13.5 19.5t8.5 24.5l469 525q8 8 20 8t25 -11q10 -10 13.5 -21.5t-5.5 -20.5z" />
    <glyph glyph-name="ugrave" unicode="&#xf9;" horiz-adv-x="646" 
d="M161 -15q-49 0 -76.5 23t-31 67.5t16.5 106.5l100 301q7 20 16.5 26t28.5 6q31 0 39.5 -9.5t1.5 -29.5l-104 -311q-10 -29 -11.5 -52t10.5 -36t41 -13q33 0 70 25t76.5 70.5t77 107.5t68.5 136l26 80q7 20 16.5 26t28.5 6q31 0 39.5 -9.5t1.5 -29.5l-121 -369
q-5 -16 -6 -26.5t3 -15.5t13 -5q11 0 21.5 7t21.5 18.5t22 26.5q8 11 19 12t25 -7q14 -10 16.5 -19.5t-3.5 -18.5q-11 -17 -30 -39t-46.5 -38.5t-62.5 -16.5q-37 0 -55 14t-23 36t-2 47t9 49l8 25q-28 -41 -58 -73t-61 -54t-62.5 -33t-62.5 -11zM438 623q-7 0 -14.5 5
t-15.5 18l-81 145l-5.5 11t-2.5 11q0 11 9 20.5t22.5 15.5t26.5 6q23 0 35 -32l57 -153q2 -4 3 -8.5t1 -8.5q0 -15 -11.5 -22.5t-23.5 -7.5z" />
    <glyph glyph-name="uacute" unicode="&#xfa;" horiz-adv-x="646" 
d="M161 -15q-49 0 -76.5 23t-31 67.5t16.5 106.5l100 301q7 20 16.5 26t28.5 6q31 0 39.5 -9.5t1.5 -29.5l-104 -311q-10 -29 -11.5 -52t10.5 -36t41 -13q33 0 70 25t76.5 70.5t77 107.5t68.5 136l26 80q7 20 16.5 26t28.5 6q31 0 39.5 -9.5t1.5 -29.5l-121 -369
q-5 -16 -6 -26.5t3 -15.5t13 -5q11 0 21.5 7t21.5 18.5t22 26.5q8 11 19 12t25 -7q14 -10 16.5 -19.5t-3.5 -18.5q-11 -17 -30 -39t-46.5 -38.5t-62.5 -16.5q-37 0 -55 14t-23 36t-2 47t9 49l8 25q-28 -41 -58 -73t-61 -54t-62.5 -33t-62.5 -11zM378 616q-9 0 -21.5 9.5
t-12.5 20.5q0 7 2.5 13t7.5 12l123 153q9 12 16 16t15 4q10 0 22.5 -7t21.5 -18t9 -23q0 -8 -3.5 -13t-9.5 -10l-141 -142q-15 -15 -29 -15z" />
    <glyph glyph-name="ucircumflex" unicode="&#xfb;" horiz-adv-x="646" 
d="M161 -15q-49 0 -76.5 23t-31 67.5t16.5 106.5l100 301q7 20 16.5 26t28.5 6q31 0 39.5 -9.5t1.5 -29.5l-104 -311q-10 -29 -11.5 -52t10.5 -36t41 -13q33 0 70 25t76.5 70.5t77 107.5t68.5 136l26 80q7 20 16.5 26t28.5 6q31 0 39.5 -9.5t1.5 -29.5l-121 -369
q-5 -16 -6 -26.5t3 -15.5t13 -5q11 0 21.5 7t21.5 18.5t22 26.5q8 11 19 12t25 -7q14 -10 16.5 -19.5t-3.5 -18.5q-11 -17 -30 -39t-46.5 -38.5t-62.5 -16.5q-37 0 -55 14t-23 36t-2 47t9 49l8 25q-28 -41 -58 -73t-61 -54t-62.5 -33t-62.5 -11zM276 610q-13 0 -22.5 11
t-9.5 23q0 9 4 15t8 10l158 149q14 13 28 17.5t30 4.5q13 0 24.5 -6.5t17.5 -19.5l82 -153q4 -7 5 -12t1 -10q0 -12 -14.5 -20.5t-24.5 -8.5t-15.5 5t-10.5 11l-86 113l-147 -114q-6 -4 -13 -9.5t-15 -5.5z" />
    <glyph glyph-name="udieresis" unicode="&#xfc;" horiz-adv-x="646" 
d="M161 -15q-49 0 -76.5 23t-31 67.5t16.5 106.5l100 301q7 20 16.5 26t28.5 6q31 0 39.5 -9.5t1.5 -29.5l-104 -311q-10 -29 -11.5 -52t10.5 -36t41 -13q33 0 70 25t76.5 70.5t77 107.5t68.5 136l26 80q7 20 16.5 26t28.5 6q31 0 39.5 -9.5t1.5 -29.5l-121 -369
q-5 -16 -6 -26.5t3 -15.5t13 -5q11 0 21.5 7t21.5 18.5t22 26.5q8 11 19 12t25 -7q14 -10 16.5 -19.5t-3.5 -18.5q-11 -17 -30 -39t-46.5 -38.5t-62.5 -16.5q-37 0 -55 14t-23 36t-2 47t9 49l8 25q-28 -41 -58 -73t-61 -54t-62.5 -33t-62.5 -11zM313 669q-20 0 -34 13
t-14 38q0 27 17.5 51t54.5 24q21 0 35 -12.5t14 -38.5q0 -27 -17.5 -51t-55.5 -24zM552 669q-21 0 -35 13t-14 38q0 27 17.5 51t54.5 24q21 0 35 -12.5t14 -38.5q0 -27 -17 -51t-55 -24z" />
    <glyph glyph-name="yacute" unicode="&#xfd;" horiz-adv-x="615" 
d="M161 -15q-49 0 -76.5 23t-31 67.5t16.5 106.5l100 301q7 20 16.5 26t28.5 6q31 0 39.5 -9.5t1.5 -29.5l-104 -311q-10 -29 -11.5 -52t10.5 -36t41 -13q32 0 69.5 25t76.5 70.5t76.5 107t69.5 135.5l26 81q7 20 16.5 26t28.5 6q31 0 39.5 -9.5t1.5 -29.5l-245 -751
q-30 -91 -63 -144.5t-79 -76.5t-115 -23q-37 0 -69.5 9.5t-58 26t-44.5 35.5q-14 15 -18 28.5t17 29.5q18 14 29 14.5t25 -14.5q23 -25 54.5 -38t69.5 -13q44 0 73.5 16.5t51.5 53.5t42 99l139 431q-28 -42 -58 -74.5t-61 -54.5t-62.5 -33.5t-62.5 -11.5zM380 616
q-9 0 -21.5 9.5t-12.5 20.5q0 7 2.5 13t7.5 12l123 153q9 12 16 16t15 4q10 0 22.5 -7t21.5 -18t9 -23q0 -8 -3.5 -13t-9.5 -10l-141 -142q-15 -15 -29 -15z" />
    <glyph glyph-name="thorn.jmc" unicode="&#xfe;" horiz-adv-x="635" 
d="M-74 -515q-16 0 -29.5 7.5t-8.5 25.5l476 1465q6 20 15.5 26t29.5 6q31 0 39.5 -9.5t1.5 -29.5l-197 -601q38 50 75 81.5t71 47t66 15.5q55 0 88 -41t33 -112q0 -46 -14 -98t-41.5 -102.5t-67 -91.5t-90 -66t-112.5 -25q-32 0 -63.5 9.5t-59.5 24.5l-165 -506
q-4 -13 -14.5 -19.5t-32.5 -6.5zM159 84q31 -13 57 -18t51 -5q44 0 80 20t63.5 52.5t46 71t28 77.5t9.5 70q0 27 -7 46.5t-19.5 30t-31.5 10.5q-35 0 -74.5 -29.5t-82.5 -87t-88 -139.5z" />
    <glyph glyph-name="ydieresis" unicode="&#xff;" horiz-adv-x="615" 
d="M161 -15q-49 0 -76.5 23t-31 67.5t16.5 106.5l100 301q7 20 16.5 26t28.5 6q31 0 39.5 -9.5t1.5 -29.5l-104 -311q-10 -29 -11.5 -52t10.5 -36t41 -13q32 0 69.5 25t76.5 70.5t76.5 107t69.5 135.5l26 81q7 20 16.5 26t28.5 6q31 0 39.5 -9.5t1.5 -29.5l-245 -751
q-30 -91 -63 -144.5t-79 -76.5t-115 -23q-37 0 -69.5 9.5t-58 26t-44.5 35.5q-14 15 -18 28.5t17 29.5q18 14 29 14.5t25 -14.5q23 -25 54.5 -38t69.5 -13q44 0 73.5 16.5t51.5 53.5t42 99l139 431q-28 -42 -58 -74.5t-61 -54.5t-62.5 -33.5t-62.5 -11.5zM315 669
q-20 0 -34 13t-14 38q0 27 17.5 51t54.5 24q21 0 35 -12.5t14 -38.5q0 -27 -17.5 -51t-55.5 -24zM554 669q-21 0 -35 13t-14 38q0 27 17.5 51t54.5 24q21 0 35 -12.5t14 -38.5q0 -27 -17 -51t-55 -24z" />
    <glyph glyph-name="Amacron" unicode="&#x100;" horiz-adv-x="833" 
d="M-15 -14q-26 0 -34 15.5t7 37.5l620 936q14 23 29 31.5t39 8.5q19 0 30.5 -9.5t12.5 -41.5l44 -933q2 -20 -9.5 -32.5t-37.5 -12.5q-22 0 -29 8.5t-9 28.5l-12 262h-416l-170 -259q-18 -26 -28.5 -33t-36.5 -7zM275 365h358l-24 509zM526 1120q-19 0 -23.5 11.5t0.5 29.5
q5 22 14 33t27 11h268q20 0 24.5 -12.5t-0.5 -31.5q-5 -21 -14 -31t-27 -10h-269z" />
    <glyph glyph-name="amacron" unicode="&#x101;" horiz-adv-x="623" 
d="M159 -17q-37 0 -64.5 18.5t-42.5 53t-15 80.5t13.5 98t41 102.5t67 92t91.5 66.5t117 25q30 0 62 -8.5t61 -23.5l1 4q6 16 15.5 20t27.5 4q31 0 39.5 -9.5t1.5 -29.5l-123 -369q-5 -16 -6 -26.5t3 -15.5t13 -5q11 0 22 7t22.5 19t23.5 27q8 10 16.5 12t21.5 -7
q16 -10 18.5 -20t-2.5 -21q-9 -15 -28.5 -37.5t-47.5 -38.5t-63 -16t-53 14t-23.5 35.5t-2.5 46.5t9 48q1 2 1.5 4.5t1.5 5.5q-40 -54 -78.5 -89t-74 -51t-66.5 -16zM128 150q0 -27 7 -46.5t20.5 -30t31.5 -10.5q34 0 76 32.5t87 95t92 151.5l25 76q-31 13 -58 17.5t-51 4.5
q-45 0 -82 -19.5t-64.5 -52t-46 -71.5t-28 -77.5t-9.5 -69.5zM307 686q-20 0 -24 12t0 30q5 21 14 32t27 11h258q20 0 24 -12t-1 -31q-5 -21 -14 -31.5t-27 -10.5h-257z" />
    <glyph glyph-name="Abreve" unicode="&#x102;" horiz-adv-x="833" 
d="M-15 -14q-26 0 -34 15.5t7 37.5l620 936q14 23 29 31.5t39 8.5q19 0 30.5 -9.5t12.5 -41.5l44 -933q2 -20 -9.5 -32.5t-37.5 -12.5q-22 0 -29 8.5t-9 28.5l-12 262h-416l-170 -259q-18 -26 -28.5 -33t-36.5 -7zM275 365h358l-24 509zM648 1058q-73 0 -111 44.5t-28 136.5
q2 15 11 21t24 6t24.5 -7.5t9.5 -19.5q-1 -51 23.5 -73t62.5 -22q46 0 79.5 26.5t51.5 65.5q8 18 17 24t23 6q17 0 26.5 -9t4.5 -24q-23 -69 -51.5 -107t-69 -53t-97.5 -15z" />
    <glyph glyph-name="abreve" unicode="&#x103;" horiz-adv-x="623" 
d="M159 -17q-37 0 -64.5 18.5t-42.5 53t-15 80.5t13.5 98t41 102.5t67 92t91.5 66.5t117 25q30 0 62 -8.5t61 -23.5l1 4q6 16 15.5 20t27.5 4q31 0 39.5 -9.5t1.5 -29.5l-123 -369q-5 -16 -6 -26.5t3 -15.5t13 -5q11 0 22 7t22.5 19t23.5 27q8 10 16.5 12t21.5 -7
q16 -10 18.5 -20t-2.5 -21q-9 -15 -28.5 -37.5t-47.5 -38.5t-63 -16t-53 14t-23.5 35.5t-2.5 46.5t9 48q1 2 1.5 4.5t1.5 5.5q-40 -54 -78.5 -89t-74 -51t-66.5 -16zM128 150q0 -27 7 -46.5t20.5 -30t31.5 -10.5q34 0 76 32.5t87 95t92 151.5l25 76q-31 13 -58 17.5t-51 4.5
q-45 0 -82 -19.5t-64.5 -52t-46 -71.5t-28 -77.5t-9.5 -69.5zM420 618q-76 0 -111 52.5t-18 149.5q2 15 11.5 21.5t25.5 6.5t25.5 -8t8.5 -20q-4 -55 16 -84.5t57 -29.5q44 0 79 33.5t54 76.5q8 18 16.5 24t23.5 6q19 0 28.5 -9t4.5 -24q-24 -72 -54.5 -114.5t-71 -61.5
t-95.5 -19z" />
    <glyph glyph-name="Aogonek" unicode="&#x104;" horiz-adv-x="833" 
d="M-15 -14q-26 0 -34 15.5t7 37.5l620 936q14 23 29 31.5t39 8.5q19 0 30.5 -9.5t12.5 -41.5l44 -933q2 -20 -9.5 -32.5t-37.5 -12.5q-22 0 -29 8.5t-9 28.5l-12 262h-416l-170 -259q-18 -26 -28.5 -33t-36.5 -7zM275 365h358l-24 509zM535 -257q-30 0 -47 16t-17 44
q0 26 14.5 52t40.5 52.5t62 53.5t79 58l62 -1v-6q-35 -27 -65.5 -52.5t-52.5 -48t-34.5 -41t-12.5 -32.5q0 -9 5 -14t14 -5q18 0 36 12.5t43 34.5q6 6 16.5 7.5t21.5 -9.5q7 -8 9.5 -17.5t-4.5 -18.5q-17 -24 -46.5 -43.5t-61.5 -30.5t-62 -11z" />
    <glyph glyph-name="aogonek" unicode="&#x105;" horiz-adv-x="623" 
d="M159 -17q-37 0 -64.5 18.5t-42.5 53t-15 80.5t13.5 98t41 102.5t67 92t91.5 66.5t117 25q30 0 62 -8.5t61 -23.5l1 4q6 16 15.5 20t27.5 4q31 0 39.5 -9.5t1.5 -29.5l-123 -369q-5 -16 -6 -26.5t3 -15.5t13 -5q11 0 22 7t22.5 19t23.5 27q8 10 16.5 12t21.5 -7
q16 -10 18.5 -20t-2.5 -21q-9 -15 -28.5 -37.5t-47.5 -38.5t-63 -16t-53 14t-23.5 35.5t-2.5 46.5t9 48q1 2 1.5 4.5t1.5 5.5q-40 -54 -78.5 -89t-74 -51t-66.5 -16zM128 150q0 -27 7 -46.5t20.5 -30t31.5 -10.5q34 0 76 32.5t87 95t92 151.5l25 76q-31 13 -58 17.5t-51 4.5
q-45 0 -82 -19.5t-64.5 -52t-46 -71.5t-28 -77.5t-9.5 -69.5zM345 -244q-30 0 -47 16t-17 44q0 26 14.5 52t40.5 52.5t62 53.5t79 58l62 -1v-6q-35 -27 -65.5 -52.5t-52.5 -48t-34.5 -41t-12.5 -32.5q0 -9 5 -14t14 -5q18 0 36 12.5t43 34.5q6 6 16.5 7.5t21.5 -9.5
q7 -8 9.5 -17.5t-4.5 -18.5q-17 -24 -46.5 -43.5t-61.5 -30.5t-62 -11z" />
    <glyph glyph-name="Cacute" unicode="&#x106;" horiz-adv-x="861" 
d="M467 -19q-74 0 -133 24t-100 70.5t-63 113.5t-22 151q0 69 16.5 145t49 152t80.5 143.5t112 120.5t143 83.5t174 30.5q63 0 113.5 -14t89 -40.5t65.5 -66.5q8 -11 3.5 -19.5t-18.5 -19.5q-13 -10 -22.5 -11.5t-23.5 10.5q-25 26 -56 42.5t-71 25t-95 8.5
q-69 0 -130.5 -25t-113.5 -69.5t-93 -101.5t-69.5 -121.5t-44 -130.5t-15.5 -127q0 -72 14.5 -126t43.5 -90t74 -54.5t106 -18.5q42 0 79.5 13t73 37t71.5 57.5t74 74.5q12 12 23.5 7.5t21.5 -15.5q14 -14 15 -24t-10 -24q-66 -81 -130.5 -127t-123 -65t-108.5 -19z
M693 1058q-11 0 -24.5 13.5t-13.5 23.5q0 4 1.5 8t7.5 10l158 145q5 5 9.5 8t10.5 3q10 0 22.5 -9t21.5 -21t9 -23q0 -7 -2 -12t-13 -13l-168 -123l-10.5 -7t-8.5 -3z" />
    <glyph glyph-name="cacute" unicode="&#x107;" horiz-adv-x="523" 
d="M231 -19q-63 0 -103.5 25t-59.5 67.5t-19 94.5q0 56 19.5 117.5t57.5 114.5t95 86t133 33q57 0 96.5 -18t69.5 -53q15 -18 10.5 -30.5t-16.5 -23.5q-13 -10 -26 -11.5t-26 13.5q-19 21 -47 32t-70 11q-50 0 -89 -26t-65 -67t-39 -86.5t-13 -86.5q0 -34 11.5 -59t34 -38.5
t56.5 -14.5q34 0 61.5 13t52 34.5t47.5 46.5q14 14 29 10.5t25 -14.5q12 -12 13.5 -24t-11.5 -27q-36 -46 -75.5 -72t-77.5 -36.5t-74 -10.5zM369 616q-9 0 -21.5 9.5t-12.5 20.5q0 7 2.5 13t7.5 12l123 153q9 12 16 16t15 4q10 0 22.5 -7t21.5 -18t9 -23q0 -8 -3.5 -13
t-9.5 -10l-141 -142q-15 -15 -29 -15z" />
    <glyph glyph-name="Ccircumflex" unicode="&#x108;" horiz-adv-x="861" 
d="M467 -19q-74 0 -133 24t-100 70.5t-63 113.5t-22 151q0 69 16.5 145t49 152t80.5 143.5t112 120.5t143 83.5t174 30.5q63 0 113.5 -14t89 -40.5t65.5 -66.5q8 -11 3.5 -19.5t-18.5 -19.5q-13 -10 -22.5 -11.5t-23.5 10.5q-25 26 -56 42.5t-71 25t-95 8.5
q-69 0 -130.5 -25t-113.5 -69.5t-93 -101.5t-69.5 -121.5t-44 -130.5t-15.5 -127q0 -72 14.5 -126t43.5 -90t74 -54.5t106 -18.5q42 0 79.5 13t73 37t71.5 57.5t74 74.5q12 12 23.5 7.5t21.5 -15.5q14 -14 15 -24t-10 -24q-66 -81 -130.5 -127t-123 -65t-108.5 -19z
M595 1058q-12 0 -20 12t-8 23q0 10 3.5 15t7.5 9l162 126q15 13 28.5 18t29.5 5q13 0 23.5 -6.5t18.5 -19.5l93 -130q5 -7 5.5 -12.5t0.5 -10.5q0 -12 -13 -20.5t-22 -8.5q-10 0 -17 5t-15 12l-93 90l-153 -96q-7 -4 -14.5 -7.5t-16.5 -3.5z" />
    <glyph glyph-name="ccircumflex" unicode="&#x109;" horiz-adv-x="523" 
d="M231 -19q-63 0 -103.5 25t-59.5 67.5t-19 94.5q0 56 19.5 117.5t57.5 114.5t95 86t133 33q57 0 96.5 -18t69.5 -53q15 -18 10.5 -30.5t-16.5 -23.5q-13 -10 -26 -11.5t-26 13.5q-19 21 -47 32t-70 11q-50 0 -89 -26t-65 -67t-39 -86.5t-13 -86.5q0 -34 11.5 -59t34 -38.5
t56.5 -14.5q34 0 61.5 13t52 34.5t47.5 46.5q14 14 29 10.5t25 -14.5q12 -12 13.5 -24t-11.5 -27q-36 -46 -75.5 -72t-77.5 -36.5t-74 -10.5zM267 610q-13 0 -22.5 11t-9.5 23q0 9 4 15t8 10l158 149q14 13 28 17.5t30 4.5q13 0 24.5 -6.5t17.5 -19.5l82 -153q4 -7 5 -12
t1 -10q0 -12 -14.5 -20.5t-24.5 -8.5t-15.5 5t-10.5 11l-86 113l-147 -114q-6 -4 -13 -9.5t-15 -5.5z" />
    <glyph glyph-name="Cdotaccent" unicode="&#x10a;" horiz-adv-x="861" 
d="M467 -19q-74 0 -133 24t-100 70.5t-63 113.5t-22 151q0 69 16.5 145t49 152t80.5 143.5t112 120.5t143 83.5t174 30.5q63 0 113.5 -14t89 -40.5t65.5 -66.5q8 -11 3.5 -19.5t-18.5 -19.5q-13 -10 -22.5 -11.5t-23.5 10.5q-25 26 -56 42.5t-71 25t-95 8.5
q-69 0 -130.5 -25t-113.5 -69.5t-93 -101.5t-69.5 -121.5t-44 -130.5t-15.5 -127q0 -72 14.5 -126t43.5 -90t74 -54.5t106 -18.5q42 0 79.5 13t73 37t71.5 57.5t74 74.5q12 12 23.5 7.5t21.5 -15.5q14 -14 15 -24t-10 -24q-66 -81 -130.5 -127t-123 -65t-108.5 -19z
M753 1092q-21 0 -35 13t-14 39q0 27 18 50.5t55 23.5q20 0 34 -12.5t14 -38.5q0 -27 -17 -51t-55 -24z" />
    <glyph glyph-name="cdotaccent" unicode="&#x10b;" horiz-adv-x="523" 
d="M231 -19q-63 0 -103.5 25t-59.5 67.5t-19 94.5q0 56 19.5 117.5t57.5 114.5t95 86t133 33q57 0 96.5 -18t69.5 -53q15 -18 10.5 -30.5t-16.5 -23.5q-13 -10 -26 -11.5t-26 13.5q-19 21 -47 32t-70 11q-50 0 -89 -26t-65 -67t-39 -86.5t-13 -86.5q0 -34 11.5 -59t34 -38.5
t56.5 -14.5q34 0 61.5 13t52 34.5t47.5 46.5q14 14 29 10.5t25 -14.5q12 -12 13.5 -24t-11.5 -27q-36 -46 -75.5 -72t-77.5 -36.5t-74 -10.5zM424 669q-20 0 -34.5 13t-14.5 38q0 27 18.5 51t54.5 24q20 0 34.5 -12.5t14.5 -38.5q0 -27 -17.5 -51t-55.5 -24z" />
    <glyph glyph-name="Ccaron" unicode="&#x10c;" horiz-adv-x="861" 
d="M467 -19q-74 0 -133 24t-100 70.5t-63 113.5t-22 151q0 69 16.5 145t49 152t80.5 143.5t112 120.5t143 83.5t174 30.5q63 0 113.5 -14t89 -40.5t65.5 -66.5q8 -11 3.5 -19.5t-18.5 -19.5q-13 -10 -22.5 -11.5t-23.5 10.5q-25 26 -56 42.5t-71 25t-95 8.5
q-69 0 -130.5 -25t-113.5 -69.5t-93 -101.5t-69.5 -121.5t-44 -130.5t-15.5 -127q0 -72 14.5 -126t43.5 -90t74 -54.5t106 -18.5q42 0 79.5 13t73 37t71.5 57.5t74 74.5q12 12 23.5 7.5t21.5 -15.5q14 -14 15 -24t-10 -24q-66 -81 -130.5 -127t-123 -65t-108.5 -19z
M934 1266q12 0 21.5 -12t9.5 -23q0 -10 -3 -15t-8 -9l-163 -126q-15 -12 -28 -17.5t-29 -5.5q-13 0 -23.5 7t-19.5 20l-92 130q-5 8 -6 13t-1 9q0 12 14.5 20.5t24.5 8.5t15 -4.5t12 -11.5l94 -90l153 91q7 4 14 9.5t15 5.5z" />
    <glyph glyph-name="ccaron" unicode="&#x10d;" horiz-adv-x="523" 
d="M231 -19q-63 0 -103.5 25t-59.5 67.5t-19 94.5q0 56 19.5 117.5t57.5 114.5t95 86t133 33q57 0 96.5 -18t69.5 -53q15 -18 10.5 -30.5t-16.5 -23.5q-13 -10 -26 -11.5t-26 13.5q-19 21 -47 32t-70 11q-50 0 -89 -26t-65 -67t-39 -86.5t-13 -86.5q0 -34 11.5 -59t34 -38.5
t56.5 -14.5q34 0 61.5 13t52 34.5t47.5 46.5q14 14 29 10.5t25 -14.5q12 -12 13.5 -24t-11.5 -27q-36 -46 -75.5 -72t-77.5 -36.5t-74 -10.5zM597 848q12 0 21.5 -11t9.5 -23q0 -10 -3.5 -15.5t-7.5 -9.5l-159 -149q-14 -13 -27.5 -17.5t-30.5 -4.5q-13 0 -24 6.5t-18 19.5
l-81 152q-4 8 -5.5 13.5t-1.5 9.5q0 12 15 20.5t24 8.5q11 0 16.5 -5t9.5 -12l87 -112l146 114q7 5 13.5 10t15.5 5z" />
    <glyph glyph-name="Dcaron" unicode="&#x10e;" horiz-adv-x="965" 
d="M106 0q-44 0 -35 28l307 942q5 14 18 21t35 7h173q95 0 166.5 -24t119 -66t71 -99t23.5 -122q0 -121 -34.5 -225.5t-97 -189.5t-146.5 -145.5t-185.5 -93.5t-212.5 -33h-202zM177 85h131q91 0 176.5 27t158 79t127 126t84.5 167t30 202q0 53 -19.5 95.5t-56.5 71.5
t-89 44.5t-116 15.5h-156zM895 1266q12 0 21.5 -12t9.5 -23q0 -10 -3 -15t-8 -9l-163 -126q-15 -12 -28 -17.5t-29 -5.5q-13 0 -23.5 7t-19.5 20l-92 130q-5 8 -6 13t-1 9q0 12 14.5 20.5t24.5 8.5t15 -4.5t12 -11.5l94 -90l153 91q7 4 14 9.5t15 5.5z" />
    <glyph glyph-name="dcaron" unicode="&#x10f;" horiz-adv-x="629" 
d="M159 -17q-37 0 -64.5 18.5t-42.5 53t-15 80.5t13.5 98t41 102.5t67 92t91.5 66.5t117 25q31 0 64 -8.5t63 -24.5l164 497q6 20 15.5 26t29.5 6q31 0 39.5 -9.5t1.5 -29.5l-286 -868q-7 -23 -4 -35.5t17 -12.5q11 0 21 6.5t21 18.5t24 28q8 10 16.5 12t21.5 -7
q16 -10 18.5 -20t-3.5 -21q-18 -29 -39.5 -50t-46.5 -31.5t-53 -10.5q-35 0 -55 16t-24 48.5t9 80.5q0 3 0.5 5.5t1.5 4.5q-40 -54 -79.5 -89t-76.5 -51.5t-68 -16.5zM128 150q0 -27 7 -46.5t20.5 -30t31.5 -10.5q35 0 77.5 32t89 94t92.5 150l25 78q-32 14 -60 18.5
t-53 4.5q-45 0 -82 -19.5t-64.5 -52t-46 -71.5t-28 -77.5t-9.5 -69.5zM778 811q-15 7 -18.5 17t6.5 28t22 46.5t22 60.5t15 60q2 17 11 25t34 8q24 0 35.5 -8t9.5 -25q-5 -30 -19.5 -66.5t-33.5 -72t-39 -63.5q-5 -7 -16.5 -12.5t-28.5 2.5z" />
    <glyph glyph-name="Dcroat" unicode="&#x110;" horiz-adv-x="965" 
d="M106 0q-44 0 -35 28l307 942q5 14 18 21t35 7h173q95 0 166.5 -24t119 -66t71 -99t23.5 -122q0 -121 -34.5 -225.5t-97 -189.5t-146.5 -145.5t-185.5 -93.5t-212.5 -33h-202zM177 85h131q91 0 176.5 27t158 79t127 126t84.5 167t30 202q0 53 -19.5 95.5t-56.5 71.5
t-89 44.5t-116 15.5h-156zM119 468q-18 0 -20 11t1 24q3 14 10 26t26 12h394q19 0 21 -12t-1 -26q-3 -13 -10 -24t-25 -11h-396z" />
    <glyph glyph-name="dcroat" unicode="&#x111;" horiz-adv-x="629" 
d="M159 -17q-37 0 -64.5 18.5t-42.5 53t-15 80.5t13.5 98t41 102.5t67 92t91.5 66.5t117 25q31 0 64 -8.5t63 -24.5l164 497q6 20 15.5 26t29.5 6q31 0 39.5 -9.5t1.5 -29.5l-286 -868q-7 -23 -4 -35.5t17 -12.5q11 0 21 6.5t21 18.5t24 28q8 10 16.5 12t21.5 -7
q16 -10 18.5 -20t-3.5 -21q-18 -29 -39.5 -50t-46.5 -31.5t-53 -10.5q-35 0 -55 16t-24 48.5t9 80.5q0 3 0.5 5.5t1.5 4.5q-40 -54 -79.5 -89t-76.5 -51.5t-68 -16.5zM128 150q0 -27 7 -46.5t20.5 -30t31.5 -10.5q35 0 77.5 32t89 94t92.5 150l25 78q-32 14 -60 18.5
t-53 4.5q-45 0 -82 -19.5t-64.5 -52t-46 -71.5t-28 -77.5t-9.5 -69.5zM438 711q-18 0 -20 11t1 24q3 14 10 26t26 12h299q19 0 21 -12t-1 -26q-3 -13 -10 -24t-25 -11h-301z" />
    <glyph glyph-name="Emacron" unicode="&#x112;" horiz-adv-x="736" 
d="M116 0q-25 0 -35 9t-4 31l300 930q4 14 15.5 21t31.5 7h481q11 0 15 -10t-2 -30q-5 -20 -15 -30t-21 -10h-434l-113 -350h360q11 0 15 -10t-1 -30q-6 -20 -16 -30t-21 -10h-363l-130 -408h429q11 0 15.5 -9.5t-1.5 -30.5q-5 -19 -15 -29.5t-21 -10.5h-470zM547 1120
q-19 0 -23.5 11.5t0.5 29.5q5 22 14 33t27 11h268q20 0 24.5 -12.5t-0.5 -31.5q-5 -21 -14 -31t-27 -10h-269z" />
    <glyph glyph-name="emacron" unicode="&#x113;" horiz-adv-x="526" 
d="M225 -19q-59 0 -98 25t-58.5 67.5t-19.5 94.5q0 58 21 120t61 114t98.5 84.5t135.5 32.5q47 0 79 -14.5t48.5 -40.5t16.5 -63q0 -41 -24.5 -74t-65.5 -59.5t-94.5 -45t-112 -30.5t-117.5 -18l12 71q39 4 82 12t84 20t74 29t52 38t19 47t-16.5 37.5t-46.5 11.5
q-51 0 -91.5 -25.5t-68 -66t-42 -87t-14.5 -88.5q0 -34 11 -59.5t33 -39t54 -13.5t58 12.5t49 33t46 44.5q13 14 28 10.5t25 -14.5q11 -11 13 -23.5t-11 -27.5q-36 -43 -73 -68.5t-73.5 -36t-73.5 -10.5zM286 686q-20 0 -24 12t0 30q5 21 14 32t27 11h258q20 0 24 -12
t-1 -31q-5 -21 -14 -31.5t-27 -10.5h-257z" />
    <glyph glyph-name="Ebreve" unicode="&#x114;" horiz-adv-x="736" 
d="M116 0q-25 0 -35 9t-4 31l300 930q4 14 15.5 21t31.5 7h481q11 0 15 -10t-2 -30q-5 -20 -15 -30t-21 -10h-434l-113 -350h360q11 0 15 -10t-1 -30q-6 -20 -16 -30t-21 -10h-363l-130 -408h429q11 0 15.5 -9.5t-1.5 -30.5q-5 -19 -15 -29.5t-21 -10.5h-470zM669 1058
q-73 0 -111 44.5t-28 136.5q2 15 11 21t24 6t24.5 -7.5t9.5 -19.5q-1 -51 23.5 -73t62.5 -22q46 0 79.5 26.5t51.5 65.5q8 18 17 24t23 6q17 0 26.5 -9t4.5 -24q-23 -69 -51.5 -107t-69 -53t-97.5 -15z" />
    <glyph glyph-name="ebreve" unicode="&#x115;" horiz-adv-x="526" 
d="M225 -19q-59 0 -98 25t-58.5 67.5t-19.5 94.5q0 58 21 120t61 114t98.5 84.5t135.5 32.5q47 0 79 -14.5t48.5 -40.5t16.5 -63q0 -41 -24.5 -74t-65.5 -59.5t-94.5 -45t-112 -30.5t-117.5 -18l12 71q39 4 82 12t84 20t74 29t52 38t19 47t-16.5 37.5t-46.5 11.5
q-51 0 -91.5 -25.5t-68 -66t-42 -87t-14.5 -88.5q0 -34 11 -59.5t33 -39t54 -13.5t58 12.5t49 33t46 44.5q13 14 28 10.5t25 -14.5q11 -11 13 -23.5t-11 -27.5q-36 -43 -73 -68.5t-73.5 -36t-73.5 -10.5zM399 618q-76 0 -111 52.5t-18 149.5q2 15 11.5 21.5t25.5 6.5
t25.5 -8t8.5 -20q-4 -55 16 -84.5t57 -29.5q44 0 79 33.5t54 76.5q8 18 16.5 24t23.5 6q19 0 28.5 -9t4.5 -24q-24 -72 -54.5 -114.5t-71 -61.5t-95.5 -19z" />
    <glyph glyph-name="Edotaccent" unicode="&#x116;" horiz-adv-x="736" 
d="M116 0q-25 0 -35 9t-4 31l300 930q4 14 15.5 21t31.5 7h481q11 0 15 -10t-2 -30q-5 -20 -15 -30t-21 -10h-434l-113 -350h360q11 0 15 -10t-1 -30q-6 -20 -16 -30t-21 -10h-363l-130 -408h429q11 0 15.5 -9.5t-1.5 -30.5q-5 -19 -15 -29.5t-21 -10.5h-470zM677 1092
q-21 0 -35 13t-14 39q0 27 18 50.5t55 23.5q20 0 34 -12.5t14 -38.5q0 -27 -17 -51t-55 -24z" />
    <glyph glyph-name="edotaccent" unicode="&#x117;" horiz-adv-x="526" 
d="M225 -19q-59 0 -98 25t-58.5 67.5t-19.5 94.5q0 58 21 120t61 114t98.5 84.5t135.5 32.5q47 0 79 -14.5t48.5 -40.5t16.5 -63q0 -41 -24.5 -74t-65.5 -59.5t-94.5 -45t-112 -30.5t-117.5 -18l12 71q39 4 82 12t84 20t74 29t52 38t19 47t-16.5 37.5t-46.5 11.5
q-51 0 -91.5 -25.5t-68 -66t-42 -87t-14.5 -88.5q0 -34 11 -59.5t33 -39t54 -13.5t58 12.5t49 33t46 44.5q13 14 28 10.5t25 -14.5q11 -11 13 -23.5t-11 -27.5q-36 -43 -73 -68.5t-73.5 -36t-73.5 -10.5zM413 669q-20 0 -34.5 13t-14.5 38q0 27 18.5 51t54.5 24
q20 0 34.5 -12.5t14.5 -38.5q0 -27 -17.5 -51t-55.5 -24z" />
    <glyph glyph-name="Eogonek" unicode="&#x118;" horiz-adv-x="736" 
d="M116 0q-25 0 -35 9t-4 31l300 930q4 14 15.5 21t31.5 7h481q11 0 15 -10t-2 -30q-5 -20 -15 -30t-21 -10h-434l-113 -350h360q11 0 15 -10t-1 -30q-6 -20 -16 -30t-21 -10h-363l-130 -408h429q11 0 15.5 -9.5t-1.5 -30.5q-5 -19 -15 -29.5t-21 -10.5h-470zM414 -252
q-30 0 -47 16t-17 44q0 26 14.5 52t40.5 52.5t62 53.5t79 58l62 -1v-6q-35 -27 -65.5 -52.5t-52.5 -48t-34.5 -41t-12.5 -32.5q0 -9 5 -14t14 -5q18 0 36 12.5t43 34.5q6 6 16.5 7.5t21.5 -9.5q7 -8 9.5 -17.5t-4.5 -18.5q-17 -24 -46.5 -43.5t-61.5 -30.5t-62 -11z" />
    <glyph glyph-name="eogonek" unicode="&#x119;" horiz-adv-x="526" 
d="M225 -19q-59 0 -98 25t-58.5 67.5t-19.5 94.5q0 58 21 120t61 114t98.5 84.5t135.5 32.5q47 0 79 -14.5t48.5 -40.5t16.5 -63q0 -41 -24.5 -74t-65.5 -59.5t-94.5 -45t-112 -30.5t-117.5 -18l12 71q39 4 82 12t84 20t74 29t52 38t19 47t-16.5 37.5t-46.5 11.5
q-51 0 -91.5 -25.5t-68 -66t-42 -87t-14.5 -88.5q0 -34 11 -59.5t33 -39t54 -13.5t58 12.5t49 33t46 44.5q13 14 28 10.5t25 -14.5q11 -11 13 -23.5t-11 -27.5q-36 -43 -73 -68.5t-73.5 -36t-73.5 -10.5zM171 -244q-30 0 -47 16t-17 44q0 26 14.5 52t40.5 52.5t62 53.5
t79 58l62 -1v-6q-35 -27 -65.5 -52.5t-52.5 -48t-34.5 -41t-12.5 -32.5q0 -9 5 -14t14 -5q18 0 36 12.5t43 34.5q6 6 16.5 7.5t21.5 -9.5q7 -8 9.5 -17.5t-4.5 -18.5q-17 -24 -46.5 -43.5t-61.5 -30.5t-62 -11z" />
    <glyph glyph-name="Ecaron" unicode="&#x11a;" horiz-adv-x="736" 
d="M116 0q-25 0 -35 9t-4 31l300 930q4 14 15.5 21t31.5 7h481q11 0 15 -10t-2 -30q-5 -20 -15 -30t-21 -10h-434l-113 -350h360q11 0 15 -10t-1 -30q-6 -20 -16 -30t-21 -10h-363l-130 -408h429q11 0 15.5 -9.5t-1.5 -30.5q-5 -19 -15 -29.5t-21 -10.5h-470zM858 1266
q12 0 21.5 -12t9.5 -23q0 -10 -3 -15t-8 -9l-163 -126q-15 -12 -28 -17.5t-29 -5.5q-13 0 -23.5 7t-19.5 20l-92 130q-5 8 -6 13t-1 9q0 12 14.5 20.5t24.5 8.5t15 -4.5t12 -11.5l94 -90l153 91q7 4 14 9.5t15 5.5z" />
    <glyph glyph-name="ecaron" unicode="&#x11b;" horiz-adv-x="526" 
d="M225 -19q-59 0 -98 25t-58.5 67.5t-19.5 94.5q0 58 21 120t61 114t98.5 84.5t135.5 32.5q47 0 79 -14.5t48.5 -40.5t16.5 -63q0 -41 -24.5 -74t-65.5 -59.5t-94.5 -45t-112 -30.5t-117.5 -18l12 71q39 4 82 12t84 20t74 29t52 38t19 47t-16.5 37.5t-46.5 11.5
q-51 0 -91.5 -25.5t-68 -66t-42 -87t-14.5 -88.5q0 -34 11 -59.5t33 -39t54 -13.5t58 12.5t49 33t46 44.5q13 14 28 10.5t25 -14.5q11 -11 13 -23.5t-11 -27.5q-36 -43 -73 -68.5t-73.5 -36t-73.5 -10.5zM586 848q12 0 21.5 -11t9.5 -23q0 -10 -3.5 -15.5t-7.5 -9.5
l-159 -149q-14 -13 -27.5 -17.5t-30.5 -4.5q-13 0 -24 6.5t-18 19.5l-81 152q-4 8 -5.5 13.5t-1.5 9.5q0 12 15 20.5t24 8.5q11 0 16.5 -5t9.5 -12l87 -112l146 114q7 5 13.5 10t15.5 5z" />
    <glyph glyph-name="Gcircumflex" unicode="&#x11c;" horiz-adv-x="972" 
d="M467 -19q-74 1 -133 25t-100.5 70.5t-63 112.5t-21.5 149q0 70 16 146t49 152t81 144t112 121t143.5 83.5t173.5 30.5q62 0 112 -14t89 -40.5t66 -66.5q8 -11 3.5 -19.5t-18.5 -19.5q-13 -10 -23 -11.5t-24 10.5q-25 25 -55.5 42t-70 25.5t-93.5 8.5q-70 0 -131.5 -25.5
t-113.5 -69.5t-93 -101.5t-70 -122t-44 -131t-15 -127.5q0 -71 14 -124.5t43.5 -89.5t74.5 -54.5t106 -18.5q42 0 83.5 14.5t81.5 44t77 75.5t69.5 108.5t60.5 142.5h-257q-15 0 -18 9t4 31q8 23 16.5 31.5t23.5 8.5h319q15 0 18 -8.5t-3 -31.5q-40 -144 -96 -242.5
t-121.5 -157.5t-135 -84.5t-136.5 -25.5zM599 1058q-12 0 -20 12t-8 23q0 10 3.5 15t7.5 9l162 126q15 13 28.5 18t29.5 5q13 0 23.5 -6.5t18.5 -19.5l93 -130q5 -7 5.5 -12.5t0.5 -10.5q0 -12 -13 -20.5t-22 -8.5q-10 0 -17 5t-15 12l-93 90l-153 -96q-7 -4 -14.5 -7.5
t-16.5 -3.5z" />
    <glyph glyph-name="gcircumflex" unicode="&#x11d;" horiz-adv-x="598" 
d="M75 -519q-49 0 -93.5 19t-77.5 51q-19 19 -20.5 34t18.5 31q16 14 29 11.5t28 -18.5q24 -25 55.5 -37.5t66.5 -12.5q44 0 73.5 16.5t51.5 53.5t42 99l134 412q-40 -54 -79.5 -89t-75.5 -51.5t-68 -16.5q-37 0 -64 18.5t-42 53t-15 80.5t13.5 98t40.5 102.5t67 92t92 66.5
t117 25q30 0 62.5 -8.5t63.5 -24.5l1 3q5 16 15 21t28 5q31 0 39.5 -9.5t1.5 -29.5l-246 -751q-31 -97 -66.5 -150t-81.5 -73.5t-110 -20.5zM187 63q35 0 77 31.5t88.5 92.5t92.5 149l27 81q-33 14 -60.5 18.5t-52.5 4.5q-46 0 -82.5 -19.5t-64.5 -52t-46.5 -71.5
t-27.5 -77.5t-9 -69.5q0 -27 6.5 -46.5t20 -30t31.5 -10.5zM267 610q-13 0 -22.5 11t-9.5 23q0 9 4 15t8 10l158 149q14 13 28 17.5t30 4.5q13 0 24.5 -6.5t17.5 -19.5l82 -153q4 -7 5 -12t1 -10q0 -12 -14.5 -20.5t-24.5 -8.5t-15.5 5t-10.5 11l-86 113l-147 -114
q-6 -4 -13 -9.5t-15 -5.5z" />
    <glyph glyph-name="Gbreve" unicode="&#x11e;" horiz-adv-x="972" 
d="M467 -19q-74 1 -133 25t-100.5 70.5t-63 112.5t-21.5 149q0 70 16 146t49 152t81 144t112 121t143.5 83.5t173.5 30.5q62 0 112 -14t89 -40.5t66 -66.5q8 -11 3.5 -19.5t-18.5 -19.5q-13 -10 -23 -11.5t-24 10.5q-25 25 -55.5 42t-70 25.5t-93.5 8.5q-70 0 -131.5 -25.5
t-113.5 -69.5t-93 -101.5t-70 -122t-44 -131t-15 -127.5q0 -71 14 -124.5t43.5 -89.5t74.5 -54.5t106 -18.5q42 0 83.5 14.5t81.5 44t77 75.5t69.5 108.5t60.5 142.5h-257q-15 0 -18 9t4 31q8 23 16.5 31.5t23.5 8.5h319q15 0 18 -8.5t-3 -31.5q-40 -144 -96 -242.5
t-121.5 -157.5t-135 -84.5t-136.5 -25.5zM749 1058q-73 0 -111 44.5t-28 136.5q2 15 11 21t24 6t24.5 -7.5t9.5 -19.5q-1 -51 23.5 -73t62.5 -22q46 0 79.5 26.5t51.5 65.5q8 18 17 24t23 6q17 0 26.5 -9t4.5 -24q-23 -69 -51.5 -107t-69 -53t-97.5 -15z" />
    <glyph glyph-name="gbreve" unicode="&#x11f;" horiz-adv-x="598" 
d="M75 -519q-49 0 -93.5 19t-77.5 51q-19 19 -20.5 34t18.5 31q16 14 29 11.5t28 -18.5q24 -25 55.5 -37.5t66.5 -12.5q44 0 73.5 16.5t51.5 53.5t42 99l134 412q-40 -54 -79.5 -89t-75.5 -51.5t-68 -16.5q-37 0 -64 18.5t-42 53t-15 80.5t13.5 98t40.5 102.5t67 92t92 66.5
t117 25q30 0 62.5 -8.5t63.5 -24.5l1 3q5 16 15 21t28 5q31 0 39.5 -9.5t1.5 -29.5l-246 -751q-31 -97 -66.5 -150t-81.5 -73.5t-110 -20.5zM187 63q35 0 77 31.5t88.5 92.5t92.5 149l27 81q-33 14 -60.5 18.5t-52.5 4.5q-46 0 -82.5 -19.5t-64.5 -52t-46.5 -71.5
t-27.5 -77.5t-9 -69.5q0 -27 6.5 -46.5t20 -30t31.5 -10.5zM410 618q-76 0 -111 52.5t-18 149.5q2 15 11.5 21.5t25.5 6.5t25.5 -8t8.5 -20q-4 -55 16 -84.5t57 -29.5q44 0 79 33.5t54 76.5q8 18 16.5 24t23.5 6q19 0 28.5 -9t4.5 -24q-24 -72 -54.5 -114.5t-71 -61.5
t-95.5 -19z" />
    <glyph glyph-name="Gdotaccent" unicode="&#x120;" horiz-adv-x="972" 
d="M467 -19q-74 1 -133 25t-100.5 70.5t-63 112.5t-21.5 149q0 70 16 146t49 152t81 144t112 121t143.5 83.5t173.5 30.5q62 0 112 -14t89 -40.5t66 -66.5q8 -11 3.5 -19.5t-18.5 -19.5q-13 -10 -23 -11.5t-24 10.5q-25 25 -55.5 42t-70 25.5t-93.5 8.5q-70 0 -131.5 -25.5
t-113.5 -69.5t-93 -101.5t-70 -122t-44 -131t-15 -127.5q0 -71 14 -124.5t43.5 -89.5t74.5 -54.5t106 -18.5q42 0 83.5 14.5t81.5 44t77 75.5t69.5 108.5t60.5 142.5h-257q-15 0 -18 9t4 31q8 23 16.5 31.5t23.5 8.5h319q15 0 18 -8.5t-3 -31.5q-40 -144 -96 -242.5
t-121.5 -157.5t-135 -84.5t-136.5 -25.5zM757 1092q-21 0 -35 13t-14 39q0 27 18 50.5t55 23.5q20 0 34 -12.5t14 -38.5q0 -27 -17 -51t-55 -24z" />
    <glyph glyph-name="gdotaccent" unicode="&#x121;" horiz-adv-x="598" 
d="M75 -519q-49 0 -93.5 19t-77.5 51q-19 19 -20.5 34t18.5 31q16 14 29 11.5t28 -18.5q24 -25 55.5 -37.5t66.5 -12.5q44 0 73.5 16.5t51.5 53.5t42 99l134 412q-40 -54 -79.5 -89t-75.5 -51.5t-68 -16.5q-37 0 -64 18.5t-42 53t-15 80.5t13.5 98t40.5 102.5t67 92t92 66.5
t117 25q30 0 62.5 -8.5t63.5 -24.5l1 3q5 16 15 21t28 5q31 0 39.5 -9.5t1.5 -29.5l-246 -751q-31 -97 -66.5 -150t-81.5 -73.5t-110 -20.5zM187 63q35 0 77 31.5t88.5 92.5t92.5 149l27 81q-33 14 -60.5 18.5t-52.5 4.5q-46 0 -82.5 -19.5t-64.5 -52t-46.5 -71.5
t-27.5 -77.5t-9 -69.5q0 -27 6.5 -46.5t20 -30t31.5 -10.5zM424 669q-20 0 -34.5 13t-14.5 38q0 27 18.5 51t54.5 24q20 0 34.5 -12.5t14.5 -38.5q0 -27 -17.5 -51t-55.5 -24z" />
    <glyph glyph-name="Gcommaaccent" unicode="&#x122;" horiz-adv-x="972" 
d="M467 -19q-74 1 -133 25t-100.5 70.5t-63 112.5t-21.5 149q0 70 16 146t49 152t81 144t112 121t143.5 83.5t173.5 30.5q62 0 112 -14t89 -40.5t66 -66.5q8 -11 3.5 -19.5t-18.5 -19.5q-13 -10 -23 -11.5t-24 10.5q-25 25 -55.5 42t-70 25.5t-93.5 8.5q-70 0 -131.5 -25.5
t-113.5 -69.5t-93 -101.5t-70 -122t-44 -131t-15 -127.5q0 -71 14 -124.5t43.5 -89.5t74.5 -54.5t106 -18.5q42 0 83.5 14.5t81.5 44t77 75.5t69.5 108.5t60.5 142.5h-257q-15 0 -18 9t4 31q8 23 16.5 31.5t23.5 8.5h319q15 0 18 -8.5t-3 -31.5q-40 -144 -96 -242.5
t-121.5 -157.5t-135 -84.5t-136.5 -25.5zM307 -287q-12 8 -13 19t7 22q18 27 30.5 49t19 44.5t9.5 52.5q2 17 13.5 24t30.5 7q23 0 34 -11t9 -30q-2 -25 -15 -53t-33 -55.5t-43 -52.5q-13 -13 -24.5 -18t-24.5 2z" />
    <glyph glyph-name="gcommaaccent" unicode="&#x123;" horiz-adv-x="598" 
d="M75 -519q-49 0 -93.5 19t-77.5 51q-19 19 -20.5 34t18.5 31q16 14 29 11.5t28 -18.5q24 -25 55.5 -37.5t66.5 -12.5q44 0 73.5 16.5t51.5 53.5t42 99l134 412q-40 -54 -79.5 -89t-75.5 -51.5t-68 -16.5q-37 0 -64 18.5t-42 53t-15 80.5t13.5 98t40.5 102.5t67 92t92 66.5
t117 25q30 0 62.5 -8.5t63.5 -24.5l1 3q5 16 15 21t28 5q31 0 39.5 -9.5t1.5 -29.5l-246 -751q-31 -97 -66.5 -150t-81.5 -73.5t-110 -20.5zM187 63q35 0 77 31.5t88.5 92.5t92.5 149l27 81q-33 14 -60.5 18.5t-52.5 4.5q-46 0 -82.5 -19.5t-64.5 -52t-46.5 -71.5
t-27.5 -77.5t-9 -69.5q0 -27 6.5 -46.5t20 -30t31.5 -10.5zM503 851q12 -7 13 -18t-7 -23q-18 -26 -30 -48.5t-19.5 -46.5t-10.5 -54q-1 -16 -13 -23.5t-31 -7.5q-22 0 -33 11t-9 30q4 39 30.5 83t60.5 81q14 14 25.5 19t23.5 -3z" />
    <glyph glyph-name="Hcircumflex" unicode="&#x124;" horiz-adv-x="985" 
d="M102 -14q-44 0 -35 28l316 974q5 14 18 20.5t34 6.5q46 0 35 -27l-137 -425h523l137 425q5 14 18 20.5t35 6.5q45 0 35 -27l-316 -974q-4 -14 -17 -21t-35 -7q-44 0 -35 28l152 469h-523l-152 -469q-4 -14 -17.5 -21t-35.5 -7zM598 1058q-12 0 -20 12t-8 23q0 10 3.5 15
t7.5 9l162 126q15 13 28.5 18t29.5 5q13 0 23.5 -6.5t18.5 -19.5l93 -130q5 -7 5.5 -12.5t0.5 -10.5q0 -12 -13 -20.5t-22 -8.5q-10 0 -17 5t-15 12l-93 90l-153 -96q-7 -4 -14.5 -7.5t-16.5 -3.5z" />
    <glyph glyph-name="hcircumflex" unicode="&#x125;" horiz-adv-x="651" 
d="M473 -15q-40 0 -59 16t-23 41.5t1.5 54.5t14.5 56l65 191q14 40 7.5 67.5t-45.5 27.5q-32 0 -69.5 -24t-77 -68.5t-76.5 -106t-69 -134.5l-31 -95q-4 -13 -14 -19.5t-33 -6.5q-16 0 -29.5 7t-8.5 26l313 965q6 20 15.5 26t29.5 6q31 0 39.5 -9.5t1.5 -29.5l-205 -630
q28 41 58.5 73t61.5 54.5t62.5 34t63.5 11.5q49 0 75 -23.5t29 -68.5t-18 -109l-71 -210q-6 -17 -7 -27.5t3.5 -15.5t12.5 -5q11 0 22.5 7.5t23 19.5t23.5 26q8 10 16.5 12t21.5 -7q16 -10 18.5 -20t-3.5 -21q-9 -15 -28.5 -37.5t-47.5 -38.5t-63 -16zM270 1058
q-12 0 -20 12t-8 23q0 10 3.5 15t7.5 9l162 126q15 13 28.5 18t29.5 5q13 0 23.5 -6.5t18.5 -19.5l93 -130q5 -7 5.5 -12.5t0.5 -10.5q0 -12 -13 -20.5t-22 -8.5q-10 0 -17 5t-15 12l-93 90l-153 -96q-7 -4 -14.5 -7.5t-16.5 -3.5z" />
    <glyph glyph-name="Hbar" unicode="&#x126;" horiz-adv-x="985" 
d="M102 -14q-44 0 -35 28l316 974q5 14 18 20.5t34 6.5q46 0 35 -27l-137 -425h523l137 425q5 14 18 20.5t35 6.5q45 0 35 -27l-316 -974q-4 -14 -17 -21t-35 -7q-44 0 -35 28l152 469h-523l-152 -469q-4 -14 -17.5 -21t-35.5 -7zM230 734q-18 0 -20 11t1 24q3 14 10 26
t26 12h846q19 0 21 -12t-1 -26q-2 -13 -9.5 -24t-25.5 -11h-848z" />
    <glyph glyph-name="hbar" unicode="&#x127;" horiz-adv-x="651" 
d="M473 -15q-40 0 -59 16t-23 41.5t1.5 54.5t14.5 56l65 191q14 40 7.5 67.5t-45.5 27.5q-32 0 -69.5 -24t-77 -68.5t-76.5 -106t-69 -134.5l-31 -95q-4 -13 -14 -19.5t-33 -6.5q-16 0 -29.5 7t-8.5 26l313 965q6 20 15.5 26t29.5 6q31 0 39.5 -9.5t1.5 -29.5l-205 -630
q28 41 58.5 73t61.5 54.5t62.5 34t63.5 11.5q49 0 75 -23.5t29 -68.5t-18 -109l-71 -210q-6 -17 -7 -27.5t3.5 -15.5t12.5 -5q11 0 22.5 7.5t23 19.5t23.5 26q8 10 16.5 12t21.5 -7q16 -10 18.5 -20t-3.5 -21q-9 -15 -28.5 -37.5t-47.5 -38.5t-63 -16zM178 711q-18 0 -20 11
t1 24q3 14 10 26t26 12h299q19 0 21 -12t-1 -26q-3 -13 -10 -24t-25 -11h-301z" />
    <glyph glyph-name="Itilde" unicode="&#x128;" horiz-adv-x="375" 
d="M107 -14q-23 0 -33.5 7t-6.5 23l313 972q5 14 17.5 20.5t34.5 6.5q23 0 33 -7t5 -23l-313 -971q-4 -14 -16 -21t-34 -7zM315 1088q-32 0 -30 28q5 65 29.5 95.5t70.5 30.5q30 0 56 -10.5t48 -25t41.5 -25t35.5 -10.5q10 0 19 10.5t13 35.5q4 26 41 26q16 0 22.5 -6.5
t5.5 -19.5q-5 -66 -29 -97t-71 -31q-31 0 -57 10.5t-48 25t-40.5 25t-36.5 10.5q-13 0 -21.5 -11.5t-11.5 -35.5q-1 -12 -11 -18.5t-26 -6.5z" />
    <glyph glyph-name="itilde" unicode="&#x129;" horiz-adv-x="304" 
d="M127 -15q-39 0 -58 16t-22.5 41.5t1.5 54.5t13 56l108 330q7 20 17 26t33 6t33.5 -9t5.5 -23l-123 -376q-7 -16 -7.5 -26.5t4 -15.5t12.5 -5q11 0 22 6.5t22 18.5t22 27q8 11 19.5 12t24.5 -7q14 -10 16 -19.5t-4 -18.5q-9 -17 -28.5 -39t-47.5 -38.5t-63 -16.5zM350 641
q-24 0 -42.5 11t-33 25.5t-27 25.5t-22.5 11q-13 0 -21 -12.5t-11 -36.5q-2 -12 -11.5 -18.5t-26.5 -6.5q-32 0 -31 28q5 66 30.5 99.5t69.5 33.5q24 0 42 -11t32 -25.5t26 -25.5t23 -11t19 11.5t11 36.5q5 27 43 27q16 0 22 -6.5t5 -20.5q-4 -66 -27 -100.5t-70 -34.5z" />
    <glyph glyph-name="Imacron" unicode="&#x12a;" horiz-adv-x="375" 
d="M107 -14q-23 0 -33.5 7t-6.5 23l313 972q5 14 17.5 20.5t34.5 6.5q23 0 33 -7t5 -23l-313 -971q-4 -14 -16 -21t-34 -7zM332 1120q-19 0 -23.5 11.5t0.5 29.5q5 22 14 33t27 11h268q20 0 24.5 -12.5t-0.5 -31.5q-5 -21 -14 -31t-27 -10h-269z" />
    <glyph glyph-name="imacron" unicode="&#x12b;" horiz-adv-x="304" 
d="M127 -15q-39 0 -58 16t-22.5 41.5t1.5 54.5t13 56l108 330q7 20 17 26t33 6t33.5 -9t5.5 -23l-123 -376q-7 -16 -7.5 -26.5t4 -15.5t12.5 -5q11 0 22 6.5t22 18.5t22 27q8 11 19.5 12t24.5 -7q14 -10 16 -19.5t-4 -18.5q-9 -17 -28.5 -39t-47.5 -38.5t-63 -16.5zM151 686
q-20 0 -24 12t0 30q5 21 14 32t27 11h258q20 0 24 -12t-1 -31q-5 -21 -14 -31.5t-27 -10.5h-257z" />
    <glyph glyph-name="Ibreve" unicode="&#x12c;" horiz-adv-x="375" 
d="M107 -14q-23 0 -33.5 7t-6.5 23l313 972q5 14 17.5 20.5t34.5 6.5q23 0 33 -7t5 -23l-313 -971q-4 -14 -16 -21t-34 -7zM454 1058q-73 0 -111 44.5t-28 136.5q2 15 11 21t24 6t24.5 -7.5t9.5 -19.5q-1 -51 23.5 -73t62.5 -22q46 0 79.5 26.5t51.5 65.5q8 18 17 24t23 6
q17 0 26.5 -9t4.5 -24q-23 -69 -51.5 -107t-69 -53t-97.5 -15z" />
    <glyph glyph-name="ibreve" unicode="&#x12d;" horiz-adv-x="304" 
d="M127 -15q-39 0 -58 16t-22.5 41.5t1.5 54.5t13 56l108 330q7 20 17 26t33 6t33.5 -9t5.5 -23l-123 -376q-7 -16 -7.5 -26.5t4 -15.5t12.5 -5q11 0 22 6.5t22 18.5t22 27q8 11 19.5 12t24.5 -7q14 -10 16 -19.5t-4 -18.5q-9 -17 -28.5 -39t-47.5 -38.5t-63 -16.5zM264 618
q-76 0 -111 52.5t-18 149.5q2 15 11.5 21.5t25.5 6.5t25.5 -8t8.5 -20q-4 -55 16 -84.5t57 -29.5q44 0 79 33.5t54 76.5q8 18 16.5 24t23.5 6q19 0 28.5 -9t4.5 -24q-24 -72 -54.5 -114.5t-71 -61.5t-95.5 -19z" />
    <glyph glyph-name="Iogonek" unicode="&#x12e;" horiz-adv-x="375" 
d="M107 -14q-23 0 -33.5 7t-6.5 23l313 972q5 14 17.5 20.5t34.5 6.5q23 0 33 -7t5 -23l-313 -971q-4 -14 -16 -21t-34 -7zM-48 -263q-30 0 -47 16t-17 44q0 26 14.5 52t40.5 52.5t62 53.5t79 58l62 -1v-6q-35 -27 -65.5 -52.5t-52.5 -48t-34.5 -41t-12.5 -32.5q0 -9 5 -14
t14 -5q18 0 36 12.5t43 34.5q6 6 16.5 7.5t21.5 -9.5q7 -8 9.5 -17.5t-4.5 -18.5q-17 -24 -46.5 -43.5t-61.5 -30.5t-62 -11z" />
    <glyph glyph-name="iogonek" unicode="&#x12f;" horiz-adv-x="301" 
d="M127 -15q-39 0 -58 16t-22.5 41.5t1.5 54.5t13 56l108 330q7 20 17 26t33 6t33.5 -9t5.5 -23l-123 -376q-7 -16 -7.5 -26.5t4 -15.5t12.5 -5q11 0 22 6.5t22 18.5t22 27q8 11 19.5 12t24.5 -7q14 -10 16 -19.5t-4 -18.5q-9 -17 -28.5 -39t-47.5 -38.5t-63 -16.5zM278 669
q-20 0 -34.5 13t-14.5 38q0 27 18.5 51t54.5 24q20 0 34.5 -12.5t14.5 -38.5q0 -27 -17.5 -51t-55.5 -24zM3 -255q-30 0 -47 16t-17 44q0 26 14.5 52t40.5 52.5t62 53.5t79 58l62 -1v-6q-35 -27 -65.5 -52.5t-52.5 -48t-34.5 -41t-12.5 -32.5q0 -9 5 -14t14 -5q18 0 36 12.5
t43 34.5q6 6 16.5 7.5t21.5 -9.5q7 -8 9.5 -17.5t-4.5 -18.5q-17 -24 -46.5 -43.5t-61.5 -30.5t-62 -11z" />
    <glyph glyph-name="Idotaccent" unicode="&#x130;" horiz-adv-x="375" 
d="M107 -14q-23 0 -33.5 7t-6.5 23l313 972q5 14 17.5 20.5t34.5 6.5q23 0 33 -7t5 -23l-313 -971q-4 -14 -16 -21t-34 -7zM462 1092q-21 0 -35 13t-14 39q0 27 18 50.5t55 23.5q20 0 34 -12.5t14 -38.5q0 -27 -17 -51t-55 -24z" />
    <glyph glyph-name="idotless.mod" unicode="&#x131;" horiz-adv-x="300" 
d="M127 -15q-59 0 -75.5 44.5t10.5 127.5l107 326q7 20 16.5 26t28.5 6q31 0 39.5 -9.5t1.5 -29.5l-120 -368q-8 -23 -5 -35.5t17 -12.5q11 0 21 6.5t21 18.5t24 28q8 10 16.5 12t21.5 -7q16 -10 18.5 -20t-3.5 -21q-18 -29 -39.5 -50t-46.5 -31.5t-53 -10.5z" />
    <glyph glyph-name="IJ" unicode="&#x132;" horiz-adv-x="1096" 
d="M107 -14q-23 0 -33.5 7t-6.5 23l313 972q5 14 17.5 20.5t34.5 6.5q23 0 33 -7t5 -23l-313 -971q-4 -14 -16 -21t-34 -7zM647 -19q-53 0 -105.5 23.5t-91 68t-49.5 106.5q-3 18 4.5 26t26.5 12q23 5 34 -0.5t16 -25.5q11 -38 34 -66.5t57 -43.5t75 -15q34 0 63.5 7
t56.5 22.5t50.5 42t43.5 65.5t38 94l224 691q5 14 18 20.5t35 6.5q21 0 30.5 -6.5t4.5 -20.5l-226 -696q-22 -69 -49.5 -120.5t-59 -88t-68 -59t-77 -33t-85.5 -10.5z" />
    <glyph glyph-name="ij.mod" unicode="&#x133;" horiz-adv-x="605" 
d="M152 -519q-29 0 -56.5 16.5t-47.5 46.5q-10 15 -11 27t18 25q15 11 27.5 11t21.5 -12q18 -22 30 -30.5t25 -8.5q20 0 31 20.5t28 72.5l177 542q-38 -54 -70 -93.5t-62 -65t-60 -37.5t-63 -12q-39 0 -60.5 15t-28.5 40t-4 54t12 57l110 334q7 20 16.5 26t28.5 6
q31 0 39.5 -9.5t1.5 -29.5l-108 -329q-16 -51 -13 -70t28 -19q24 0 52.5 18.5t63.5 58.5t80 102.5t101 150.5l31 95q7 20 16.5 26t28.5 6q31 0 39.5 -9.5t1.5 -29.5l-277 -848q-20 -64 -42.5 -95.5t-48 -41.5t-56.5 -10zM276 669q-20 0 -34 13t-14 38q0 27 17.5 51t54.5 24
q21 0 35 -12.5t14 -38.5q0 -27 -17.5 -51t-55.5 -24zM601 669q-20 0 -34 13t-14 38q0 27 17.5 51t54.5 24q21 0 35 -12.5t14 -38.5q0 -27 -17.5 -51t-55.5 -24z" />
    <glyph glyph-name="Jcircumflex" unicode="&#x134;" horiz-adv-x="721" 
d="M272 -19q-53 0 -105.5 23.5t-91 68t-49.5 106.5q-3 18 4.5 26t26.5 12q23 5 34 -0.5t16 -25.5q11 -38 34 -66.5t57 -43.5t75 -15q34 0 63.5 7t56.5 22.5t50.5 42t43.5 65.5t38 94l224 691q5 14 18 20.5t35 6.5q21 0 30.5 -6.5t4.5 -20.5l-226 -696q-22 -69 -49.5 -120.5
t-59 -88t-68 -59t-77 -33t-85.5 -10.5zM670 1058q-12 0 -20 12t-8 23q0 10 3.5 15t7.5 9l162 126q15 13 28.5 18t29.5 5q13 0 23.5 -6.5t18.5 -19.5l93 -130q5 -7 5.5 -12.5t0.5 -10.5q0 -12 -13 -20.5t-22 -8.5q-10 0 -17 5t-15 12l-93 90l-153 -96q-7 -4 -14.5 -7.5
t-16.5 -3.5z" />
    <glyph glyph-name="jcircumflex" unicode="&#x135;" horiz-adv-x="268" 
d="M-162 -519q-34 0 -65.5 17.5t-51.5 39.5q-12 14 -11 28t17 26q15 13 26 14t23 -11q21 -19 35.5 -29t30.5 -10t24.5 15.5t21.5 57.5l279 859q5 14 17 20.5t33 6.5q24 0 32.5 -7t3.5 -22l-279 -858q-20 -64 -41 -95.5t-44 -41.5t-51 -10zM118 610q-13 0 -22.5 11t-9.5 23
q0 9 4 15t8 10l158 149q14 13 28 17.5t30 4.5q13 0 24.5 -6.5t17.5 -19.5l82 -153q4 -7 5 -12t1 -10q0 -12 -14.5 -20.5t-24.5 -8.5t-15.5 5t-10.5 11l-86 113l-147 -114q-6 -4 -13 -9.5t-15 -5.5z" />
    <glyph glyph-name="Kcommaaccent" unicode="&#x136;" horiz-adv-x="764" 
d="M101 -16q-22 0 -30.5 7t-4.5 22l317 974q9 28 53 28q45 0 35 -28l-134 -411l539 423q19 15 31.5 13t25.5 -20t11.5 -29t-22.5 -26l-540 -419q45 -94 91 -174.5t96 -152.5t108 -145q14 -18 10 -30t-25 -28q-15 -10 -29 -6.5t-23 14.5q-45 58 -87 118.5t-79.5 123
t-70.5 127.5t-62 131l-157 -483q-4 -15 -17.5 -22t-35.5 -7zM227 -287q-12 8 -13 19t7 22q18 27 30.5 49t19 44.5t9.5 52.5q2 17 13.5 24t30.5 7q23 0 34 -11t9 -30q-2 -25 -15 -53t-33 -55.5t-43 -52.5q-13 -13 -24.5 -18t-24.5 2z" />
    <glyph glyph-name="kcommaaccent" unicode="&#x137;" horiz-adv-x="564" 
d="M65 -15q-16 0 -29.5 7t-7.5 26l311 965q6 20 15.5 26t29.5 6q31 0 39.5 -9.5t1.5 -29.5l-204 -630l286 159q18 11 30.5 8.5t22.5 -19.5q8 -15 7.5 -29t-24.5 -27l-291 -162q27 -73 45 -116t31 -65.5t24 -29.5t23 -7q11 0 23.5 6t27.5 19t35 34q11 12 22 11t21 -10
q11 -11 12.5 -21t-7.5 -22q-28 -35 -54.5 -55.5t-50 -29.5t-41.5 -9q-26 0 -47 10.5t-41 37.5t-42.5 74.5t-50.5 121.5l-69 -214q-5 -13 -15 -19.5t-33 -6.5zM105 -286q-12 8 -13.5 18.5t7.5 22.5q18 27 30 48.5t18.5 44t9.5 52.5q2 17 13.5 24t30.5 7q23 0 34 -11t9 -30
q-2 -25 -15 -53t-32.5 -55t-42.5 -52q-13 -13 -25 -18t-24 2z" />
    <glyph glyph-name="Lacute" unicode="&#x139;" horiz-adv-x="694" 
d="M109 0q-45 0 -32 40l306 948q5 14 15 20.5t32 6.5q23 0 34 -7t5 -23l-292 -905h411q11 0 15 -9.5t-2 -30.5q-5 -19 -15 -29.5t-21 -10.5h-456zM409 1058q-11 0 -24.5 13.5t-13.5 23.5q0 4 1.5 8t7.5 10l158 145q5 5 9.5 8t10.5 3q10 0 22.5 -9t21.5 -21t9 -23
q0 -7 -2 -12t-13 -13l-168 -123l-10.5 -7t-8.5 -3z" />
    <glyph glyph-name="lacute" unicode="&#x13a;" horiz-adv-x="307" 
d="M129 -15q-58 0 -74.5 44.5t10.5 127.5l271 826q7 20 16.5 26t28.5 6q31 0 39.5 -9.5t1.5 -29.5l-285 -868q-7 -23 -4 -35.5t17 -12.5q11 0 21 6.5t21 18.5t23 28q8 10 16.5 12t21.5 -7q16 -10 18.5 -20t-3.5 -21q-17 -29 -39 -50t-46.5 -31.5t-53.5 -10.5zM359 1058
q-11 0 -24.5 13.5t-13.5 23.5q0 4 1.5 8t7.5 10l158 145q5 5 9.5 8t10.5 3q10 0 22.5 -9t21.5 -21t9 -23q0 -7 -2 -12t-13 -13l-168 -123l-10.5 -7t-8.5 -3z" />
    <glyph glyph-name="Lcommaaccent" unicode="&#x13b;" horiz-adv-x="694" 
d="M109 0q-45 0 -32 40l306 948q5 14 15 20.5t32 6.5q23 0 34 -7t5 -23l-292 -905h411q11 0 15 -9.5t-2 -30.5q-5 -19 -15 -29.5t-21 -10.5h-456zM219 -287q-12 8 -13 19t7 22q18 27 30.5 49t19 44.5t9.5 52.5q2 17 13.5 24t30.5 7q23 0 34 -11t9 -30q-2 -25 -15 -53
t-33 -55.5t-43 -52.5q-13 -13 -24.5 -18t-24.5 2z" />
    <glyph glyph-name="lcommaaccent" unicode="&#x13c;" horiz-adv-x="306" 
d="M129 -15q-58 0 -74.5 44.5t10.5 127.5l271 826q7 20 16.5 26t28.5 6q31 0 39.5 -9.5t1.5 -29.5l-285 -868q-7 -23 -4 -35.5t17 -12.5q11 0 21 6.5t21 18.5t23 28q8 10 16.5 12t21.5 -7q16 -10 18.5 -20t-3.5 -21q-17 -29 -39 -50t-46.5 -31.5t-53.5 -10.5zM5 -286
q-12 8 -13.5 18.5t7.5 22.5q18 27 30 48.5t18.5 44t9.5 52.5q2 17 13.5 24t30.5 7q23 0 34 -11t9 -30q-2 -25 -15 -53t-32.5 -55t-42.5 -52q-13 -13 -25 -18t-24 2z" />
    <glyph glyph-name="Lcaron" unicode="&#x13d;" horiz-adv-x="694" 
d="M109 0q-45 0 -32 40l306 948q5 14 15 20.5t32 6.5q23 0 34 -7t5 -23l-292 -905h411q11 0 15 -9.5t-2 -30.5q-5 -19 -15 -29.5t-21 -10.5h-456zM530 772q-15 7 -18.5 17t6.5 28t22 46.5t22 60.5t15 60q2 17 11 25t34 8q24 0 35.5 -8t9.5 -25q-5 -30 -19.5 -66.5t-33.5 -72
t-39 -63.5q-5 -7 -16.5 -12.5t-28.5 2.5z" />
    <glyph glyph-name="lcaron" unicode="&#x13e;" horiz-adv-x="307" 
d="M129 -15q-58 0 -74.5 44.5t10.5 127.5l271 826q7 20 16.5 26t28.5 6q31 0 39.5 -9.5t1.5 -29.5l-285 -868q-7 -23 -4 -35.5t17 -12.5q11 0 21 6.5t21 18.5t23 28q8 10 16.5 12t21.5 -7q16 -10 18.5 -20t-3.5 -21q-17 -29 -39 -50t-46.5 -31.5t-53.5 -10.5zM445 773
q-15 7 -18.5 17t6.5 28t22 46.5t22 60.5t15 60q2 17 11 25t34 8q24 0 35.5 -8t9.5 -25q-5 -30 -19.5 -66.5t-33.5 -72t-39 -63.5q-5 -7 -16.5 -12.5t-28.5 2.5z" />
    <glyph glyph-name="Ldot" unicode="&#x13f;" horiz-adv-x="694" 
d="M109 0q-45 0 -32 40l306 948q5 14 15 20.5t32 6.5q23 0 34 -7t5 -23l-292 -905h411q11 0 15 -9.5t-2 -30.5q-5 -19 -15 -29.5t-21 -10.5h-456zM593 453q-20 0 -34.5 13t-14.5 38q0 28 18 51.5t55 23.5q20 0 34.5 -12.5t14.5 -38.5q0 -27 -17.5 -51t-55.5 -24z" />
    <glyph glyph-name="ldot" unicode="&#x140;" horiz-adv-x="307" 
d="M129 -15q-58 0 -74.5 44.5t10.5 127.5l271 826q7 20 16.5 26t28.5 6q31 0 39.5 -9.5t1.5 -29.5l-285 -868q-7 -23 -4 -35.5t17 -12.5q11 0 21 6.5t21 18.5t23 28q8 10 16.5 12t21.5 -7q16 -10 18.5 -20t-3.5 -21q-17 -29 -39 -50t-46.5 -31.5t-53.5 -10.5zM371 438
q-20 0 -34.5 13t-14.5 38q0 28 18 51.5t55 23.5q20 0 34.5 -12.5t14.5 -38.5q0 -27 -17.5 -51t-55.5 -24z" />
    <glyph glyph-name="Lslash" unicode="&#x141;" horiz-adv-x="694" 
d="M109 0q-45 0 -32 40l306 948q5 14 15 20.5t32 6.5q23 0 34 -7t5 -23l-292 -905h411q11 0 15 -9.5t-2 -30.5q-5 -19 -15 -29.5t-21 -10.5h-456zM142 424q-15 -5 -25 0.5t-18 22.5q-4 13 -2 26.5t16 18.5l383 140q14 5 22.5 1.5t15.5 -18.5q18 -36 -7 -47z" />
    <glyph glyph-name="lslash" unicode="&#x142;" horiz-adv-x="307" 
d="M129 -15q-58 0 -74.5 44.5t10.5 127.5l271 826q7 20 16.5 26t28.5 6q31 0 39.5 -9.5t1.5 -29.5l-285 -868q-7 -23 -4 -35.5t17 -12.5q11 0 21 6.5t21 18.5t23 28q8 10 16.5 12t21.5 -7q16 -10 18.5 -20t-3.5 -21q-17 -29 -39 -50t-46.5 -31.5t-53.5 -10.5zM96 433
q-16 -5 -25.5 1t-14.5 26q-4 13 -0.5 24t17.5 17l285 104q14 5 22 0.5t15 -22.5q6 -15 4 -26t-14 -16z" />
    <glyph glyph-name="Nacute" unicode="&#x143;" horiz-adv-x="986" 
d="M102 -14q-44 0 -35 28l316 974q5 14 18 20.5t34 6.5q18 0 27.5 -6.5t14.5 -20.5l248 -829l269 829q5 14 18 20.5t34 6.5q46 0 35 -27l-315 -974q-4 -14 -17.5 -21t-33.5 -7q-16 0 -24 5t-13 23l-251 839l-273 -839q-4 -14 -17 -21t-35 -7zM716 1058q-11 0 -24.5 13.5
t-13.5 23.5q0 4 1.5 8t7.5 10l158 145q5 5 9.5 8t10.5 3q10 0 22.5 -9t21.5 -21t9 -23q0 -7 -2 -12t-13 -13l-168 -123l-10.5 -7t-8.5 -3z" />
    <glyph glyph-name="nacute" unicode="&#x144;" horiz-adv-x="646" 
d="M468 -15q-38 0 -57 16t-23 41.5t1 54.5t14 56l65 191q10 27 10.5 48.5t-11 34t-39.5 12.5q-33 0 -70.5 -24t-76.5 -68.5t-76.5 -105.5t-69.5 -134l-31 -96q-4 -13 -14.5 -19.5t-33.5 -6.5q-16 0 -30 7t-7 26l150 465q7 20 16.5 26t28.5 6q31 0 39.5 -9.5t1.5 -29.5
l-42 -130q28 42 58 74t61.5 54.5t63.5 33.5t64 11q50 0 76 -23.5t29.5 -68.5t-18.5 -109l-71 -210q-5 -17 -6 -27.5t3 -15.5t13 -5q11 0 22 7t22.5 19t23.5 27q8 10 16.5 12t21.5 -7q16 -10 18.5 -20t-3.5 -21q-9 -15 -28.5 -37.5t-47.5 -38.5t-63 -16zM382 616
q-9 0 -21.5 9.5t-12.5 20.5q0 7 2.5 13t7.5 12l123 153q9 12 16 16t15 4q10 0 22.5 -7t21.5 -18t9 -23q0 -8 -3.5 -13t-9.5 -10l-141 -142q-15 -15 -29 -15z" />
    <glyph glyph-name="Ncommaaccent" unicode="&#x145;" horiz-adv-x="986" 
d="M102 -14q-44 0 -35 28l316 974q5 14 18 20.5t34 6.5q18 0 27.5 -6.5t14.5 -20.5l248 -829l269 829q5 14 18 20.5t34 6.5q46 0 35 -27l-315 -974q-4 -14 -17.5 -21t-33.5 -7q-16 0 -24 5t-13 23l-251 839l-273 -839q-4 -14 -17 -21t-35 -7zM296 -287q-12 8 -13 19t7 22
q18 27 30.5 49t19 44.5t9.5 52.5q2 17 13.5 24t30.5 7q23 0 34 -11t9 -30q-2 -25 -15 -53t-33 -55.5t-43 -52.5q-13 -13 -24.5 -18t-24.5 2z" />
    <glyph glyph-name="ncommaaccent" unicode="&#x146;" horiz-adv-x="646" 
d="M468 -15q-38 0 -57 16t-23 41.5t1 54.5t14 56l65 191q10 27 10.5 48.5t-11 34t-39.5 12.5q-33 0 -70.5 -24t-76.5 -68.5t-76.5 -105.5t-69.5 -134l-31 -96q-4 -13 -14.5 -19.5t-33.5 -6.5q-16 0 -30 7t-7 26l150 465q7 20 16.5 26t28.5 6q31 0 39.5 -9.5t1.5 -29.5
l-42 -130q28 42 58 74t61.5 54.5t63.5 33.5t64 11q50 0 76 -23.5t29.5 -68.5t-18.5 -109l-71 -210q-5 -17 -6 -27.5t3 -15.5t13 -5q11 0 22 7t22.5 19t23.5 27q8 10 16.5 12t21.5 -7q16 -10 18.5 -20t-3.5 -21q-9 -15 -28.5 -37.5t-47.5 -38.5t-63 -16zM135 -286
q-12 8 -13.5 18.5t7.5 22.5q18 27 30 48.5t18.5 44t9.5 52.5q2 17 13.5 24t30.5 7q23 0 34 -11t9 -30q-2 -25 -15 -53t-32.5 -55t-42.5 -52q-13 -13 -25 -18t-24 2z" />
    <glyph glyph-name="Ncaron" unicode="&#x147;" horiz-adv-x="986" 
d="M102 -14q-44 0 -35 28l316 974q5 14 18 20.5t34 6.5q18 0 27.5 -6.5t14.5 -20.5l248 -829l269 829q5 14 18 20.5t34 6.5q46 0 35 -27l-315 -974q-4 -14 -17.5 -21t-33.5 -7q-16 0 -24 5t-13 23l-251 839l-273 -839q-4 -14 -17 -21t-35 -7zM957 1266q12 0 21.5 -12
t9.5 -23q0 -10 -3 -15t-8 -9l-163 -126q-15 -12 -28 -17.5t-29 -5.5q-13 0 -23.5 7t-19.5 20l-92 130q-5 8 -6 13t-1 9q0 12 14.5 20.5t24.5 8.5t15 -4.5t12 -11.5l94 -90l153 91q7 4 14 9.5t15 5.5z" />
    <glyph glyph-name="ncaron" unicode="&#x148;" horiz-adv-x="646" 
d="M468 -15q-38 0 -57 16t-23 41.5t1 54.5t14 56l65 191q10 27 10.5 48.5t-11 34t-39.5 12.5q-33 0 -70.5 -24t-76.5 -68.5t-76.5 -105.5t-69.5 -134l-31 -96q-4 -13 -14.5 -19.5t-33.5 -6.5q-16 0 -30 7t-7 26l150 465q7 20 16.5 26t28.5 6q31 0 39.5 -9.5t1.5 -29.5
l-42 -130q28 42 58 74t61.5 54.5t63.5 33.5t64 11q50 0 76 -23.5t29.5 -68.5t-18.5 -109l-71 -210q-5 -17 -6 -27.5t3 -15.5t13 -5q11 0 22 7t22.5 19t23.5 27q8 10 16.5 12t21.5 -7q16 -10 18.5 -20t-3.5 -21q-9 -15 -28.5 -37.5t-47.5 -38.5t-63 -16zM610 848
q12 0 21.5 -11t9.5 -23q0 -10 -3.5 -15.5t-7.5 -9.5l-159 -149q-14 -13 -27.5 -17.5t-30.5 -4.5q-13 0 -24 6.5t-18 19.5l-81 152q-4 8 -5.5 13.5t-1.5 9.5q0 12 15 20.5t24 8.5q11 0 16.5 -5t9.5 -12l87 -112l146 114q7 5 13.5 10t15.5 5z" />
    <glyph glyph-name="Eng" unicode="&#x14a;" horiz-adv-x="985" 
d="M718 -130q-21 -68 -45 -102.5t-52 -46.5t-62 -12q-33 0 -64 19t-54 53q-10 15 -10.5 27t18.5 26q16 12 28 11.5t21 -12.5q14 -17 25 -28t21.5 -15.5t21.5 -4.5q17 0 28 10t21 33t22 62l41 125l-251 838l-273 -839q-4 -14 -17 -21t-35 -7q-44 0 -35 28l316 974
q5 14 18 20.5t34 6.5q18 0 27.5 -6.5t14.5 -20.5l248 -829l269 829q5 14 18 20.5t34 6.5q46 0 35 -27z" />
    <glyph glyph-name="eng" unicode="&#x14b;" horiz-adv-x="613" 
d="M405 -109q-21 -64 -43.5 -95t-47.5 -41t-57 -10q-28 0 -55.5 16.5t-47.5 46.5q-10 15 -11 26.5t18 25.5q15 11 27 11t22 -12q18 -22 30 -30.5t25 -8.5q20 0 31 20.5t28 72.5l144 431q9 27 10 48.5t-10.5 34t-39.5 12.5q-33 0 -70.5 -24t-76.5 -68.5t-76.5 -105.5
t-69.5 -134l-31 -96q-4 -13 -14.5 -19.5t-33.5 -6.5q-16 0 -30 7t-7 26l150 465q7 20 16.5 26t28.5 6q31 0 39.5 -9.5t1.5 -29.5l-42 -130q28 42 58 74t61.5 54.5t63.5 33.5t64 11q50 0 76 -23.5t29 -68.5t-18 -109z" />
    <glyph glyph-name="Omacron" unicode="&#x14c;" horiz-adv-x="1027" 
d="M485 -19q-75 0 -136 25.5t-104.5 74t-67 117t-23.5 153.5q0 73 16.5 149.5t48.5 151t78.5 140t108 116t136.5 79t163 28.5q75 0 135.5 -25.5t103 -73.5t66 -116t23.5 -152q0 -78 -17 -157.5t-50 -154t-80 -139t-108 -113t-134.5 -76t-158.5 -27.5zM500 66q68 0 127 24
t108.5 66.5t87.5 98.5t64 120t39.5 130t13.5 130q0 72 -16 127t-48 92.5t-78.5 56.5t-107.5 19q-67 0 -126.5 -24t-108.5 -67t-87.5 -99t-65.5 -119.5t-40.5 -129t-13.5 -128.5q0 -71 16 -126.5t47.5 -93t78.5 -57.5t110 -20zM639 1120q-19 0 -23.5 11.5t0.5 29.5
q5 22 14 33t27 11h268q20 0 24.5 -12.5t-0.5 -31.5q-5 -21 -14 -31t-27 -10h-269z" />
    <glyph glyph-name="omacron" unicode="&#x14d;" horiz-adv-x="589" 
d="M241 -19q-62 0 -105 25t-64.5 69.5t-21.5 100.5q0 53 19 112.5t56.5 112t94 85.5t131.5 33q62 0 104.5 -23.5t64 -66t21.5 -98.5q0 -40 -11.5 -87.5t-35 -94t-59.5 -84.5t-84.5 -61t-109.5 -23zM251 61q49 0 86 26t62 66.5t38 85t13 82.5q0 39 -13 65t-37 39.5t-57 13.5
q-50 0 -88 -25.5t-63.5 -65.5t-38.5 -84t-13 -81q0 -39 13.5 -66.5t38.5 -41.5t59 -14zM290 686q-20 0 -24 12t0 30q5 21 14 32t27 11h258q20 0 24 -12t-1 -31q-5 -21 -14 -31.5t-27 -10.5h-257z" />
    <glyph glyph-name="Obreve" unicode="&#x14e;" horiz-adv-x="1027" 
d="M485 -19q-75 0 -136 25.5t-104.5 74t-67 117t-23.5 153.5q0 73 16.5 149.5t48.5 151t78.5 140t108 116t136.5 79t163 28.5q75 0 135.5 -25.5t103 -73.5t66 -116t23.5 -152q0 -78 -17 -157.5t-50 -154t-80 -139t-108 -113t-134.5 -76t-158.5 -27.5zM500 66q68 0 127 24
t108.5 66.5t87.5 98.5t64 120t39.5 130t13.5 130q0 72 -16 127t-48 92.5t-78.5 56.5t-107.5 19q-67 0 -126.5 -24t-108.5 -67t-87.5 -99t-65.5 -119.5t-40.5 -129t-13.5 -128.5q0 -71 16 -126.5t47.5 -93t78.5 -57.5t110 -20zM761 1058q-73 0 -111 44.5t-28 136.5
q2 15 11 21t24 6t24.5 -7.5t9.5 -19.5q-1 -51 23.5 -73t62.5 -22q46 0 79.5 26.5t51.5 65.5q8 18 17 24t23 6q17 0 26.5 -9t4.5 -24q-23 -69 -51.5 -107t-69 -53t-97.5 -15z" />
    <glyph glyph-name="obreve" unicode="&#x14f;" horiz-adv-x="589" 
d="M241 -19q-62 0 -105 25t-64.5 69.5t-21.5 100.5q0 53 19 112.5t56.5 112t94 85.5t131.5 33q62 0 104.5 -23.5t64 -66t21.5 -98.5q0 -40 -11.5 -87.5t-35 -94t-59.5 -84.5t-84.5 -61t-109.5 -23zM251 61q49 0 86 26t62 66.5t38 85t13 82.5q0 39 -13 65t-37 39.5t-57 13.5
q-50 0 -88 -25.5t-63.5 -65.5t-38.5 -84t-13 -81q0 -39 13.5 -66.5t38.5 -41.5t59 -14zM403 618q-76 0 -111 52.5t-18 149.5q2 15 11.5 21.5t25.5 6.5t25.5 -8t8.5 -20q-4 -55 16 -84.5t57 -29.5q44 0 79 33.5t54 76.5q8 18 16.5 24t23.5 6q19 0 28.5 -9t4.5 -24
q-24 -72 -54.5 -114.5t-71 -61.5t-95.5 -19z" />
    <glyph glyph-name="Ohungarumlaut" unicode="&#x150;" horiz-adv-x="1027" 
d="M485 -19q-75 0 -136 25.5t-104.5 74t-67 117t-23.5 153.5q0 73 16.5 149.5t48.5 151t78.5 140t108 116t136.5 79t163 28.5q75 0 135.5 -25.5t103 -73.5t66 -116t23.5 -152q0 -78 -17 -157.5t-50 -154t-80 -139t-108 -113t-134.5 -76t-158.5 -27.5zM500 66q68 0 127 24
t108.5 66.5t87.5 98.5t64 120t39.5 130t13.5 130q0 72 -16 127t-48 92.5t-78.5 56.5t-107.5 19q-67 0 -126.5 -24t-108.5 -67t-87.5 -99t-65.5 -119.5t-40.5 -129t-13.5 -128.5q0 -71 16 -126.5t47.5 -93t78.5 -57.5t110 -20zM651 1058q-11 0 -24 13.5t-13 23.5q0 4 1 8
t8 10l141 145q5 5 9 8t10 3q10 0 23 -9t22 -21t9 -22q0 -8 -2 -13t-13 -13l-151 -123q-6 -4 -11 -7t-9 -3zM847 1058q-11 0 -24.5 13.5t-13.5 23.5q0 4 1 8t8 10l140 145q6 5 10.5 8t10.5 3q10 0 22.5 -9t22 -21t9.5 -22q0 -8 -2 -13t-13 -13l-153 -123q-5 -4 -9.5 -7
t-8.5 -3z" />
    <glyph glyph-name="ohungarumlaut" unicode="&#x151;" horiz-adv-x="589" 
d="M241 -19q-62 0 -105 25t-64.5 69.5t-21.5 100.5q0 53 19 112.5t56.5 112t94 85.5t131.5 33q62 0 104.5 -23.5t64 -66t21.5 -98.5q0 -40 -11.5 -87.5t-35 -94t-59.5 -84.5t-84.5 -61t-109.5 -23zM251 61q49 0 86 26t62 66.5t38 85t13 82.5q0 39 -13 65t-37 39.5t-57 13.5
q-50 0 -88 -25.5t-63.5 -65.5t-38.5 -84t-13 -81q0 -39 13.5 -66.5t38.5 -41.5t59 -14zM287 616q-9 0 -21.5 9.5t-12.5 20.5q0 7 3 13t7 12l105 153q9 13 16 16.5t16 3.5q10 0 22 -7t21 -18t9 -23q0 -8 -3.5 -12.5t-8.5 -10.5l-124 -142q-7 -9 -15 -12t-14 -3zM460 616
q-10 0 -22 9.5t-12 20.5q0 7 2 13t8 12l119 153q9 12 16 16t15 4q10 0 22 -7t21 -18t9 -23q0 -8 -3.5 -13t-8.5 -10l-138 -142q-8 -8 -15.5 -11.5t-12.5 -3.5z" />
    <glyph glyph-name="OE" unicode="&#x152;" horiz-adv-x="1418" 
d="M470 -19q-71 0 -128.5 25.5t-99 74t-64 117t-22.5 153.5q0 73 16 149.5t47 151t76.5 140t105 116t132.5 79t158 28.5q71 0 127 -27t95 -76t60 -116.5t21 -147.5q0 -73 -15.5 -150t-46.5 -152t-76 -140.5t-103.5 -116.5t-129 -79.5t-153.5 -28.5zM489 66q67 0 124.5 24
t105.5 66.5t85 98.5t62.5 120t38.5 130t13 130q0 72 -15.5 127t-46 92.5t-75 56.5t-103.5 19q-65 0 -122.5 -24t-105 -67t-85 -99t-63.5 -119.5t-39.5 -129t-13.5 -128.5q0 -71 15.5 -126.5t45.5 -93t75 -57.5t104 -20zM799 0q-25 0 -35.5 9t-3.5 31l300 930q4 14 15.5 21
t31.5 7h480q11 0 15 -10t-1 -30q-6 -20 -15.5 -30t-20.5 -10h-434l-114 -350h361q11 0 15 -10t-1 -30q-6 -20 -16 -30t-21 -10h-363l-131 -408h430q11 0 15.5 -9.5t-1.5 -30.5q-5 -19 -15 -29.5t-21 -10.5h-470z" />
    <glyph glyph-name="oe.mod" unicode="&#x153;" horiz-adv-x="913" 
d="M238 -19q-62 0 -104 25t-63 69t-21 101q0 42 12 89.5t36 92.5t60 81.5t84 58t108 21.5q57 0 96 -23.5t59 -66t20 -98.5q0 -40 -11.5 -87.5t-34 -94t-57 -84.5t-80.5 -61t-104 -23zM248 61q48 0 85 26t62 66.5t38 85t13 82.5q0 39 -12.5 65t-36 39.5t-56.5 13.5
q-49 0 -86.5 -25.5t-63 -65.5t-38.5 -84.5t-13 -81.5q0 -38 13 -65.5t37.5 -41.5t57.5 -14zM600 -19q-55 0 -90.5 25t-53 67.5t-17.5 94.5q0 58 19.5 120t58 114t94.5 84.5t129 32.5q47 0 79 -14.5t48 -40.5t16 -63q0 -41 -23.5 -74t-65 -59.5t-94 -45t-111 -30.5
t-116.5 -18l10 71q39 4 82 12t83.5 20t73 29t52 38t19.5 47t-16.5 37.5t-46.5 11.5q-51 0 -91 -25.5t-67 -66t-41 -87t-14 -88.5q0 -34 10.5 -59.5t31.5 -39t53 -13.5q31 0 57.5 12.5t49.5 33t46 44.5q13 14 28 10.5t25 -14.5q11 -11 12.5 -23.5t-10.5 -27.5
q-36 -43 -73 -68.5t-73.5 -36t-73.5 -10.5z" />
    <glyph glyph-name="Racute" unicode="&#x154;" horiz-adv-x="770" 
d="M107 -14q-22 0 -32.5 7t-6.5 23l309 954q5 14 17 21t34 7h144q107 0 175.5 -19.5t100.5 -64t32 -120.5q0 -50 -15 -93.5t-44 -80.5t-71.5 -66.5t-98 -51t-122 -34.5t-144.5 -16q35 -70 76 -138t91 -133.5t112 -129.5q8 -8 11.5 -21.5t-19.5 -33.5q-15 -13 -29.5 -10.5
t-26.5 14.5q-59 60 -115.5 133t-105 153t-85.5 157l-138 -429q-5 -14 -15.5 -21t-33.5 -7zM319 522q64 0 120 6t104 17.5t87 28t69 38.5t50.5 49t30.5 58.5t10 67.5q0 51 -20.5 79.5t-71 40t-139.5 11.5h-111zM607 1058q-11 0 -24.5 13.5t-13.5 23.5q0 4 1.5 8t7.5 10
l158 145q5 5 9.5 8t10.5 3q10 0 22.5 -9t21.5 -21t9 -23q0 -7 -2 -12t-13 -13l-168 -123l-10.5 -7t-8.5 -3z" />
    <glyph glyph-name="racute" unicode="&#x155;" horiz-adv-x="454" 
d="M56 -15q-16 0 -30 7t-7 26l150 465q7 20 16.5 26t28.5 6q31 0 39.5 -9.5t1.5 -29.5l-43 -133q29 42 58.5 75t58 55.5t55.5 34t49 11.5q27 0 47 -11.5t32 -27.5q9 -10 8 -21.5t-12 -24.5t-21 -18t-19 4q-12 8 -24.5 13.5t-24.5 5.5q-26 0 -61.5 -24t-75 -68.5
t-77.5 -105.5t-70 -134l-31 -96q-4 -13 -14.5 -19.5t-33.5 -6.5zM344 616q-9 0 -21.5 9.5t-12.5 20.5q0 7 2.5 13t7.5 12l123 153q9 12 16 16t15 4q10 0 22.5 -7t21.5 -18t9 -23q0 -8 -3.5 -13t-9.5 -10l-141 -142q-15 -15 -29 -15z" />
    <glyph glyph-name="Rcommaaccent" unicode="&#x156;" horiz-adv-x="770" 
d="M107 -14q-22 0 -32.5 7t-6.5 23l309 954q5 14 17 21t34 7h144q107 0 175.5 -19.5t100.5 -64t32 -120.5q0 -50 -15 -93.5t-44 -80.5t-71.5 -66.5t-98 -51t-122 -34.5t-144.5 -16q35 -70 76 -138t91 -133.5t112 -129.5q8 -8 11.5 -21.5t-19.5 -33.5q-15 -13 -29.5 -10.5
t-26.5 14.5q-59 60 -115.5 133t-105 153t-85.5 157l-138 -429q-5 -14 -15.5 -21t-33.5 -7zM319 522q64 0 120 6t104 17.5t87 28t69 38.5t50.5 49t30.5 58.5t10 67.5q0 51 -20.5 79.5t-71 40t-139.5 11.5h-111zM230 -287q-12 8 -13 19t7 22q18 27 30.5 49t19 44.5t9.5 52.5
q2 17 13.5 24t30.5 7q23 0 34 -11t9 -30q-2 -25 -15 -53t-33 -55.5t-43 -52.5q-13 -13 -24.5 -18t-24.5 2z" />
    <glyph glyph-name="rcommaaccent" unicode="&#x157;" horiz-adv-x="454" 
d="M56 -15q-16 0 -30 7t-7 26l150 465q7 20 16.5 26t28.5 6q31 0 39.5 -9.5t1.5 -29.5l-43 -133q29 42 58.5 75t58 55.5t55.5 34t49 11.5q27 0 47 -11.5t32 -27.5q9 -10 8 -21.5t-12 -24.5t-21 -18t-19 4q-12 8 -24.5 13.5t-24.5 5.5q-26 0 -61.5 -24t-75 -68.5
t-77.5 -105.5t-70 -134l-31 -96q-4 -13 -14.5 -19.5t-33.5 -6.5zM-64 -286q-12 8 -13.5 18.5t7.5 22.5q18 27 30 48.5t18.5 44t9.5 52.5q2 17 13.5 24t30.5 7q23 0 34 -11t9 -30q-2 -25 -15 -53t-32.5 -55t-42.5 -52q-13 -13 -25 -18t-24 2z" />
    <glyph glyph-name="Rcaron" unicode="&#x158;" horiz-adv-x="770" 
d="M107 -14q-22 0 -32.5 7t-6.5 23l309 954q5 14 17 21t34 7h144q107 0 175.5 -19.5t100.5 -64t32 -120.5q0 -50 -15 -93.5t-44 -80.5t-71.5 -66.5t-98 -51t-122 -34.5t-144.5 -16q35 -70 76 -138t91 -133.5t112 -129.5q8 -8 11.5 -21.5t-19.5 -33.5q-15 -13 -29.5 -10.5
t-26.5 14.5q-59 60 -115.5 133t-105 153t-85.5 157l-138 -429q-5 -14 -15.5 -21t-33.5 -7zM319 522q64 0 120 6t104 17.5t87 28t69 38.5t50.5 49t30.5 58.5t10 67.5q0 51 -20.5 79.5t-71 40t-139.5 11.5h-111zM848 1266q12 0 21.5 -12t9.5 -23q0 -10 -3 -15t-8 -9l-163 -126
q-15 -12 -28 -17.5t-29 -5.5q-13 0 -23.5 7t-19.5 20l-92 130q-5 8 -6 13t-1 9q0 12 14.5 20.5t24.5 8.5t15 -4.5t12 -11.5l94 -90l153 91q7 4 14 9.5t15 5.5z" />
    <glyph glyph-name="rcaron" unicode="&#x159;" horiz-adv-x="454" 
d="M56 -15q-16 0 -30 7t-7 26l150 465q7 20 16.5 26t28.5 6q31 0 39.5 -9.5t1.5 -29.5l-43 -133q29 42 58.5 75t58 55.5t55.5 34t49 11.5q27 0 47 -11.5t32 -27.5q9 -10 8 -21.5t-12 -24.5t-21 -18t-19 4q-12 8 -24.5 13.5t-24.5 5.5q-26 0 -61.5 -24t-75 -68.5
t-77.5 -105.5t-70 -134l-31 -96q-4 -13 -14.5 -19.5t-33.5 -6.5zM572 848q12 0 21.5 -11t9.5 -23q0 -10 -3.5 -15.5t-7.5 -9.5l-159 -149q-14 -13 -27.5 -17.5t-30.5 -4.5q-13 0 -24 6.5t-18 19.5l-81 152q-4 8 -5.5 13.5t-1.5 9.5q0 12 15 20.5t24 8.5q11 0 16.5 -5
t9.5 -12l87 -112l146 114q7 5 13.5 10t15.5 5z" />
    <glyph glyph-name="Sacute" unicode="&#x15a;" horiz-adv-x="764" 
d="M343 -20q-52 0 -96.5 12.5t-81 34t-65.5 48t-51 54.5q-9 12 -3.5 22.5t15.5 20.5q14 11 25 14t20 -8q26 -29 61 -54.5t79.5 -42t97.5 -16.5q55 0 102.5 14t83 40.5t55 66t19.5 90.5q0 33 -10.5 60t-30 50t-48.5 43.5t-67 41.5q-35 19 -66 40t-56.5 45t-44 52.5t-29 63.5
t-10.5 78q0 58 22.5 106.5t64.5 84t100.5 55t131.5 19.5q57 0 104.5 -16.5t86.5 -43.5t70 -58q11 -10 8.5 -21.5t-16.5 -23.5q-11 -11 -22.5 -13t-22.5 6q-26 22 -55.5 41.5t-66.5 31.5t-87 12q-48 0 -89.5 -11.5t-71.5 -34t-47 -56t-17 -77.5q0 -36 8.5 -63.5t28 -50.5
t50.5 -45t75 -46q48 -25 85 -52.5t62.5 -60t38.5 -71t13 -84.5q0 -67 -26 -121t-74 -94t-112.5 -61.5t-140.5 -21.5zM547 1058q-11 0 -24.5 13.5t-13.5 23.5q0 4 1.5 8t7.5 10l158 145q5 5 9.5 8t10.5 3q10 0 22.5 -9t21.5 -21t9 -23q0 -7 -2 -12t-13 -13l-168 -123
l-10.5 -7t-8.5 -3z" />
    <glyph glyph-name="sacute" unicode="&#x15b;" horiz-adv-x="479" 
d="M201 -19q-44 0 -82.5 14t-67.5 36.5t-45 46.5q-6 11 -6 22t14 22q13 10 25 12t20 -11q23 -31 61 -52t81 -21q38 0 62.5 9t37 27.5t12.5 44.5q0 25 -14.5 43t-37 32t-48.5 28t-48.5 32t-37 44t-14.5 63t18 70t57.5 54.5t101.5 21.5q45 0 80 -12.5t58.5 -31.5t35.5 -38
q8 -12 9 -21t-15 -22q-13 -9 -23 -10t-20 8q-24 25 -54.5 41.5t-74.5 16.5q-47 0 -67 -19.5t-20 -48.5q0 -23 14.5 -41t37 -32.5t48.5 -29t48.5 -32.5t37 -43.5t14.5 -61.5q0 -58 -26.5 -93.5t-71.5 -51.5t-100 -16zM318 616q-9 0 -21.5 9.5t-12.5 20.5q0 7 2.5 13t7.5 12
l123 153q9 12 16 16t15 4q10 0 22.5 -7t21.5 -18t9 -23q0 -8 -3.5 -13t-9.5 -10l-141 -142q-15 -15 -29 -15z" />
    <glyph glyph-name="Scircumflex" unicode="&#x15c;" horiz-adv-x="764" 
d="M343 -20q-52 0 -96.5 12.5t-81 34t-65.5 48t-51 54.5q-9 12 -3.5 22.5t15.5 20.5q14 11 25 14t20 -8q26 -29 61 -54.5t79.5 -42t97.5 -16.5q55 0 102.5 14t83 40.5t55 66t19.5 90.5q0 33 -10.5 60t-30 50t-48.5 43.5t-67 41.5q-35 19 -66 40t-56.5 45t-44 52.5t-29 63.5
t-10.5 78q0 58 22.5 106.5t64.5 84t100.5 55t131.5 19.5q57 0 104.5 -16.5t86.5 -43.5t70 -58q11 -10 8.5 -21.5t-16.5 -23.5q-11 -11 -22.5 -13t-22.5 6q-26 22 -55.5 41.5t-66.5 31.5t-87 12q-48 0 -89.5 -11.5t-71.5 -34t-47 -56t-17 -77.5q0 -36 8.5 -63.5t28 -50.5
t50.5 -45t75 -46q48 -25 85 -52.5t62.5 -60t38.5 -71t13 -84.5q0 -67 -26 -121t-74 -94t-112.5 -61.5t-140.5 -21.5zM449 1058q-12 0 -20 12t-8 23q0 10 3.5 15t7.5 9l162 126q15 13 28.5 18t29.5 5q13 0 23.5 -6.5t18.5 -19.5l93 -130q5 -7 5.5 -12.5t0.5 -10.5
q0 -12 -13 -20.5t-22 -8.5q-10 0 -17 5t-15 12l-93 90l-153 -96q-7 -4 -14.5 -7.5t-16.5 -3.5z" />
    <glyph glyph-name="scircumflex" unicode="&#x15d;" horiz-adv-x="479" 
d="M201 -19q-44 0 -82.5 14t-67.5 36.5t-45 46.5q-6 11 -6 22t14 22q13 10 25 12t20 -11q23 -31 61 -52t81 -21q38 0 62.5 9t37 27.5t12.5 44.5q0 25 -14.5 43t-37 32t-48.5 28t-48.5 32t-37 44t-14.5 63t18 70t57.5 54.5t101.5 21.5q45 0 80 -12.5t58.5 -31.5t35.5 -38
q8 -12 9 -21t-15 -22q-13 -9 -23 -10t-20 8q-24 25 -54.5 41.5t-74.5 16.5q-47 0 -67 -19.5t-20 -48.5q0 -23 14.5 -41t37 -32.5t48.5 -29t48.5 -32.5t37 -43.5t14.5 -61.5q0 -58 -26.5 -93.5t-71.5 -51.5t-100 -16zM216 610q-13 0 -22.5 11t-9.5 23q0 9 4 15t8 10l158 149
q14 13 28 17.5t30 4.5q13 0 24.5 -6.5t17.5 -19.5l82 -153q4 -7 5 -12t1 -10q0 -12 -14.5 -20.5t-24.5 -8.5t-15.5 5t-10.5 11l-86 113l-147 -114q-6 -4 -13 -9.5t-15 -5.5z" />
    <glyph glyph-name="Scedilla" unicode="&#x15e;" horiz-adv-x="764" 
d="M343 -20q-52 0 -96.5 12.5t-81 34t-65.5 48t-51 54.5q-9 12 -3.5 22.5t15.5 20.5q14 11 25 14t20 -8q26 -29 61 -54.5t79.5 -42t97.5 -16.5q55 0 102.5 14t83 40.5t55 66t19.5 90.5q0 33 -10.5 60t-30 50t-48.5 43.5t-67 41.5q-35 19 -66 40t-56.5 45t-44 52.5t-29 63.5
t-10.5 78q0 58 22.5 106.5t64.5 84t100.5 55t131.5 19.5q57 0 104.5 -16.5t86.5 -43.5t70 -58q11 -10 8.5 -21.5t-16.5 -23.5q-11 -11 -22.5 -13t-22.5 6q-26 22 -55.5 41.5t-66.5 31.5t-87 12q-48 0 -89.5 -11.5t-71.5 -34t-47 -56t-17 -77.5q0 -36 8.5 -63.5t28 -50.5
t50.5 -45t75 -46q48 -25 85 -52.5t62.5 -60t38.5 -71t13 -84.5q0 -67 -26 -121t-74 -94t-112.5 -61.5t-140.5 -21.5zM267 -269q-37 0 -66.5 7.5t-46.5 20.5q-8 8 -7 20.5t6 21.5q7 13 15.5 17.5t18.5 0.5q13 -6 32 -12.5t50 -6.5q25 0 39 7.5t14 27.5q0 22 -19.5 27.5
t-46.5 2.5q-11 -1 -15.5 2t-8.5 9q-4 7 -2.5 13.5t6.5 13.5l73 110h65l-76 -118l-29 16q44 14 75 8.5t47.5 -25.5t16.5 -49q0 -37 -19.5 -62.5t-51.5 -38.5t-70 -13z" />
    <glyph glyph-name="scedilla" unicode="&#x15f;" horiz-adv-x="479" 
d="M201 -19q-44 0 -82.5 14t-67.5 36.5t-45 46.5q-6 11 -6 22t14 22q13 10 25 12t20 -11q23 -31 61 -52t81 -21q38 0 62.5 9t37 27.5t12.5 44.5q0 25 -14.5 43t-37 32t-48.5 28t-48.5 32t-37 44t-14.5 63t18 70t57.5 54.5t101.5 21.5q45 0 80 -12.5t58.5 -31.5t35.5 -38
q8 -12 9 -21t-15 -22q-13 -9 -23 -10t-20 8q-24 25 -54.5 41.5t-74.5 16.5q-47 0 -67 -19.5t-20 -48.5q0 -23 14.5 -41t37 -32.5t48.5 -29t48.5 -32.5t37 -43.5t14.5 -61.5q0 -58 -26.5 -93.5t-71.5 -51.5t-100 -16zM109 -269q-37 0 -66.5 7.5t-46.5 20.5q-8 8 -7 20.5
t6 21.5q7 13 15.5 17.5t18.5 0.5q13 -6 32 -12.5t50 -6.5q25 0 39 7.5t14 27.5q0 22 -19.5 27.5t-46.5 2.5q-11 -1 -15.5 2t-8.5 9q-4 7 -2.5 13.5t6.5 13.5l73 110h69l-80 -118l-29 16q44 14 75 8.5t47.5 -25.5t16.5 -49q0 -37 -19.5 -62.5t-51.5 -38.5t-70 -13z" />
    <glyph glyph-name="Scaron" unicode="&#x160;" horiz-adv-x="764" 
d="M343 -20q-52 0 -96.5 12.5t-81 34t-65.5 48t-51 54.5q-9 12 -3.5 22.5t15.5 20.5q14 11 25 14t20 -8q26 -29 61 -54.5t79.5 -42t97.5 -16.5q55 0 102.5 14t83 40.5t55 66t19.5 90.5q0 33 -10.5 60t-30 50t-48.5 43.5t-67 41.5q-35 19 -66 40t-56.5 45t-44 52.5t-29 63.5
t-10.5 78q0 58 22.5 106.5t64.5 84t100.5 55t131.5 19.5q57 0 104.5 -16.5t86.5 -43.5t70 -58q11 -10 8.5 -21.5t-16.5 -23.5q-11 -11 -22.5 -13t-22.5 6q-26 22 -55.5 41.5t-66.5 31.5t-87 12q-48 0 -89.5 -11.5t-71.5 -34t-47 -56t-17 -77.5q0 -36 8.5 -63.5t28 -50.5
t50.5 -45t75 -46q48 -25 85 -52.5t62.5 -60t38.5 -71t13 -84.5q0 -67 -26 -121t-74 -94t-112.5 -61.5t-140.5 -21.5zM788 1266q12 0 21.5 -12t9.5 -23q0 -10 -3 -15t-8 -9l-163 -126q-15 -12 -28 -17.5t-29 -5.5q-13 0 -23.5 7t-19.5 20l-92 130q-5 8 -6 13t-1 9
q0 12 14.5 20.5t24.5 8.5t15 -4.5t12 -11.5l94 -90l153 91q7 4 14 9.5t15 5.5z" />
    <glyph glyph-name="scaron" unicode="&#x161;" horiz-adv-x="479" 
d="M201 -19q-44 0 -82.5 14t-67.5 36.5t-45 46.5q-6 11 -6 22t14 22q13 10 25 12t20 -11q23 -31 61 -52t81 -21q38 0 62.5 9t37 27.5t12.5 44.5q0 25 -14.5 43t-37 32t-48.5 28t-48.5 32t-37 44t-14.5 63t18 70t57.5 54.5t101.5 21.5q45 0 80 -12.5t58.5 -31.5t35.5 -38
q8 -12 9 -21t-15 -22q-13 -9 -23 -10t-20 8q-24 25 -54.5 41.5t-74.5 16.5q-47 0 -67 -19.5t-20 -48.5q0 -23 14.5 -41t37 -32.5t48.5 -29t48.5 -32.5t37 -43.5t14.5 -61.5q0 -58 -26.5 -93.5t-71.5 -51.5t-100 -16zM546 848q12 0 21.5 -11t9.5 -23q0 -10 -3.5 -15.5
t-7.5 -9.5l-159 -149q-14 -13 -27.5 -17.5t-30.5 -4.5q-13 0 -24 6.5t-18 19.5l-81 152q-4 8 -5.5 13.5t-1.5 9.5q0 12 15 20.5t24 8.5q11 0 16.5 -5t9.5 -12l87 -112l146 114q7 5 13.5 10t15.5 5z" />
    <glyph glyph-name="Tcedilla" unicode="&#x162;" horiz-adv-x="766" 
d="M298 -15q-42 0 -35 28l295 905h-294q-15 0 -18.5 9t3.5 31q8 23 17 31.5t24 8.5h673q15 0 18.5 -8.5t-4.5 -31.5q-7 -22 -16 -31t-24 -9h-292l-295 -905q-4 -14 -17 -21t-35 -7zM241 -269q-37 0 -66.5 7.5t-46.5 20.5q-8 8 -7 20.5t6 21.5q7 13 15.5 17.5t18.5 0.5
q13 -6 32 -12.5t50 -6.5q25 0 39 7.5t14 27.5q0 22 -19.5 27.5t-46.5 2.5q-11 -1 -15.5 2t-8.5 9q-4 7 -2.5 13.5t6.5 13.5l73 110h65l-76 -118l-29 16q44 14 75 8.5t47.5 -25.5t16.5 -49q0 -37 -19.5 -62.5t-51.5 -38.5t-70 -13z" />
    <glyph glyph-name="tcedilla" unicode="&#x163;" horiz-adv-x="388" 
d="M158 -15q-44 0 -67 20.5t-25 59t15 91.5l86 264h-77q-11 0 -15 10t1 30q6 20 16 30t21 10h80l65 198q6 20 15.5 26t29.5 6q31 0 39.5 -9.5t1.5 -29.5l-63 -191h126q11 0 15.5 -9.5t-1.5 -30.5q-5 -19 -15 -29.5t-21 -10.5h-130l-97 -294q-11 -34 -6 -50t24 -16
q24 0 50 18.5t51 50.5q8 9 17.5 11t24.5 -8q15 -9 17 -18.5t-3 -18.5q-11 -20 -35.5 -46t-59 -45t-80.5 -19zM89 -269q-37 0 -66.5 7.5t-46.5 20.5q-8 8 -7 20.5t6 21.5q7 13 15.5 17.5t18.5 0.5q13 -6 32 -12.5t50 -6.5q25 0 39 7.5t14 27.5q0 22 -19.5 27.5t-46.5 2.5
q-11 -1 -15.5 2t-8.5 9q-4 7 -2.5 13.5t6.5 13.5l73 110h69l-80 -118l-29 16q44 14 75 8.5t47.5 -25.5t16.5 -49q0 -37 -19.5 -62.5t-51.5 -38.5t-70 -13z" />
    <glyph glyph-name="Tcaron" unicode="&#x164;" horiz-adv-x="766" 
d="M298 -15q-42 0 -35 28l295 905h-294q-15 0 -18.5 9t3.5 31q8 23 17 31.5t24 8.5h673q15 0 18.5 -8.5t-4.5 -31.5q-7 -22 -16 -31t-24 -9h-292l-295 -905q-4 -14 -17 -21t-35 -7zM842 1266q12 0 21.5 -12t9.5 -23q0 -10 -3 -15t-8 -9l-163 -126q-15 -12 -28 -17.5
t-29 -5.5q-13 0 -23.5 7t-19.5 20l-92 130q-5 8 -6 13t-1 9q0 12 14.5 20.5t24.5 8.5t15 -4.5t12 -11.5l94 -90l153 91q7 4 14 9.5t15 5.5z" />
    <glyph glyph-name="tcaron" unicode="&#x165;" horiz-adv-x="388" 
d="M158 -15q-44 0 -67 20.5t-25 59t15 91.5l86 264h-77q-11 0 -15 10t1 30q6 20 16 30t21 10h80l65 198q6 20 15.5 26t29.5 6q31 0 39.5 -9.5t1.5 -29.5l-63 -191h126q11 0 15.5 -9.5t-1.5 -30.5q-5 -19 -15 -29.5t-21 -10.5h-130l-97 -294q-11 -34 -6 -50t24 -16
q24 0 50 18.5t51 50.5q8 9 17.5 11t24.5 -8q15 -9 17 -18.5t-3 -18.5q-11 -20 -35.5 -46t-59 -45t-80.5 -19zM547 796q17 0 23 -13t-3 -27l-107 -166q-7 -10 -16 -15t-20 -5q-10 0 -17 6t-8 14l-9 179q-1 12 5 19.5t21 7.5q14 0 22.5 -5.5t8.5 -19.5v-111l71 121
q5 8 12 11.5t17 3.5z" />
    <glyph glyph-name="Tbar" unicode="&#x166;" horiz-adv-x="766" 
d="M298 -15q-42 0 -35 28l295 905h-294q-15 0 -18.5 9t3.5 31q8 23 17 31.5t24 8.5h673q15 0 18.5 -8.5t-4.5 -31.5q-7 -22 -16 -31t-24 -9h-292l-295 -905q-4 -14 -17 -21t-35 -7zM263 462q-18 0 -20 11t1 24q3 14 10 26t26 12h394q19 0 21 -12t-1 -26q-3 -13 -10 -24
t-25 -11h-396z" />
    <glyph glyph-name="tbar" unicode="&#x167;" horiz-adv-x="388" 
d="M158 -15q-44 0 -67 20.5t-25 59t15 91.5l86 264h-77q-11 0 -15 10t1 30q6 20 16 30t21 10h80l65 198q6 20 15.5 26t29.5 6q31 0 39.5 -9.5t1.5 -29.5l-63 -191h126q11 0 15.5 -9.5t-1.5 -30.5q-5 -19 -15 -29.5t-21 -10.5h-130l-97 -294q-11 -34 -6 -50t24 -16
q24 0 50 18.5t51 50.5q8 9 17.5 11t24.5 -8q15 -9 17 -18.5t-3 -18.5q-11 -20 -35.5 -46t-59 -45t-80.5 -19zM47 257q-18 0 -19.5 11t0.5 24q3 14 10.5 26t26.5 12h293q19 0 21 -12t-1 -26q-2 -13 -9.5 -24t-25.5 -11h-296z" />
    <glyph glyph-name="Utilde" unicode="&#x168;" horiz-adv-x="958" 
d="M415 -19q-83 0 -143 23.5t-94 68.5t-39 111t22 152l208 652q5 14 16.5 20.5t35.5 6.5q23 0 34 -7t6 -23l-214 -661q-29 -89 -16 -146.5t62.5 -84.5t129.5 -27q88 0 154.5 29.5t112.5 87t72 141.5l206 664q5 14 16.5 20.5t34.5 6.5q48 0 39 -30l-209 -672
q-34 -109 -95.5 -183t-146.5 -111.5t-192 -37.5zM590 1088q-32 0 -30 28q5 65 29.5 95.5t70.5 30.5q30 0 56 -10.5t48 -25t41.5 -25t35.5 -10.5q10 0 19 10.5t13 35.5q4 26 41 26q16 0 22.5 -6.5t5.5 -19.5q-5 -66 -29 -97t-71 -31q-31 0 -57 10.5t-48 25t-40.5 25
t-36.5 10.5q-13 0 -21.5 -11.5t-11.5 -35.5q-1 -12 -11 -18.5t-26 -6.5z" />
    <glyph glyph-name="utilde" unicode="&#x169;" horiz-adv-x="646" 
d="M161 -15q-49 0 -76.5 23t-31 67.5t16.5 106.5l100 301q7 20 16.5 26t28.5 6q31 0 39.5 -9.5t1.5 -29.5l-104 -311q-10 -29 -11.5 -52t10.5 -36t41 -13q33 0 70 25t76.5 70.5t77 107.5t68.5 136l26 80q7 20 16.5 26t28.5 6q31 0 39.5 -9.5t1.5 -29.5l-121 -369
q-5 -16 -6 -26.5t3 -15.5t13 -5q11 0 21.5 7t21.5 18.5t22 26.5q8 11 19 12t25 -7q14 -10 16.5 -19.5t-3.5 -18.5q-11 -17 -30 -39t-46.5 -38.5t-62.5 -16.5q-37 0 -55 14t-23 36t-2 47t9 49l8 25q-28 -41 -58 -73t-61 -54t-62.5 -33t-62.5 -11zM278 640q-31 0 -30 28
q5 66 31 99.5t71 33.5q30 0 56 -11t48.5 -25.5t41.5 -25.5t36 -11q10 0 18.5 11.5t12.5 36.5q6 27 43 27q16 0 22.5 -6.5t4.5 -20.5q-4 -66 -28.5 -100.5t-72.5 -34.5q-31 0 -57 11t-47.5 25.5t-40.5 25.5t-37 11q-13 0 -21 -12.5t-12 -36.5q-2 -12 -12 -18.5t-27 -6.5z" />
    <glyph glyph-name="Umacron" unicode="&#x16a;" horiz-adv-x="958" 
d="M415 -19q-83 0 -143 23.5t-94 68.5t-39 111t22 152l208 652q5 14 16.5 20.5t35.5 6.5q23 0 34 -7t6 -23l-214 -661q-29 -89 -16 -146.5t62.5 -84.5t129.5 -27q88 0 154.5 29.5t112.5 87t72 141.5l206 664q5 14 16.5 20.5t34.5 6.5q48 0 39 -30l-209 -672
q-34 -109 -95.5 -183t-146.5 -111.5t-192 -37.5zM606 1120q-19 0 -23.5 11.5t0.5 29.5q5 22 14 33t27 11h268q20 0 24.5 -12.5t-0.5 -31.5q-5 -21 -14 -31t-27 -10h-269z" />
    <glyph glyph-name="umacron" unicode="&#x16b;" horiz-adv-x="646" 
d="M161 -15q-49 0 -76.5 23t-31 67.5t16.5 106.5l100 301q7 20 16.5 26t28.5 6q31 0 39.5 -9.5t1.5 -29.5l-104 -311q-10 -29 -11.5 -52t10.5 -36t41 -13q33 0 70 25t76.5 70.5t77 107.5t68.5 136l26 80q7 20 16.5 26t28.5 6q31 0 39.5 -9.5t1.5 -29.5l-121 -369
q-5 -16 -6 -26.5t3 -15.5t13 -5q11 0 21.5 7t21.5 18.5t22 26.5q8 11 19 12t25 -7q14 -10 16.5 -19.5t-3.5 -18.5q-11 -17 -30 -39t-46.5 -38.5t-62.5 -16.5q-37 0 -55 14t-23 36t-2 47t9 49l8 25q-28 -41 -58 -73t-61 -54t-62.5 -33t-62.5 -11zM306 686q-20 0 -24 12t0 30
q5 21 14 32t27 11h258q20 0 24 -12t-1 -31q-5 -21 -14 -31.5t-27 -10.5h-257z" />
    <glyph glyph-name="Ubreve" unicode="&#x16c;" horiz-adv-x="958" 
d="M415 -19q-83 0 -143 23.5t-94 68.5t-39 111t22 152l208 652q5 14 16.5 20.5t35.5 6.5q23 0 34 -7t6 -23l-214 -661q-29 -89 -16 -146.5t62.5 -84.5t129.5 -27q88 0 154.5 29.5t112.5 87t72 141.5l206 664q5 14 16.5 20.5t34.5 6.5q48 0 39 -30l-209 -672
q-34 -109 -95.5 -183t-146.5 -111.5t-192 -37.5zM728 1058q-73 0 -111 44.5t-28 136.5q2 15 11 21t24 6t24.5 -7.5t9.5 -19.5q-1 -51 23.5 -73t62.5 -22q46 0 79.5 26.5t51.5 65.5q8 18 17 24t23 6q17 0 26.5 -9t4.5 -24q-23 -69 -51.5 -107t-69 -53t-97.5 -15z" />
    <glyph glyph-name="ubreve" unicode="&#x16d;" horiz-adv-x="646" 
d="M161 -15q-49 0 -76.5 23t-31 67.5t16.5 106.5l100 301q7 20 16.5 26t28.5 6q31 0 39.5 -9.5t1.5 -29.5l-104 -311q-10 -29 -11.5 -52t10.5 -36t41 -13q33 0 70 25t76.5 70.5t77 107.5t68.5 136l26 80q7 20 16.5 26t28.5 6q31 0 39.5 -9.5t1.5 -29.5l-121 -369
q-5 -16 -6 -26.5t3 -15.5t13 -5q11 0 21.5 7t21.5 18.5t22 26.5q8 11 19 12t25 -7q14 -10 16.5 -19.5t-3.5 -18.5q-11 -17 -30 -39t-46.5 -38.5t-62.5 -16.5q-37 0 -55 14t-23 36t-2 47t9 49l8 25q-28 -41 -58 -73t-61 -54t-62.5 -33t-62.5 -11zM419 618q-76 0 -111 52.5
t-18 149.5q2 15 11.5 21.5t25.5 6.5t25.5 -8t8.5 -20q-4 -55 16 -84.5t57 -29.5q44 0 79 33.5t54 76.5q8 18 16.5 24t23.5 6q19 0 28.5 -9t4.5 -24q-24 -72 -54.5 -114.5t-71 -61.5t-95.5 -19z" />
    <glyph glyph-name="Uring" unicode="&#x16e;" horiz-adv-x="958" 
d="M415 -19q-83 0 -143 23.5t-94 68.5t-39 111t22 152l208 652q5 14 16.5 20.5t35.5 6.5q23 0 34 -7t6 -23l-214 -661q-29 -89 -16 -146.5t62.5 -84.5t129.5 -27q88 0 154.5 29.5t112.5 87t72 141.5l206 664q5 14 16.5 20.5t34.5 6.5q48 0 39 -30l-209 -672
q-34 -109 -95.5 -183t-146.5 -111.5t-192 -37.5zM735 1051q-40 0 -67.5 13t-41.5 37t-14 57q0 38 21 69t57 49t80 18q41 0 69 -13t42.5 -37t14.5 -58q0 -39 -21.5 -69.5t-57.5 -48t-82 -17.5zM740 1111q35 0 59 21t24 52q0 24 -14 37t-43 13q-33 0 -57 -21.5t-24 -51.5
q0 -24 14.5 -37t40.5 -13z" />
    <glyph glyph-name="uring" unicode="&#x16f;" horiz-adv-x="646" 
d="M161 -15q-49 0 -76.5 23t-31 67.5t16.5 106.5l100 301q7 20 16.5 26t28.5 6q31 0 39.5 -9.5t1.5 -29.5l-104 -311q-10 -29 -11.5 -52t10.5 -36t41 -13q33 0 70 25t76.5 70.5t77 107.5t68.5 136l26 80q7 20 16.5 26t28.5 6q31 0 39.5 -9.5t1.5 -29.5l-121 -369
q-5 -16 -6 -26.5t3 -15.5t13 -5q11 0 21.5 7t21.5 18.5t22 26.5q8 11 19 12t25 -7q14 -10 16.5 -19.5t-3.5 -18.5q-11 -17 -30 -39t-46.5 -38.5t-62.5 -16.5q-37 0 -55 14t-23 36t-2 47t9 49l8 25q-28 -41 -58 -73t-61 -54t-62.5 -33t-62.5 -11zM423 601q-55 0 -85 29.5
t-30 84.5q0 41 20.5 73.5t55.5 52t77 19.5q58 0 89 -28.5t31 -83.5q0 -41 -20.5 -74.5t-56.5 -53t-81 -19.5zM428 661q22 0 40 12t29 31.5t11 41.5q0 28 -12.5 41t-38.5 13q-20 0 -37.5 -12t-28 -31t-10.5 -41q0 -27 12 -41t35 -14z" />
    <glyph glyph-name="Uhungarumlaut" unicode="&#x170;" horiz-adv-x="958" 
d="M415 -19q-83 0 -143 23.5t-94 68.5t-39 111t22 152l208 652q5 14 16.5 20.5t35.5 6.5q23 0 34 -7t6 -23l-214 -661q-29 -89 -16 -146.5t62.5 -84.5t129.5 -27q88 0 154.5 29.5t112.5 87t72 141.5l206 664q5 14 16.5 20.5t34.5 6.5q48 0 39 -30l-209 -672
q-34 -109 -95.5 -183t-146.5 -111.5t-192 -37.5zM618 1058q-11 0 -24 13.5t-13 23.5q0 4 1 8t8 10l141 145q5 5 9 8t10 3q10 0 23 -9t22 -21t9 -22q0 -8 -2 -13t-13 -13l-151 -123q-6 -4 -11 -7t-9 -3zM814 1058q-11 0 -24.5 13.5t-13.5 23.5q0 4 1 8t8 10l140 145
q6 5 10.5 8t10.5 3q10 0 22.5 -9t22 -21t9.5 -22q0 -8 -2 -13t-13 -13l-153 -123q-5 -4 -9.5 -7t-8.5 -3z" />
    <glyph glyph-name="uhungarumlaut" unicode="&#x171;" horiz-adv-x="646" 
d="M161 -15q-49 0 -76.5 23t-31 67.5t16.5 106.5l100 301q7 20 16.5 26t28.5 6q31 0 39.5 -9.5t1.5 -29.5l-104 -311q-10 -29 -11.5 -52t10.5 -36t41 -13q33 0 70 25t76.5 70.5t77 107.5t68.5 136l26 80q7 20 16.5 26t28.5 6q31 0 39.5 -9.5t1.5 -29.5l-121 -369
q-5 -16 -6 -26.5t3 -15.5t13 -5q11 0 21.5 7t21.5 18.5t22 26.5q8 11 19 12t25 -7q14 -10 16.5 -19.5t-3.5 -18.5q-11 -17 -30 -39t-46.5 -38.5t-62.5 -16.5q-37 0 -55 14t-23 36t-2 47t9 49l8 25q-28 -41 -58 -73t-61 -54t-62.5 -33t-62.5 -11zM303 616q-9 0 -21.5 9.5
t-12.5 20.5q0 7 3 13t7 12l105 153q9 13 16 16.5t16 3.5q10 0 22 -7t21 -18t9 -23q0 -8 -3.5 -12.5t-8.5 -10.5l-124 -142q-7 -9 -15 -12t-14 -3zM476 616q-10 0 -22 9.5t-12 20.5q0 7 2 13t8 12l119 153q9 12 16 16t15 4q10 0 22 -7t21 -18t9 -23q0 -8 -3.5 -13t-8.5 -10
l-138 -142q-8 -8 -15.5 -11.5t-12.5 -3.5z" />
    <glyph glyph-name="Uogonek" unicode="&#x172;" horiz-adv-x="958" 
d="M415 -19q-83 0 -143 23.5t-94 68.5t-39 111t22 152l208 652q5 14 16.5 20.5t35.5 6.5q23 0 34 -7t6 -23l-214 -661q-29 -89 -16 -146.5t62.5 -84.5t129.5 -27q88 0 154.5 29.5t112.5 87t72 141.5l206 664q5 14 16.5 20.5t34.5 6.5q48 0 39 -30l-209 -672
q-34 -109 -95.5 -183t-146.5 -111.5t-192 -37.5zM407 -242q-30 0 -47 16t-17 44q0 26 14.5 52t40.5 52.5t62 53.5t79 58l62 -1v-6q-35 -27 -65.5 -52.5t-52.5 -48t-34.5 -41t-12.5 -32.5q0 -9 5 -14t14 -5q18 0 36 12.5t43 34.5q6 6 16.5 7.5t21.5 -9.5q7 -8 9.5 -17.5
t-4.5 -18.5q-17 -24 -46.5 -43.5t-61.5 -30.5t-62 -11z" />
    <glyph glyph-name="uogonek" unicode="&#x173;" horiz-adv-x="646" 
d="M161 -15q-49 0 -76.5 23t-31 67.5t16.5 106.5l100 301q7 20 16.5 26t28.5 6q31 0 39.5 -9.5t1.5 -29.5l-104 -311q-10 -29 -11.5 -52t10.5 -36t41 -13q33 0 70 25t76.5 70.5t77 107.5t68.5 136l26 80q7 20 16.5 26t28.5 6q31 0 39.5 -9.5t1.5 -29.5l-121 -369
q-5 -16 -6 -26.5t3 -15.5t13 -5q11 0 21.5 7t21.5 18.5t22 26.5q8 11 19 12t25 -7q14 -10 16.5 -19.5t-3.5 -18.5q-11 -17 -30 -39t-46.5 -38.5t-62.5 -16.5q-37 0 -55 14t-23 36t-2 47t9 49l8 25q-28 -41 -58 -73t-61 -54t-62.5 -33t-62.5 -11zM353 -244q-30 0 -47 16
t-17 44q0 26 14.5 52t40.5 52.5t62 53.5t79 58l62 -1v-6q-35 -27 -65.5 -52.5t-52.5 -48t-34.5 -41t-12.5 -32.5q0 -9 5 -14t14 -5q18 0 36 12.5t43 34.5q6 6 16.5 7.5t21.5 -9.5q7 -8 9.5 -17.5t-4.5 -18.5q-17 -24 -46.5 -43.5t-61.5 -30.5t-62 -11z" />
    <glyph glyph-name="Wcircumflex" unicode="&#x174;" horiz-adv-x="1323" 
d="M313 -14q-19 0 -30.5 10t-12.5 42l-14 932q-1 21 11 33t37 12q23 0 30 -8t7 -28l10 -843l486 839q16 27 28 33.5t38 6.5q23 0 30.5 -8t7.5 -28l9 -845l492 841q16 26 28 33t37 7q26 0 33.5 -15.5t-6.5 -36.5l-553 -937q-14 -22 -29 -31t-40 -9q-19 0 -30.5 10.5
t-12.5 41.5l-11 806l-477 -818q-13 -22 -28.5 -31t-39.5 -9zM770 1058q-12 0 -20 12t-8 23q0 10 3.5 15t7.5 9l162 126q15 13 28.5 18t29.5 5q13 0 23.5 -6.5t18.5 -19.5l93 -130q5 -7 5.5 -12.5t0.5 -10.5q0 -12 -13 -20.5t-22 -8.5q-10 0 -17 5t-15 12l-93 90l-153 -96
q-7 -4 -14.5 -7.5t-16.5 -3.5z" />
    <glyph glyph-name="wcircumflex" unicode="&#x175;" horiz-adv-x="803" 
d="M146 -15q-21 0 -29 8.5t-9 29.5l-12 453q0 14 8 26.5t36 12.5q22 0 31.5 -8.5t9.5 -31.5l3 -354l240 363q12 18 25 24.5t32 6.5q17 0 29.5 -10t13.5 -36l11 -346l231 365q11 17 22.5 22t25.5 5q28 0 38 -14t-2 -33l-297 -457q-7 -11 -22 -18.5t-37 -7.5t-30.5 8.5
t-8.5 29.5l-11 355l-243 -367q-7 -10 -20 -18t-35 -8zM382 610q-13 0 -22.5 11t-9.5 23q0 9 4 15t8 10l158 149q14 13 28 17.5t30 4.5q13 0 24.5 -6.5t17.5 -19.5l82 -153q4 -7 5 -12t1 -10q0 -12 -14.5 -20.5t-24.5 -8.5t-15.5 5t-10.5 11l-86 113l-147 -114
q-6 -4 -13 -9.5t-15 -5.5z" />
    <glyph glyph-name="Ycircumflex" unicode="&#x176;" horiz-adv-x="690" 
d="M250 -14q-44 0 -35 28l138 425l-112 531q-4 20 6.5 32.5t36.5 12.5q23 0 31 -9t12 -27l92 -447l407 450q14 17 27 25t37 8q26 0 35.5 -15.5t-8.5 -36.5l-475 -527l-137 -422q-9 -28 -55 -28zM438 1058q-12 0 -20 12t-8 23q0 10 3.5 15t7.5 9l162 126q15 13 28.5 18
t29.5 5q13 0 23.5 -6.5t18.5 -19.5l93 -130q5 -7 5.5 -12.5t0.5 -10.5q0 -12 -13 -20.5t-22 -8.5q-10 0 -17 5t-15 12l-93 90l-153 -96q-7 -4 -14.5 -7.5t-16.5 -3.5z" />
    <glyph glyph-name="ycircumflex" unicode="&#x177;" horiz-adv-x="615" 
d="M161 -15q-49 0 -76.5 23t-31 67.5t16.5 106.5l100 301q7 20 16.5 26t28.5 6q31 0 39.5 -9.5t1.5 -29.5l-104 -311q-10 -29 -11.5 -52t10.5 -36t41 -13q32 0 69.5 25t76.5 70.5t76.5 107t69.5 135.5l26 81q7 20 16.5 26t28.5 6q31 0 39.5 -9.5t1.5 -29.5l-245 -751
q-30 -91 -63 -144.5t-79 -76.5t-115 -23q-37 0 -69.5 9.5t-58 26t-44.5 35.5q-14 15 -18 28.5t17 29.5q18 14 29 14.5t25 -14.5q23 -25 54.5 -38t69.5 -13q44 0 73.5 16.5t51.5 53.5t42 99l139 431q-28 -42 -58 -74.5t-61 -54.5t-62.5 -33.5t-62.5 -11.5zM278 610
q-13 0 -22.5 11t-9.5 23q0 9 4 15t8 10l158 149q14 13 28 17.5t30 4.5q13 0 24.5 -6.5t17.5 -19.5l82 -153q4 -7 5 -12t1 -10q0 -12 -14.5 -20.5t-24.5 -8.5t-15.5 5t-10.5 11l-86 113l-147 -114q-6 -4 -13 -9.5t-15 -5.5z" />
    <glyph glyph-name="Ydieresis" unicode="&#x178;" horiz-adv-x="690" 
d="M250 -14q-44 0 -35 28l138 425l-112 531q-4 20 6.5 32.5t36.5 12.5q23 0 31 -9t12 -27l92 -447l407 450q14 17 27 25t37 8q26 0 35.5 -15.5t-8.5 -36.5l-475 -527l-137 -422q-9 -28 -55 -28zM472 1092q-21 0 -35 13t-14 39q0 27 18.5 50.5t54.5 23.5q20 0 34 -12.5
t14 -38.5q0 -27 -17 -51t-55 -24zM718 1092q-20 0 -34.5 13t-14.5 39q0 27 18.5 50.5t54.5 23.5q20 0 34.5 -12.5t14.5 -38.5q0 -27 -17.5 -51t-55.5 -24z" />
    <glyph glyph-name="Zacute" unicode="&#x179;" horiz-adv-x="680" 
d="M-34 0q-12 0 -18 9.5t-4.5 23.5t11.5 25l777 860h-444q-11 0 -15.5 9.5t1.5 30.5q5 20 15 30t21 10h548q17 0 22 -20t-11 -38l-778 -860h493q11 0 15 -9.5t-2 -30.5q-5 -19 -15 -29.5t-21 -10.5h-595zM519 1058q-11 0 -24.5 13.5t-13.5 23.5q0 4 1.5 8t7.5 10l158 145
q5 5 9.5 8t10.5 3q10 0 22.5 -9t21.5 -21t9 -23q0 -7 -2 -12t-13 -13l-168 -123l-10.5 -7t-8.5 -3z" />
    <glyph glyph-name="zacute" unicode="&#x17a;" horiz-adv-x="495" 
d="M11 0q-21 0 -25.5 19.5t12.5 35.5l355 365h-219q-11 0 -15 10t1 30q6 20 15.5 30t20.5 10h314q17 0 24.5 -10t6.5 -23t-10 -22l-353 -365h241q11 0 15 -9.5t-1 -30.5q-6 -19 -16 -29.5t-21 -10.5h-345zM340 616q-9 0 -21.5 9.5t-12.5 20.5q0 7 2.5 13t7.5 12l123 153
q9 12 16 16t15 4q10 0 22.5 -7t21.5 -18t9 -23q0 -8 -3.5 -13t-9.5 -10l-141 -142q-15 -15 -29 -15z" />
    <glyph glyph-name="Zdotaccent" unicode="&#x17b;" horiz-adv-x="680" 
d="M-34 0q-12 0 -18 9.5t-4.5 23.5t11.5 25l777 860h-444q-11 0 -15.5 9.5t1.5 30.5q5 20 15 30t21 10h548q17 0 22 -20t-11 -38l-778 -860h493q11 0 15 -9.5t-2 -30.5q-5 -19 -15 -29.5t-21 -10.5h-595zM579 1092q-21 0 -35 13t-14 39q0 27 18 50.5t55 23.5q20 0 34 -12.5
t14 -38.5q0 -27 -17 -51t-55 -24z" />
    <glyph glyph-name="zdotaccent" unicode="&#x17c;" horiz-adv-x="495" 
d="M11 0q-21 0 -25.5 19.5t12.5 35.5l355 365h-219q-11 0 -15 10t1 30q6 20 15.5 30t20.5 10h314q17 0 24.5 -10t6.5 -23t-10 -22l-353 -365h241q11 0 15 -9.5t-1 -30.5q-6 -19 -16 -29.5t-21 -10.5h-345zM395 669q-20 0 -34.5 13t-14.5 38q0 27 18.5 51t54.5 24
q20 0 34.5 -12.5t14.5 -38.5q0 -27 -17.5 -51t-55.5 -24z" />
    <glyph glyph-name="Zcaron" unicode="&#x17d;" horiz-adv-x="680" 
d="M-34 0q-12 0 -18 9.5t-4.5 23.5t11.5 25l777 860h-444q-11 0 -15.5 9.5t1.5 30.5q5 20 15 30t21 10h548q17 0 22 -20t-11 -38l-778 -860h493q11 0 15 -9.5t-2 -30.5q-5 -19 -15 -29.5t-21 -10.5h-595zM760 1266q12 0 21.5 -12t9.5 -23q0 -10 -3 -15t-8 -9l-163 -126
q-15 -12 -28 -17.5t-29 -5.5q-13 0 -23.5 7t-19.5 20l-92 130q-5 8 -6 13t-1 9q0 12 14.5 20.5t24.5 8.5t15 -4.5t12 -11.5l94 -90l153 91q7 4 14 9.5t15 5.5z" />
    <glyph glyph-name="zcaron" unicode="&#x17e;" horiz-adv-x="495" 
d="M11 0q-21 0 -25.5 19.5t12.5 35.5l355 365h-219q-11 0 -15 10t1 30q6 20 15.5 30t20.5 10h314q17 0 24.5 -10t6.5 -23t-10 -22l-353 -365h241q11 0 15 -9.5t-1 -30.5q-6 -19 -16 -29.5t-21 -10.5h-345zM568 848q12 0 21.5 -11t9.5 -23q0 -10 -3.5 -15.5t-7.5 -9.5
l-159 -149q-14 -13 -27.5 -17.5t-30.5 -4.5q-13 0 -24 6.5t-18 19.5l-81 152q-4 8 -5.5 13.5t-1.5 9.5q0 12 15 20.5t24 8.5q11 0 16.5 -5t9.5 -12l87 -112l146 114q7 5 13.5 10t15.5 5z" />
    <glyph glyph-name="Ohorn" unicode="&#x1a0;" horiz-adv-x="1027" 
d="M485 -19q-75 0 -136 25.5t-104.5 74t-67 117t-23.5 153.5q0 73 16.5 149.5t48.5 151t78.5 140t108 116t136.5 79t163 28.5q39 0 73 -7.5t63 -22.5q57 2 92 13.5t53.5 34.5t22.5 59t0 88q-2 14 9 22t26.5 9.5t28 -3.5t14.5 -19q7 -48 4 -89t-20.5 -74t-53.5 -56t-96 -33
q53 -47 82.5 -121t29.5 -168q0 -78 -17 -157.5t-50 -154t-80 -139t-108 -113t-134.5 -76t-158.5 -27.5zM500 66q68 0 127 24t108.5 66.5t87.5 98.5t64 120t39.5 130t13.5 130q0 72 -16 127t-48 92.5t-78.5 56.5t-107.5 19q-67 0 -126.5 -24t-108.5 -67t-87.5 -99
t-65.5 -119.5t-40.5 -129t-13.5 -128.5q0 -71 16 -126.5t47.5 -93t78.5 -57.5t110 -20z" />
    <glyph glyph-name="ohorn" unicode="&#x1a1;" horiz-adv-x="589" 
d="M241 -19q-62 0 -105 25t-64.5 69.5t-21.5 100.5q0 53 19 112.5t56.5 112t94 85.5t131.5 33q23 0 44 -3.5t39 -9.5q61 3 93 19t42 52t3 96q-2 17 8.5 27t25.5 11.5t28 -6t16 -24.5q8 -59 -2 -105.5t-44 -76.5t-102 -43q20 -24 29.5 -55.5t9.5 -69.5q0 -40 -11.5 -87.5
t-35 -94t-59.5 -84.5t-84.5 -61t-109.5 -23zM251 61q49 0 86 26t62 66.5t38 85t13 82.5q0 39 -13 65t-37 39.5t-57 13.5q-50 0 -88 -25.5t-63.5 -65.5t-38.5 -84t-13 -81q0 -39 13.5 -66.5t38.5 -41.5t59 -14z" />
    <glyph glyph-name="Uhorn" unicode="&#x1af;" horiz-adv-x="958" 
d="M1245 1186q7 -50 0.5 -92t-31.5 -73t-74.5 -48.5t-128.5 -18.5l20 58q62 3 93 19.5t39.5 52t3.5 93.5q-1 14 9.5 22t26 10t28 -3.5t14.5 -19.5zM415 -19q-83 0 -143 23.5t-94 68.5t-39 111t22 152l208 652q5 14 16.5 20.5t35.5 6.5q23 0 34 -7t6 -23l-214 -661
q-29 -89 -16 -146.5t62.5 -84.5t129.5 -27q88 0 154.5 29.5t112.5 87t72 141.5l206 664q5 14 16.5 20.5t34.5 6.5q48 0 39 -30l-209 -672q-34 -109 -95.5 -183t-146.5 -111.5t-192 -37.5z" />
    <glyph glyph-name="uhorn" unicode="&#x1b0;" horiz-adv-x="646" 
d="M161 -15q-49 0 -76.5 23t-31 67.5t16.5 106.5l100 301q7 20 16.5 26t28.5 6q31 0 39.5 -9.5t1.5 -29.5l-104 -311q-10 -29 -11.5 -52t10.5 -36t41 -13q33 0 70 25t76.5 70.5t77 107.5t68.5 136l26 80q7 20 16.5 26t28.5 6q59 2 89.5 18t40 50.5t3.5 92.5q-2 17 9 27
t26.5 11.5t28.5 -6t15 -23.5q9 -61 -3 -108.5t-53 -78t-120 -38.5l-116 -353q-5 -16 -6 -26.5t3 -15.5t13 -5q11 0 21.5 7t21.5 18.5t22 26.5q8 11 19 12t25 -7q14 -10 16.5 -19.5t-3.5 -18.5q-11 -17 -30 -39t-46.5 -38.5t-62.5 -16.5q-37 0 -55 14t-23 36t-2 47t9 49l8 25
q-28 -41 -58 -73t-61 -54t-62.5 -33t-62.5 -11z" />
    <glyph glyph-name="Acaron" unicode="&#x1cd;" horiz-adv-x="833" 
d="M-15 -14q-26 0 -34 15.5t7 37.5l620 936q14 23 29 31.5t39 8.5q19 0 30.5 -9.5t12.5 -41.5l44 -933q2 -20 -9.5 -32.5t-37.5 -12.5q-22 0 -29 8.5t-9 28.5l-12 262h-416l-170 -259q-18 -26 -28.5 -33t-36.5 -7zM275 365h358l-24 509zM837 1266q12 0 21.5 -12t9.5 -23
q0 -10 -3 -15t-8 -9l-163 -126q-15 -12 -28 -17.5t-29 -5.5q-13 0 -23.5 7t-19.5 20l-92 130q-5 8 -6 13t-1 9q0 12 14.5 20.5t24.5 8.5t15 -4.5t12 -11.5l94 -90l153 91q7 4 14 9.5t15 5.5z" />
    <glyph glyph-name="acaron" unicode="&#x1ce;" horiz-adv-x="623" 
d="M159 -17q-37 0 -64.5 18.5t-42.5 53t-15 80.5t13.5 98t41 102.5t67 92t91.5 66.5t117 25q30 0 62 -8.5t61 -23.5l1 4q6 16 15.5 20t27.5 4q31 0 39.5 -9.5t1.5 -29.5l-123 -369q-5 -16 -6 -26.5t3 -15.5t13 -5q11 0 22 7t22.5 19t23.5 27q8 10 16.5 12t21.5 -7
q16 -10 18.5 -20t-2.5 -21q-9 -15 -28.5 -37.5t-47.5 -38.5t-63 -16t-53 14t-23.5 35.5t-2.5 46.5t9 48q1 2 1.5 4.5t1.5 5.5q-40 -54 -78.5 -89t-74 -51t-66.5 -16zM128 150q0 -27 7 -46.5t20.5 -30t31.5 -10.5q34 0 76 32.5t87 95t92 151.5l25 76q-31 13 -58 17.5t-51 4.5
q-45 0 -82 -19.5t-64.5 -52t-46 -71.5t-28 -77.5t-9.5 -69.5zM607 848q12 0 21.5 -11t9.5 -23q0 -10 -3.5 -15.5t-7.5 -9.5l-159 -149q-14 -13 -27.5 -17.5t-30.5 -4.5q-13 0 -24 6.5t-18 19.5l-81 152q-4 8 -5.5 13.5t-1.5 9.5q0 12 15 20.5t24 8.5q11 0 16.5 -5t9.5 -12
l87 -112l146 114q7 5 13.5 10t15.5 5z" />
    <glyph glyph-name="Icaron" unicode="&#x1cf;" horiz-adv-x="375" 
d="M107 -14q-23 0 -33.5 7t-6.5 23l313 972q5 14 17.5 20.5t34.5 6.5q23 0 33 -7t5 -23l-313 -971q-4 -14 -16 -21t-34 -7zM643 1266q12 0 21.5 -12t9.5 -23q0 -10 -3 -15t-8 -9l-163 -126q-15 -12 -28 -17.5t-29 -5.5q-13 0 -23.5 7t-19.5 20l-92 130q-5 8 -6 13t-1 9
q0 12 14.5 20.5t24.5 8.5t15 -4.5t12 -11.5l94 -90l153 91q7 4 14 9.5t15 5.5z" />
    <glyph glyph-name="icaron" unicode="&#x1d0;" horiz-adv-x="304" 
d="M127 -15q-39 0 -58 16t-22.5 41.5t1.5 54.5t13 56l108 330q7 20 17 26t33 6t33.5 -9t5.5 -23l-123 -376q-7 -16 -7.5 -26.5t4 -15.5t12.5 -5q11 0 22 6.5t22 18.5t22 27q8 11 19.5 12t24.5 -7q14 -10 16 -19.5t-4 -18.5q-9 -17 -28.5 -39t-47.5 -38.5t-63 -16.5zM451 848
q12 0 21.5 -11t9.5 -23q0 -10 -3.5 -15.5t-7.5 -9.5l-159 -149q-14 -13 -27.5 -17.5t-30.5 -4.5q-13 0 -24 6.5t-18 19.5l-81 152q-4 8 -5.5 13.5t-1.5 9.5q0 12 15 20.5t24 8.5q11 0 16.5 -5t9.5 -12l87 -112l146 114q7 5 13.5 10t15.5 5z" />
    <glyph glyph-name="Ocaron" unicode="&#x1d1;" horiz-adv-x="1027" 
d="M485 -19q-75 0 -136 25.5t-104.5 74t-67 117t-23.5 153.5q0 73 16.5 149.5t48.5 151t78.5 140t108 116t136.5 79t163 28.5q75 0 135.5 -25.5t103 -73.5t66 -116t23.5 -152q0 -78 -17 -157.5t-50 -154t-80 -139t-108 -113t-134.5 -76t-158.5 -27.5zM500 66q68 0 127 24
t108.5 66.5t87.5 98.5t64 120t39.5 130t13.5 130q0 72 -16 127t-48 92.5t-78.5 56.5t-107.5 19q-67 0 -126.5 -24t-108.5 -67t-87.5 -99t-65.5 -119.5t-40.5 -129t-13.5 -128.5q0 -71 16 -126.5t47.5 -93t78.5 -57.5t110 -20zM950 1266q12 0 21.5 -12t9.5 -23q0 -10 -3 -15
t-8 -9l-163 -126q-15 -12 -28 -17.5t-29 -5.5q-13 0 -23.5 7t-19.5 20l-92 130q-5 8 -6 13t-1 9q0 12 14.5 20.5t24.5 8.5t15 -4.5t12 -11.5l94 -90l153 91q7 4 14 9.5t15 5.5z" />
    <glyph glyph-name="ocaron" unicode="&#x1d2;" horiz-adv-x="589" 
d="M241 -19q-62 0 -105 25t-64.5 69.5t-21.5 100.5q0 53 19 112.5t56.5 112t94 85.5t131.5 33q62 0 104.5 -23.5t64 -66t21.5 -98.5q0 -40 -11.5 -87.5t-35 -94t-59.5 -84.5t-84.5 -61t-109.5 -23zM251 61q49 0 86 26t62 66.5t38 85t13 82.5q0 39 -13 65t-37 39.5t-57 13.5
q-50 0 -88 -25.5t-63.5 -65.5t-38.5 -84t-13 -81q0 -39 13.5 -66.5t38.5 -41.5t59 -14zM590 848q12 0 21.5 -11t9.5 -23q0 -10 -3.5 -15.5t-7.5 -9.5l-159 -149q-14 -13 -27.5 -17.5t-30.5 -4.5q-13 0 -24 6.5t-18 19.5l-81 152q-4 8 -5.5 13.5t-1.5 9.5q0 12 15 20.5
t24 8.5q11 0 16.5 -5t9.5 -12l87 -112l146 114q7 5 13.5 10t15.5 5z" />
    <glyph glyph-name="Ucaron" unicode="&#x1d3;" horiz-adv-x="958" 
d="M415 -19q-83 0 -143 23.5t-94 68.5t-39 111t22 152l208 652q5 14 16.5 20.5t35.5 6.5q23 0 34 -7t6 -23l-214 -661q-29 -89 -16 -146.5t62.5 -84.5t129.5 -27q88 0 154.5 29.5t112.5 87t72 141.5l206 664q5 14 16.5 20.5t34.5 6.5q48 0 39 -30l-209 -672
q-34 -109 -95.5 -183t-146.5 -111.5t-192 -37.5zM917 1266q12 0 21.5 -12t9.5 -23q0 -10 -3 -15t-8 -9l-163 -126q-15 -12 -28 -17.5t-29 -5.5q-13 0 -23.5 7t-19.5 20l-92 130q-5 8 -6 13t-1 9q0 12 14.5 20.5t24.5 8.5t15 -4.5t12 -11.5l94 -90l153 91q7 4 14 9.5t15 5.5z
" />
    <glyph glyph-name="ucaron" unicode="&#x1d4;" horiz-adv-x="646" 
d="M161 -15q-49 0 -76.5 23t-31 67.5t16.5 106.5l100 301q7 20 16.5 26t28.5 6q31 0 39.5 -9.5t1.5 -29.5l-104 -311q-10 -29 -11.5 -52t10.5 -36t41 -13q33 0 70 25t76.5 70.5t77 107.5t68.5 136l26 80q7 20 16.5 26t28.5 6q31 0 39.5 -9.5t1.5 -29.5l-121 -369
q-5 -16 -6 -26.5t3 -15.5t13 -5q11 0 21.5 7t21.5 18.5t22 26.5q8 11 19 12t25 -7q14 -10 16.5 -19.5t-3.5 -18.5q-11 -17 -30 -39t-46.5 -38.5t-62.5 -16.5q-37 0 -55 14t-23 36t-2 47t9 49l8 25q-28 -41 -58 -73t-61 -54t-62.5 -33t-62.5 -11zM606 848q12 0 21.5 -11
t9.5 -23q0 -10 -3.5 -15.5t-7.5 -9.5l-159 -149q-14 -13 -27.5 -17.5t-30.5 -4.5q-13 0 -24 6.5t-18 19.5l-81 152q-4 8 -5.5 13.5t-1.5 9.5q0 12 15 20.5t24 8.5q11 0 16.5 -5t9.5 -12l87 -112l146 114q7 5 13.5 10t15.5 5z" />
    <glyph glyph-name="Udieresismacron" unicode="&#x1d5;" horiz-adv-x="958" 
d="M415 -19q-83 0 -143 23.5t-94 68.5t-39 111t22 152l208 652q5 14 16.5 20.5t35.5 6.5q23 0 34 -7t6 -23l-214 -661q-29 -89 -16 -146.5t62.5 -84.5t129.5 -27q88 0 154.5 29.5t112.5 87t72 141.5l206 664q5 14 16.5 20.5t34.5 6.5q48 0 39 -30l-209 -672
q-34 -109 -95.5 -183t-146.5 -111.5t-192 -37.5zM612 1092q-21 0 -35 13t-14 39q0 27 18.5 50.5t54.5 23.5q20 0 34 -12.5t14 -38.5q0 -27 -17 -51t-55 -24zM858 1092q-20 0 -34.5 13t-14.5 39q0 27 18.5 50.5t54.5 23.5q20 0 34.5 -12.5t14.5 -38.5q0 -27 -17.5 -51
t-55.5 -24zM658 1308q-19 0 -23.5 11.5t0.5 29.5q5 22 14 33t27 11h268q20 0 24.5 -12.5t-0.5 -31.5q-5 -21 -14 -31t-27 -10h-269z" />
    <glyph glyph-name="udieresismacron" unicode="&#x1d6;" horiz-adv-x="646" 
d="M161 -15q-49 0 -76.5 23t-31 67.5t16.5 106.5l100 301q7 20 16.5 26t28.5 6q31 0 39.5 -9.5t1.5 -29.5l-104 -311q-10 -29 -11.5 -52t10.5 -36t41 -13q33 0 70 25t76.5 70.5t77 107.5t68.5 136l26 80q7 20 16.5 26t28.5 6q31 0 39.5 -9.5t1.5 -29.5l-121 -369
q-5 -16 -6 -26.5t3 -15.5t13 -5q11 0 21.5 7t21.5 18.5t22 26.5q8 11 19 12t25 -7q14 -10 16.5 -19.5t-3.5 -18.5q-11 -17 -30 -39t-46.5 -38.5t-62.5 -16.5q-37 0 -55 14t-23 36t-2 47t9 49l8 25q-28 -41 -58 -73t-61 -54t-62.5 -33t-62.5 -11zM313 669q-20 0 -34 13
t-14 38q0 27 17.5 51t54.5 24q21 0 35 -12.5t14 -38.5q0 -27 -17.5 -51t-55.5 -24zM552 669q-21 0 -35 13t-14 38q0 27 17.5 51t54.5 24q21 0 35 -12.5t14 -38.5q0 -27 -17 -51t-55 -24zM364 892q-20 0 -24 12t0 30q5 21 14 32t27 11h258q20 0 24 -12t-1 -31
q-5 -21 -14 -31.5t-27 -10.5h-257z" />
    <glyph glyph-name="Udieresisacute" unicode="&#x1d7;" horiz-adv-x="958" 
d="M415 -19q-83 0 -143 23.5t-94 68.5t-39 111t22 152l208 652q5 14 16.5 20.5t35.5 6.5q23 0 34 -7t6 -23l-214 -661q-29 -89 -16 -146.5t62.5 -84.5t129.5 -27q88 0 154.5 29.5t112.5 87t72 141.5l206 664q5 14 16.5 20.5t34.5 6.5q48 0 39 -30l-209 -672
q-34 -109 -95.5 -183t-146.5 -111.5t-192 -37.5zM612 1092q-21 0 -35 13t-14 39q0 27 18.5 50.5t54.5 23.5q20 0 34 -12.5t14 -38.5q0 -27 -17 -51t-55 -24zM858 1092q-20 0 -34.5 13t-14.5 39q0 27 18.5 50.5t54.5 23.5q20 0 34.5 -12.5t14.5 -38.5q0 -27 -17.5 -51
t-55.5 -24zM728 1246q-11 0 -24.5 13.5t-13.5 23.5q0 4 1.5 8t7.5 10l158 145q5 5 9.5 8t10.5 3q10 0 22.5 -9t21.5 -21t9 -23q0 -7 -2 -12t-13 -13l-168 -123l-10.5 -7t-8.5 -3z" />
    <glyph glyph-name="udieresisacute" unicode="&#x1d8;" horiz-adv-x="646" 
d="M161 -15q-49 0 -76.5 23t-31 67.5t16.5 106.5l100 301q7 20 16.5 26t28.5 6q31 0 39.5 -9.5t1.5 -29.5l-104 -311q-10 -29 -11.5 -52t10.5 -36t41 -13q33 0 70 25t76.5 70.5t77 107.5t68.5 136l26 80q7 20 16.5 26t28.5 6q31 0 39.5 -9.5t1.5 -29.5l-121 -369
q-5 -16 -6 -26.5t3 -15.5t13 -5q11 0 21.5 7t21.5 18.5t22 26.5q8 11 19 12t25 -7q14 -10 16.5 -19.5t-3.5 -18.5q-11 -17 -30 -39t-46.5 -38.5t-62.5 -16.5q-37 0 -55 14t-23 36t-2 47t9 49l8 25q-28 -41 -58 -73t-61 -54t-62.5 -33t-62.5 -11zM313 669q-20 0 -34 13
t-14 38q0 27 17.5 51t54.5 24q21 0 35 -12.5t14 -38.5q0 -27 -17.5 -51t-55.5 -24zM552 669q-21 0 -35 13t-14 38q0 27 17.5 51t54.5 24q21 0 35 -12.5t14 -38.5q0 -27 -17 -51t-55 -24zM436 822q-9 0 -21.5 9.5t-12.5 20.5q0 7 2.5 13t7.5 12l123 153q9 12 16 16t15 4
q10 0 22.5 -7t21.5 -18t9 -23q0 -8 -3.5 -13t-9.5 -10l-141 -142q-15 -15 -29 -15z" />
    <glyph glyph-name="Udieresiscaron" unicode="&#x1d9;" horiz-adv-x="958" 
d="M415 -19q-83 0 -143 23.5t-94 68.5t-39 111t22 152l208 652q5 14 16.5 20.5t35.5 6.5q23 0 34 -7t6 -23l-214 -661q-29 -89 -16 -146.5t62.5 -84.5t129.5 -27q88 0 154.5 29.5t112.5 87t72 141.5l206 664q5 14 16.5 20.5t34.5 6.5q48 0 39 -30l-209 -672
q-34 -109 -95.5 -183t-146.5 -111.5t-192 -37.5zM612 1092q-21 0 -35 13t-14 39q0 27 18.5 50.5t54.5 23.5q20 0 34 -12.5t14 -38.5q0 -27 -17 -51t-55 -24zM858 1092q-20 0 -34.5 13t-14.5 39q0 27 18.5 50.5t54.5 23.5q20 0 34.5 -12.5t14.5 -38.5q0 -27 -17.5 -51
t-55.5 -24zM969 1454q12 0 21.5 -12t9.5 -23q0 -10 -3 -15t-8 -9l-163 -126q-15 -12 -28 -17.5t-29 -5.5q-13 0 -23.5 7t-19.5 20l-92 130q-5 8 -6 13t-1 9q0 12 14.5 20.5t24.5 8.5t15 -4.5t12 -11.5l94 -90l153 91q7 4 14 9.5t15 5.5z" />
    <glyph glyph-name="udieresiscaron" unicode="&#x1da;" horiz-adv-x="646" 
d="M161 -15q-49 0 -76.5 23t-31 67.5t16.5 106.5l100 301q7 20 16.5 26t28.5 6q31 0 39.5 -9.5t1.5 -29.5l-104 -311q-10 -29 -11.5 -52t10.5 -36t41 -13q33 0 70 25t76.5 70.5t77 107.5t68.5 136l26 80q7 20 16.5 26t28.5 6q31 0 39.5 -9.5t1.5 -29.5l-121 -369
q-5 -16 -6 -26.5t3 -15.5t13 -5q11 0 21.5 7t21.5 18.5t22 26.5q8 11 19 12t25 -7q14 -10 16.5 -19.5t-3.5 -18.5q-11 -17 -30 -39t-46.5 -38.5t-62.5 -16.5q-37 0 -55 14t-23 36t-2 47t9 49l8 25q-28 -41 -58 -73t-61 -54t-62.5 -33t-62.5 -11zM313 669q-20 0 -34 13
t-14 38q0 27 17.5 51t54.5 24q21 0 35 -12.5t14 -38.5q0 -27 -17.5 -51t-55.5 -24zM552 669q-21 0 -35 13t-14 38q0 27 17.5 51t54.5 24q21 0 35 -12.5t14 -38.5q0 -27 -17 -51t-55 -24zM664 1054q12 0 21.5 -11t9.5 -23q0 -10 -3.5 -15.5t-7.5 -9.5l-159 -149
q-14 -13 -27.5 -17.5t-30.5 -4.5q-13 0 -24 6.5t-18 19.5l-81 152q-4 8 -5.5 13.5t-1.5 9.5q0 12 15 20.5t24 8.5q11 0 16.5 -5t9.5 -12l87 -112l146 114q7 5 13.5 10t15.5 5z" />
    <glyph glyph-name="Udieresisgrave" unicode="&#x1db;" horiz-adv-x="958" 
d="M415 -19q-83 0 -143 23.5t-94 68.5t-39 111t22 152l208 652q5 14 16.5 20.5t35.5 6.5q23 0 34 -7t6 -23l-214 -661q-29 -89 -16 -146.5t62.5 -84.5t129.5 -27q88 0 154.5 29.5t112.5 87t72 141.5l206 664q5 14 16.5 20.5t34.5 6.5q48 0 39 -30l-209 -672
q-34 -109 -95.5 -183t-146.5 -111.5t-192 -37.5zM612 1092q-21 0 -35 13t-14 39q0 27 18.5 50.5t54.5 23.5q20 0 34 -12.5t14 -38.5q0 -27 -17 -51t-55 -24zM858 1092q-20 0 -34.5 13t-14.5 39q0 27 18.5 50.5t54.5 23.5q20 0 34.5 -12.5t14.5 -38.5q0 -27 -17.5 -51
t-55.5 -24zM830 1246q-4 0 -9 3t-10 7l-143 124q-10 8 -12.5 13t-2.5 12q0 11 9.5 23t22.5 20.5t22 8.5q7 0 11.5 -3t9.5 -8l132 -146q6 -7 7 -10.5t1 -6.5q0 -10 -13.5 -23.5t-24.5 -13.5z" />
    <glyph glyph-name="udieresisgrave" unicode="&#x1dc;" horiz-adv-x="646" 
d="M161 -15q-49 0 -76.5 23t-31 67.5t16.5 106.5l100 301q7 20 16.5 26t28.5 6q31 0 39.5 -9.5t1.5 -29.5l-104 -311q-10 -29 -11.5 -52t10.5 -36t41 -13q33 0 70 25t76.5 70.5t77 107.5t68.5 136l26 80q7 20 16.5 26t28.5 6q31 0 39.5 -9.5t1.5 -29.5l-121 -369
q-5 -16 -6 -26.5t3 -15.5t13 -5q11 0 21.5 7t21.5 18.5t22 26.5q8 11 19 12t25 -7q14 -10 16.5 -19.5t-3.5 -18.5q-11 -17 -30 -39t-46.5 -38.5t-62.5 -16.5q-37 0 -55 14t-23 36t-2 47t9 49l8 25q-28 -41 -58 -73t-61 -54t-62.5 -33t-62.5 -11zM313 669q-20 0 -34 13
t-14 38q0 27 17.5 51t54.5 24q21 0 35 -12.5t14 -38.5q0 -27 -17.5 -51t-55.5 -24zM552 669q-21 0 -35 13t-14 38q0 27 17.5 51t54.5 24q21 0 35 -12.5t14 -38.5q0 -27 -17 -51t-55 -24zM496 829q-7 0 -14.5 5t-15.5 18l-81 145l-5.5 11t-2.5 11q0 11 9 20.5t22.5 15.5
t26.5 6q23 0 35 -32l57 -153q2 -4 3 -8.5t1 -8.5q0 -15 -11.5 -22.5t-23.5 -7.5z" />
    <glyph glyph-name="AEacute" unicode="&#x1fc;" horiz-adv-x="1070" 
d="M920 0h-413q-25 0 -35.5 9t-3.5 31l135 419h-211l-356 -457q-10 -13 -25 -16t-35 2q-19 6 -25 18.5t5 26.5l729 933q12 17 24.5 24.5t30.5 7.5h499q11 0 15 -10t-1 -30q-6 -20 -16 -30t-21 -10h-376l-122 -379h303q11 0 15 -10t-2 -30q-5 -20 -15 -30t-21 -10h-306
l-122 -379h373q11 0 15 -9.5t-2 -30.5q-5 -19 -15 -29.5t-21 -10.5zM454 539h175l124 384zM953 1058q-11 0 -24.5 13.5t-13.5 23.5q0 4 1.5 8t7.5 10l158 145q5 5 9.5 8t10.5 3q10 0 22.5 -9t21.5 -21t9 -23q0 -7 -2 -12t-13 -13l-168 -123l-10.5 -7t-8.5 -3z" />
    <glyph glyph-name="aeacute" unicode="&#x1fd;" horiz-adv-x="894" 
d="M36 134q0 46 15 99t44 103.5t72 92t99.5 66t125.5 24.5q39 0 74 -7t72.5 -21.5t83.5 -39.5q-49 -54 -82 -125.5t-33 -152.5q0 -34 11 -59.5t32.5 -39t53.5 -13.5t58 12.5t49.5 33t45.5 44.5q14 14 28.5 10.5t24.5 -14.5q12 -11 14 -23.5t-12 -27.5q-36 -43 -73 -68.5
t-73.5 -36t-72.5 -10.5q-59 0 -98.5 25t-58.5 67.5t-19 94.5q0 56 17.5 111t43.5 103t50 83l12 -64q-28 17 -65 28t-89 11q-61 0 -109.5 -30t-81.5 -77t-50 -99.5t-17 -97.5q0 -24 6.5 -40.5t19 -24.5t31.5 -8q31 0 66 25t72.5 68t76 100t75.5 122l69 -12
q-61 -111 -112.5 -185t-97 -117.5t-86 -62t-80.5 -18.5q-67 0 -99.5 42.5t-32.5 108.5zM877 401q0 -41 -24.5 -74t-65.5 -59.5t-94.5 -45t-112 -30.5t-117.5 -18l12 71q39 4 82 12t83.5 20t73.5 29t52.5 38t19.5 47t-17 37.5t-50 11.5q-44 0 -84 -10t-78 -35l-13 81
q40 20 83 31.5t105 11.5q71 0 108 -32t37 -86zM537 616q-9 0 -21.5 9.5t-12.5 20.5q0 7 2.5 13t7.5 12l123 153q9 12 16 16t15 4q10 0 22.5 -7t21.5 -18t9 -23q0 -8 -3.5 -13t-9.5 -10l-141 -142q-15 -15 -29 -15z" />
    <glyph glyph-name="Scommaaccent" unicode="&#x218;" horiz-adv-x="764" 
d="M343 -20q-52 0 -96.5 12.5t-81 34t-65.5 48t-51 54.5q-9 12 -3.5 22.5t15.5 20.5q14 11 25 14t20 -8q26 -29 61 -54.5t79.5 -42t97.5 -16.5q55 0 102.5 14t83 40.5t55 66t19.5 90.5q0 33 -10.5 60t-30 50t-48.5 43.5t-67 41.5q-35 19 -66 40t-56.5 45t-44 52.5t-29 63.5
t-10.5 78q0 58 22.5 106.5t64.5 84t100.5 55t131.5 19.5q57 0 104.5 -16.5t86.5 -43.5t70 -58q11 -10 8.5 -21.5t-16.5 -23.5q-11 -11 -22.5 -13t-22.5 6q-26 22 -55.5 41.5t-66.5 31.5t-87 12q-48 0 -89.5 -11.5t-71.5 -34t-47 -56t-17 -77.5q0 -36 8.5 -63.5t28 -50.5
t50.5 -45t75 -46q48 -25 85 -52.5t62.5 -60t38.5 -71t13 -84.5q0 -67 -26 -121t-74 -94t-112.5 -61.5t-140.5 -21.5zM211 -287q-12 8 -13 19t7 22q18 27 30.5 49t19 44.5t9.5 52.5q2 17 13.5 24t30.5 7q23 0 34 -11t9 -30q-2 -25 -15 -53t-33 -55.5t-43 -52.5
q-13 -13 -24.5 -18t-24.5 2z" />
    <glyph glyph-name="scommaaccent" unicode="&#x219;" horiz-adv-x="479" 
d="M201 -19q-44 0 -82.5 14t-67.5 36.5t-45 46.5q-6 11 -6 22t14 22q13 10 25 12t20 -11q23 -31 61 -52t81 -21q38 0 62.5 9t37 27.5t12.5 44.5q0 25 -14.5 43t-37 32t-48.5 28t-48.5 32t-37 44t-14.5 63t18 70t57.5 54.5t101.5 21.5q45 0 80 -12.5t58.5 -31.5t35.5 -38
q8 -12 9 -21t-15 -22q-13 -9 -23 -10t-20 8q-24 25 -54.5 41.5t-74.5 16.5q-47 0 -67 -19.5t-20 -48.5q0 -23 14.5 -41t37 -32.5t48.5 -29t48.5 -32.5t37 -43.5t14.5 -61.5q0 -58 -26.5 -93.5t-71.5 -51.5t-100 -16zM49 -286q-12 8 -13.5 18.5t7.5 22.5q18 27 30 48.5
t18.5 44t9.5 52.5q2 17 13.5 24t30.5 7q23 0 34 -11t9 -30q-2 -25 -15 -53t-32.5 -55t-42.5 -52q-13 -13 -25 -18t-24 2z" />
    <glyph glyph-name="Tcommaaccent" unicode="&#x21a;" horiz-adv-x="766" 
d="M298 -15q-42 0 -35 28l295 905h-294q-15 0 -18.5 9t3.5 31q8 23 17 31.5t24 8.5h673q15 0 18.5 -8.5t-4.5 -31.5q-7 -22 -16 -31t-24 -9h-292l-295 -905q-4 -14 -17 -21t-35 -7zM185 -287q-12 8 -13 19t7 22q18 27 30.5 49t19 44.5t9.5 52.5q2 17 13.5 24t30.5 7
q23 0 34 -11t9 -30q-2 -25 -15 -53t-33 -55.5t-43 -52.5q-13 -13 -24.5 -18t-24.5 2z" />
    <glyph glyph-name="tcommaaccent" unicode="&#x21b;" horiz-adv-x="388" 
d="M158 -15q-44 0 -67 20.5t-25 59t15 91.5l86 264h-77q-11 0 -15 10t1 30q6 20 16 30t21 10h80l65 198q6 20 15.5 26t29.5 6q31 0 39.5 -9.5t1.5 -29.5l-63 -191h126q11 0 15.5 -9.5t-1.5 -30.5q-5 -19 -15 -29.5t-21 -10.5h-130l-97 -294q-11 -34 -6 -50t24 -16
q24 0 50 18.5t51 50.5q8 9 17.5 11t24.5 -8q15 -9 17 -18.5t-3 -18.5q-11 -20 -35.5 -46t-59 -45t-80.5 -19zM29 -286q-12 8 -13.5 18.5t7.5 22.5q18 27 30 48.5t18.5 44t9.5 52.5q2 17 13.5 24t30.5 7q23 0 34 -11t9 -30q-2 -25 -15 -53t-32.5 -55t-42.5 -52
q-13 -13 -25 -18t-24 2z" />
    <glyph glyph-name="jdotless.mod" unicode="&#x237;" horiz-adv-x="280" 
d="M-173 -519q-29 0 -56.5 16.5t-47.5 46.5q-10 15 -11 27t18 25q15 11 27.5 11t21.5 -12q18 -22 30 -30.5t25 -8.5q20 0 31 20.5t28 72.5l272 834q7 20 16.5 26t28.5 6q31 0 39.5 -9.5t1.5 -29.5l-277 -848q-20 -64 -42.5 -95.5t-48 -41.5t-56.5 -10z" />
    <glyph glyph-name="circumflex" unicode="&#x2c6;" horiz-adv-x="645" 
d="M311 610q-13 0 -22.5 11t-9.5 23q0 9 4 15t8 10l158 149q14 13 28 17.5t30 4.5q13 0 24.5 -6.5t17.5 -19.5l82 -153q4 -7 5 -12t1 -10q0 -12 -14.5 -20.5t-24.5 -8.5t-15.5 5t-10.5 11l-86 113l-147 -114q-6 -4 -13 -9.5t-15 -5.5z" />
    <glyph glyph-name="caron" unicode="&#x2c7;" horiz-adv-x="645" 
d="M641 848q12 0 21.5 -11t9.5 -23q0 -10 -3.5 -15.5t-7.5 -9.5l-159 -149q-14 -13 -27.5 -17.5t-30.5 -4.5q-13 0 -24 6.5t-18 19.5l-81 152q-4 8 -5.5 13.5t-1.5 9.5q0 12 15 20.5t24 8.5q11 0 16.5 -5t9.5 -12l87 -112l146 114q7 5 13.5 10t15.5 5z" />
    <glyph glyph-name="breve" unicode="&#x2d8;" horiz-adv-x="645" 
d="M454 618q-76 0 -111 52.5t-18 149.5q2 15 11.5 21.5t25.5 6.5t25.5 -8t8.5 -20q-4 -55 16 -84.5t57 -29.5q44 0 79 33.5t54 76.5q8 18 16.5 24t23.5 6q19 0 28.5 -9t4.5 -24q-24 -72 -54.5 -114.5t-71 -61.5t-95.5 -19z" />
    <glyph glyph-name="dotaccent" unicode="&#x2d9;" horiz-adv-x="645" 
d="M468 669q-20 0 -34.5 13t-14.5 38q0 27 18.5 51t54.5 24q20 0 34.5 -12.5t14.5 -38.5q0 -27 -17.5 -51t-55.5 -24z" />
    <glyph glyph-name="ring" unicode="&#x2da;" horiz-adv-x="645" 
d="M458 601q-55 0 -85 29.5t-30 84.5q0 41 20.5 73.5t55.5 52t77 19.5q58 0 89 -28.5t31 -83.5q0 -41 -20.5 -74.5t-56.5 -53t-81 -19.5zM463 661q22 0 40 12t29 31.5t11 41.5q0 28 -12.5 41t-38.5 13q-20 0 -37.5 -12t-28 -31t-10.5 -41q0 -27 12 -41t35 -14z" />
    <glyph glyph-name="ogonek" unicode="&#x2db;" horiz-adv-x="645" 
d="M175 -257q-30 0 -47 16t-17 44q0 26 14.5 52t40.5 52.5t62 53.5t79 58l62 -1v-6q-35 -27 -65.5 -52.5t-52.5 -48t-34.5 -41t-12.5 -32.5q0 -9 5 -14t14 -5q18 0 36 12.5t43 34.5q6 6 16.5 7.5t21.5 -9.5q7 -8 9.5 -17.5t-4.5 -18.5q-17 -24 -46.5 -43.5t-61.5 -30.5
t-62 -11z" />
    <glyph glyph-name="tilde" unicode="&#x2dc;" horiz-adv-x="645" 
d="M313 640q-31 0 -30 28q5 66 31 99.5t71 33.5q30 0 56 -11t48.5 -25.5t41.5 -25.5t36 -11q10 0 18.5 11.5t12.5 36.5q6 27 43 27q16 0 22.5 -6.5t4.5 -20.5q-4 -66 -28.5 -100.5t-72.5 -34.5q-31 0 -57 11t-47.5 25.5t-40.5 25.5t-37 11q-13 0 -21 -12.5t-12 -36.5
q-2 -12 -12 -18.5t-27 -6.5z" />
    <glyph glyph-name="hungarumlaut" unicode="&#x2dd;" horiz-adv-x="645" 
d="M338 616q-9 0 -21.5 9.5t-12.5 20.5q0 7 3 13t7 12l105 153q9 13 16 16.5t16 3.5q10 0 22 -7t21 -18t9 -23q0 -8 -3.5 -12.5t-8.5 -10.5l-124 -142q-7 -9 -15 -12t-14 -3zM511 616q-10 0 -22 9.5t-12 20.5q0 7 2 13t8 12l119 153q9 12 16 16t15 4q10 0 22 -7t21 -18
t9 -23q0 -8 -3.5 -13t-8.5 -10l-138 -142q-8 -8 -15.5 -11.5t-12.5 -3.5z" />
    <glyph glyph-name="gravecomb" unicode="&#x300;" 
d="M150 623q-7 0 -14.5 5t-15.5 18l-81 145l-5.5 11t-2.5 11q0 11 9 20.5t22.5 15.5t26.5 6q23 0 35 -32l57 -153q2 -4 3 -8.5t1 -8.5q0 -15 -11.5 -22.5t-23.5 -7.5z" />
    <glyph glyph-name="acutecomb" unicode="&#x301;" 
d="M90 616q-9 0 -21.5 9.5t-12.5 20.5q0 7 2.5 13t7.5 12l123 153q9 12 16 16t15 4q10 0 22.5 -7t21.5 -18t9 -23q0 -8 -3.5 -13t-9.5 -10l-141 -142q-15 -15 -29 -15z" />
    <glyph glyph-name="circumflexcomb" unicode="&#x302;" 
d="M-12 610q-13 0 -22.5 11t-9.5 23q0 9 4 15t8 10l158 149q14 13 28 17.5t30 4.5q13 0 24.5 -6.5t17.5 -19.5l82 -153q4 -7 5 -12t1 -10q0 -12 -14.5 -20.5t-24.5 -8.5t-15.5 5t-10.5 11l-86 113l-147 -114q-6 -4 -13 -9.5t-15 -5.5z" />
    <glyph glyph-name="tildecomb" unicode="&#x303;" 
d="M-10 640q-31 0 -30 28q5 66 31 99.5t71 33.5q30 0 56 -11t48.5 -25.5t41.5 -25.5t36 -11q10 0 18.5 11.5t12.5 36.5q6 27 43 27q16 0 22.5 -6.5t4.5 -20.5q-4 -66 -28.5 -100.5t-72.5 -34.5q-31 0 -57 11t-47.5 25.5t-40.5 25.5t-37 11q-13 0 -21 -12.5t-12 -36.5
q-2 -12 -12 -18.5t-27 -6.5z" />
    <glyph glyph-name="macroncomb" unicode="&#x304;" 
d="M18 686q-20 0 -24 12t0 30q5 21 14 32t27 11h258q20 0 24 -12t-1 -31q-5 -21 -14 -31.5t-27 -10.5h-257z" />
    <glyph glyph-name="brevecomb" unicode="&#x306;" 
d="M131 618q-76 0 -111 52.5t-18 149.5q2 15 11.5 21.5t25.5 6.5t25.5 -8t8.5 -20q-4 -55 16 -84.5t57 -29.5q44 0 79 33.5t54 76.5q8 18 16.5 24t23.5 6q19 0 28.5 -9t4.5 -24q-24 -72 -54.5 -114.5t-71 -61.5t-95.5 -19z" />
    <glyph glyph-name="dotaccentcomb" unicode="&#x307;" 
d="M145 669q-20 0 -34.5 13t-14.5 38q0 27 18.5 51t54.5 24q20 0 34.5 -12.5t14.5 -38.5q0 -27 -17.5 -51t-55.5 -24z" />
    <glyph glyph-name="dieresiscomb" unicode="&#x308;" 
d="M25 669q-20 0 -34 13t-14 38q0 27 17.5 51t54.5 24q21 0 35 -12.5t14 -38.5q0 -27 -17.5 -51t-55.5 -24zM264 669q-21 0 -35 13t-14 38q0 27 17.5 51t54.5 24q21 0 35 -12.5t14 -38.5q0 -27 -17 -51t-55 -24z" />
    <glyph glyph-name="hookabovecomb" unicode="&#x309;" 
d="M159 860q46 0 72 -20t26 -56q0 -28 -15 -51t-45 -43q-18 -12 -25 -20.5t-8 -19.5l-3 -19q-1 -13 -12 -19t-24.5 -5.5t-24 6.5t-10.5 18l-2 28q-1 24 8 41t30 31q17 13 25.5 22.5t8.5 17.5q0 9 -6 13t-18 4q-11 0 -25 -4t-31 -11q-12 -5 -22 0t-17 20q-10 28 16 43
q24 12 49 18t53 6z" />
    <glyph glyph-name="ringcomb" unicode="&#x30a;" 
d="M135 601q-55 0 -85 29.5t-30 84.5q0 41 20.5 73.5t55.5 52t77 19.5q58 0 89 -28.5t31 -83.5q0 -41 -20.5 -74.5t-56.5 -53t-81 -19.5zM140 661q22 0 40 12t29 31.5t11 41.5q0 28 -12.5 41t-38.5 13q-20 0 -37.5 -12t-28 -31t-10.5 -41q0 -27 12 -41t35 -14z" />
    <glyph glyph-name="hungarumlautcomb" unicode="&#x30b;" 
d="M15 616q-9 0 -21.5 9.5t-12.5 20.5q0 7 3 13t7 12l105 153q9 13 16 16.5t16 3.5q10 0 22 -7t21 -18t9 -23q0 -8 -3.5 -12.5t-8.5 -10.5l-124 -142q-7 -9 -15 -12t-14 -3zM188 616q-10 0 -22 9.5t-12 20.5q0 7 2 13t8 12l119 153q9 12 16 16t15 4q10 0 22 -7t21 -18t9 -23
q0 -8 -3.5 -13t-8.5 -10l-138 -142q-8 -8 -15.5 -11.5t-12.5 -3.5z" />
    <glyph glyph-name="caroncomb" unicode="&#x30c;" 
d="M318 848q12 0 21.5 -11t9.5 -23q0 -10 -3.5 -15.5t-7.5 -9.5l-159 -149q-14 -13 -27.5 -17.5t-30.5 -4.5q-13 0 -24 6.5t-18 19.5l-81 152q-4 8 -5.5 13.5t-1.5 9.5q0 12 15 20.5t24 8.5q11 0 16.5 -5t9.5 -12l87 -112l146 114q7 5 13.5 10t15.5 5z" />
    <glyph glyph-name="commaturnedabovecomb" unicode="&#x312;" 
d="M224 851q12 -7 13 -18t-7 -23q-18 -26 -30 -48.5t-19.5 -46.5t-10.5 -54q-1 -16 -13 -23.5t-31 -7.5q-22 0 -33 11t-9 30q4 39 30.5 83t60.5 81q14 14 25.5 19t23.5 -3z" />
    <glyph glyph-name="horncomb" unicode="&#x31b;" 
d="M316 688q7 -50 0.5 -92t-33.5 -72.5t-79.5 -48t-136.5 -18.5l18 58q53 2 85 11.5t48 29t20 50t0 73.5q-1 14 10 22t26 10t28 -3.5t14 -19.5z" />
    <glyph glyph-name="dotbelowcomb" unicode="&#x323;" 
d="M-149 -232q-20 0 -34 13t-14 38q0 27 17.5 51t54.5 24q21 0 35 -13t14 -38q0 -28 -17.5 -51.5t-55.5 -23.5z" />
    <glyph glyph-name="commaaccentcomb" unicode="&#x326;" 
d="M-196 -286q-12 8 -13.5 18.5t7.5 22.5q18 27 30 48.5t18.5 44t9.5 52.5q2 17 13.5 24t30.5 7q23 0 34 -11t9 -30q-2 -25 -15 -53t-32.5 -55t-42.5 -52q-13 -13 -25 -18t-24 2z" />
    <glyph glyph-name="cedillacomb" unicode="&#x327;" 
d="M-136 -269q-37 0 -66.5 7.5t-46.5 20.5q-8 8 -7 20.5t6 21.5q7 13 15.5 17.5t18.5 0.5q13 -6 32 -12.5t50 -6.5q25 0 39 7.5t14 27.5q0 22 -19.5 27.5t-46.5 2.5q-11 -1 -15.5 2t-8.5 9q-4 7 -2.5 13.5t6.5 13.5l73 110h69l-80 -118l-29 16q44 14 75 8.5t47.5 -25.5
t16.5 -49q0 -37 -19.5 -62.5t-51.5 -38.5t-70 -13z" />
    <glyph glyph-name="ogonekcomb" unicode="&#x328;" 
d="M-148 -257q-30 0 -47 16t-17 44q0 26 14.5 52t40.5 52.5t62 53.5t79 58l62 -1v-6q-35 -27 -65.5 -52.5t-52.5 -48t-34.5 -41t-12.5 -32.5q0 -9 5 -14t14 -5q18 0 36 12.5t43 34.5q6 6 16.5 7.5t21.5 -9.5q7 -8 9.5 -17.5t-4.5 -18.5q-17 -24 -46.5 -43.5t-61.5 -30.5
t-62 -11z" />
    <glyph glyph-name="strokeshortcomb" unicode="&#x335;" 
d="M-131 306q-18 0 -20 11t1 24q3 14 10 26t26 12h299q19 0 21 -12t-1 -26q-3 -13 -10 -24t-25 -11h-301z" />
    <glyph glyph-name="strokelongcomb" unicode="&#x336;" 
d="M-402 306q-18 0 -20 11t1 24q3 14 10 26t26 12h846q19 0 21 -12t-1 -26q-2 -13 -9.5 -24t-25.5 -11h-848z" />
    <glyph glyph-name="slashshortcomb" unicode="&#x337;" 
d="M-94 261q-16 -5 -25.5 1t-14.5 26q-4 13 -0.5 24t17.5 17l285 104q14 5 22 0.5t15 -22.5q6 -15 4 -26t-14 -16z" />
    <glyph glyph-name="slashlongcomb" unicode="&#x338;" 
d="M-210 -25q-8 -9 -21.5 -7.5t-24.5 11.5q-11 8 -13.5 19.5t8.5 24.5l469 525q8 8 20 8t25 -11q10 -10 13.5 -21.5t-5.5 -20.5z" />
    <glyph glyph-name="Wgrave" unicode="&#x1e80;" horiz-adv-x="1323" 
d="M313 -14q-19 0 -30.5 10t-12.5 42l-14 932q-1 21 11 33t37 12q23 0 30 -8t7 -28l10 -843l486 839q16 27 28 33.5t38 6.5q23 0 30.5 -8t7.5 -28l9 -845l492 841q16 26 28 33t37 7q26 0 33.5 -15.5t-6.5 -36.5l-553 -937q-14 -22 -29 -31t-40 -9q-19 0 -30.5 10.5
t-12.5 41.5l-11 806l-477 -818q-13 -22 -28.5 -31t-39.5 -9zM970 1058q-4 0 -9 3t-10 7l-143 124q-10 8 -12.5 13t-2.5 12q0 11 9.5 23t22.5 20.5t22 8.5q7 0 11.5 -3t9.5 -8l132 -146q6 -7 7 -10.5t1 -6.5q0 -10 -13.5 -23.5t-24.5 -13.5z" />
    <glyph glyph-name="wgrave" unicode="&#x1e81;" horiz-adv-x="803" 
d="M146 -15q-21 0 -29 8.5t-9 29.5l-12 453q0 14 8 26.5t36 12.5q22 0 31.5 -8.5t9.5 -31.5l3 -354l240 363q12 18 25 24.5t32 6.5q17 0 29.5 -10t13.5 -36l11 -346l231 365q11 17 22.5 22t25.5 5q28 0 38 -14t-2 -33l-297 -457q-7 -11 -22 -18.5t-37 -7.5t-30.5 8.5
t-8.5 29.5l-11 355l-243 -367q-7 -10 -20 -18t-35 -8zM544 623q-7 0 -14.5 5t-15.5 18l-81 145l-5.5 11t-2.5 11q0 11 9 20.5t22.5 15.5t26.5 6q23 0 35 -32l57 -153q2 -4 3 -8.5t1 -8.5q0 -15 -11.5 -22.5t-23.5 -7.5z" />
    <glyph glyph-name="Wacute" unicode="&#x1e82;" horiz-adv-x="1323" 
d="M313 -14q-19 0 -30.5 10t-12.5 42l-14 932q-1 21 11 33t37 12q23 0 30 -8t7 -28l10 -843l486 839q16 27 28 33.5t38 6.5q23 0 30.5 -8t7.5 -28l9 -845l492 841q16 26 28 33t37 7q26 0 33.5 -15.5t-6.5 -36.5l-553 -937q-14 -22 -29 -31t-40 -9q-19 0 -30.5 10.5
t-12.5 41.5l-11 806l-477 -818q-13 -22 -28.5 -31t-39.5 -9zM868 1058q-11 0 -24.5 13.5t-13.5 23.5q0 4 1.5 8t7.5 10l158 145q5 5 9.5 8t10.5 3q10 0 22.5 -9t21.5 -21t9 -23q0 -7 -2 -12t-13 -13l-168 -123l-10.5 -7t-8.5 -3z" />
    <glyph glyph-name="wacute" unicode="&#x1e83;" horiz-adv-x="803" 
d="M146 -15q-21 0 -29 8.5t-9 29.5l-12 453q0 14 8 26.5t36 12.5q22 0 31.5 -8.5t9.5 -31.5l3 -354l240 363q12 18 25 24.5t32 6.5q17 0 29.5 -10t13.5 -36l11 -346l231 365q11 17 22.5 22t25.5 5q28 0 38 -14t-2 -33l-297 -457q-7 -11 -22 -18.5t-37 -7.5t-30.5 8.5
t-8.5 29.5l-11 355l-243 -367q-7 -10 -20 -18t-35 -8zM484 616q-9 0 -21.5 9.5t-12.5 20.5q0 7 2.5 13t7.5 12l123 153q9 12 16 16t15 4q10 0 22.5 -7t21.5 -18t9 -23q0 -8 -3.5 -13t-9.5 -10l-141 -142q-15 -15 -29 -15z" />
    <glyph glyph-name="Wdieresis" unicode="&#x1e84;" horiz-adv-x="1323" 
d="M313 -14q-19 0 -30.5 10t-12.5 42l-14 932q-1 21 11 33t37 12q23 0 30 -8t7 -28l10 -843l486 839q16 27 28 33.5t38 6.5q23 0 30.5 -8t7.5 -28l9 -845l492 841q16 26 28 33t37 7q26 0 33.5 -15.5t-6.5 -36.5l-553 -937q-14 -22 -29 -31t-40 -9q-19 0 -30.5 10.5
t-12.5 41.5l-11 806l-477 -818q-13 -22 -28.5 -31t-39.5 -9zM804 1092q-21 0 -35 13t-14 39q0 27 18.5 50.5t54.5 23.5q20 0 34 -12.5t14 -38.5q0 -27 -17 -51t-55 -24zM1050 1092q-20 0 -34.5 13t-14.5 39q0 27 18.5 50.5t54.5 23.5q20 0 34.5 -12.5t14.5 -38.5
q0 -27 -17.5 -51t-55.5 -24z" />
    <glyph glyph-name="wdieresis" unicode="&#x1e85;" horiz-adv-x="803" 
d="M146 -15q-21 0 -29 8.5t-9 29.5l-12 453q0 14 8 26.5t36 12.5q22 0 31.5 -8.5t9.5 -31.5l3 -354l240 363q12 18 25 24.5t32 6.5q17 0 29.5 -10t13.5 -36l11 -346l231 365q11 17 22.5 22t25.5 5q28 0 38 -14t-2 -33l-297 -457q-7 -11 -22 -18.5t-37 -7.5t-30.5 8.5
t-8.5 29.5l-11 355l-243 -367q-7 -10 -20 -18t-35 -8zM419 669q-20 0 -34 13t-14 38q0 27 17.5 51t54.5 24q21 0 35 -12.5t14 -38.5q0 -27 -17.5 -51t-55.5 -24zM658 669q-21 0 -35 13t-14 38q0 27 17.5 51t54.5 24q21 0 35 -12.5t14 -38.5q0 -27 -17 -51t-55 -24z" />
    <glyph glyph-name="Germandbls" unicode="&#x1e9e;" horiz-adv-x="975" 
d="M524 -19q-39 0 -76 6t-70.5 17.5t-63.5 28.5q-16 9 -20.5 20t5.5 31q8 19 19 24t29 -3q29 -13 56.5 -21.5t59 -13t68.5 -4.5q53 0 99 15t80.5 44t54 70.5t18.5 93.5q0 38 -9 70.5t-25.5 61t-36 54t-40.5 49.5t-40.5 48t-35 49t-25 53t-9.5 60q1 44 16.5 80t43.5 64t64 47
q-86 -17 -145 -49.5t-98 -78.5t-65.5 -102.5t-47.5 -120.5l-181 -560q-4 -14 -17 -21t-35 -7t-31 7t-5 21l181 559q26 82 59.5 151t81 123t115.5 91.5t164 57t228 19.5h27q15 0 18 -9t-5 -32q-6 -23 -15.5 -32t-24.5 -9q-48 0 -91 -12.5t-76.5 -35.5t-52 -56.5t-18.5 -76.5
q1 -28 11 -53t25.5 -48.5t36 -46.5t41 -48t40.5 -52.5t36 -59.5t25 -70t9 -83q0 -68 -26.5 -125t-74 -98.5t-112 -64t-139.5 -22.5z" />
    <glyph glyph-name="Adotbelow" unicode="&#x1ea0;" horiz-adv-x="833" 
d="M-15 -14q-26 0 -34 15.5t7 37.5l620 936q14 23 29 31.5t39 8.5q19 0 30.5 -9.5t12.5 -41.5l44 -933q2 -20 -9.5 -32.5t-37.5 -12.5q-22 0 -29 8.5t-9 28.5l-12 262h-416l-170 -259q-18 -26 -28.5 -33t-36.5 -7zM275 365h358l-24 509zM267 -232q-20 0 -34 13t-14 38
q0 27 17.5 51t54.5 24q21 0 35 -13t14 -38q0 -28 -17.5 -51.5t-55.5 -23.5z" />
    <glyph glyph-name="adotbelow" unicode="&#x1ea1;" horiz-adv-x="623" 
d="M159 -17q-37 0 -64.5 18.5t-42.5 53t-15 80.5t13.5 98t41 102.5t67 92t91.5 66.5t117 25q30 0 62 -8.5t61 -23.5l1 4q6 16 15.5 20t27.5 4q31 0 39.5 -9.5t1.5 -29.5l-123 -369q-5 -16 -6 -26.5t3 -15.5t13 -5q11 0 22 7t22.5 19t23.5 27q8 10 16.5 12t21.5 -7
q16 -10 18.5 -20t-2.5 -21q-9 -15 -28.5 -37.5t-47.5 -38.5t-63 -16t-53 14t-23.5 35.5t-2.5 46.5t9 48q1 2 1.5 4.5t1.5 5.5q-40 -54 -78.5 -89t-74 -51t-66.5 -16zM128 150q0 -27 7 -46.5t20.5 -30t31.5 -10.5q34 0 76 32.5t87 95t92 151.5l25 76q-31 13 -58 17.5t-51 4.5
q-45 0 -82 -19.5t-64.5 -52t-46 -71.5t-28 -77.5t-9.5 -69.5zM162 -232q-20 0 -34 13t-14 38q0 27 17.5 51t54.5 24q21 0 35 -13t14 -38q0 -28 -17.5 -51.5t-55.5 -23.5z" />
    <glyph glyph-name="Ahookabove" unicode="&#x1ea2;" horiz-adv-x="833" 
d="M-15 -14q-26 0 -34 15.5t7 37.5l620 936q14 23 29 31.5t39 8.5q19 0 30.5 -9.5t12.5 -41.5l44 -933q2 -20 -9.5 -32.5t-37.5 -12.5q-22 0 -29 8.5t-9 28.5l-12 262h-416l-170 -259q-18 -26 -28.5 -33t-36.5 -7zM275 365h358l-24 509zM687 1296q46 0 72 -20.5t26 -55.5
q0 -29 -15 -52t-45 -42q-18 -11 -25 -19.5t-9 -19.5l-2 -14q-1 -12 -11.5 -18.5t-23.5 -6.5t-23.5 6.5t-12.5 18.5l-2 23q-3 24 7 40.5t31 30.5q17 11 25.5 21.5t8.5 18.5t-6.5 12t-18.5 4q-11 0 -24.5 -4t-30.5 -10q-25 -12 -39 20q-11 28 16 42q24 12 48.5 18.5t53.5 6.5z
" />
    <glyph glyph-name="ahookabove" unicode="&#x1ea3;" horiz-adv-x="623" 
d="M159 -17q-37 0 -64.5 18.5t-42.5 53t-15 80.5t13.5 98t41 102.5t67 92t91.5 66.5t117 25q30 0 62 -8.5t61 -23.5l1 4q6 16 15.5 20t27.5 4q31 0 39.5 -9.5t1.5 -29.5l-123 -369q-5 -16 -6 -26.5t3 -15.5t13 -5q11 0 22 7t22.5 19t23.5 27q8 10 16.5 12t21.5 -7
q16 -10 18.5 -20t-2.5 -21q-9 -15 -28.5 -37.5t-47.5 -38.5t-63 -16t-53 14t-23.5 35.5t-2.5 46.5t9 48q1 2 1.5 4.5t1.5 5.5q-40 -54 -78.5 -89t-74 -51t-66.5 -16zM128 150q0 -27 7 -46.5t20.5 -30t31.5 -10.5q34 0 76 32.5t87 95t92 151.5l25 76q-31 13 -58 17.5t-51 4.5
q-45 0 -82 -19.5t-64.5 -52t-46 -71.5t-28 -77.5t-9.5 -69.5zM450 860q46 0 72 -20t26 -56q0 -28 -15 -51t-45 -43q-18 -12 -25 -20.5t-8 -19.5l-3 -19q-1 -13 -12 -19t-24.5 -5.5t-24 6.5t-10.5 18l-2 28q-1 24 8 41t30 31q17 13 25.5 22.5t8.5 17.5q0 9 -6 13t-18 4
q-11 0 -25 -4t-31 -11q-12 -5 -22 0t-17 20q-10 28 16 43q24 12 49 18t53 6z" />
    <glyph glyph-name="Acircumflexacute" unicode="&#x1ea4;" horiz-adv-x="833" 
d="M-15 -14q-26 0 -34 15.5t7 37.5l620 936q14 23 29 31.5t39 8.5q19 0 30.5 -9.5t12.5 -41.5l44 -933q2 -20 -9.5 -32.5t-37.5 -12.5q-22 0 -29 8.5t-9 28.5l-12 262h-416l-170 -259q-18 -26 -28.5 -33t-36.5 -7zM275 365h358l-24 509zM498 1058q-12 0 -20 12t-8 23
q0 10 3.5 15t7.5 9l162 126q15 13 28.5 18t29.5 5q13 0 23.5 -6.5t18.5 -19.5l93 -130q5 -7 5.5 -12.5t0.5 -10.5q0 -12 -13 -20.5t-22 -8.5q-10 0 -17 5t-15 12l-93 90l-153 -96q-7 -4 -14.5 -7.5t-16.5 -3.5zM841 1213q-11 0 -24.5 14t-13.5 23q0 4 1.5 8t8.5 11l130 127
q5 6 9.5 9t10.5 3q10 0 23 -9t22 -21.5t9 -23.5q0 -7 -2.5 -12t-13.5 -12l-141 -107q-6 -5 -10.5 -7.5t-8.5 -2.5z" />
    <glyph glyph-name="acircumflexacute" unicode="&#x1ea5;" horiz-adv-x="623" 
d="M159 -17q-37 0 -64.5 18.5t-42.5 53t-15 80.5t13.5 98t41 102.5t67 92t91.5 66.5t117 25q30 0 62 -8.5t61 -23.5l1 4q6 16 15.5 20t27.5 4q31 0 39.5 -9.5t1.5 -29.5l-123 -369q-5 -16 -6 -26.5t3 -15.5t13 -5q11 0 22 7t22.5 19t23.5 27q8 10 16.5 12t21.5 -7
q16 -10 18.5 -20t-2.5 -21q-9 -15 -28.5 -37.5t-47.5 -38.5t-63 -16t-53 14t-23.5 35.5t-2.5 46.5t9 48q1 2 1.5 4.5t1.5 5.5q-40 -54 -78.5 -89t-74 -51t-66.5 -16zM128 150q0 -27 7 -46.5t20.5 -30t31.5 -10.5q34 0 76 32.5t87 95t92 151.5l25 76q-31 13 -58 17.5t-51 4.5
q-45 0 -82 -19.5t-64.5 -52t-46 -71.5t-28 -77.5t-9.5 -69.5zM277 610q-13 0 -22.5 11t-9.5 23q0 9 4 15t8 10l158 149q14 13 28 17.5t30 4.5q13 0 24.5 -6.5t17.5 -19.5l82 -153q4 -7 5 -12t1 -10q0 -12 -14.5 -20.5t-24.5 -8.5t-15.5 5t-10.5 11l-86 113l-147 -114
q-6 -4 -13 -9.5t-15 -5.5zM602 766q-9 0 -21.5 9.5t-12.5 20.5q0 7 2.5 13t7.5 12l123 153q9 12 16 16t15 4q10 0 22.5 -7t21.5 -18t9 -23q0 -8 -3.5 -13t-9.5 -10l-141 -142q-15 -15 -29 -15z" />
    <glyph glyph-name="Acircumflexgrave" unicode="&#x1ea6;" horiz-adv-x="833" 
d="M-15 -14q-26 0 -34 15.5t7 37.5l620 936q14 23 29 31.5t39 8.5q19 0 30.5 -9.5t12.5 -41.5l44 -933q2 -20 -9.5 -32.5t-37.5 -12.5q-22 0 -29 8.5t-9 28.5l-12 262h-416l-170 -259q-18 -26 -28.5 -33t-36.5 -7zM275 365h358l-24 509zM498 1058q-12 0 -20 12t-8 23
q0 10 3.5 15t7.5 9l162 126q15 13 28.5 18t29.5 5q13 0 23.5 -6.5t18.5 -19.5l93 -130q5 -7 5.5 -12.5t0.5 -10.5q0 -12 -13 -20.5t-22 -8.5q-10 0 -17 5t-15 12l-93 90l-153 -96q-7 -4 -14.5 -7.5t-16.5 -3.5zM898 1197q-4 0 -8.5 2t-9.5 7l-124 137q-8 9 -11.5 14t-3.5 12
q0 11 9.5 23t23.5 19.5t25 7.5q6 0 11.5 -3t9.5 -8l110 -155q5 -8 6.5 -12t1.5 -8q0 -11 -13 -23.5t-27 -12.5z" />
    </font>
</defs>
</svg>
